<?xml version="1.0" encoding="utf-8"?>
<!-- Generator: Adobe Illustrator 24.2.3, SVG Export Plug-In . SVG Version: 6.00 Build 0)  -->
<svg version="1.1" id="Layer_1" xmlns="http://www.w3.org/2000/svg" xmlns:xlink="http://www.w3.org/1999/xlink" x="0px" y="0px"
	 viewBox="0 0 600 600" style="enable-background:new 0 0 600 600;" xml:space="preserve">
<style type="text/css">
	.st0{clip-path:url(#SVGID_2_);}
	.st1{fill:#1E223B;}
	.st2{fill:#FFC691;}
	.st3{opacity:0.2;}
	.st4{fill:#0F111E;}
	.st5{fill:#787A89;}
	.st6{fill:#4B4E62;}
	.st7{opacity:0.1;}
</style>
<g>
	<defs>
		<circle id="SVGID_1_" cx="300" cy="300" r="300"/>
	</defs>
	<use xlink:href="#SVGID_1_"  style="overflow:visible;fill:#9B1823;"/>
	<clipPath id="SVGID_2_">
		<use xlink:href="#SVGID_1_"  style="overflow:visible;"/>
	</clipPath>
	<g class="st0">
		<path class="st1" d="M264.8,376.3c-65.8-3.8-135.3,22.6-135.3,22.6l-22.6,41.3L137,554.9l0,0c6.1,4.9,10,11.9,11,19.6
			c3.7,29.6,12.3,106.2,7.8,149.5c-5.6,54.5-50.7,141,45.1,141s82.7,0,82.7,0h33.8c0,0-13.2,0,82.7,0s50.7-86.5,45.1-141
			c-4.5-43.3,4.1-120,7.8-149.5c1-7.7,4.9-14.8,11-19.6v0l30.1-114.6l-22.6-41.3c0,0-69.5-26.3-135.3-22.6H264.8z"/>
		<path class="st1" d="M136,554.8c-19.3,12.9-8.4,102.2-8.4,102.2c-7.5-2.6-15.3-4.5-23.2-5.6C69,646.6,46,660.6,46,660.6
			c-2.1-10-2.5-20.3-1.4-30.5c0.1-1,0.2-2,0.3-3c2.1-19.8,7.3-45.4,9.1-95.4c2.9-80.1,75.5-132.7,75.5-132.7
			C170.6,446.7,155.2,541.9,136,554.8L136,554.8z"/>
		<path class="st2" d="M41.7,656.5c-1.6-6.3,5.4-20.5,15.2-21c6.1-0.2,12.1,1.9,16.7,5.9c4.2-16.2,18.9-13.3,27.4-10.3
			c8.5,3,2.8,16.3-0.4,24.2c-3.2,7.9,1.3,25.2-6.1,30.4c-7.4,5.2-23.1-0.9-23.1-0.9c0.3,2.6,0.4,5.2,0.1,7.7
			c-0.3,3.9-9.9,3.8-18.3,2.6c-4.8-0.5-8.8-4-9.8-8.8c-1.4-9.3-2.1-18.8-1.8-28.2L41.7,656.5z"/>
		<path class="st2" d="M105.5,636.9c0,0,10.4-10.1,23.7-5.4c13.3,4.7,0,25.1,0,31.9s1.1,28.3-7.7,29.2s-22.9,2-23.7-2.5
			c-0.5-3.2-0.4-6.5,0.2-9.7l-3.2-26.2L105.5,636.9z"/>
		<path class="st1" d="M464,554.8c-19.2-12.9-33.7-108.1,7.5-155.9c0,0,71.6,52.6,74.5,132.7c1.9,50,7.1,75.6,9.1,95.4
			c0.1,1,0.2,2,0.3,3c1.1,10.2,0.7,20.5-1.4,30.5c0,0-23-14-58.4-9.1c-7.9,1.1-15.6,2.9-23.2,5.6C472.4,657,483.3,567.7,464,554.8
			L464,554.8z"/>
		<path class="st2" d="M558.5,658.1c0.2,9.4-0.4,18.9-1.8,28.2c-1,4.8-5,8.3-9.8,8.8c-8.4,1.2-18,1.2-18.3-2.6
			c-0.3-2.6-0.2-5.2,0.1-7.7c0,0-15.7,6.1-23.1,0.9c-7.4-5.2-3-22.6-6.1-30.4s-8.9-21.2-0.4-24.2c8.5-3,23.2-5.9,27.4,10.3
			c4.7-4,10.6-6,16.7-5.9c9.9,0.5,16.8,14.7,15.2,21L558.5,658.1z"/>
		<path class="st2" d="M505.3,654.3l-3.2,26.2c0.6,3.2,0.6,6.5,0.2,9.7c-0.8,4.5-14.9,3.5-23.7,2.5c-8.8-1-7.7-22.4-7.7-29.2
			s-13.3-27.3,0-31.9c13.3-4.7,23.7,5.4,23.7,5.4L505.3,654.3z"/>
		<path class="st3" d="M431.6,409.5c-9.2,4.8-69.8,40.4-128.9,42h-0.5c-59.1-1.6-119.7-37.2-128.9-42c-4.8-2.5-5.5-6.1-4.5-9.6
			c0.6,1.7,2,3.3,4.5,4.7c9.2,4.8,69.8,40.4,128.9,42h0.5c59.1-1.6,119.7-37.2,128.9-42c2.5-1.3,3.9-3,4.5-4.7
			C437.1,403.5,436.4,407,431.6,409.5z"/>
		<path class="st1" d="M360.4,328.9c0,0,56.3,17.5,67.5,36.3c11.3,18.8-0.7,16.5,3.2,21.4c3.9,4.8,9.6,13.3,0.5,18.1
			c-9.2,4.8-69.8,40.4-128.9,42h-0.5c-59.1-1.6-119.7-37.2-128.9-42c-9.2-4.8-3.4-13.3,0.5-18.1c3.9-4.8-8-2.5,3.2-21.4
			c11.3-18.8,67.5-36.3,67.5-36.3H360.4z"/>
		<path class="st4" d="M359.3,342c0,0,57.9,15.6,60.6,30.3c2.8,14.7-81.7,56.2-108.4,54.2h-19.3c-26.6,2-111.1-39.5-108.4-54.2
			s60.6-30.3,60.6-30.3H359.3z"/>
		<path class="st4" d="M273.6,432c0,2.3-3.3,4.2-7.7,4.7c-0.7,0.1-1.5,0.1-2.4,0.1c-0.8,0-1.6,0-2.4-0.1c-4.4-0.5-7.7-2.4-7.7-4.7
			s3.3-4.2,7.7-4.7c0.8-0.1,1.6-0.1,2.4-0.1c0.8,0,1.6,0,2.4,0.1C270.3,427.8,273.6,429.7,273.6,432z"/>
		<path class="st5" d="M265.9,427.3v132.8h-4.8V427.3c0.8-0.1,1.6-0.1,2.4-0.1C264.4,427.1,265.1,427.2,265.9,427.3z"/>
		<rect x="261.1" y="557.1" class="st6" width="4.8" height="16.1"/>
		<path class="st4" d="M350.9,432c0,2.3-3.3,4.2-7.7,4.7c-0.7,0.1-1.5,0.1-2.4,0.1c-0.8,0-1.6,0-2.4-0.1c-4.4-0.5-7.7-2.4-7.7-4.7
			s3.3-4.2,7.7-4.7c0.8-0.1,1.6-0.1,2.4-0.1c0.8,0,1.6,0,2.4,0.1C347.7,427.8,350.9,429.7,350.9,432z"/>
		<path class="st5" d="M343.2,427.3v132.8h-4.8V427.3c0.8-0.1,1.6-0.1,2.4-0.1C341.7,427.1,342.5,427.2,343.2,427.3z"/>
		<rect x="338.4" y="557.1" class="st6" width="4.8" height="16.1"/>
		<path class="st2" d="M361.6,390.1c-9.5,12.7-31.4,27.5-45.7,36.4c-1.5,0.1-2.9,0.1-4.2,0h-19.3c-1.1,0.1-2.2,0.1-3.5,0
			c-14.3-8.9-36.2-23.7-45.8-36.4c-10.2-13.6-8.7-34.1-6.8-45.7c0.9-5.3,1.8-8.6,1.8-8.6h128.4c0,0,1,3.5,1.9,8.9
			C370.4,356.2,371.8,376.6,361.6,390.1z"/>
		<path class="st7" d="M369.4,351.6c-13.4,15-33.2,23.8-66.7,23.9h-0.2c-33.7,0-53.5-9-67-24.1c0.4-4.2,1.1-7.9,1.6-10.6
			c13.4,14.1,33,22.4,65.4,22.4h0.2c32.2,0,51.7-8.2,65.2-22.2C368.3,343.7,369,347.4,369.4,351.6z"/>
		<g>
			<path class="st2" d="M409.7,236.8c-2.9,1.5-6.4,2.8-10.3,3.7l0,0.1c0.5,9.9,0.5,19.9,0,29.9c-0.1,1.3-0.1,2.6-0.2,3.8
				c-2.7,8.1-5.2,15.9-7.8,23.2c-4.2,4.8-10.8,10.5-21,17.6c-32.7,22.7-66,24.2-66,24.2c-22,0-68.3-16.4-83.6-28.1
				c-1.5-1.2-2.9-2.7-4.3-4.7c-5.1-12.9-9.5-27.5-14.8-43.2c0,0,0,0,0,0c-2.4-11.8-3.6-21-3.6-21c-0.8-0.2-1.5-0.4-2.2-0.6
				c-19.1-5.5-25-17.8-23.9-39.2c1.2-22.3,16.1-22.5,16.1-22.5l8.3-33l19.3-61L296,62.3l85.8,21.9l19.3,61l6.2,24.7l2.1,8.3
				c0,0,0.8,0,1.9,0.3c4.1,0.9,13.3,5,14.2,22.2C426.4,218.8,422.4,230.3,409.7,236.8z"/>
			<path d="M223.2,168.9c0,0,27.1-9.4,68.8-5.8c-8.2-6.2-17.9-10.1-28.2-11.2C246.9,150.1,229.6,148.6,223.2,168.9L223.2,168.9z"/>
			<path d="M381.9,168.9c-6.4-20.2-23.7-18.8-40.6-17.1c-10.2,1.1-20,5-28.2,11.2C354.8,159.5,381.9,168.9,381.9,168.9L381.9,168.9z
				"/>
			<path d="M302.4,83.7c71.7,0,79.2,9.6,79.2,9.6v35.3c25.6,26.7,23,99.3,23,99.3s52.1-146.1-56.7-189.9
				c-31.2-12.6-66.3-12.6-97.5,0c-108.8,43.8-56.7,189.9-56.7,189.9s-2.6-72.5,23-99.3V93.3c0,0,7.5-9.6,79.2-9.6H302.4z"/>
			<path d="M411.3,178.5c-1.7-13.7-4.2-22-4.2-22s0.2,5.2,0.1,13.4c-0.3,22.9-3.1,69.1-20.5,87.3c-23.6,24.6-34.3,25.7-34.3,25.7
				l1.4-14.3c0.5-5.1-2.4-9.9-7.1-11.9c-41.3-17.7-75-6.9-89.3-0.3c-4.5,2.1-7.2,6.8-6.8,11.7l1.4,14.7c0,0-10.7-1.1-34.3-25.7
				s-20.3-100.7-20.3-100.7s-11.4,37.7-1.6,85.2c1.4,7,3.4,14.2,5.8,21.6c0,0,0,0,0,0c5.3,15.7,9.7,30.3,14.8,43.2
				c13.6,34.1,32.2,56.6,85.6,56.7h0.2c58-0.1,75-26.6,89-65.7c2.6-7.3,5.2-15.1,7.8-23.2c1.2-3.6,2.4-7.3,3.7-11
				c3.1-9.1,5.3-17.9,6.8-26.5C413.8,213.6,413,193,411.3,178.5z M259.6,272.4c0-6.6,4.6-12.2,11.1-13.5c6.4-1.2,16.3-2.3,31.8-2.3
				s25.4,1,31.8,2.3c6.4,1.3,11.1,6.9,11.1,13.5v26.4c0,4.8-2.8,9.1-7.2,11.1c-6.9,3.1-18.7,6.8-35.7,6.8c-17,0-28.8-3.7-35.7-6.8
				c-4.4-1.9-7.2-6.3-7.2-11.1V272.4z"/>
			<path d="M309.2,301.1h-13.7c-5.7,0-10.3-4.6-10.3-10.3v-2.5h34.3v2.5C319.5,296.5,314.9,301.1,309.2,301.1z"/>
		</g>
	</g>
</g>
</svg>
