<?xml version="1.0" encoding="utf-8"?>
<!-- Generator: Adobe Illustrator 20.1.0, SVG Export Plug-In . SVG Version: 6.00 Build 0)  -->
<svg version="1.1" id="Layer_1" xmlns="http://www.w3.org/2000/svg" xmlns:xlink="http://www.w3.org/1999/xlink" x="0px" y="0px"
	 viewBox="0 0 4930 3215" style="enable-background:new 0 0 4930 3215;" xml:space="preserve">
<style type="text/css">
	.st0{fill:#FF3B3F;}
	.st1{fill:#35363B;}
	.st2{fill:#474747;}
	.st3{fill:#363636;}
	.st4{fill:#303030;}
	.st5{fill:#757678;}
	.st6{fill:#4C4D52;}
	.st7{fill:#0F1015;}
	.st8{fill:#14171C;}
	.st9{fill:#020202;}
	.st10{fill:none;stroke:#231F20;stroke-width:0.8474;stroke-miterlimit:10;}
	.st11{fill:#050505;}
	.st12{fill:#111113;}
	.st13{fill:#A2A3A5;}
	.st14{clip-path:url(#SVGID_4_);}
	.st15{fill:#D0202E;}
	.st16{fill:#FFC60A;}
	.st17{fill:#F8FAFB;}
	.st18{fill:#C83C47;}
	.st19{fill:#FFFFFF;stroke:#000000;stroke-width:0.8691;stroke-miterlimit:10;}
	.st20{fill:#262626;}
	.st21{fill:#082265;}
	.st22{fill:#93131A;}
	.st23{fill:#AE222E;}
	.st24{fill:#D1D2D3;}
	.st25{fill:#5B5D61;}
	.st26{fill:#FFFFFF;}
	.st27{fill:#5F6266;}
	.st28{clip-path:url(#SVGID_10_);}
	.st29{clip-path:url(#SVGID_16_);}
	.st30{clip-path:url(#SVGID_16_);fill:#F1F2F2;}
	.st31{fill:#EBECEE;}
	.st32{fill:#B1ABAD;}
	.st33{fill:#ECEDEF;}
	.st34{fill:#FFFFFF;stroke:#000000;stroke-width:0.884;stroke-miterlimit:10;}
	.st35{fill:#C2B6B8;}
	.st36{fill:#C6C6C4;}
	.st37{fill:#DFE0E4;stroke:#DFE0E4;stroke-width:0.884;stroke-miterlimit:10;}
	.st38{fill:none;stroke:#8E96A1;stroke-width:0.884;stroke-linecap:round;stroke-miterlimit:10;}
	.st39{fill:#161A1D;}
	.st40{fill:#272B2A;}
	.st41{clip-path:url(#SVGID_20_);}
	.st42{clip-path:url(#SVGID_24_);}
	.st43{fill:#E05551;}
	.st44{fill:#CF0A2C;}
	.st45{fill:#EE8379;}
	.st46{fill:#9B1C25;}
	.st47{fill:#A6A8AB;}
	.st48{clip-path:url(#SVGID_26_);fill:#9B1C25;}
	.st49{fill:#404041;}
	.st50{font-family:'Lato-Bold';}
	.st51{font-size:27.8295px;}
	.st52{font-family:'Lato-Heavy';}
	.st53{font-size:71.5615px;}
	.st54{letter-spacing:2;}
	.st55{letter-spacing:-3;}
	.st56{fill:#CF202E;}
	.st57{fill:#FDC30E;}
	.st58{fill:#58595B;}
	.st59{fill:#F1F2F2;}
	.st60{fill:#AF4951;}
	.st61{clip-path:url(#SVGID_28_);}
	.st62{fill:#FDCF3E;}
	.st63{fill:#EADED9;}
	.st64{fill:#BCBEC0;}
	.st65{fill:#242730;}
	.st66{fill:#231F20;}
	.st67{fill:#E6E7E8;}
	.st68{fill:#A7A9AC;}
	.st69{fill:#414042;}
</style>
<rect class="st0" width="4930" height="3214.7"/>
<g>
	
		<image style="overflow:visible;opacity:0.4;" width="2299" height="2074" xlink:href="FC6C393CBFB1FA51.png"  transform="matrix(1 0 0 1 1348 161)">
	</image>
	<g>
		<g>
			<g>
				<defs>
					<polygon id="SVGID_1_" points="3314.3,869.1 1625.4,869.1 1476.9,321.8 3463.7,321.8 					"/>
				</defs>
				<clipPath id="SVGID_2_">
					<use xlink:href="#SVGID_1_"  style="overflow:visible;"/>
				</clipPath>
			</g>
		</g>
		<g>
			<path class="st1" d="M3354.9,987.1v1117.1c0,33.5-27.1,60.6-60.6,60.6H1641.7c-33.5,0-60.6-27.1-60.6-60.6V987.1
				c0-33.5,27.1-60.6,60.6-60.6h133.7v21h1385.2v-21h133.7C3327.8,926.5,3354.9,953.6,3354.9,987.1z"/>
			<rect x="1879.1" y="931.6" class="st2" width="255.2" height="15.9"/>
			<rect x="2134.3" y="931.6" class="st3" width="205.9" height="15.9"/>
			<rect x="2340.2" y="931.6" class="st4" width="253.6" height="15.9"/>
			<rect x="2593.8" y="931.6" class="st3" width="207.9" height="15.9"/>
			<rect x="2801.7" y="931.6" class="st2" width="255.2" height="15.9"/>
			<path class="st5" d="M2603.3,2152.1h-266.7c-7,0-12.7,5.7-12.7,12.7l0,0h292l0,0C2616,2157.8,2610.3,2152.1,2603.3,2152.1z"/>
			<path class="st6" d="M2845.8,2134.9h-755.7c-9.4,0-17-7.6-17-17v-457.6c0-9.4,7.6-17,17-17h755.7c9.4,0,17,7.6,17,17v457.6
				C2862.9,2127.3,2855.3,2134.9,2845.8,2134.9z"/>
			<path class="st6" d="M3257.8,1628.4H1678.9c-10.9,0-19.7-8.8-19.7-19.7v-585.6c0-10.9,8.8-19.7,19.7-19.7h1578.9
				c10.9,0,19.7,8.8,19.7,19.7v585.6C3277.5,1619.6,3268.7,1628.4,3257.8,1628.4z"/>
			<path class="st7" d="M3258.3,1079.1H1677.1c-5,0-9-4-9-9v-47.4c0-5,4-9,9-9h1581.1c5,0,9,4,9,9v47.4
				C3267.3,1075.1,3263.2,1079.1,3258.3,1079.1z"/>
			<path class="st8" d="M1760,1186.9h-81.3c-5.9,0-10.6-4.8-10.6-10.6v-77.1c0-5.9,4.8-10.6,10.6-10.6h81.3
				c5.9,0,10.6,4.8,10.6,10.6v77.1C1770.6,1182.2,1765.9,1186.9,1760,1186.9z"/>
			<path class="st8" d="M1871.7,1186.9h-81.3c-5.9,0-10.6-4.8-10.6-10.6v-77.1c0-5.9,4.8-10.6,10.6-10.6h81.3
				c5.9,0,10.6,4.8,10.6,10.6v77.1C1882.3,1182.2,1877.6,1186.9,1871.7,1186.9z"/>
			<path class="st8" d="M1926.6,1294.8h-81.3c-5.9,0-10.6-4.8-10.6-10.6v-77.1c0-5.9,4.8-10.6,10.6-10.6h81.3
				c5.9,0,10.6,4.8,10.6,10.6v77.1C1937.3,1290,1932.5,1294.8,1926.6,1294.8z"/>
			<path class="st8" d="M1954.3,1402.1H1873c-5.9,0-10.6-4.8-10.6-10.6v-77.1c0-5.9,4.8-10.6,10.6-10.6h81.3
				c5.9,0,10.6,4.8,10.6,10.6v77.1C1965,1397.4,1960.2,1402.1,1954.3,1402.1z"/>
			<path class="st8" d="M2009.3,1510.8H1928c-5.9,0-10.6-4.8-10.6-10.6v-77.1c0-5.9,4.8-10.6,10.6-10.6h81.3
				c5.9,0,10.6,4.8,10.6,10.6v77.1C2019.9,1506,2015.1,1510.8,2009.3,1510.8z"/>
			<path class="st8" d="M1760,1618.1h-81.3c-5.9,0-10.6-4.8-10.6-10.6v-77.1c0-5.9,4.8-10.6,10.6-10.6h81.3
				c5.9,0,10.6,4.8,10.6,10.6v77.1C1770.6,1613.3,1765.9,1618.1,1760,1618.1z"/>
			<path class="st8" d="M1871,1618.1h-81.3c-5.9,0-10.6-4.8-10.6-10.6v-77.1c0-5.9,4.8-10.6,10.6-10.6h81.3
				c5.9,0,10.6,4.8,10.6,10.6v77.1C1881.6,1613.3,1876.9,1618.1,1871,1618.1z"/>
			<path class="st8" d="M1982.1,1618.1h-81.3c-5.9,0-10.6-4.8-10.6-10.6v-77.1c0-5.9,4.8-10.6,10.6-10.6h81.3
				c5.9,0,10.6,4.8,10.6,10.6v77.1C1992.8,1613.3,1988,1618.1,1982.1,1618.1z"/>
			<path class="st8" d="M2118.8,1618.1h-105.4c-6.6,0-11.9-5.3-11.9-11.9v-74.4c0-6.6,5.3-11.9,11.9-11.9h105.4
				c6.6,0,11.9,5.3,11.9,11.9v74.4C2130.8,1612.8,2125.4,1618.1,2118.8,1618.1z"/>
			<path class="st8" d="M2842,1519.8h81.3c5.9,0,10.6,4.8,10.6,10.6v77.1c0,5.9-4.8,10.6-10.6,10.6H2842c-5.9,0-10.6-4.8-10.6-10.6
				v-77.1C2831.4,1524.6,2836.1,1519.8,2842,1519.8z"/>
			<path class="st8" d="M2954,1519.8h81.3c5.9,0,10.6,4.8,10.6,10.6v77.1c0,5.9-4.8,10.6-10.6,10.6H2954c-5.9,0-10.6-4.8-10.6-10.6
				v-77.1C2943.4,1524.6,2948.1,1519.8,2954,1519.8z"/>
			<path class="st8" d="M3065.3,1519.8h81.3c5.9,0,10.6,4.8,10.6,10.6v77.1c0,5.9-4.8,10.6-10.6,10.6h-81.3
				c-5.9,0-10.6-4.8-10.6-10.6v-77.1C3054.7,1524.6,3059.4,1519.8,3065.3,1519.8z"/>
			<path class="st8" d="M3176.6,1519.8h81.3c5.9,0,10.6,4.8,10.6,10.6v77.1c0,5.9-4.8,10.6-10.6,10.6h-81.3
				c-5.9,0-10.6-4.8-10.6-10.6v-77.1C3166,1524.6,3170.7,1519.8,3176.6,1519.8z"/>
			<path class="st8" d="M2705.3,1519.8h105.4c6.6,0,11.9,5.3,11.9,11.9v74.4c0,6.6-5.3,11.9-11.9,11.9h-105.4
				c-6.6,0-11.9-5.3-11.9-11.9v-74.4C2693.4,1525.1,2698.7,1519.8,2705.3,1519.8z"/>
			<path class="st8" d="M2673.6,1618.1h-523.1c-6.3,0-11.4-5.1-11.4-11.4v-75.4c0-6.3,5.1-11.4,11.4-11.4h523.1
				c6.3,0,11.4,5.1,11.4,11.4v75.4C2685.1,1613,2679.9,1618.1,2673.6,1618.1z"/>
			<path class="st8" d="M2037.5,1294.8h-81.3c-5.9,0-10.6-4.8-10.6-10.6v-77.1c0-5.9,4.8-10.6,10.6-10.6h81.3
				c5.9,0,10.6,4.8,10.6,10.6v77.1C2048.1,1290,2043.4,1294.8,2037.5,1294.8z"/>
			<path class="st8" d="M2065.2,1402.1h-81.3c-5.9,0-10.6-4.8-10.6-10.6v-77.1c0-5.9,4.8-10.6,10.6-10.6h81.3
				c5.9,0,10.6,4.8,10.6,10.6v77.1C2075.8,1397.4,2071.1,1402.1,2065.2,1402.1z"/>
			<path class="st8" d="M2120.1,1510.8h-81.3c-5.9,0-10.6-4.8-10.6-10.6v-77.1c0-5.9,4.8-10.6,10.6-10.6h81.3
				c5.9,0,10.6,4.8,10.6,10.6v77.1C2130.8,1506,2126,1510.8,2120.1,1510.8z"/>
			<path class="st8" d="M2148.4,1294.8h-81.3c-5.9,0-10.6-4.8-10.6-10.6v-77.1c0-5.9,4.8-10.6,10.6-10.6h81.3
				c5.9,0,10.6,4.8,10.6,10.6v77.1C2159,1290,2154.2,1294.8,2148.4,1294.8z"/>
			<path class="st8" d="M2176.1,1402.1h-81.3c-5.9,0-10.6-4.8-10.6-10.6v-77.1c0-5.9,4.8-10.6,10.6-10.6h81.3
				c5.9,0,10.6,4.8,10.6,10.6v77.1C2186.7,1397.4,2181.9,1402.1,2176.1,1402.1z"/>
			<path class="st8" d="M2231,1510.8h-81.3c-5.9,0-10.6-4.8-10.6-10.6v-77.1c0-5.9,4.8-10.6,10.6-10.6h81.3
				c5.9,0,10.6,4.8,10.6,10.6v77.1C2241.6,1506,2236.9,1510.8,2231,1510.8z"/>
			<path class="st8" d="M2259.2,1294.8h-81.3c-5.9,0-10.6-4.8-10.6-10.6v-77.1c0-5.9,4.8-10.6,10.6-10.6h81.3
				c5.9,0,10.6,4.8,10.6,10.6v77.1C2269.8,1290,2265.1,1294.8,2259.2,1294.8z"/>
			<path class="st8" d="M2286.9,1402.1h-81.3c-5.9,0-10.6-4.8-10.6-10.6v-77.1c0-5.9,4.8-10.6,10.6-10.6h81.3
				c5.9,0,10.6,4.8,10.6,10.6v77.1C2297.5,1397.4,2292.8,1402.1,2286.9,1402.1z"/>
			<path class="st8" d="M2341.9,1510.8h-81.3c-5.9,0-10.6-4.8-10.6-10.6v-77.1c0-5.9,4.8-10.6,10.6-10.6h81.3
				c5.9,0,10.6,4.8,10.6,10.6v77.1C2352.5,1506,2347.7,1510.8,2341.9,1510.8z"/>
			<path class="st8" d="M2370.1,1294.8h-81.3c-5.9,0-10.6-4.8-10.6-10.6v-77.1c0-5.9,4.8-10.6,10.6-10.6h81.3
				c5.9,0,10.6,4.8,10.6,10.6v77.1C2380.7,1290,2376,1294.8,2370.1,1294.8z"/>
			<path class="st8" d="M2397.8,1402.1h-81.3c-5.9,0-10.6-4.8-10.6-10.6v-77.1c0-5.9,4.8-10.6,10.6-10.6h81.3
				c5.9,0,10.6,4.8,10.6,10.6v77.1C2408.4,1397.4,2403.6,1402.1,2397.8,1402.1z"/>
			<path class="st8" d="M2452.7,1510.8h-81.3c-5.9,0-10.6-4.8-10.6-10.6v-77.1c0-5.9,4.8-10.6,10.6-10.6h81.3
				c5.9,0,10.6,4.8,10.6,10.6v77.1C2463.3,1506,2458.6,1510.8,2452.7,1510.8z"/>
			<path class="st8" d="M2480.9,1294.8h-81.3c-5.9,0-10.6-4.8-10.6-10.6v-77.1c0-5.9,4.8-10.6,10.6-10.6h81.3
				c5.9,0,10.6,4.8,10.6,10.6v77.1C2491.6,1290,2486.8,1294.8,2480.9,1294.8z"/>
			<path class="st8" d="M2508.6,1402.1h-81.3c-5.9,0-10.6-4.8-10.6-10.6v-77.1c0-5.9,4.8-10.6,10.6-10.6h81.3
				c5.9,0,10.6,4.8,10.6,10.6v77.1C2519.3,1397.4,2514.5,1402.1,2508.6,1402.1z"/>
			<path class="st8" d="M2563.6,1510.8h-81.3c-5.9,0-10.6-4.8-10.6-10.6v-77.1c0-5.9,4.8-10.6,10.6-10.6h81.3
				c5.9,0,10.6,4.8,10.6,10.6v77.1C2574.2,1506,2569.4,1510.8,2563.6,1510.8z"/>
			<path class="st8" d="M2591.8,1294.8h-81.3c-5.9,0-10.6-4.8-10.6-10.6v-77.1c0-5.9,4.8-10.6,10.6-10.6h81.3
				c5.9,0,10.6,4.8,10.6,10.6v77.1C2602.4,1290,2597.7,1294.8,2591.8,1294.8z"/>
			<path class="st8" d="M2619.5,1402.1h-81.3c-5.9,0-10.6-4.8-10.6-10.6v-77.1c0-5.9,4.8-10.6,10.6-10.6h81.3
				c5.9,0,10.6,4.8,10.6,10.6v77.1C2630.1,1397.4,2625.4,1402.1,2619.5,1402.1z"/>
			<path class="st8" d="M2674.4,1510.8h-81.3c-5.9,0-10.6-4.8-10.6-10.6v-77.1c0-5.9,4.8-10.6,10.6-10.6h81.3
				c5.9,0,10.6,4.8,10.6,10.6v77.1C2685.1,1506,2680.3,1510.8,2674.4,1510.8z"/>
			<path class="st8" d="M2702.7,1294.8h-81.3c-5.9,0-10.6-4.8-10.6-10.6v-77.1c0-5.9,4.8-10.6,10.6-10.6h81.3
				c5.9,0,10.6,4.8,10.6,10.6v77.1C2713.3,1290,2708.5,1294.8,2702.7,1294.8z"/>
			<path class="st8" d="M2730.4,1402.1h-81.3c-5.9,0-10.6-4.8-10.6-10.6v-77.1c0-5.9,4.8-10.6,10.6-10.6h81.3
				c5.9,0,10.6,4.8,10.6,10.6v77.1C2741,1397.4,2736.2,1402.1,2730.4,1402.1z"/>
			<path class="st8" d="M2785.3,1510.8H2704c-5.9,0-10.6-4.8-10.6-10.6v-77.1c0-5.9,4.8-10.6,10.6-10.6h81.3
				c5.9,0,10.6,4.8,10.6,10.6v77.1C2795.9,1506,2791.2,1510.8,2785.3,1510.8z"/>
			<path class="st8" d="M2813.5,1294.8h-81.3c-5.9,0-10.6-4.8-10.6-10.6v-77.1c0-5.9,4.8-10.6,10.6-10.6h81.3
				c5.9,0,10.6,4.8,10.6,10.6v77.1C2824.1,1290,2819.4,1294.8,2813.5,1294.8z"/>
			<path class="st8" d="M2841.2,1402.1h-81.3c-5.9,0-10.6-4.8-10.6-10.6v-77.1c0-5.9,4.8-10.6,10.6-10.6h81.3
				c5.9,0,10.6,4.8,10.6,10.6v77.1C2851.8,1397.4,2847.1,1402.1,2841.2,1402.1z"/>
			<path class="st8" d="M2896.2,1510.8h-81.3c-5.9,0-10.6-4.8-10.6-10.6v-77.1c0-5.9,4.8-10.6,10.6-10.6h81.3
				c5.9,0,10.6,4.8,10.6,10.6v77.1C2906.8,1506,2902,1510.8,2896.2,1510.8z"/>
			<path class="st8" d="M2924.4,1294.8h-81.3c-5.9,0-10.6-4.8-10.6-10.6v-77.1c0-5.9,4.8-10.6,10.6-10.6h81.3
				c5.9,0,10.6,4.8,10.6,10.6v77.1C2935,1290,2930.3,1294.8,2924.4,1294.8z"/>
			<path class="st8" d="M2952.1,1402.1h-81.3c-5.9,0-10.6-4.8-10.6-10.6v-77.1c0-5.9,4.8-10.6,10.6-10.6h81.3
				c5.9,0,10.6,4.8,10.6,10.6v77.1C2962.7,1397.4,2957.9,1402.1,2952.1,1402.1z"/>
			<path class="st8" d="M3007,1510.8h-81.3c-5.9,0-10.6-4.8-10.6-10.6v-77.1c0-5.9,4.8-10.6,10.6-10.6h81.3
				c5.9,0,10.6,4.8,10.6,10.6v77.1C3017.6,1506,3012.9,1510.8,3007,1510.8z"/>
			<path class="st8" d="M3035.2,1294.8H2954c-5.9,0-10.6-4.8-10.6-10.6v-77.1c0-5.9,4.8-10.6,10.6-10.6h81.3
				c5.9,0,10.6,4.8,10.6,10.6v77.1C3045.9,1290,3041.1,1294.8,3035.2,1294.8z"/>
			<path class="st8" d="M3062.9,1402.1h-81.3c-5.9,0-10.6-4.8-10.6-10.6v-77.1c0-5.9,4.8-10.6,10.6-10.6h81.3
				c5.9,0,10.6,4.8,10.6,10.6v77.1C3073.6,1397.4,3068.8,1402.1,3062.9,1402.1z"/>
			<path class="st8" d="M3257.8,1510.8h-222.3c-5.2,0-9.5-4.3-9.5-9.5V1422c0-5.2,4.3-9.5,9.5-9.5h222.3c5.2,0,9.5,4.3,9.5,9.5v79.3
				C3267.3,1506.5,3263,1510.8,3257.8,1510.8z"/>
			<path class="st8" d="M3146.1,1294.8h-81.3c-5.9,0-10.6-4.8-10.6-10.6v-77.1c0-5.9,4.8-10.6,10.6-10.6h81.3
				c5.9,0,10.6,4.8,10.6,10.6v77.1C3156.7,1290,3152,1294.8,3146.1,1294.8z"/>
			<path class="st8" d="M3257,1402.1h-164.8c-5.7,0-10.3-4.6-10.3-10.3v-77.7c0-5.7,4.6-10.3,10.3-10.3H3257
				c5.7,0,10.3,4.6,10.3,10.3v77.7C3267.3,1397.5,3262.7,1402.1,3257,1402.1z"/>
			<path class="st8" d="M1900.6,1510.8h-222.3c-5.2,0-9.5-4.3-9.5-9.5V1422c0-5.2,4.3-9.5,9.5-9.5h222.3c5.2,0,9.5,4.3,9.5,9.5v79.3
				C1910.1,1506.5,1905.8,1510.8,1900.6,1510.8z"/>
			<path class="st8" d="M1843.8,1402.1H1679c-5.7,0-10.3-4.6-10.3-10.3v-77.7c0-5.7,4.6-10.3,10.3-10.3h164.8
				c5.7,0,10.3,4.6,10.3,10.3v77.7C1854.1,1397.5,1849.5,1402.1,1843.8,1402.1z"/>
			<path class="st8" d="M1817.3,1294.8h-139c-5.3,0-9.5-4.3-9.5-9.5V1206c0-5.3,4.3-9.5,9.5-9.5h139c5.3,0,9.5,4.3,9.5,9.5v79.3
				C1826.8,1290.5,1822.5,1294.8,1817.3,1294.8z"/>
			<path class="st8" d="M3257,1294.8h-81.3c-5.9,0-10.6-4.8-10.6-10.6v-77.1c0-5.9,4.8-10.6,10.6-10.6h81.3
				c5.9,0,10.6,4.8,10.6,10.6v77.1C3267.6,1290,3262.8,1294.8,3257,1294.8z"/>
			<path class="st8" d="M1982.1,1186.9h-81.3c-5.9,0-10.6-4.8-10.6-10.6v-77.1c0-5.9,4.8-10.6,10.6-10.6h81.3
				c5.9,0,10.6,4.8,10.6,10.6v77.1C1992.7,1182.2,1988,1186.9,1982.1,1186.9z"/>
			<path class="st8" d="M2092.5,1186.9h-81.3c-5.9,0-10.6-4.8-10.6-10.6v-77.1c0-5.9,4.8-10.6,10.6-10.6h81.3
				c5.9,0,10.6,4.8,10.6,10.6v77.1C2103.1,1182.2,2098.4,1186.9,2092.5,1186.9z"/>
			<path class="st8" d="M2203.9,1186.9h-81.3c-5.9,0-10.6-4.8-10.6-10.6v-77.1c0-5.9,4.8-10.6,10.6-10.6h81.3
				c5.9,0,10.6,4.8,10.6,10.6v77.1C2214.5,1182.2,2209.8,1186.9,2203.9,1186.9z"/>
			<path class="st8" d="M2314.3,1186.9H2233c-5.9,0-10.6-4.8-10.6-10.6v-77.1c0-5.9,4.8-10.6,10.6-10.6h81.3
				c5.9,0,10.6,4.8,10.6,10.6v77.1C2324.9,1182.2,2320.2,1186.9,2314.3,1186.9z"/>
			<path class="st8" d="M2425.2,1186.9h-81.3c-5.9,0-10.6-4.8-10.6-10.6v-77.1c0-5.9,4.8-10.6,10.6-10.6h81.3
				c5.9,0,10.6,4.8,10.6,10.6v77.1C2435.8,1182.2,2431.1,1186.9,2425.2,1186.9z"/>
			<path class="st8" d="M2536.1,1186.9h-81.3c-5.9,0-10.6-4.8-10.6-10.6v-77.1c0-5.9,4.8-10.6,10.6-10.6h81.3
				c5.9,0,10.6,4.8,10.6,10.6v77.1C2546.7,1182.2,2541.9,1186.9,2536.1,1186.9z"/>
			<path class="st8" d="M2646.9,1186.9h-81.3c-5.9,0-10.6-4.8-10.6-10.6v-77.1c0-5.9,4.8-10.6,10.6-10.6h81.3
				c5.9,0,10.6,4.8,10.6,10.6v77.1C2657.6,1182.2,2652.8,1186.9,2646.9,1186.9z"/>
			<path class="st8" d="M2757.8,1186.9h-81.3c-5.9,0-10.6-4.8-10.6-10.6v-77.1c0-5.9,4.8-10.6,10.6-10.6h81.3
				c5.9,0,10.6,4.8,10.6,10.6v77.1C2768.4,1182.2,2763.7,1186.9,2757.8,1186.9z"/>
			<path class="st8" d="M2868.7,1186.9h-81.3c-5.9,0-10.6-4.8-10.6-10.6v-77.1c0-5.9,4.8-10.6,10.6-10.6h81.3
				c5.9,0,10.6,4.8,10.6,10.6v77.1C2879.3,1182.2,2874.5,1186.9,2868.7,1186.9z"/>
			<path class="st8" d="M2979.6,1186.9h-81.3c-5.9,0-10.6-4.8-10.6-10.6v-77.1c0-5.9,4.8-10.6,10.6-10.6h81.3
				c5.9,0,10.6,4.8,10.6,10.6v77.1C2990.2,1182.2,2985.4,1186.9,2979.6,1186.9z"/>
			<path class="st8" d="M3090.4,1186.9h-81.3c-5.9,0-10.6-4.8-10.6-10.6v-77.1c0-5.9,4.8-10.6,10.6-10.6h81.3
				c5.9,0,10.6,4.8,10.6,10.6v77.1C3101,1182.2,3096.3,1186.9,3090.4,1186.9z"/>
			<path class="st8" d="M3258.7,1186.9h-139.8c-4.7,0-8.6-3.8-8.6-8.6v-81.1c0-4.7,3.8-8.6,8.6-8.6h139.8c4.7,0,8.6,3.8,8.6,8.6
				v81.1C3267.3,1183.1,3263.4,1186.9,3258.7,1186.9z"/>
			<rect x="3054.7" y="1561" class="st9" width="102.5" height="10.4"/>
			<path class="st1" d="M3522.5,327.5l-170.9,558.7l-1.3,4.4c-6.1,21.3-25.6,36-47.7,36h-6.9c22,0,41.3-14.5,47.4-35.5l1.5-4.8
				l169.5-550.9c13.1-35.4-4.9-48.2-28.2-53.1c-6.4-1.3-12.9-1.9-19.4-1.9H1470.2c-7.7,0-15.5,0.7-23,2.3
				c-21.5,4.6-38.4,15.5-28,47.3c1.9,5.9,3.9,11.8,5.7,17.7l165.3,538.4l1.5,4.8c6,21,25.4,35.5,47.4,35.5h-5.5
				c-22.2,0-41.6-14.7-47.7-36l-1.3-4.4l-167.5-548.8c-1.5-4.9-3.1-9.8-4.8-14.7c-10.9-32.6,6.2-43.7,28-48.5
				c7.6-1.7,15.4-2.4,23.2-2.4h2011.1c6.6,0,13.2,0.6,19.6,1.9C3517.5,278.6,3535.6,291.6,3522.5,327.5z"/>
			<path class="st10" d="M3513.2,317.3l-168.8,561.8l-2.3,7l-2.4,7.4c-3.1,9.5-12,15.9-22,15.9h-157.1v17.1H1775.4v-17.1h-157.1
				c-10,0-18.8-6.4-22-15.9l-2.4-7.4l-2.3-7l-168.8-561.8c-5-16.7,14.7-29.2,42.5-29.2h2005.4
				C3498.5,288.1,3518.2,300.7,3513.2,317.3z"/>
			<path class="st11" d="M3513.9,335.3l-169.5,550.9l-1.5,4.8c-6,21-25.4,35.5-47.4,35.5h-135v-17.1h157.1c10,0,18.8-6.4,22-15.9
				l2.4-7.4l2.3-7l168.8-561.8c5-16.7-14.7-29.2-42.5-29.2H1465.3c-27.8,0-47.5,12.5-42.5,29.2l168.8,561.8l2.3,7l2.4,7.4
				c3.1,9.5,12,15.9,22,15.9h157.1v17.1H1639c-22,0-41.3-14.5-47.4-35.5l-1.5-4.8l-165.3-538.4c-1.8-5.9-3.8-11.8-5.7-17.7
				c-10.5-31.8,6.5-42.7,28-47.3c7.6-1.6,15.3-2.3,23-2.3h1996.1c6.5,0,13,0.6,19.4,1.9C3509,287,3527,299.9,3513.9,335.3z"/>
			<g>
				<path d="M3470.7,288.1H1465.3c-27.8,0-47.5,12.5-42.5,29.2l168.8,561.8l2.3,7l2.4,7.4c3.1,9.5,12,15.9,22,15.9h157.1v17.1
					h1385.2v-17.1h157.1c10,0,18.8-6.4,22-15.9l2.4-7.4l2.3-7l168.8-561.8C3518.2,300.7,3498.5,288.1,3470.7,288.1z M3314.3,869.1
					H1625.4l-148.6-547.3h1986.9L3314.3,869.1z"/>
			</g>
			<path class="st12" d="M3342.1,886.1l-2.4,7.4c-3.1,9.5-12,15.9-22,15.9h-157.1v22.5H1775.4v-22.5h-157.1c-10,0-18.8-6.4-22-15.9
				l-2.4-7.4H3342.1z"/>
			<ellipse class="st10" cx="2468" cy="303.4" rx="8.3" ry="4.7"/>
			<rect x="1775.4" y="926.5" class="st13" width="103.7" height="21"/>
			<rect x="3056.9" y="926.5" class="st13" width="103.7" height="21"/>
			<g>
				<defs>
					<polygon id="SVGID_3_" points="3314.3,869.1 1625.4,869.1 1476.9,321.8 3463.7,321.8 					"/>
				</defs>
				<use xlink:href="#SVGID_3_"  style="overflow:visible;fill:#FFFFFF;"/>
				<clipPath id="SVGID_4_">
					<use xlink:href="#SVGID_3_"  style="overflow:visible;"/>
				</clipPath>
				<g class="st14">
					<g>
						<path class="st15" d="M2364,800.5l-3.5,8.8h-14l19.5-50.7h14.4l19.1,50.7h-14.1l-3.3-8.8H2364z M2373.3,774.3h-0.1l-5.4,16.1
							h11L2373.3,774.3z"/>
						<path class="st15" d="M2415.6,753.5v25.7h0.1c2.8-3.8,6.3-5.5,11-5.5c8.7,0,13,5.8,13,14.5v21.1h-12.2v-17.7
							c0-4-0.6-8.2-5.5-8.2c-4.8,0-6.4,4.2-6.4,8.2v17.7h-12.2v-55.8H2415.6z"/>
						<path class="st15" d="M2460.1,779.1h0.1c2.9-3.8,6.5-5.4,10.9-5.4c5,0,9.3,2,11.8,6.6c2.4-4.3,7-6.6,11.7-6.6
							c8.7,0,11.8,5.7,11.8,13.7v22h-12.2v-16.5c0-3.6,0.1-9.4-5-9.4c-5.6,0-5.9,5.3-5.9,9.4v16.5H2471v-16.5c0-3.8,0-9.7-5.4-9.7
							c-5.4,0-5.4,5.9-5.4,9.7v16.5h-12.2v-34.5h12.2V779.1z"/>
						<path class="st15" d="M2549.8,794.1H2524c0,5,2.6,7.7,7.7,7.7c2.6,0,4.5-0.9,5.9-3.2h11.8c-0.9,4-3.4,7-6.5,8.9
							c-3.2,2-7.1,2.9-11,2.9c-11.4,0-20-6.5-20-18.4c0-11.5,7.9-18.4,19.1-18.4c12,0,18.9,7.4,18.9,19.2V794.1z M2538.4,787.1
							c-0.6-3.3-3.6-5.4-6.9-5.4c-3.6,0-6.5,1.9-7.3,5.4H2538.4z"/>
						<path class="st15" d="M2581.3,805.5h-0.1c-2.2,3.4-6.4,5-10.4,5c-10.2,0-17.4-8.5-17.4-18.4c0-9.9,7.1-18.4,17.3-18.4
							c4,0,8.1,1.5,10.7,4.5v-24.7h12.2v55.8h-12.2V805.5z M2566,792.1c0,4.4,2.9,7.7,7.9,7.7s7.9-3.4,7.9-7.7
							c0-4.2-2.9-7.8-7.9-7.8S2566,787.9,2566,792.1z"/>
						<path class="st15" d="M2637.7,769.8v8.5h14.9v11.2h-14.9v8.7h15.7v11.2h-28.9v-50.7h28.9v11.2H2637.7z"/>
						<path class="st15" d="M2673.5,809.3h-12.2v-55.8h12.2V809.3z"/>
						<path class="st15" d="M2700.3,782.7v10.1h-19.2v-10.1H2700.3z"/>
						<path class="st15" d="M2748.1,798.2v11.2h-43.4l24-39.5h-19.9v-11.2h42l-23.9,39.5H2748.1z"/>
						<path class="st15" d="M2790.9,794.1h-25.8c0,5,2.6,7.7,7.7,7.7c2.6,0,4.5-0.9,5.9-3.2h11.8c-0.9,4-3.4,7-6.5,8.9
							c-3.2,2-7.1,2.9-11,2.9c-11.4,0-20-6.5-20-18.4c0-11.5,7.9-18.4,19.1-18.4c12,0,18.9,7.4,18.9,19.2V794.1z M2779.6,787.1
							c-0.6-3.3-3.6-5.4-6.9-5.4c-3.6,0-6.5,1.9-7.3,5.4H2779.6z"/>
						<path class="st15" d="M2809.5,761.6c0,3.8-3.1,6.9-6.9,6.9c-3.8,0-6.9-3.1-6.9-6.9c0-3.8,3.1-6.9,6.9-6.9
							C2806.4,754.7,2809.5,757.8,2809.5,761.6z M2808.7,809.3h-12.2v-34.5h12.2V809.3z"/>
						<path class="st15" d="M2829,779.3h0.1c2.8-4.2,6.3-5.6,11-5.6c9.3,0,13,5.9,13,14.3v21.3h-12.2v-16.8c0-3.3,0.5-9.1-5.5-9.1
							c-5,0-6.4,3.7-6.4,8v17.9h-12.2v-34.5h12.2V779.3z"/>
					</g>
					<path class="st16" d="M2850.6,635.6c-12.8,0-44.3,25.4-69.4,50.4c5.4-10.2,16.6-28.1,21-37.2c1.4-2.7,1.4-3.4,1.4-4
						c0-5.7-10.5-10.8-20.3-10.8c-5.7,0-11.5,1.7-14.2,6.4c-3.8,6.4-7.4,12.6-10.7,18.5c-15.6,11.6-41.4,30.2-66.4,38.7
						c4.4-16.9,19.3-44,19.3-52.4c0-6.7-11.5-9.5-17.9-9.5c-5.8,0-10.1,2.4-12.8,6.4c-3.1,4.4-6.3,11-9.2,17.4
						c-15.2,11.5-39.6,29.4-63.5,38.8c-6.4,2.4-13.9,4.4-21,4.4c-7.1,0-13.5-1.7-16.6-6.7c24.7-5.4,54.5-19.3,54.5-40.6
						c0-13.2-10.1-20.6-27.8-20.6c-24,0-54.5,19.5-61.7,43.9c-1.4,0.5-2.7,1.1-4.2,1.9c-6.8,3.4-15.2,6.7-25.4,9.9
						c-10.2,3.2-21.2,6-33.2,8.3c-12,2.3-24.5,4-37.6,5.1c-13.1,1.1-25.8,1.3-38,0.6c-9-0.9-14.2-3.1-15.7-6.5
						c-0.9-2.5-0.2-5.2,2.1-8.3c2.3-3.1,5.3-6.5,9-10.1c10.4-10.8,34.8-38.5,49.3-51.6c13.5-12.2,27.3-24.6,41.4-37.2
						c95.1-3,182.8,0.5,196.9,4.9c27.1,8.4,38.1-4.4,31.8-20.9c-6.3-16.6-36.3-19-36.3-19c-56.6-0.9-108.6,0.1-155.9,2.4
						c3.6-3.2,7.1-6.4,10.7-9.5c14.5-12.7,27.1-24.2,37.9-34.4c8.3-8,14.1-16.3,17.3-24.9c3.2-8.6,3.5-16.5,0.7-23.5
						c-2.5-6.1-7.1-11.1-13.8-14.8c-6.8-3.7-16-5.2-27.7-4.6c-30.5,0.6-58.9,2.5-85.4,5.6c-26.5,3.1-51.8,7.5-76.2,13.4
						c-8.6,2.5-15,5.7-19.3,9.7c-4.3,4.3-6.6,8.5-6.9,12.7c-0.3,4.2,0.6,7.9,2.7,11.3c1.9,3.4,4.6,5.7,8.1,7.1
						c3.5,1.4,7.1,1,10.8-1.1c3.7-2.2,7.8-4,12.5-5.6c22.7-5.2,44.8-9.2,66.2-12c21.4-2.8,44.6-4.8,69.9-6c6.1,0,10,1.4,11.5,4.2
						c1.2,1.8,1.2,4,0,6.5c-1.2,2.5-3.1,4.9-5.5,7.4c-12.3,10.8-25.4,22.3-39.2,34.6c-10.1,9-20.3,18.1-30.6,27.4
						c-79,5.8-141.3,14.9-185.1,23.3c-0.2-1.2-0.3-2.1-0.5-2.9c-4-17.5-14.1-116.2-22.9-135.5c-8.8-19.3-29.2-36.6-50-15.6
						c-20.8,21-54.5,94.4-65.3,123.3c-10.7,28.8-35.7,122.8-38.7,140.4c-3,17.6-10,0.4-10.5-7.5c-0.6-7.9-1.9-21.8-13.3-19.4
						c-11.3,2.5-27.7,9.6-19.7,34.5c8,24.8,11.8,73,27.1,76.5c15.3,3.6,26.1-1.1,30.3-38.4c4-36.5,50.7-216,98.9-270.7
						c1.4-1.6,3.9-1,4.5,1c4.3,14.3,17.4,62.3,22.4,122.2c-9.3,2.2-16.8,4.2-22.6,5.9c-46.7,13.9-69.7,31-70.2,43.7
						c-0.6,12.2,3.9,14.6,94.6-18.4l8.6,165.3c0.3,4.5,0.2,9,0.1,13.5c-0.2,6.2,1.6,17.1,16.4,15.7c20.6-1.8,27.9-12.9,25.6-30.7
						c-1.8-14-7.8-121.7-12.2-176c39.1-9.5,92.6-15.3,147.9-18.6c-6.5,5.9-12.9,11.9-19.4,18c-14.1,13.2-39.5,42-52.1,54.6
						c-8.9,8.9-15.1,17.5-18.7,25.8c-3.5,8.3-4.2,15.7-2.1,22.1c4.3,13.5,19.2,21.7,44.8,24.5c13.5,1.5,27.9,1.8,43.2,0.9
						c15.2-0.9,30.2-2.7,45-5.3c14.8-2.6,28.8-5.8,42-9.7c11.3-3.3,21.5-6.9,30.5-10.7c7,7.4,18.1,10.6,32.2,10.6
						c26.3,0,52.7-13.5,83.7-34.3c-2.7,7-4.9,14.2-4.9,19.4c0,10.1,4.7,14.9,13.2,14.9c17.7,0,45.1-13.4,77.1-34.1
						c-4.5,10.5-7,18.7-7,23.6c0,5.7,11.8,11.8,17.6,11.8c9.5,0,42-35.9,67.3-52.8c-3.4,9.1-12.5,26.1-12.5,41.3
						c0,10.2,4.7,13.2,9.5,13.2c11.2,0,25-7.8,26.7-12.8c2-6.8-2-10.8,8.8-32.8c7.8-15.6,11.2-23,11.2-32.1
						C2864.5,642.4,2857.1,635.6,2850.6,635.6z M2591.8,651.5c3.7,0,5.7,2.7,5.7,6.1c0,7.1-8.1,17.6-28.4,21.7
						C2571.5,662.3,2581.3,651.5,2591.8,651.5z"/>
				</g>
			</g>
		</g>
		<g>
			<g>
				<defs>
					<polygon id="SVGID_5_" points="3314.3,869.1 1625.4,869.1 1476.9,321.8 3463.7,321.8 					"/>
				</defs>
				<clipPath id="SVGID_6_">
					<use xlink:href="#SVGID_5_"  style="overflow:visible;"/>
				</clipPath>
			</g>
		</g>
	</g>
</g>
<g>
	
		<image style="overflow:visible;opacity:0.4;" width="539" height="897" xlink:href="FC6C393CBFB1FA53.png"  transform="matrix(1 0 0 1 1005 1337)">
	</image>
	<g>
		<g>
			<g>
				<path class="st17" d="M1118.4,2160.8c-26.3,0-47.7-21.4-47.7-47.7v-616c0-26.3,21.4-47.7,47.7-47.7h252.2
					c26.3,0,47.7,21.4,47.7,47.7v616c0,26.3-21.4,47.7-47.7,47.7H1118.4z"/>
				<path class="st18" d="M1370.6,1451.5c25.1,0,45.6,20.4,45.6,45.6v616c0,25.1-20.4,45.6-45.6,45.6h-252.2
					c-25.1,0-45.6-20.4-45.6-45.6v-616c0-25.1,20.4-45.6,45.6-45.6H1370.6 M1370.6,1447.2h-252.2c-27.6,0-49.9,22.3-49.9,49.9v616
					c0,27.6,22.3,49.9,49.9,49.9h252.2c27.6,0,49.9-22.3,49.9-49.9v-616C1420.5,1469.5,1398.2,1447.2,1370.6,1447.2L1370.6,1447.2z"
					/>
			</g>
			<rect x="1088.1" y="1525.6" class="st19" width="312.9" height="556.2"/>
			<g>
				<g>
					<path class="st15" d="M1216.1,1836.2l-1.1,2.7h-4.4l6.1-15.8h4.5l5.9,15.8h-4.4l-1-2.7H1216.1z M1219,1828L1219,1828l-1.7,5
						h3.4L1219,1828z"/>
					<path class="st15" d="M1232.2,1821.5v8h0c0.9-1.2,1.9-1.7,3.4-1.7c2.7,0,4,1.8,4,4.5v6.6h-3.8v-5.5c0-1.3-0.2-2.6-1.7-2.6
						c-1.5,0-2,1.3-2,2.6v5.5h-3.8v-17.4H1232.2z"/>
					<path class="st15" d="M1246,1829.5L1246,1829.5c0.9-1.2,2.1-1.7,3.4-1.7c1.5,0,2.9,0.6,3.7,2.1c0.7-1.3,2.2-2.1,3.6-2.1
						c2.7,0,3.7,1.8,3.7,4.3v6.8h-3.8v-5.1c0-1.1,0-2.9-1.6-2.9c-1.8,0-1.8,1.7-1.8,2.9v5.1h-3.8v-5.1c0-1.2,0-3-1.7-3
						s-1.7,1.8-1.7,3v5.1h-3.8v-10.7h3.8V1829.5z"/>
					<path class="st15" d="M1273.9,1834.2h-8c0,1.5,0.8,2.4,2.4,2.4c0.8,0,1.4-0.3,1.8-1h3.7c-0.3,1.3-1,2.2-2,2.8
						c-1,0.6-2.2,0.9-3.4,0.9c-3.6,0-6.2-2-6.2-5.7c0-3.6,2.5-5.7,5.9-5.7c3.7,0,5.9,2.3,5.9,6V1834.2z M1270.4,1832
						c-0.2-1-1.1-1.7-2.2-1.7c-1.1,0-2,0.6-2.3,1.7H1270.4z"/>
					<path class="st15" d="M1283.8,1837.7L1283.8,1837.7c-0.7,1.1-2,1.5-3.3,1.5c-3.2,0-5.4-2.7-5.4-5.7s2.2-5.7,5.4-5.7
						c1.2,0,2.5,0.5,3.3,1.4v-7.7h3.8v17.4h-3.8V1837.7z M1279,1833.5c0,1.4,0.9,2.4,2.4,2.4c1.5,0,2.4-1,2.4-2.4
						c0-1.3-0.9-2.4-2.4-2.4C1279.9,1831.1,1279,1832.2,1279,1833.5z"/>
					<path class="st15" d="M1301.3,1826.6v2.6h4.6v3.5h-4.6v2.7h4.9v3.5h-9v-15.8h9v3.5H1301.3z"/>
					<path class="st15" d="M1312.5,1838.9h-3.8v-17.4h3.8V1838.9z"/>
					<path class="st15" d="M1320.8,1830.6v3.1h-6v-3.1H1320.8z"/>
					<path class="st15" d="M1335.7,1835.4v3.5h-13.5l7.5-12.3h-6.2v-3.5h13.1l-7.4,12.3H1335.7z"/>
					<path class="st15" d="M1349,1834.2h-8c0,1.5,0.8,2.4,2.4,2.4c0.8,0,1.4-0.3,1.8-1h3.7c-0.3,1.3-1,2.2-2,2.8
						c-1,0.6-2.2,0.9-3.4,0.9c-3.6,0-6.2-2-6.2-5.7c0-3.6,2.5-5.7,5.9-5.7c3.7,0,5.9,2.3,5.9,6V1834.2z M1345.5,1832
						c-0.2-1-1.1-1.7-2.2-1.7c-1.1,0-2,0.6-2.3,1.7H1345.5z"/>
					<path class="st15" d="M1354.8,1824c0,1.2-1,2.1-2.1,2.1c-1.2,0-2.1-1-2.1-2.1c0-1.2,1-2.1,2.1-2.1
						C1353.8,1821.9,1354.8,1822.9,1354.8,1824z M1354.6,1838.9h-3.8v-10.7h3.8V1838.9z"/>
					<path class="st15" d="M1360.9,1829.5L1360.9,1829.5c0.9-1.3,2-1.7,3.5-1.7c2.9,0,4,1.8,4,4.5v6.6h-3.8v-5.2
						c0-1,0.2-2.8-1.7-2.8c-1.5,0-2,1.2-2,2.5v5.6h-3.8v-10.7h3.8V1829.5z"/>
				</g>
				<path class="st16" d="M1367.6,1784.8c-4,0-13.8,7.9-21.6,15.7c1.7-3.2,5.2-8.7,6.5-11.6c0.4-0.8,0.4-1,0.4-1.3
					c0-1.8-3.3-3.4-6.3-3.4c-1.8,0-3.6,0.5-4.4,2c-1.2,2-2.3,3.9-3.3,5.8c-4.9,3.6-12.9,9.4-20.7,12c1.4-5.3,6-13.7,6-16.3
					c0-2.1-3.6-2.9-5.6-2.9c-1.8,0-3.2,0.7-4,2c-1,1.4-2,3.4-2.9,5.4c-4.7,3.6-12.3,9.2-19.8,12.1c-2,0.7-4.3,1.4-6.5,1.4
					c-2.2,0-4.2-0.5-5.2-2.1c7.7-1.7,17-6,17-12.6c0-4.1-3.2-6.4-8.6-6.4c-7.5,0-17,6.1-19.2,13.7c-0.4,0.1-0.9,0.3-1.3,0.6
					c-2.1,1-4.7,2.1-7.9,3.1c-3.2,1-6.6,1.9-10.3,2.6c-3.7,0.7-7.6,1.2-11.7,1.6c-4.1,0.3-8,0.4-11.8,0.2c-2.8-0.3-4.4-1-4.9-2
					c-0.3-0.8-0.1-1.6,0.7-2.6c0.7-1,1.7-2,2.8-3.2c3.2-3.3,10.8-12,15.3-16.1c4.2-3.8,8.5-7.7,12.9-11.6
					c29.6-0.9,56.9,0.2,61.3,1.5c8.4,2.6,11.9-1.4,9.9-6.5c-2-5.2-11.3-5.9-11.3-5.9c-17.6-0.3-33.8,0-48.5,0.8c1.1-1,2.2-2,3.3-3
					c4.5-4,8.4-7.5,11.8-10.7c2.6-2.5,4.4-5.1,5.4-7.8c1-2.7,1.1-5.1,0.2-7.3c-0.8-1.9-2.2-3.4-4.3-4.6c-2.1-1.1-5-1.6-8.6-1.4
					c-9.5,0.2-18.3,0.8-26.6,1.7c-8.2,1-16.1,2.3-23.7,4.2c-2.7,0.8-4.7,1.8-6,3c-1.3,1.3-2.1,2.7-2.2,3.9c-0.1,1.3,0.2,2.5,0.9,3.5
					c0.6,1,1.4,1.8,2.5,2.2c1.1,0.4,2.2,0.3,3.4-0.3c1.1-0.7,2.4-1.2,3.9-1.7c7.1-1.6,13.9-2.9,20.6-3.7c6.7-0.9,13.9-1.5,21.8-1.9
					c1.9,0,3.1,0.4,3.6,1.3c0.4,0.6,0.4,1.2,0,2c-0.4,0.8-1,1.5-1.7,2.3c-3.8,3.4-7.9,6.9-12.2,10.8c-3.1,2.8-6.3,5.6-9.5,8.5
					c-24.6,1.8-44,4.7-57.6,7.2c-0.1-0.4-0.1-0.7-0.2-0.9c-1.2-5.5-4.4-36.2-7.1-42.2c-2.7-6-9.1-11.4-15.6-4.9
					c-6.5,6.6-17,29.4-20.3,38.4c-3.3,9-11.1,38.2-12,43.7c-0.9,5.5-3.1,0.1-3.3-2.3c-0.2-2.5-0.6-6.8-4.1-6
					c-3.5,0.8-8.6,3-6.1,10.7c2.5,7.7,3.7,22.7,8.5,23.8c4.8,1.1,8.1-0.3,9.4-11.9c1.3-11.4,15.8-67.3,30.8-84.3
					c0.4-0.5,1.2-0.3,1.4,0.3c1.3,4.4,5.4,19.4,7,38.1c-2.9,0.7-5.2,1.3-7,1.8c-14.5,4.3-21.7,9.6-21.9,13.6
					c-0.2,3.8,1.2,4.5,29.5-5.7l2.7,51.5c0.1,1.4,0.1,2.8,0,4.2c-0.1,1.9,0.5,5.3,5.1,4.9c6.4-0.6,8.7-4,8-9.6
					c-0.6-4.3-2.4-37.9-3.8-54.8c12.2-2.9,28.8-4.8,46.1-5.8c-2,1.8-4,3.7-6,5.6c-4.4,4.1-12.3,13.1-16.2,17c-2.8,2.8-4.7,5.4-5.8,8
					c-1.1,2.6-1.3,4.9-0.7,6.9c1.3,4.2,6,6.8,13.9,7.6c4.2,0.5,8.7,0.6,13.4,0.3c4.7-0.3,9.4-0.8,14-1.6c4.6-0.8,9-1.8,13.1-3
					c3.5-1,6.7-2.1,9.5-3.3c2.2,2.3,5.6,3.3,10,3.3c8.2,0,16.4-4.2,26.1-10.7c-0.9,2.2-1.5,4.4-1.5,6c0,3.2,1.5,4.6,4.1,4.6
					c5.5,0,14.1-4.2,24-10.6c-1.4,3.3-2.2,5.8-2.2,7.3c0,1.8,3.7,3.7,5.5,3.7c3,0,13.1-11.2,21-16.4c-1.1,2.8-3.9,8.1-3.9,12.8
					c0,3.2,1.5,4.1,3,4.1c3.5,0,7.8-2.4,8.3-4c0.6-2.1-0.6-3.4,2.7-10.2c2.4-4.8,3.5-7.2,3.5-10
					C1371.9,1786.9,1369.6,1784.8,1367.6,1784.8z M1287,1789.8c1.2,0,1.8,0.8,1.8,1.9c0,2.2-2.5,5.5-8.9,6.7
					C1280.7,1793.1,1283.8,1789.8,1287,1789.8z"/>
			</g>
			<g>
				<circle cx="1244.5" cy="1466.8" r="4"/>
			</g>
			<path class="st20" d="M1274.3,1489.7h-59.8c-1.4,0-2.5-1.1-2.5-2.5l0,0c0-1.4,1.1-2.5,2.5-2.5h59.8c1.4,0,2.5,1.1,2.5,2.5l0,0
				C1276.8,1488.6,1275.7,1489.7,1274.3,1489.7z"/>
			<circle class="st20" cx="1183.5" cy="1487.5" r="6"/>
			<circle class="st21" cx="1183.5" cy="1487.5" r="4.1"/>
			<rect x="1416.2" y="1497.1" class="st22" width="4.3" height="8.5"/>
			<rect x="1416.2" y="2096.5" class="st22" width="4.3" height="8.5"/>
			<rect x="1068.5" y="2096.5" class="st22" width="4.3" height="8.5"/>
			<rect x="1068.5" y="1497.1" class="st22" width="4.3" height="8.5"/>
			<path class="st23" d="M1420.5,1628.9L1420.5,1628.9v-46.5l0,0c1.5,0,2.7,1.2,2.7,2.7v41.1
				C1423.3,1627.7,1422,1628.9,1420.5,1628.9z"/>
			<path class="st23" d="M1068.5,1582.4L1068.5,1582.4v46.5l0,0c-1.5,0-2.7-1.2-2.7-2.7v-41.1
				C1065.8,1583.6,1067,1582.4,1068.5,1582.4z"/>
			<path class="st23" d="M1068.5,1639.9L1068.5,1639.9v46.5l0,0c-1.5,0-2.7-1.2-2.7-2.7v-41.1
				C1065.8,1641.1,1067,1639.9,1068.5,1639.9z"/>
			<path class="st23" d="M1068.5,1554.8L1068.5,1554.8v-25.9l0,0c-1.7,0-3.1,1.4-3.1,3.1v19.8
				C1065.4,1553.5,1066.8,1554.8,1068.5,1554.8z"/>
			<path class="st24" d="M1244.3,2094.7c-13.7,0-24.7,11.1-24.7,24.7s11.1,24.7,24.7,24.7s24.7-11.1,24.7-24.7
				S1258,2094.7,1244.3,2094.7z M1244.3,2140c-11.4,0-20.6-9.2-20.6-20.6c0-11.4,9.2-20.6,20.6-20.6c11.4,0,20.6,9.2,20.6,20.6
				C1264.9,2130.8,1255.7,2140,1244.3,2140z"/>
		</g>
	</g>
</g>
<g>
	
		<image style="overflow:visible;opacity:0.4;" width="987" height="1317" xlink:href="FC6C393CBFB1FA56.png"  transform="matrix(1 0 0 1 3453 922)">
	</image>
	<g>
		<g>
			<g>
				<path d="M3560.1,2165.5c-23.6,0-42.8-19.2-42.8-42.8v-1044c0-23.6,19.2-42.8,42.8-42.8h712.7c23.6,0,42.8,19.2,42.8,42.8v1044
					c0,23.6-19.2,42.8-42.8,42.8H3560.1z"/>
				<path class="st25" d="M4272.8,1039.2c21.8,0,39.4,17.6,39.4,39.4v1044c0,21.8-17.6,39.4-39.4,39.4h-712.7
					c-21.8,0-39.4-17.6-39.4-39.4v-1044c0-21.8,17.6-39.4,39.4-39.4H4272.8 M4272.8,1032.3h-712.7c-25.5,0-46.3,20.8-46.3,46.3v1044
					c0,25.5,20.8,46.3,46.3,46.3h712.7c25.5,0,46.3-20.8,46.3-46.3v-1044C4319.1,1053.1,4298.3,1032.3,4272.8,1032.3L4272.8,1032.3z
					"/>
			</g>
			<g>
				<rect x="3564.2" y="1130.6" class="st26" width="704.5" height="939.5"/>
				<path d="M4268.5,1130.8v939h-704v-939H4268.5 M4268.9,1130.3h-705v939.9h705V1130.3L4268.9,1130.3z"/>
			</g>
			<circle class="st20" cx="3916.4" cy="1085.7" r="6"/>
			<circle class="st21" cx="3916.4" cy="1085.7" r="4.1"/>
			<path class="st27" d="M3916.4,2092.9c-14.4,0-26.2,11.7-26.2,26.2c0,14.4,11.7,26.2,26.2,26.2c14.4,0,26.2-11.7,26.2-26.2
				C3942.6,2104.6,3930.9,2092.9,3916.4,2092.9z M3916.4,2141.4c-12.3,0-22.3-10-22.3-22.3c0-12.3,10-22.3,22.3-22.3
				s22.3,10,22.3,22.3C3938.8,2131.4,3928.8,2141.4,3916.4,2141.4z"/>
			<g>
				<g>
					<path class="st15" d="M3849.7,1726.4l-2.4,6.1h-9.8l13.6-35.4h10l13.3,35.4h-9.8l-2.3-6.1H3849.7z M3856.1,1708.1
						L3856.1,1708.1l-3.9,11.3h7.7L3856.1,1708.1z"/>
					<path class="st15" d="M3885.7,1693.6v17.9h0.1c2-2.6,4.4-3.8,7.7-3.8c6.1,0,9.1,4,9.1,10.1v14.7h-8.5v-12.3
						c0-2.8-0.4-5.7-3.8-5.7c-3.4,0-4.5,2.9-4.5,5.7v12.3h-8.5v-39H3885.7z"/>
					<path class="st15" d="M3916.7,1711.5L3916.7,1711.5c2.1-2.7,4.6-3.8,7.7-3.8c3.5,0,6.5,1.4,8.2,4.6c1.6-3,4.9-4.6,8.2-4.6
						c6.1,0,8.2,4,8.2,9.5v15.3h-8.5v-11.5c0-2.5,0.1-6.6-3.5-6.6c-3.9,0-4.1,3.7-4.1,6.6v11.5h-8.5v-11.5c0-2.7,0-6.8-3.8-6.8
						c-3.8,0-3.8,4.1-3.8,6.8v11.5h-8.5v-24.1h8.5V1711.5z"/>
					<path class="st15" d="M3979.3,1722h-18c0,3.5,1.8,5.4,5.4,5.4c1.8,0,3.1-0.6,4.1-2.2h8.2c-0.7,2.8-2.3,4.9-4.6,6.2
						c-2.2,1.4-4.9,2-7.7,2c-8,0-13.9-4.5-13.9-12.8c0-8,5.5-12.9,13.3-12.9c8.4,0,13.2,5.2,13.2,13.4V1722z M3971.4,1717
						c-0.4-2.3-2.5-3.8-4.8-3.8c-2.5,0-4.6,1.3-5.1,3.8H3971.4z"/>
					<path class="st15" d="M4001.3,1729.9L4001.3,1729.9c-1.6,2.4-4.6,3.5-7.4,3.5c-7.1,0-12.2-6-12.2-12.9s4.9-12.8,12.1-12.8
						c2.8,0,5.7,1,7.5,3.1v-17.2h8.5v39h-8.5V1729.9z M3990.6,1720.6c0,3.1,2,5.4,5.5,5.4s5.5-2.3,5.5-5.4c0-3-2-5.4-5.5-5.4
						S3990.6,1717.6,3990.6,1720.6z"/>
					<path class="st15" d="M4040.7,1705v5.9h10.4v7.8h-10.4v6.1h10.9v7.8h-20.1v-35.4h20.1v7.8H4040.7z"/>
					<path class="st15" d="M4065.7,1732.6h-8.5v-39h8.5V1732.6z"/>
					<path class="st15" d="M4084.4,1714v7H4071v-7H4084.4z"/>
					<path class="st15" d="M4117.7,1724.8v7.8h-30.3l16.8-27.6h-13.9v-7.8h29.3l-16.7,27.6H4117.7z"/>
					<path class="st15" d="M4147.6,1722h-18c0,3.5,1.8,5.4,5.4,5.4c1.8,0,3.1-0.6,4.1-2.2h8.2c-0.7,2.8-2.3,4.9-4.6,6.2
						c-2.2,1.4-4.9,2-7.7,2c-8,0-13.9-4.5-13.9-12.8c0-8,5.5-12.9,13.3-12.9c8.4,0,13.2,5.2,13.2,13.4V1722z M4139.7,1717
						c-0.4-2.3-2.5-3.8-4.8-3.8c-2.5,0-4.6,1.3-5.1,3.8H4139.7z"/>
					<path class="st15" d="M4160.6,1699.2c0,2.6-2.2,4.8-4.8,4.8c-2.6,0-4.8-2.2-4.8-4.8c0-2.6,2.2-4.8,4.8-4.8
						C4158.4,1694.5,4160.6,1696.6,4160.6,1699.2z M4160,1732.6h-8.5v-24.1h8.5V1732.6z"/>
					<path class="st15" d="M4174.2,1711.6L4174.2,1711.6c2.1-2.9,4.5-3.9,7.8-3.9c6.5,0,9.1,4.1,9.1,10v14.9h-8.5v-11.7
						c0-2.3,0.4-6.3-3.8-6.3c-3.5,0-4.5,2.6-4.5,5.6v12.5h-8.5v-24.1h8.5V1711.6z"/>
				</g>
				<path class="st16" d="M4189.3,1611.3c-9,0-30.9,17.7-48.4,35.2c3.8-7.1,11.6-19.6,14.6-26c1-1.9,1-2.3,1-2.8
					c0-4-7.3-7.6-14.2-7.6c-4,0-8,1.2-9.9,4.5c-2.7,4.4-5.2,8.8-7.5,12.9c-10.9,8.1-28.9,21.1-46.4,27c3.1-11.8,13.5-30.7,13.5-36.6
					c0-4.7-8-6.6-12.5-6.6c-4,0-7.1,1.7-9,4.5c-2.2,3.1-4.4,7.7-6.4,12.1c-10.6,8.1-27.6,20.6-44.3,27.1c-4.5,1.7-9.7,3.1-14.6,3.1
					s-9.4-1.2-11.6-4.7c17.2-3.8,38-13.5,38-28.3c0-9.2-7.1-14.4-19.4-14.4c-16.8,0-38.1,13.6-43,30.6c-1,0.3-1.9,0.8-2.9,1.3
					c-4.7,2.3-10.6,4.7-17.7,6.9c-7.1,2.2-14.8,4.2-23.2,5.8c-8.4,1.6-17.1,2.8-26.2,3.6c-9.1,0.8-18,0.9-26.6,0.5
					c-6.2-0.6-9.9-2.1-11-4.5c-0.6-1.7-0.2-3.6,1.5-5.8c1.6-2.1,3.7-4.5,6.3-7.1c7.3-7.5,24.3-26.9,34.4-36c9.4-8.5,19-17.2,28.9-26
					c66.4-2.1,127.6,0.4,137.4,3.4c18.9,5.9,26.6-3.1,22.2-14.6c-4.4-11.6-25.3-13.3-25.3-13.3c-39.5-0.6-75.8,0.1-108.8,1.7
					c2.5-2.2,5-4.4,7.5-6.6c10.1-8.9,18.9-16.9,26.4-24c5.8-5.6,9.8-11.4,12.1-17.4c2.3-6,2.4-11.5,0.5-16.4
					c-1.7-4.3-4.9-7.7-9.6-10.3c-4.7-2.6-11.2-3.7-19.3-3.2c-21.3,0.4-41.1,1.7-59.6,3.9c-18.5,2.1-36.2,5.3-53.2,9.3
					c-6,1.7-10.5,4-13.5,6.8c-3,3-4.6,5.9-4.8,8.8c-0.2,2.9,0.4,5.5,1.9,7.9c1.3,2.3,3.2,4,5.7,5c2.4,1,5,0.7,7.6-0.8
					c2.6-1.5,5.5-2.8,8.7-3.9c15.9-3.6,31.3-6.4,46.2-8.4c14.9-1.9,31.2-3.3,48.8-4.2c4.3,0,7,1,8,2.9c0.9,1.3,0.9,2.8,0,4.5
					s-2.1,3.4-3.9,5.1c-8.6,7.5-17.7,15.6-27.4,24.2c-7.1,6.3-14.2,12.6-21.3,19.1c-55.1,4.1-98.6,10.4-129.2,16.2
					c-0.1-0.8-0.2-1.5-0.4-2c-2.8-12.2-9.8-81.1-16-94.6c-6.1-13.5-20.4-25.6-34.9-10.9s-38.1,65.9-45.6,86.1
					c-7.5,20.1-24.9,85.7-27,98c-2.1,12.3-7,0.3-7.4-5.2c-0.4-5.5-1.3-15.2-9.3-13.5c-7.9,1.7-19.3,6.7-13.8,24.1
					c5.6,17.3,8.2,50.9,18.9,53.4c10.7,2.5,18.2-0.8,21.1-26.8c2.8-25.5,35.4-150.8,69-188.9c1-1.1,2.7-0.7,3.1,0.7
					c3,10,12.2,43.5,15.7,85.3c-6.5,1.5-11.7,2.9-15.8,4.1c-32.6,9.7-48.6,21.6-49,30.5c-0.4,8.5,2.7,10.2,66-12.9l6,115.4
					c0.2,3.1,0.2,6.3,0.1,9.4c-0.1,4.3,1.1,11.9,11.5,11c14.4-1.3,19.4-9,17.9-21.4c-1.2-9.7-5.4-84.9-8.5-122.9
					c27.3-6.6,64.7-10.7,103.3-12.9c-4.5,4.1-9,8.3-13.5,12.5c-9.9,9.2-27.6,29.3-36.4,38.1c-6.2,6.2-10.6,12.2-13,18
					c-2.5,5.8-2.9,10.9-1.5,15.4c3,9.4,13.4,15.1,31.2,17.1c9.4,1.1,19.5,1.3,30.1,0.6c10.6-0.6,21.1-1.9,31.4-3.7
					c10.3-1.8,20.1-4.1,29.3-6.8c7.9-2.3,15-4.8,21.3-7.5c4.9,5.2,12.6,7.4,22.5,7.4c18.4,0,36.8-9.4,58.4-23.9
					c-1.9,4.9-3.4,9.9-3.4,13.5c0,7.1,3.3,10.4,9.2,10.4c12.3,0,31.5-9.4,53.8-23.8c-3.1,7.3-4.9,13.1-4.9,16.4
					c0,4,8.3,8.3,12.3,8.3c6.6,0,29.3-25,47-36.8c-2.4,6.4-8.7,18.2-8.7,28.8c0,7.1,3.3,9.2,6.6,9.2c7.8,0,17.5-5.4,18.6-9
					c1.4-4.7-1.4-7.6,6.1-22.9c5.4-10.9,7.8-16,7.8-22.4C4199,1616.1,4193.8,1611.3,4189.3,1611.3z M4008.6,1622.4
					c2.6,0,4,1.9,4,4.3c0,5-5.7,12.3-19.8,15.1C3994.5,1630,4001.3,1622.4,4008.6,1622.4z"/>
			</g>
		</g>
	</g>
</g>
<g>
	
		<image style="overflow:visible;opacity:0.4;" width="731" height="497" xlink:href="FC6C393CBFB1FA57.png"  transform="matrix(1 0 0 1 552 2208)">
	</image>
	<g>
		<g>
			<defs>
				<rect id="SVGID_7_" x="614.4" y="2320.6" width="546.1" height="312.1"/>
			</defs>
			<clipPath id="SVGID_8_">
				<use xlink:href="#SVGID_7_"  style="overflow:visible;"/>
			</clipPath>
		</g>
		<g>
			<defs>
				<rect id="SVGID_9_" x="614.4" y="2320.6" width="546.1" height="312.1"/>
			</defs>
			<use xlink:href="#SVGID_9_"  style="overflow:visible;fill:#FFFFFF;"/>
			<clipPath id="SVGID_10_">
				<use xlink:href="#SVGID_9_"  style="overflow:visible;"/>
			</clipPath>
			<g class="st28">
				<g>
					<path class="st15" d="M859.2,2530l-1,2.6h-4.1l5.8-15h4.2l5.6,15h-4.1l-1-2.6H859.2z M861.9,2522.2L861.9,2522.2l-1.6,4.8h3.2
						L861.9,2522.2z"/>
					<path class="st15" d="M874.4,2516.1v7.6h0c0.8-1.1,1.8-1.6,3.3-1.6c2.6,0,3.8,1.7,3.8,4.3v6.2H878v-5.2c0-1.2-0.2-2.4-1.6-2.4
						c-1.4,0-1.9,1.2-1.9,2.4v5.2h-3.6v-16.5H874.4z"/>
					<path class="st15" d="M887.6,2523.7L887.6,2523.7c0.9-1.1,1.9-1.6,3.3-1.6c1.5,0,2.7,0.6,3.5,1.9c0.7-1.3,2.1-1.9,3.5-1.9
						c2.6,0,3.5,1.7,3.5,4v6.5h-3.6v-4.9c0-1.1,0-2.8-1.5-2.8c-1.7,0-1.7,1.6-1.7,2.8v4.9h-3.6v-4.9c0-1.1,0-2.9-1.6-2.9
						c-1.6,0-1.6,1.7-1.6,2.9v4.9h-3.6v-10.2h3.6V2523.7z"/>
					<path class="st15" d="M914,2528.1h-7.6c0,1.5,0.8,2.3,2.3,2.3c0.8,0,1.3-0.3,1.7-0.9h3.5c-0.3,1.2-1,2.1-1.9,2.6
						c-0.9,0.6-2.1,0.9-3.3,0.9c-3.4,0-5.9-1.9-5.9-5.4c0-3.4,2.3-5.4,5.6-5.4c3.5,0,5.6,2.2,5.6,5.7V2528.1z M910.7,2526
						c-0.2-1-1.1-1.6-2-1.6c-1.1,0-1.9,0.6-2.1,1.6H910.7z"/>
					<path class="st15" d="M923.3,2531.4L923.3,2531.4c-0.7,1-1.9,1.5-3.1,1.5c-3,0-5.1-2.5-5.1-5.4c0-2.9,2.1-5.4,5.1-5.4
						c1.2,0,2.4,0.4,3.2,1.3v-7.3h3.6v16.5h-3.6V2531.4z M918.8,2527.5c0,1.3,0.9,2.3,2.3,2.3c1.5,0,2.3-1,2.3-2.3
						c0-1.3-0.9-2.3-2.3-2.3C919.7,2525.2,918.8,2526.2,918.8,2527.5z"/>
					<path class="st15" d="M940,2520.9v2.5h4.4v3.3H940v2.6h4.6v3.3h-8.5v-15h8.5v3.3H940z"/>
					<path class="st15" d="M950.5,2532.6h-3.6v-16.5h3.6V2532.6z"/>
					<path class="st15" d="M958.5,2524.7v3h-5.7v-3H958.5z"/>
					<path class="st15" d="M972.5,2529.3v3.3h-12.8l7.1-11.7h-5.9v-3.3h12.4l-7,11.7H972.5z"/>
					<path class="st15" d="M985.2,2528.1h-7.6c0,1.5,0.8,2.3,2.3,2.3c0.8,0,1.3-0.3,1.7-0.9h3.5c-0.3,1.2-1,2.1-1.9,2.6
						c-0.9,0.6-2.1,0.9-3.3,0.9c-3.4,0-5.9-1.9-5.9-5.4c0-3.4,2.3-5.4,5.6-5.4c3.5,0,5.6,2.2,5.6,5.7V2528.1z M981.8,2526
						c-0.2-1-1.1-1.6-2-1.6c-1.1,0-1.9,0.6-2.1,1.6H981.8z"/>
					<path class="st15" d="M990.7,2518.5c0,1.1-0.9,2-2,2c-1.1,0-2-0.9-2-2c0-1.1,0.9-2,2-2C989.7,2516.5,990.7,2517.4,990.7,2518.5
						z M990.4,2532.6h-3.6v-10.2h3.6V2532.6z"/>
					<path class="st15" d="M996.4,2523.7L996.4,2523.7c0.9-1.2,1.9-1.6,3.3-1.6c2.7,0,3.8,1.7,3.8,4.2v6.3h-3.6v-5
						c0-1,0.2-2.7-1.6-2.7c-1.5,0-1.9,1.1-1.9,2.4v5.3h-3.6v-10.2h3.6V2523.7z"/>
				</g>
				<path class="st16" d="M1002.8,2481.3c-3.8,0-13.1,7.5-20.5,14.9c1.6-3,4.9-8.3,6.2-11c0.4-0.8,0.4-1,0.4-1.2
					c0-1.7-3.1-3.2-6-3.2c-1.7,0-3.4,0.5-4.2,1.9c-1.1,1.9-2.2,3.7-3.2,5.5c-4.6,3.4-12.2,8.9-19.6,11.4c1.3-5,5.7-13,5.7-15.5
					c0-2-3.4-2.8-5.3-2.8c-1.7,0-3,0.7-3.8,1.9c-0.9,1.3-1.9,3.2-2.7,5.1c-4.5,3.4-11.7,8.7-18.7,11.4c-1.9,0.7-4.1,1.3-6.2,1.3
					c-2.1,0-4-0.5-4.9-2c7.3-1.6,16.1-5.7,16.1-12c0-3.9-3-6.1-8.2-6.1c-7.1,0-16.1,5.8-18.2,12.9c-0.4,0.1-0.8,0.3-1.2,0.6
					c-2,1-4.5,2-7.5,2.9c-3,0.9-6.3,1.8-9.8,2.4c-3.5,0.7-7.2,1.2-11.1,1.5c-3.9,0.3-7.6,0.4-11.2,0.2c-2.6-0.3-4.2-0.9-4.6-1.9
					c-0.3-0.7-0.1-1.5,0.6-2.4c0.7-0.9,1.6-1.9,2.7-3c3.1-3.2,10.3-11.4,14.5-15.2c4-3.6,8.1-7.3,12.2-11
					c28.1-0.9,53.9,0.2,58.1,1.4c8,2.5,11.2-1.3,9.4-6.2c-1.9-4.9-10.7-5.6-10.7-5.6c-16.7-0.3-32.1,0-46,0.7
					c1.1-0.9,2.1-1.9,3.2-2.8c4.3-3.7,8-7.1,11.2-10.1c2.4-2.4,4.2-4.8,5.1-7.3c1-2.5,1-4.9,0.2-6.9c-0.7-1.8-2.1-3.3-4.1-4.4
					c-2-1.1-4.7-1.5-8.2-1.4c-9,0.2-17.4,0.7-25.2,1.6c-7.8,0.9-15.3,2.2-22.5,3.9c-2.5,0.7-4.4,1.7-5.7,2.9c-1.3,1.3-2,2.5-2,3.7
					c-0.1,1.2,0.2,2.3,0.8,3.3c0.6,1,1.4,1.7,2.4,2.1c1,0.4,2.1,0.3,3.2-0.3c1.1-0.6,2.3-1.2,3.7-1.6c6.7-1.5,13.2-2.7,19.5-3.5
					c6.3-0.8,13.2-1.4,20.6-1.8c1.8,0,2.9,0.4,3.4,1.2c0.4,0.5,0.4,1.2,0,1.9c-0.4,0.7-0.9,1.4-1.6,2.2c-3.6,3.2-7.5,6.6-11.6,10.2
					c-3,2.7-6,5.3-9,8.1c-23.3,1.7-41.7,4.4-54.6,6.9c-0.1-0.4-0.1-0.6-0.1-0.8c-1.2-5.2-4.2-34.3-6.8-40
					c-2.6-5.7-8.6-10.8-14.7-4.6c-6.1,6.2-16.1,27.9-19.3,36.4c-3.2,8.5-10.5,36.2-11.4,41.4c-0.9,5.2-2.9,0.1-3.1-2.2
					c-0.2-2.3-0.6-6.4-3.9-5.7c-3.3,0.7-8.2,2.8-5.8,10.2c2.4,7.3,3.5,21.5,8,22.6c4.5,1.1,7.7-0.3,8.9-11.3
					c1.2-10.8,15-63.7,29.2-79.9c0.4-0.5,1.2-0.3,1.3,0.3c1.3,4.2,5.1,18.4,6.6,36.1c-2.7,0.6-5,1.2-6.7,1.7
					c-13.8,4.1-20.6,9.1-20.7,12.9c-0.2,3.6,1.2,4.3,27.9-5.4l2.5,48.8c0.1,1.3,0.1,2.7,0,4c-0.1,1.8,0.5,5,4.8,4.6
					c6.1-0.5,8.2-3.8,7.6-9.1c-0.5-4.1-2.3-35.9-3.6-51.9c11.5-2.8,27.3-4.5,43.6-5.5c-1.9,1.7-3.8,3.5-5.7,5.3
					c-4.2,3.9-11.6,12.4-15.4,16.1c-2.6,2.6-4.5,5.2-5.5,7.6c-1,2.4-1.2,4.6-0.6,6.5c1.3,4,5.7,6.4,13.2,7.2c4,0.4,8.2,0.5,12.7,0.3
					c4.5-0.3,8.9-0.8,13.3-1.6c4.4-0.8,8.5-1.7,12.4-2.9c3.3-1,6.3-2,9-3.2c2.1,2.2,5.3,3.1,9.5,3.1c7.8,0,15.5-4,24.7-10.1
					c-0.8,2.1-1.4,4.2-1.4,5.7c0,3,1.4,4.4,3.9,4.4c5.2,0,13.3-4,22.7-10.1c-1.3,3.1-2.1,5.5-2.1,7c0,1.7,3.5,3.5,5.2,3.5
					c2.8,0,12.4-10.6,19.9-15.6c-1,2.7-3.7,7.7-3.7,12.2c0,3,1.4,3.9,2.8,3.9c3.3,0,7.4-2.3,7.9-3.8c0.6-2-0.6-3.2,2.6-9.7
					c2.3-4.6,3.3-6.8,3.3-9.5C1006.9,2483.3,1004.7,2481.3,1002.8,2481.3z M926.4,2486c1.1,0,1.7,0.8,1.7,1.8c0,2.1-2.4,5.2-8.4,6.4
					C920.4,2489.2,923.3,2486,926.4,2486z"/>
			</g>
			<use xlink:href="#SVGID_9_"  style="overflow:visible;fill:none;stroke:#D0202E;stroke-width:4.484;stroke-miterlimit:10;"/>
		</g>
		<g>
			<defs>
				<rect id="SVGID_11_" x="614.4" y="2320.6" width="546.1" height="312.1"/>
			</defs>
			<clipPath id="SVGID_12_">
				<use xlink:href="#SVGID_11_"  style="overflow:visible;"/>
			</clipPath>
		</g>
	</g>
</g>
<g>
	
		<image style="overflow:visible;opacity:0.4;" width="731" height="497" xlink:href="FC6C393CBFB1FA52.png"  transform="matrix(1 0 0 1 552 2684)">
	</image>
	<g>
		<g>
			<defs>
				<rect id="SVGID_13_" x="614.4" y="2796.7" width="546.1" height="312.1"/>
			</defs>
			<clipPath id="SVGID_14_">
				<use xlink:href="#SVGID_13_"  style="overflow:visible;"/>
			</clipPath>
		</g>
		<g>
			<defs>
				<rect id="SVGID_15_" x="614.4" y="2796.7" width="546.1" height="312.1"/>
			</defs>
			<use xlink:href="#SVGID_15_"  style="overflow:visible;fill:#FFFFFF;"/>
			<clipPath id="SVGID_16_">
				<use xlink:href="#SVGID_15_"  style="overflow:visible;"/>
			</clipPath>
			<g class="st29">
				<g>
					<g>
						<path class="st15" d="M876.7,2972.9l-0.4,1h-1.6l2.2-5.7h1.6l2.1,5.7h-1.6l-0.4-1H876.7z M877.8,2970L877.8,2970l-0.6,1.8h1.2
							L877.8,2970z"/>
						<path class="st15" d="M882.5,2967.7v2.9h0c0.3-0.4,0.7-0.6,1.2-0.6c1,0,1.5,0.6,1.5,1.6v2.4h-1.4v-2c0-0.5-0.1-0.9-0.6-0.9
							c-0.5,0-0.7,0.5-0.7,0.9v2h-1.4v-6.3H882.5z"/>
						<path class="st15" d="M887.5,2970.5L887.5,2970.5c0.3-0.4,0.7-0.6,1.2-0.6c0.6,0,1,0.2,1.3,0.7c0.3-0.5,0.8-0.7,1.3-0.7
							c1,0,1.3,0.6,1.3,1.5v2.5h-1.4v-1.8c0-0.4,0-1.1-0.6-1.1c-0.6,0-0.7,0.6-0.7,1.1v1.8h-1.4v-1.8c0-0.4,0-1.1-0.6-1.1
							s-0.6,0.7-0.6,1.1v1.8h-1.4v-3.9h1.4V2970.5z"/>
						<path class="st15" d="M897.6,2972.2h-2.9c0,0.6,0.3,0.9,0.9,0.9c0.3,0,0.5-0.1,0.7-0.4h1.3c-0.1,0.5-0.4,0.8-0.7,1
							c-0.4,0.2-0.8,0.3-1.2,0.3c-1.3,0-2.2-0.7-2.2-2.1c0-1.3,0.9-2.1,2.1-2.1c1.3,0,2.1,0.8,2.1,2.1V2972.2z M896.3,2971.4
							c-0.1-0.4-0.4-0.6-0.8-0.6c-0.4,0-0.7,0.2-0.8,0.6H896.3z"/>
						<path class="st15" d="M901.1,2973.5L901.1,2973.5c-0.3,0.4-0.7,0.6-1.2,0.6c-1.1,0-2-1-2-2.1c0-1.1,0.8-2.1,1.9-2.1
							c0.4,0,0.9,0.2,1.2,0.5v-2.8h1.4v6.3h-1.4V2973.5z M899.4,2972c0,0.5,0.3,0.9,0.9,0.9c0.6,0,0.9-0.4,0.9-0.9
							c0-0.5-0.3-0.9-0.9-0.9C899.7,2971.1,899.4,2971.5,899.4,2972z"/>
						<path class="st15" d="M907.4,2969.5v1h1.7v1.3h-1.7v1h1.8v1.3h-3.2v-5.7h3.2v1.3H907.4z"/>
						<path class="st15" d="M911.4,2973.9h-1.4v-6.3h1.4V2973.9z"/>
						<path class="st15" d="M914.4,2970.9v1.1h-2.2v-1.1H914.4z"/>
						<path class="st15" d="M919.8,2972.7v1.3h-4.9l2.7-4.4h-2.2v-1.3h4.7l-2.7,4.4H919.8z"/>
						<path class="st15" d="M924.6,2972.2h-2.9c0,0.6,0.3,0.9,0.9,0.9c0.3,0,0.5-0.1,0.7-0.4h1.3c-0.1,0.5-0.4,0.8-0.7,1
							c-0.4,0.2-0.8,0.3-1.2,0.3c-1.3,0-2.2-0.7-2.2-2.1c0-1.3,0.9-2.1,2.1-2.1c1.3,0,2.1,0.8,2.1,2.1V2972.2z M923.3,2971.4
							c-0.1-0.4-0.4-0.6-0.8-0.6c-0.4,0-0.7,0.2-0.8,0.6H923.3z"/>
						<path class="st15" d="M926.7,2968.6c0,0.4-0.3,0.8-0.8,0.8c-0.4,0-0.8-0.3-0.8-0.8c0-0.4,0.3-0.8,0.8-0.8
							C926.3,2967.8,926.7,2968.2,926.7,2968.6z M926.6,2973.9h-1.4v-3.9h1.4V2973.9z"/>
						<path class="st15" d="M928.9,2970.6L928.9,2970.6c0.3-0.5,0.7-0.6,1.3-0.6c1,0,1.5,0.7,1.5,1.6v2.4h-1.4v-1.9
							c0-0.4,0.1-1-0.6-1c-0.6,0-0.7,0.4-0.7,0.9v2h-1.4v-3.9h1.4V2970.6z"/>
					</g>
					<path class="st16" d="M931.3,2954.5c-1.4,0-5,2.8-7.8,5.7c0.6-1.1,1.9-3.1,2.4-4.2c0.2-0.3,0.2-0.4,0.2-0.5
						c0-0.6-1.2-1.2-2.3-1.2c-0.6,0-1.3,0.2-1.6,0.7c-0.4,0.7-0.8,1.4-1.2,2.1c-1.7,1.3-4.6,3.4-7.5,4.3c0.5-1.9,2.2-4.9,2.2-5.9
						c0-0.8-1.3-1.1-2-1.1c-0.6,0-1.1,0.3-1.4,0.7c-0.3,0.5-0.7,1.2-1,1.9c-1.7,1.3-4.4,3.3-7.1,4.4c-0.7,0.3-1.6,0.5-2.4,0.5
						c-0.8,0-1.5-0.2-1.9-0.8c2.8-0.6,6.1-2.2,6.1-4.6c0-1.5-1.1-2.3-3.1-2.3c-2.7,0-6.1,2.2-6.9,4.9c-0.2,0.1-0.3,0.1-0.5,0.2
						c-0.8,0.4-1.7,0.7-2.8,1.1c-1.1,0.4-2.4,0.7-3.7,0.9c-1.3,0.3-2.7,0.4-4.2,0.6c-1.5,0.1-2.9,0.1-4.3,0.1
						c-1-0.1-1.6-0.3-1.8-0.7c-0.1-0.3,0-0.6,0.2-0.9c0.3-0.3,0.6-0.7,1-1.1c1.2-1.2,3.9-4.3,5.5-5.8c1.5-1.4,3.1-2.8,4.6-4.2
						c10.7-0.3,20.5,0.1,22.1,0.6c3,0.9,4.3-0.5,3.6-2.3c-0.7-1.9-4.1-2.1-4.1-2.1c-6.3-0.1-12.2,0-17.5,0.3
						c0.4-0.4,0.8-0.7,1.2-1.1c1.6-1.4,3-2.7,4.2-3.9c0.9-0.9,1.6-1.8,1.9-2.8c0.4-1,0.4-1.8,0.1-2.6c-0.3-0.7-0.8-1.2-1.6-1.7
						c-0.8-0.4-1.8-0.6-3.1-0.5c-3.4,0.1-6.6,0.3-9.6,0.6c-3,0.3-5.8,0.8-8.5,1.5c-1,0.3-1.7,0.6-2.2,1.1c-0.5,0.5-0.7,1-0.8,1.4
						c0,0.5,0.1,0.9,0.3,1.3c0.2,0.4,0.5,0.6,0.9,0.8c0.4,0.2,0.8,0.1,1.2-0.1c0.4-0.2,0.9-0.4,1.4-0.6c2.6-0.6,5-1,7.4-1.3
						c2.4-0.3,5-0.5,7.8-0.7c0.7,0,1.1,0.2,1.3,0.5c0.1,0.2,0.1,0.4,0,0.7s-0.3,0.6-0.6,0.8c-1.4,1.2-2.8,2.5-4.4,3.9
						c-1.1,1-2.3,2-3.4,3.1c-8.9,0.7-15.9,1.7-20.8,2.6c0-0.1,0-0.2-0.1-0.3c-0.4-2-1.6-13-2.6-15.2c-1-2.2-3.3-4.1-5.6-1.7
						c-2.3,2.4-6.1,10.6-7.3,13.8c-1.2,3.2-4,13.8-4.3,15.7c-0.3,2-1.1,0-1.2-0.8c-0.1-0.9-0.2-2.4-1.5-2.2
						c-1.3,0.3-3.1,1.1-2.2,3.9c0.9,2.8,1.3,8.2,3,8.6c1.7,0.4,2.9-0.1,3.4-4.3c0.5-4.1,5.7-24.2,11.1-30.4c0.2-0.2,0.4-0.1,0.5,0.1
						c0.5,1.6,2,7,2.5,13.7c-1,0.2-1.9,0.5-2.5,0.7c-5.2,1.6-7.8,3.5-7.9,4.9c-0.1,1.4,0.4,1.6,10.6-2.1l1,18.5c0,0.5,0,1,0,1.5
						c0,0.7,0.2,1.9,1.8,1.8c2.3-0.2,3.1-1.4,2.9-3.4c-0.2-1.6-0.9-13.6-1.4-19.7c4.4-1.1,10.4-1.7,16.6-2.1c-0.7,0.7-1.4,1.3-2.2,2
						c-1.6,1.5-4.4,4.7-5.8,6.1c-1,1-1.7,2-2.1,2.9c-0.4,0.9-0.5,1.8-0.2,2.5c0.5,1.5,2.2,2.4,5,2.7c1.5,0.2,3.1,0.2,4.8,0.1
						c1.7-0.1,3.4-0.3,5-0.6c1.7-0.3,3.2-0.7,4.7-1.1c1.3-0.4,2.4-0.8,3.4-1.2c0.8,0.8,2,1.2,3.6,1.2c3,0,5.9-1.5,9.4-3.8
						c-0.3,0.8-0.6,1.6-0.6,2.2c0,1.1,0.5,1.7,1.5,1.7c2,0,5.1-1.5,8.6-3.8c-0.5,1.2-0.8,2.1-0.8,2.6c0,0.6,1.3,1.3,2,1.3
						c1.1,0,4.7-4,7.6-5.9c-0.4,1-1.4,2.9-1.4,4.6c0,1.1,0.5,1.5,1.1,1.5c1.3,0,2.8-0.9,3-1.4c0.2-0.8-0.2-1.2,1-3.7
						c0.9-1.7,1.3-2.6,1.3-3.6C932.8,2955.2,932,2954.5,931.3,2954.5z M902.3,2956.2c0.4,0,0.6,0.3,0.6,0.7c0,0.8-0.9,2-3.2,2.4
						C900,2957.5,901.1,2956.2,902.3,2956.2z"/>
				</g>
				<rect x="886.5" y="2837.2" class="st15" width="2.1" height="43.7"/>
				<circle class="st15" cx="887.5" cy="2837.2" r="2.8"/>
				
					<rect x="808.7" y="2870.4" transform="matrix(0.7071 -0.7071 0.7071 0.7071 -1807.9154 1419.7095)" class="st15" width="2.1" height="43.7"/>
				
					<ellipse transform="matrix(0.7071 -0.7071 0.7071 0.7071 -1801.5392 1404.2806)" class="st15" cx="794.3" cy="2876.8" rx="2.8" ry="2.8"/>
				
					<rect x="933.1" y="3015.3" transform="matrix(0.7071 -0.7071 0.7071 0.7071 -1874.0089 1550.1024)" class="st15" width="2.1" height="43.7"/>
				
					<ellipse transform="matrix(0.7071 -0.7071 0.7071 0.7071 -1880.385 1565.5314)" class="st15" cx="949.6" cy="3052.6" rx="2.8" ry="2.8"/>
				<rect x="977" y="2986.4" class="st15" width="43.7" height="2.1"/>
				<circle class="st15" cx="1020.6" cy="2987.4" r="2.8"/>
				<rect x="750.4" y="2970.7" class="st15" width="43.7" height="2.1"/>
				<circle class="st15" cx="750.4" cy="2971.8" r="2.8"/>
				
					<rect x="998" y="2894.8" transform="matrix(0.4729 -0.8811 0.8811 0.4729 -2018.4739 2417.7849)" class="st15" width="26.9" height="2.1"/>
				<rect x="962.4" y="2906.2" class="st15" width="43.7" height="2.1"/>
				
					<ellipse transform="matrix(0.4729 -0.8811 0.8811 0.4729 -2004.8854 2417.2512)" class="st15" cx="1017.9" cy="2884.3" rx="2.8" ry="2.8"/>
				
					<rect x="826.6" y="3051.7" transform="matrix(0.4729 -0.8811 0.8811 0.4729 -2247.105 2349.4092)" class="st15" width="26.9" height="2.1"/>
				<rect x="790.9" y="3063.1" class="st15" width="43.7" height="2.1"/>
				
					<ellipse transform="matrix(0.8811 -0.4729 0.4729 0.8811 -1354.8707 738.39)" class="st15" cx="791.3" cy="3064.1" rx="2.8" ry="2.8"/>
				<path class="st15" d="M967.1,2893.8c-0.3-0.5-0.7-0.9-1-1.4c-0.7-0.9-1.3-1.7-2-2.6c-0.4-0.4-0.7-0.9-1.1-1.3
					c-7.5-8.8-16.5-16.3-26.7-22c-1.2-0.7-2.5-1.4-3.8-2l-12.8,26.9c0.9,0.5,1.7,1,2.6,1.5c6.6,3.8,12.5,8.7,17.5,14.5
					c0.3,0.3,0.5,0.6,0.8,0.9c0.8,1,1.6,2,2.4,3c0.3,0.3,0.5,0.7,0.7,1c4.9,6.7,8.6,14.4,10.8,22.6l29-6.7
					C980.3,2915.5,974.6,2903.9,967.1,2893.8z M985.5,2938.1c-0.3-1.7-0.5-3.3-0.9-5c0,0,0-0.1,0-0.2l-29,6.7
					c0.3,1.2,0.4,2.4,0.6,3.6c0.5,3.1,0.7,6.3,0.7,9.5c0,4.3-0.4,8.5-1.2,12.5c-0.1,0.6-0.2,1.2-0.3,1.8c-0.2,1-0.5,2.1-0.7,3.1
					c-0.1,0.6-0.3,1.2-0.5,1.7c-2.3,8-6,15.4-10.8,22l23.3,18.5c7.4-9.8,13-21.1,16.4-33.3c0.2-0.8,0.4-1.6,0.7-2.5
					c0.2-0.8,0.4-1.6,0.5-2.4c0.2-0.8,0.4-1.7,0.5-2.5c1.2-6.1,1.8-12.5,1.8-19C986.6,2947.8,986.2,2942.9,985.5,2938.1z
					 M831.4,2993.4c-4.9-6.7-8.6-14.4-10.8-22.6c-0.3-1.2-0.6-2.3-0.9-3.5c-0.1-0.5-0.2-0.9-0.3-1.4c-0.2-1.2-0.4-2.4-0.6-3.6
					c-0.5-3.1-0.7-6.3-0.7-9.5c0-4.3,0.4-8.5,1.2-12.5l-29.1-6.4c-1.2,6.1-1.8,12.5-1.8,19c0,5,0.4,9.9,1.1,14.7
					c0.2,1.7,0.5,3.3,0.9,5c0,0,0,0.1,0,0.2c0.3,1.6,0.7,3.3,1.1,4.9c3.2,12.6,8.9,24.2,16.4,34.3c0.3,0.5,0.7,0.9,1,1.4l23.2-18.7
					C831.9,2994.1,831.7,2993.8,831.4,2993.4z M890.1,2853.8c-0.8,0-1.7,0-2.5,0s-1.7,0-2.5,0c-12.5,0.3-24.5,3-35.5,7.5
					c-1.1,0.4-2.1,0.9-3.2,1.4l13,26.7c0.7-0.3,1.5-0.7,2.2-1c7.3-2.9,15.1-4.7,23.4-5c0.8,0,1.7,0,2.5,0s1.7,0,2.5,0
					c8.9,0.3,17.3,2.3,25,5.7l12.8-26.9C916.3,2857.1,903.5,2854.1,890.1,2853.8z M815.6,2884.7c-1.2,1.2-2.3,2.5-3.4,3.7
					c-0.2,0.2-0.5,0.5-0.7,0.8c-1.1,1.3-2.1,2.6-3.1,3.9c-7.4,9.8-13.1,21.1-16.4,33.3c-0.2,0.8-0.5,1.6-0.7,2.5l29.1,6.5
					c0.1-0.6,0.3-1.2,0.5-1.7c2.3-8,6-15.5,10.8-22c0.8-1.1,1.7-2.2,2.6-3.3c0.2-0.2,0.3-0.4,0.5-0.6c0.9-1.1,1.8-2.1,2.9-3.1
					c5-5.2,10.8-9.6,17.2-13l-13-26.7C832.1,2870,823.2,2876.7,815.6,2884.7z M860,3016.4c-0.9-0.4-1.8-0.8-2.7-1.3
					c-0.6-0.3-1.2-0.6-1.8-0.9c-0.9-0.5-1.8-1-2.6-1.5c-6.6-3.8-12.5-8.7-17.5-14.5l-23.1,18.7c7.5,8.8,16.5,16.2,26.6,22
					c1.2,0.7,2.5,1.4,3.8,2c0.2,0.1,0.4,0.2,0.6,0.3c1.3,0.6,2.6,1.3,3.9,1.8c11.6,5.2,24.4,8.2,37.9,8.6V3022
					C876.2,3021.7,867.7,3019.7,860,3016.4z M940.2,2997.8c-0.9,1.1-1.8,2.1-2.9,3.1c-5,5.2-10.7,9.5-17.1,13
					c-0.7,0.4-1.4,0.7-2.2,1.1c-0.8,0.4-1.6,0.8-2.4,1.1c-0.7,0.3-1.5,0.6-2.2,0.9c-7.2,2.9-15.1,4.7-23.4,5v29.8
					c12.5-0.3,24.5-3,35.5-7.5c1.1-0.4,2.1-0.9,3.2-1.4c0.5-0.2,1-0.4,1.4-0.7c1-0.5,2.1-1,3.1-1.5c9.8-5.1,18.7-11.8,26.2-19.8
					c1.2-1.2,2.3-2.5,3.4-3.7c0.2-0.2,0.4-0.5,0.7-0.8L940.2,2997.8z"/>
				<g>
					<g>
						<path class="st26" d="M978.3,2972.6c-0.1-0.2-0.6-0.5-0.9-0.6c-0.7-0.4-1.3-0.7-2-1.1c-0.3-0.2-0.7-0.5-1-0.5
							c-0.7,0-1.7,2.1-2.3,2.1c-0.3,0-0.7-0.3-1-0.4c-2.1-1.2-3.5-2.6-4.7-4.7c-0.2-0.3-0.4-0.7-0.4-1c0-0.6,2.1-1.6,2.1-2.3
							c0-0.4-0.3-0.7-0.5-1c-0.4-0.6-0.7-1.3-1.1-1.9c-0.1-0.2-0.4-0.8-0.6-0.9c-0.1,0-0.2,0-0.2,0c-0.4,0-1.2,0.2-1.6,0.4
							c-0.6,0.2-0.9,0.9-1.2,1.4c-0.4,0.7-0.6,1.4-0.6,2.1c0,1.1,0.4,2,0.8,3c0.3,0.7,0.6,1.4,0.9,2c1.2,1.9,3.5,4.3,5.5,5.5
							c0.6,0.4,1.3,0.7,2,0.9c1,0.4,1.9,0.8,3,0.8c0.8,0,1.4-0.2,2.1-0.6c0.5-0.3,1.2-0.6,1.4-1.2c0.2-0.4,0.4-1.2,0.4-1.6
							C978.4,2972.8,978.4,2972.7,978.3,2972.6z"/>
					</g>
				</g>
				<g>
					<path class="st26" d="M814,2964.4h-17v10.6h17V2964.4z M813,2974h-15v-8.6h15V2974z M813,2974"/>
					<path class="st26" d="M806.2,2975.8v0.5h-1.4v-0.5h-8.4v1.6h18.2v-1.6H806.2z M806.2,2975.8"/>
					<rect x="799.4" y="2967.1" class="st26" width="4.6" height="4.6"/>
					<rect x="805.5" y="2967.6" class="st26" width="6.1" height="1.2"/>
					<rect x="805.5" y="2969.9" class="st26" width="6.1" height="1.2"/>
				</g>
				<g>
					<path class="st26" d="M827.7,2896.3v11.8c0,1.2-0.9,2.1-2.1,2.1h-11.8c-1.2,0-2.1-0.9-2.1-2.1v-11.8c0-1.2,0.9-2.1,2.1-2.1
						h11.8C826.8,2894.2,827.7,2895.1,827.7,2896.3z"/>
					<path class="st15" d="M828.2,2899.9v1.2c-2.3,0.1-4.7,0.4-6.4,0.8c-0.4,0.1-0.8,0.2-1.1,0.3c-0.2,0.1-0.3,0.1-0.5,0.2
						c-3.7,1.4-3.9,1.3-3.9,0.8c0-0.5,1-1.2,2.9-1.8c0.2-0.1,0.5-0.2,0.9-0.2c0.4-0.1,0.9-0.2,1.6-0.3
						C823.3,2900.4,825.5,2900.1,828.2,2899.9z"/>
					<path class="st15" d="M820.2,2901.4l0.4,7.8c0,0.2,0,0.4,0,0.6c0,0.3,0.1,0.7,0.7,0.6c0.9-0.1,1.1-0.5,1.1-1.3
						c-0.1-0.7-0.5-7.8-0.6-8.5c-0.2-0.7-0.6-4.8-0.9-5.6s-1.2-1.5-2.1-0.6c-0.9,0.9-2.3,3.9-2.7,5.1c-0.4,1.2-1.5,5.1-1.6,5.8
						s-0.4,0-0.4-0.3c0-0.3-0.1-0.9-0.5-0.8s-1.1,0.4-0.8,1.4s0.5,3,1.1,3.2c0.6,0.1,1.1,0,1.2-1.6c0.2-1.5,2.1-8.9,4.1-11.2
						c0.1-0.1,0.2,0,0.2,0C819.4,2896.6,820,2898.8,820.2,2901.4z"/>
				</g>
				<g>
					<path class="st26" d="M933.6,3028.4v5.2h-3v-4.8c0-1.2-0.4-2-1.5-2c-0.8,0-1.3,0.6-1.5,1.1c-0.1,0.2-0.1,0.5-0.1,0.7v5.1h-3
						c0,0,0-8.2,0-9h3v1.3c0,0,0,0,0,0h0v0c0.4-0.6,1.1-1.5,2.7-1.5C932.1,3024.3,933.6,3025.6,933.6,3028.4L933.6,3028.4z
						 M921.3,3020.1c-1,0-1.7,0.7-1.7,1.6c0,0.9,0.7,1.6,1.7,1.6h0c1,0,1.7-0.7,1.7-1.6C922.9,3020.8,922.3,3020.1,921.3,3020.1
						L921.3,3020.1z M919.8,3033.6h3v-9h-3V3033.6z M919.8,3033.6"/>
				</g>
				<path class="st26" d="M847.5,3022.3c0.6,0,1.1,0,1.5,0.1c0.5,0.1,0.9,0.3,1.2,0.5c0.3,0.2,0.6,0.5,0.8,0.9
					c0.2,0.4,0.3,0.8,0.3,1.4c0,0.6-0.1,1.1-0.4,1.5c-0.3,0.4-0.7,0.7-1.2,1c0.7,0.2,1.3,0.6,1.6,1.1c0.4,0.5,0.5,1.1,0.5,1.9
					c0,0.6-0.1,1.1-0.3,1.5c-0.2,0.4-0.5,0.8-0.9,1.1c-0.4,0.3-0.8,0.5-1.3,0.6c-0.5,0.1-1,0.2-1.5,0.2H842v-11.7H847.5z
					 M847.1,3027c0.5,0,0.8-0.1,1.1-0.3c0.3-0.2,0.4-0.6,0.4-1.1c0-0.3,0-0.5-0.1-0.7c-0.1-0.2-0.2-0.3-0.4-0.4
					c-0.2-0.1-0.4-0.2-0.6-0.2c-0.2,0-0.4-0.1-0.7-0.1h-2.4v2.7L847.1,3027L847.1,3027z M847.3,3032c0.3,0,0.5,0,0.7-0.1
					c0.2,0,0.4-0.1,0.6-0.2c0.2-0.1,0.3-0.3,0.4-0.5c0.1-0.2,0.2-0.4,0.2-0.8c0-0.6-0.2-1-0.5-1.3c-0.3-0.3-0.8-0.4-1.3-0.4h-2.8
					v3.2H847.3L847.3,3032z M855,3031.8c0.3,0.3,0.9,0.5,1.5,0.5c0.5,0,0.9-0.1,1.2-0.4c0.3-0.2,0.5-0.5,0.6-0.7h2
					c-0.3,1-0.8,1.7-1.5,2.2c-0.7,0.4-1.5,0.7-2.5,0.7c-0.7,0-1.3-0.1-1.8-0.3c-0.5-0.2-1-0.5-1.4-0.9c-0.4-0.4-0.7-0.9-0.9-1.4
					c-0.2-0.5-0.3-1.1-0.3-1.8c0-0.6,0.1-1.2,0.3-1.8c0.2-0.5,0.5-1,0.9-1.4c0.4-0.4,0.8-0.7,1.4-0.9c0.5-0.2,1.1-0.3,1.8-0.3
					c0.7,0,1.3,0.1,1.9,0.4c0.5,0.3,1,0.7,1.3,1.1c0.3,0.5,0.6,1,0.7,1.6c0.2,0.6,0.2,1.2,0.2,1.9h-6.1
					C854.5,3030.9,854.7,3031.4,855,3031.8L855,3031.8z M857.6,3027.3c-0.3-0.3-0.7-0.5-1.3-0.5c-0.4,0-0.7,0.1-0.9,0.2
					c-0.2,0.1-0.4,0.3-0.6,0.5c-0.1,0.2-0.3,0.4-0.3,0.6c-0.1,0.2-0.1,0.4-0.1,0.6h3.8C858.1,3028.1,857.9,3027.6,857.6,3027.3z
					 M854,3022.9h4.7v1.3H854V3022.9z"/>
				<g>
					<path class="st26" d="M894.2,2873.7c-1.4-1.1-3.1-2.1-3.6-2.3h0c-0.1-0.1-0.2-0.1-0.4-0.1c-0.3,0-0.6,0.2-0.7,0.4
						c-0.3,0.5-1,1.6-2.4,1.6c-1.4,0-2.2-1.2-2.4-1.6v0l0,0c-0.1-0.2-0.4-0.4-0.7-0.4c-0.2,0-0.3,0-0.4,0.1
						c-0.3,0.2-2.1,1.1-3.6,2.3c-1.3,1.1-1.6,2.5-1.6,3.3c0,0.3,0.1,0.5,0.3,0.8c0.2,0.2,0.5,0.3,0.8,0.3l6.6,0h1.2v0h1l6.5,0
						c0.3,0,0.5-0.1,0.8-0.3c0.2-0.2,0.3-0.5,0.3-0.8C895.8,2876.2,895.6,2874.7,894.2,2873.7z M894.8,2877.5h-15.3
						c-0.3,0-0.5-0.2-0.5-0.5c0-0.7,0.2-1.9,1.4-2.8c1.3-1.1,2.9-2,3.5-2.3c0.1,0,0.2,0,0.3,0.1c0.3,0.5,1.2,1.9,2.9,1.9
						c1.7-0.1,2.6-1.4,2.9-1.9c0-0.1,0.2-0.1,0.3-0.1c0.5,0.3,2.1,1.2,3.5,2.3c1.1,0.9,1.3,2.1,1.4,2.8
						C895.3,2877.2,895.1,2877.5,894.8,2877.5z"/>
					<path class="st26" d="M895.3,2877c0,0.3-0.2,0.5-0.5,0.5h-15.3c-0.3,0-0.5-0.2-0.5-0.5c0-0.7,0.2-1.9,1.4-2.8
						c1.3-1.1,2.9-2,3.5-2.3c0.1,0,0.2,0,0.3,0.1c0.3,0.5,1.2,1.9,2.9,1.9c1.7-0.1,2.6-1.4,2.9-1.9c0-0.1,0.2-0.1,0.3-0.1
						c0.5,0.3,2.1,1.2,3.5,2.3C895,2875.1,895.2,2876.3,895.3,2877z"/>
					<path class="st26" d="M893,2865.3c-0.1-0.7-0.4-1-0.8-1.1v-0.7c0-2-1.6-3.7-3.7-3.7h-2.7c-2,0-3.7,1.6-3.7,3.7v0.7
						c-0.4,0.1-0.7,0.5-0.8,1.1c-0.1,0.5,0.1,1,0.4,1.4c0.2,0.2,0.5,0.4,0.7,0.5c0.1,0.6,0.2,1.6,1,2.2l0.2,0.1
						c1.1,0.8,2.4,1.8,3.5,1.8c1.1,0,2.4-1,3.5-1.8l0.2-0.1c0.8-0.6,0.9-1.6,1-2.2c0.3-0.1,0.5-0.3,0.7-0.5
						C892.9,2866.3,893.1,2865.8,893,2865.3z M891.4,2866.6c-0.3-0.1,0.1,1.5-0.9,2.3c-1,0.7-2.3,1.8-3.3,1.8
						c-0.9,0-2.3-1.1-3.3-1.8c-1-0.7-0.6-2.4-0.9-2.3c-0.3,0.1-1.1-0.3-1-1.2c0.1-0.9,0.8-0.6,0.8-0.6v-1.3c0-1.7,1.3-3,3-3h2.7
						c1.7,0,3,1.3,3,3v1.3c0,0,0,0,0,0c0,0,0.7-0.3,0.8,0.6C892.5,2866.3,891.6,2866.7,891.4,2866.6z"/>
					<path class="st26" d="M884.4,2862.8c-0.7,0-1,1.1-1,1.1v1.7h-0.5v-2.1c0-1.7,1.3-3,3-3h2.7c1.7,0,3,1.3,3,3v1.3c0,0,0,0,0,0
						v0.8H891v-1.7c0,0-0.2-1.1-1-1.1H884.4z"/>
				</g>
				<g>
					<polygon class="st26" points="950.4,2902.5 945.7,2907.2 945.7,2897 					"/>
					<polygon class="st26" points="961.6,2897 961.6,2907.2 957,2902.5 					"/>
					<path class="st26" d="M960.5,2908.3h-13.7l4.6-4.6l2,2.3c0.2,0.2,0.4,0.2,0.6,0l2-2.3L960.5,2908.3z"/>
					<path class="st26" d="M960.8,2895.5l-6.9,8.1c-0.1,0.1-0.4,0.1-0.5,0l-6.9-8.1H960.8z"/>
				</g>
			</g>
			<rect x="640.6" y="3043" class="st30" width="171.4" height="14.1"/>
			<rect x="664" y="2952.7" class="st30" width="103.7" height="14.1"/>
			<rect x="653.8" y="2855.8" class="st30" width="135.9" height="14.1"/>
			<rect x="829.9" y="2816.8" class="st30" width="115.1" height="14.1"/>
			<rect x="967.2" y="2863.1" class="st30" width="146.3" height="14.1"/>
			<rect x="999.9" y="2967.3" class="st30" width="131.6" height="14.1"/>
			<rect x="953.6" y="3055.1" class="st30" width="178.4" height="14.1"/>
			<use xlink:href="#SVGID_15_"  style="overflow:visible;fill:none;stroke:#D0202E;stroke-width:4.484;stroke-miterlimit:10;"/>
		</g>
		<g>
			<defs>
				<rect id="SVGID_17_" x="614.4" y="2796.7" width="546.1" height="312.1"/>
			</defs>
			<clipPath id="SVGID_18_">
				<use xlink:href="#SVGID_17_"  style="overflow:visible;"/>
			</clipPath>
		</g>
	</g>
</g>
<g>
	
		<image style="overflow:visible;opacity:0.4;" width="534" height="897" xlink:href="FC6C393CBFB1FA5D.png"  transform="matrix(1 0 0 1 550 1337)">
	</image>
	<g>
		<g>
			<g>
				<path class="st31" d="M910.1,1447.2H661.9c-28.2,0-51,22.8-51,51V2112c0,28.2,22.8,51,51,51h248.2c23.8,0,43.8-16.3,49.4-38.4
					c0.7-2.6,1.1-5.3,1.4-8.1c0.1-1.5,0.2-2.9,0.2-4.4v-613.9C961.1,1470,938.3,1447.2,910.1,1447.2z M954.4,2124.6
					c-2.1,7.5-6.1,14.3-11.7,20c-8.7,8.7-20.2,13.5-32.5,13.5H661.9c-12.3,0-23.8-4.8-32.5-13.5c-8.7-8.7-13.5-20.2-13.5-32.5
					v-613.9c0-12.3,4.8-23.8,13.5-32.5c8.7-8.7,20.2-13.5,32.5-13.5h248.2c12.3,0,23.8,4.8,32.5,13.5c8.7,8.7,13.5,20.2,13.5,32.5
					V2112c0,1.5-0.1,3-0.2,4.4C955.6,2119.2,955.1,2121.9,954.4,2124.6z"/>
				<path class="st32" d="M910.1,1447.2H661.9c-28.2,0-51,22.8-51,51V2112c0,28.2,22.8,51,51,51h248.2c23.8,0,43.8-16.3,49.4-38.4
					c0.7-2.6,1.1-5.3,1.4-8.1c0.1-1.5,0.2-2.9,0.2-4.4v-613.9C961.1,1470,938.3,1447.2,910.1,1447.2z M954.4,2124.6
					c-2.1,7.5-6.1,14.3-11.7,20c-8.7,8.7-20.2,13.5-32.5,13.5H661.9c-12.3,0-23.8-4.8-32.5-13.5c-8.7-8.7-13.5-20.2-13.5-32.5
					v-613.9c0-12.3,4.8-23.8,13.5-32.5c8.7-8.7,20.2-13.5,32.5-13.5h248.2c12.3,0,23.8,4.8,32.5,13.5c8.7,8.7,13.5,20.2,13.5,32.5
					V2112c0,1.5-0.1,3-0.2,4.4C955.6,2119.2,955.1,2121.9,954.4,2124.6z"/>
				<path class="st33" d="M956.1,1498.2V2112c0,1.5-0.1,3-0.2,4.4c-0.3,2.8-0.8,5.5-1.5,8.1c-2.1,7.5-6.1,14.3-11.7,20
					c-8.7,8.7-20.2,13.5-32.5,13.5H661.9c-12.3,0-23.8-4.8-32.5-13.5c-8.7-8.7-13.5-20.2-13.5-32.5v-613.9
					c0-12.3,4.8-23.8,13.5-32.5c8.7-8.7,20.2-13.5,32.5-13.5h248.2c12.3,0,23.8,4.8,32.5,13.5
					C951.3,1474.3,956.1,1485.9,956.1,1498.2z"/>
			</g>
			<rect x="626.9" y="1516.4" class="st34" width="318.3" height="565.8"/>
			<g>
				<g>
					<path class="st15" d="M756.5,1828.4l-1.1,2.7H751l6.1-15.8h4.5l5.9,15.8h-4.4l-1-2.7H756.5z M759.3,1820.2L759.3,1820.2l-1.7,5
						h3.4L759.3,1820.2z"/>
					<path class="st15" d="M772.5,1813.7v8h0c0.9-1.2,1.9-1.7,3.4-1.7c2.7,0,4,1.8,4,4.5v6.6h-3.8v-5.5c0-1.3-0.2-2.6-1.7-2.6
						c-1.5,0-2,1.3-2,2.6v5.5h-3.8v-17.4H772.5z"/>
					<path class="st15" d="M786.4,1821.7L786.4,1821.7c0.9-1.2,2.1-1.7,3.4-1.7c1.5,0,2.9,0.6,3.7,2.1c0.7-1.3,2.2-2.1,3.6-2.1
						c2.7,0,3.7,1.8,3.7,4.3v6.8h-3.8v-5.1c0-1.1,0-2.9-1.6-2.9c-1.8,0-1.8,1.7-1.8,2.9v5.1h-3.8v-5.1c0-1.2,0-3-1.7-3
						s-1.7,1.8-1.7,3v5.1h-3.8v-10.7h3.8V1821.7z"/>
					<path class="st15" d="M814.3,1826.4h-8c0,1.5,0.8,2.4,2.4,2.4c0.8,0,1.4-0.3,1.8-1h3.7c-0.3,1.3-1,2.2-2,2.8
						c-1,0.6-2.2,0.9-3.4,0.9c-3.6,0-6.2-2-6.2-5.7c0-3.6,2.5-5.7,5.9-5.7c3.7,0,5.9,2.3,5.9,6V1826.4z M810.7,1824.2
						c-0.2-1-1.1-1.7-2.2-1.7c-1.1,0-2,0.6-2.3,1.7H810.7z"/>
					<path class="st15" d="M824.1,1829.9L824.1,1829.9c-0.7,1.1-2,1.5-3.3,1.5c-3.2,0-5.4-2.7-5.4-5.7s2.2-5.7,5.4-5.7
						c1.2,0,2.5,0.5,3.3,1.4v-7.7h3.8v17.4h-3.8V1829.9z M819.3,1825.8c0,1.4,0.9,2.4,2.4,2.4s2.4-1,2.4-2.4c0-1.3-0.9-2.4-2.4-2.4
						S819.3,1824.4,819.3,1825.8z"/>
					<path class="st15" d="M841.7,1818.8v2.6h4.6v3.5h-4.6v2.7h4.9v3.5h-9v-15.8h9v3.5H841.7z"/>
					<path class="st15" d="M852.8,1831.1H849v-17.4h3.8V1831.1z"/>
					<path class="st15" d="M861.2,1822.8v3.1h-6v-3.1H861.2z"/>
					<path class="st15" d="M876,1827.6v3.5h-13.5l7.5-12.3h-6.2v-3.5h13.1l-7.4,12.3H876z"/>
					<path class="st15" d="M889.4,1826.4h-8c0,1.5,0.8,2.4,2.4,2.4c0.8,0,1.4-0.3,1.8-1h3.7c-0.3,1.3-1,2.2-2,2.8
						c-1,0.6-2.2,0.9-3.4,0.9c-3.6,0-6.2-2-6.2-5.7c0-3.6,2.5-5.7,5.9-5.7c3.7,0,5.9,2.3,5.9,6V1826.4z M885.8,1824.2
						c-0.2-1-1.1-1.7-2.2-1.7c-1.1,0-2,0.6-2.3,1.7H885.8z"/>
					<path class="st15" d="M895.1,1816.2c0,1.2-1,2.1-2.1,2.1c-1.2,0-2.1-1-2.1-2.1c0-1.2,1-2.1,2.1-2.1
						C894.2,1814.1,895.1,1815.1,895.1,1816.2z M894.9,1831.1h-3.8v-10.7h3.8V1831.1z"/>
					<path class="st15" d="M901.2,1821.8L901.2,1821.8c0.9-1.3,2-1.7,3.5-1.7c2.9,0,4,1.8,4,4.5v6.6h-3.8v-5.2c0-1,0.2-2.8-1.7-2.8
						c-1.5,0-2,1.2-2,2.5v5.6h-3.8v-10.7h3.8V1821.8z"/>
				</g>
				<path class="st16" d="M908,1777c-4,0-13.8,7.9-21.6,15.7c1.7-3.2,5.2-8.7,6.5-11.6c0.4-0.8,0.4-1,0.4-1.3c0-1.8-3.3-3.4-6.3-3.4
					c-1.8,0-3.6,0.5-4.4,2c-1.2,2-2.3,3.9-3.3,5.8c-4.9,3.6-12.9,9.4-20.7,12c1.4-5.3,6-13.7,6-16.3c0-2.1-3.6-2.9-5.6-2.9
					c-1.8,0-3.2,0.7-4,2c-1,1.4-2,3.4-2.9,5.4c-4.7,3.6-12.3,9.2-19.8,12.1c-2,0.7-4.3,1.4-6.5,1.4c-2.2,0-4.2-0.5-5.2-2.1
					c7.7-1.7,17-6,17-12.6c0-4.1-3.2-6.4-8.6-6.4c-7.5,0-17,6.1-19.2,13.7c-0.4,0.1-0.9,0.3-1.3,0.6c-2.1,1-4.7,2.1-7.9,3.1
					c-3.2,1-6.6,1.9-10.3,2.6c-3.7,0.7-7.6,1.2-11.7,1.6c-4.1,0.3-8,0.4-11.8,0.2c-2.8-0.3-4.4-1-4.9-2c-0.3-0.8-0.1-1.6,0.7-2.6
					c0.7-1,1.7-2,2.8-3.2c3.2-3.3,10.8-12,15.3-16.1c4.2-3.8,8.5-7.7,12.9-11.6c29.6-0.9,56.9,0.2,61.3,1.5
					c8.4,2.6,11.9-1.4,9.9-6.5c-2-5.2-11.3-5.9-11.3-5.9c-17.6-0.3-33.8,0-48.5,0.8c1.1-1,2.2-2,3.3-3c4.5-4,8.4-7.5,11.8-10.7
					c2.6-2.5,4.4-5.1,5.4-7.8c1-2.7,1.1-5.1,0.2-7.3c-0.8-1.9-2.2-3.4-4.3-4.6c-2.1-1.1-5-1.6-8.6-1.4c-9.5,0.2-18.3,0.8-26.6,1.7
					c-8.2,1-16.1,2.3-23.7,4.2c-2.7,0.8-4.7,1.8-6,3c-1.3,1.3-2.1,2.7-2.2,3.9c-0.1,1.3,0.2,2.5,0.9,3.5c0.6,1,1.4,1.8,2.5,2.2
					c1.1,0.4,2.2,0.3,3.4-0.3c1.1-0.7,2.4-1.2,3.9-1.7c7.1-1.6,13.9-2.9,20.6-3.7c6.7-0.9,13.9-1.5,21.8-1.9c1.9,0,3.1,0.4,3.6,1.3
					c0.4,0.6,0.4,1.2,0,2c-0.4,0.8-1,1.5-1.7,2.3c-3.8,3.4-7.9,6.9-12.2,10.8c-3.1,2.8-6.3,5.6-9.5,8.5c-24.6,1.8-44,4.7-57.6,7.2
					c-0.1-0.4-0.1-0.7-0.2-0.9c-1.2-5.5-4.4-36.2-7.1-42.2c-2.7-6-9.1-11.4-15.6-4.9c-6.5,6.6-17,29.4-20.3,38.4
					c-3.3,9-11.1,38.2-12,43.7c-0.9,5.5-3.1,0.1-3.3-2.3c-0.2-2.5-0.6-6.8-4.1-6c-3.5,0.8-8.6,3-6.1,10.7s3.7,22.7,8.5,23.8
					c4.8,1.1,8.1-0.3,9.4-11.9c1.3-11.4,15.8-67.3,30.8-84.3c0.4-0.5,1.2-0.3,1.4,0.3c1.3,4.4,5.4,19.4,7,38.1
					c-2.9,0.7-5.2,1.3-7,1.8c-14.5,4.3-21.7,9.6-21.9,13.6c-0.2,3.8,1.2,4.5,29.5-5.7l2.7,51.5c0.1,1.4,0.1,2.8,0,4.2
					c-0.1,1.9,0.5,5.3,5.1,4.9c6.4-0.6,8.7-4,8-9.6c-0.6-4.3-2.4-37.9-3.8-54.8c12.2-2.9,28.8-4.8,46.1-5.8c-2,1.8-4,3.7-6,5.6
					c-4.4,4.1-12.3,13.1-16.2,17c-2.8,2.8-4.7,5.4-5.8,8c-1.1,2.6-1.3,4.9-0.7,6.9c1.3,4.2,6,6.8,13.9,7.6c4.2,0.5,8.7,0.6,13.4,0.3
					c4.7-0.3,9.4-0.8,14-1.6c4.6-0.8,9-1.8,13.1-3c3.5-1,6.7-2.1,9.5-3.3c2.2,2.3,5.6,3.3,10,3.3c8.2,0,16.4-4.2,26.1-10.7
					c-0.9,2.2-1.5,4.4-1.5,6c0,3.2,1.5,4.6,4.1,4.6c5.5,0,14.1-4.2,24-10.6c-1.4,3.3-2.2,5.8-2.2,7.3c0,1.8,3.7,3.7,5.5,3.7
					c3,0,13.1-11.2,21-16.4c-1.1,2.8-3.9,8.1-3.9,12.8c0,3.2,1.5,4.1,3,4.1c3.5,0,7.8-2.4,8.3-4c0.6-2.1-0.6-3.4,2.7-10.2
					c2.4-4.8,3.5-7.2,3.5-10C912.3,1779.1,910,1777,908,1777z M827.4,1782c1.2,0,1.8,0.8,1.8,1.9c0,2.2-2.5,5.5-8.9,6.7
					C821,1785.3,824.1,1782,827.4,1782z"/>
			</g>
			<rect x="956.1" y="1505.5" class="st35" width="5" height="8.1"/>
			<path class="st35" d="M960.9,2116.4c-0.2,2.8-0.7,5.5-1.4,8.1h-5.2c0.7-2.6,1.2-5.4,1.5-8.1H960.9z"/>
			<path class="st35" d="M611.1,2116.4c0.2,2.8,0.7,5.5,1.4,8.1h5.2c-0.7-2.6-1.2-5.4-1.5-8.1H611.1z"/>
			<rect x="610.9" y="1505.5" class="st35" width="5" height="8.1"/>
			<path class="st36" d="M961.1,1660.3L961.1,1660.3v-41.3l0,0c1.2,0,2.2,1,2.2,2.2v36.8C963.3,1659.3,962.3,1660.3,961.1,1660.3z"
				/>
			<path class="st37" d="M817.3,1480h-63.1c-1.9,0-3.4-1.5-3.4-3.4l0,0c0-1.9,1.5-3.4,3.4-3.4h63.1c1.9,0,3.4,1.5,3.4,3.4l0,0
				C820.7,1478.5,819.2,1480,817.3,1480z"/>
			<path class="st38" d="M750.8,1476.6L750.8,1476.6c0-1.9,1.5-3.4,3.4-3.4h63.1c1.9,0,3.4,1.5,3.4,3.4l0,0"/>
			<path class="st39" d="M794.3,1510.2h-14.7c-2.9,0-5.2-2.3-5.2-5.2v-0.3c0-2.9,2.3-5.2,5.2-5.2h14.7c2.9,0,5.2,2.3,5.2,5.2v0.3
				C799.5,1507.9,797.2,1510.2,794.3,1510.2z"/>
			<circle class="st39" cx="672" cy="1476.6" r="7.7"/>
			<circle class="st40" cx="672" cy="1476.6" r="3.8"/>
			<rect x="866.5" y="1447.2" class="st35" width="9.2" height="5"/>
			<path class="st36" d="M961.1,1810.6L961.1,1810.6l0-90h0c1.2,0,2.2,1,2.2,2.2v85.5C963.3,1809.6,962.4,1810.6,961.1,1810.6z"/>
			<rect x="627.3" y="2042.7" width="317.5" height="39.1"/>
			<path class="st26" d="M880.7,2066.5h-8.2c-0.5,0-1-0.4-1-1v-8.2c0-0.5,0.4-1,1-1h8.2c0.5,0,1,0.4,1,1v8.2
				C881.7,2066.1,881.3,2066.5,880.7,2066.5z"/>
			<circle class="st26" cx="785.4" cy="2060.9" r="6.2"/>
			<path class="st26" d="M785.4,2052c-4.9,0-9,4-9,9s4,9,9,9s9-4,9-9S790.4,2052,785.4,2052z M785.4,2068.6c-4.2,0-7.7-3.4-7.7-7.7
				s3.4-7.7,7.7-7.7c4.2,0,7.7,3.4,7.7,7.7S789.6,2068.6,785.4,2068.6z"/>
			<path class="st26" d="M690.8,2060.5l7.4-4.3c0.8-0.5,1.8,0.1,1.8,1v8.6c0,0.9-1,1.5-1.8,1l-7.4-4.3
				C690,2062.1,690,2061,690.8,2060.5z"/>
		</g>
	</g>
</g>
<g>
	
		<image style="overflow:visible;opacity:0.4;" width="1433" height="1791" xlink:href="FC6C393CBFB1FA5E.png"  transform="matrix(1 0 0 1 1809 2192)">
	</image>
	<g>
		<g>
			<defs>
				<rect id="SVGID_19_" x="1887.1" y="2320.6" width="1216.5" height="1574.4"/>
			</defs>
			<clipPath id="SVGID_20_">
				<use xlink:href="#SVGID_19_"  style="overflow:visible;"/>
			</clipPath>
			<g class="st41">
				<g>
					<g>
						<defs>
							<rect id="SVGID_21_" x="1950" y="2773" width="24.5" height="15.3"/>
						</defs>
						<clipPath id="SVGID_22_">
							<use xlink:href="#SVGID_21_"  style="overflow:visible;"/>
						</clipPath>
					</g>
				</g>
			</g>
		</g>
		<g>
			<defs>
				<rect id="SVGID_23_" x="1887.1" y="2320.6" width="1216.5" height="1574.4"/>
			</defs>
			<use xlink:href="#SVGID_23_"  style="overflow:visible;fill:#FFFFFF;"/>
			<clipPath id="SVGID_24_">
				<use xlink:href="#SVGID_23_"  style="overflow:visible;"/>
			</clipPath>
			<g class="st42">
				<polygon class="st43" points="3073.3,2499.7 2896.1,2499.7 2808.2,2388.4 2785,2359 2740.6,2302.7 2919.4,2302.7 				"/>
				<polygon class="st44" points="2896.1,2499.7 2720.6,2499.7 2808.2,2388.4 				"/>
				<polygon class="st45" points="3121.5,2302.7 3121.5,2499.7 3073.3,2499.7 2919.4,2302.7 				"/>
				<rect x="1869.2" y="2535.3" class="st46" width="411.5" height="1270"/>
				<g>
					<path class="st46" d="M2337.6,2851.4v-0.6c0-0.7-0.6-1.3-1.3-1.3s-1.3,0.6-1.3,1.3v0.6c0,0.7,0.6,1.3,1.3,1.3
						S2337.6,2852.1,2337.6,2851.4L2337.6,2851.4z M2337.6,2851.4"/>
					<g>
						<path class="st46" d="M2338.4,2852.1c-0.3,0.9-1.1,1.6-2.1,1.6c-1,0-1.8-0.7-2.1-1.6h-8.7c-0.5,0-1.1-0.1-1.5-0.3v5.8
							c0,1.1,0.9,2,2,2h20.5c1.1,0,2-0.9,2-2v-5.7c-0.5,0.2-1,0.3-1.5,0.3H2338.4z M2338.4,2852.1"/>
						<path class="st46" d="M2347,2841.7h-4.9c-0.3-1.8-1.9-3.3-3.8-3.3h-3.9c-1.9,0-3.5,1.4-3.8,3.3h-4.9c-1.2,0-2.1,0.9-2.1,2v4.7
							c0,1.1,0.9,2,2,2h8.6c0-0.6,0.3-1.1,0.7-1.5c0,0,0,0,0,0c0.1-0.1,0.2-0.2,0.3-0.2c0,0,0.1,0,0.1-0.1c0.1,0,0.2-0.1,0.3-0.1
							c0.1,0,0.1,0,0.2-0.1c0.1,0,0.1,0,0.2-0.1c0.1,0,0.3,0,0.4,0c0.2,0,0.3,0,0.4,0c0.1,0,0.1,0,0.2,0.1c0.1,0,0.1,0,0.2,0.1
							c0.1,0,0.2,0.1,0.3,0.1c0,0,0.1,0,0.1,0.1c0.1,0.1,0.2,0.1,0.3,0.2c0,0,0,0,0,0c0.4,0.4,0.7,0.9,0.7,1.5h8.6c1.1,0,2-0.9,2-2
							v-4.7C2349.1,2842.7,2348.2,2841.7,2347,2841.7L2347,2841.7z M2332.5,2841.7c0.3-0.8,1-1.4,1.9-1.4h3.9c0.9,0,1.6,0.6,1.9,1.4
							H2332.5z M2332.5,2841.7"/>
					</g>
				</g>
				<g>
					<path class="st26" d="M1964.5,2736.2c-1.4,0-2.1,0.8-2.4,1.3v-1.1h-2.7c0,0.8,0,8.1,0,8.1h2.7v-4.5c0-0.3,0-0.5,0.1-0.7
						c0.2-0.5,0.6-1,1.4-1c1,0,1.4,0.7,1.4,1.8v4.3h2.7v-4.7C1967.6,2737.3,1966.2,2736.2,1964.5,2736.2z"/>
					<rect x="1955.2" y="2736.4" class="st26" width="2.7" height="8.1"/>
					<path class="st26" d="M1978.1,2738.5c0,9.2-7.5,16.7-16.7,16.7s-16.7-7.5-16.7-16.7s7.5-16.7,16.7-16.7
						S1978.1,2729.3,1978.1,2738.5z"/>
					<path class="st26" d="M1956.5,2732.5c-0.9,0-1.5,0.6-1.5,1.4c0,0.8,0.6,1.4,1.5,1.4c1,0,1.5-0.6,1.5-1.4
						C1958,2733.1,1957.5,2732.5,1956.5,2732.5z"/>
				</g>
				<circle class="st26" cx="1961.5" cy="2780.4" r="16.7"/>
				<circle class="st26" cx="1961.4" cy="2637.8" r="16.7"/>
				<circle class="st26" cx="1961.5" cy="2822.2" r="16.7"/>
				<g>
					<path class="st46" d="M1954.3,2645.4c0,0,0,0.4,0.4,0.4c0.5,0,5,0,5,0l0-4.1c0,0-0.1-0.7,0.6-0.7h2.1c0.8,0,0.7,0.7,0.7,0.7
						l0,4.1h4.9c0.6,0,0.5-0.6,0.5-0.6v-7.6l-6.9-6.2l-7.4,6.2V2645.4z M1954.3,2645.4"/>
					<path class="st46" d="M1951.6,2637.1c0,0,0.6,1.2,2,0l8.1-6.9l7.6,6.8c1.6,1.1,2.2,0,2.2,0l-9.8-8.9L1951.6,2637.1z
						 M1951.6,2637.1"/>
					<path class="st46" d="M1969.1,2630.2h-2l0,2.4l2,1.7V2630.2z M1969.1,2630.2"/>
				</g>
				<g>
					<g>
						<circle class="st26" cx="1961.4" cy="2696.6" r="16.7"/>
					</g>
				</g>
				<g>
					<g>
						<path class="st46" d="M1970.1,2701.3c-0.1-0.3-0.7-0.5-0.9-0.7c-0.7-0.4-1.4-0.8-2.1-1.2c-0.3-0.2-0.7-0.6-1.1-0.6
							c-0.7,0-1.8,2.2-2.5,2.2c-0.3,0-0.8-0.3-1.1-0.5c-2.2-1.2-3.8-2.8-5-5c-0.2-0.3-0.5-0.7-0.5-1.1c0-0.7,2.2-1.8,2.2-2.5
							c0-0.4-0.4-0.8-0.6-1.1c-0.4-0.7-0.8-1.4-1.2-2.1c-0.1-0.2-0.4-0.8-0.7-0.9c-0.1,0-0.2,0-0.3,0c-0.4,0-1.3,0.2-1.7,0.4
							c-0.6,0.3-1,0.9-1.3,1.5c-0.4,0.7-0.6,1.5-0.6,2.3c0,1.1,0.5,2.2,0.8,3.2c0.3,0.7,0.6,1.5,1,2.1c1.3,2.1,3.8,4.6,5.9,5.9
							c0.7,0.4,1.4,0.7,2.1,1c1,0.4,2.1,0.8,3.2,0.8c0.8,0,1.6-0.2,2.3-0.6c0.6-0.3,1.2-0.7,1.5-1.3c0.2-0.4,0.4-1.3,0.4-1.7
							C1970.2,2701.5,1970.2,2701.4,1970.1,2701.3z"/>
					</g>
				</g>
				<g>
					<g>
						<rect x="1940.5" y="2911.6" class="st45" width="303.8" height="1.4"/>
					</g>
				</g>
				<rect x="2315" y="3062.9" class="st47" width="755.6" height="0.5"/>
				<polygon class="st43" points="1948.9,2946.3 1963.6,2946.3 1970.9,2937 1972.9,2934.6 1976.6,2929.9 1961.7,2929.9 				"/>
				<polygon class="st44" points="1963.6,2946.3 1978.2,2946.3 1970.9,2937 				"/>
				<polygon class="st45" points="1944.9,2929.9 1944.9,2946.3 1948.9,2946.3 1961.7,2929.9 				"/>
				<polygon class="st43" points="1948.9,2602.7 1963.6,2602.7 1970.9,2593.4 1972.9,2591 1976.6,2586.3 1961.7,2586.3 				"/>
				<polygon class="st44" points="1963.6,2602.7 1978.2,2602.7 1970.9,2593.4 				"/>
				<polygon class="st45" points="1944.9,2586.3 1944.9,2602.7 1948.9,2602.7 1961.7,2586.3 				"/>
				<g>
					<path class="st46" d="M1971.5,2815.1h-19.8v12.4h19.8V2815.1z M1970.4,2826.3h-17.5v-10h17.5V2826.3z M1970.4,2826.3"/>
					<path class="st46" d="M1962.4,2828.4v0.6h-1.7v-0.6h-9.8v1.8h21.3v-1.8H1962.4z M1962.4,2828.4"/>
					<rect x="1954.5" y="2818.3" class="st46" width="5.4" height="5.4"/>
					<rect x="1961.6" y="2818.9" class="st46" width="7.1" height="1.4"/>
					<rect x="1961.6" y="2821.6" class="st46" width="7.1" height="1.4"/>
				</g>
				<g>
					<path class="st26" d="M1961.5,2847.4c-9.2,0-16.7,7.5-16.7,16.7s7.5,16.7,16.7,16.7s16.7-7.5,16.7-16.7
						S1970.8,2847.4,1961.5,2847.4z M1953.2,2855.7h16.7c0.3,0,0.6,0.1,0.9,0.2l-9.2,10.7l-9.2-10.7
						C1952.6,2855.8,1952.9,2855.7,1953.2,2855.7z M1951.1,2870.3v-12.7l6.1,7.2l-6,6C1951.1,2870.7,1951.1,2870.5,1951.1,2870.3z
						 M1969.9,2872.4h-16.7c-0.2,0-0.4,0-0.5-0.1l5.9-5.9l2.9,3.4l2.9-3.4l5.9,5.9C1970.3,2872.4,1970.1,2872.4,1969.9,2872.4z
						 M1972,2870.3c0,0.2,0,0.4-0.1,0.5l-6-6l6.1-7.2V2870.3z"/>
					<path class="st46" d="M1972,2857.7v12.7c0,0.2,0,0.4-0.1,0.5l-6-6L1972,2857.7z"/>
					<path class="st46" d="M1970.4,2872.3c-0.2,0.1-0.4,0.1-0.5,0.1h-16.7c-0.2,0-0.4,0-0.5-0.1l5.9-5.9l2.9,3.4l2.9-3.4
						L1970.4,2872.3z"/>
					<path class="st46" d="M1957.2,2864.8l-6,6c-0.1-0.2-0.1-0.4-0.1-0.5v-12.7L1957.2,2864.8z"/>
					<path class="st46" d="M1970.7,2855.9l-9.2,10.7l-9.2-10.7c0.3-0.1,0.6-0.2,0.9-0.2h16.7
						C1970.2,2855.7,1970.5,2855.8,1970.7,2855.9z"/>
				</g>
				<g>
					<g>
						<defs>
							<rect id="SVGID_25_" x="1950" y="2773" width="24.5" height="15.3"/>
						</defs>
						<clipPath id="SVGID_26_">
							<use xlink:href="#SVGID_25_"  style="overflow:visible;"/>
						</clipPath>
						<path class="st48" d="M1972.1,2775.1h-6.1v-1.5h6.1V2775.1z M1961.9,2781.4c0.4,0.6,0.6,1.4,0.6,2.2c0,0.9-0.2,1.7-0.7,2.4
							c-0.3,0.5-0.6,0.9-1.1,1.2c-0.5,0.4-1.1,0.6-1.7,0.8c-0.7,0.1-1.4,0.2-2.1,0.2h-6.9V2773h7.4c1.9,0,3.2,0.6,3.9,1.6
							c0.5,0.6,0.7,1.4,0.7,2.3c0,0.9-0.2,1.7-0.7,2.2c-0.3,0.3-0.6,0.6-1.2,0.9C1960.9,2780.3,1961.5,2780.7,1961.9,2781.4
							L1961.9,2781.4z M1953.5,2779h3.2c0.7,0,1.2-0.1,1.6-0.4c0.4-0.3,0.6-0.7,0.6-1.3c0-0.7-0.3-1.2-0.8-1.4
							c-0.5-0.2-1.1-0.2-1.8-0.2h-2.8V2779z M1959.3,2783.4c0-0.8-0.3-1.3-1-1.6c-0.4-0.2-0.9-0.3-1.5-0.3h-3.3v4.1h3.2
							c0.7,0,1.2-0.1,1.5-0.3C1959,2784.9,1959.3,2784.3,1959.3,2783.4L1959.3,2783.4z M1974.4,2780.9c0.1,0.5,0.1,1.2,0.1,2.2h-7.9
							c0,1.1,0.4,1.9,1.1,2.3c0.4,0.3,1,0.4,1.6,0.4c0.6,0,1.2-0.2,1.6-0.5c0.2-0.2,0.4-0.4,0.6-0.7h2.9c-0.1,0.6-0.4,1.3-1.1,2
							c-1,1.1-2.3,1.6-4.1,1.6c-1.5,0-2.7-0.4-3.8-1.3c-1.1-0.9-1.7-2.4-1.7-4.4c0-1.9,0.5-3.3,1.5-4.3c1-1,2.3-1.5,3.9-1.5
							c0.9,0,1.8,0.2,2.6,0.5c0.8,0.3,1.4,0.9,1.9,1.6C1974,2779.3,1974.3,2780,1974.4,2780.9L1974.4,2780.9z M1971.5,2781.2
							c-0.1-0.8-0.3-1.3-0.8-1.7c-0.5-0.4-1-0.6-1.7-0.6c-0.7,0-1.3,0.2-1.7,0.6c-0.4,0.4-0.7,1-0.8,1.7H1971.5z M1971.5,2781.2"/>
					</g>
				</g>
				<g>
					<path class="st46" d="M1970.9,2739.8v6.8h-4v-6.4c0-1.6-0.6-2.7-2-2.7c-1.1,0-1.7,0.7-2,1.4c-0.1,0.3-0.1,0.6-0.1,1v6.7h-4
						c0,0,0.1-10.8,0-11.9h4v1.7c0,0,0,0,0,0h0v0c0.5-0.8,1.5-2,3.6-2C1968.9,2734.5,1970.9,2736.2,1970.9,2739.8L1970.9,2739.8z
						 M1954.6,2729c-1.4,0-2.2,0.9-2.2,2.1c0,1.1,0.9,2.1,2.2,2.1h0c1.4,0,2.2-0.9,2.2-2.1C1956.8,2729.9,1956,2729,1954.6,2729
						L1954.6,2729z M1952.6,2746.7h4v-11.9h-4V2746.7z M1952.6,2746.7"/>
				</g>
				<text transform="matrix(1 0 0 1 2582.8389 2594.4807)" class="st49 st50 st51">Profile</text>
				<text transform="matrix(1 0 0 1 1985.2506 2603.7581)" class="st26 st50 st51">Contact</text>
				<text transform="matrix(1 0 0 1 1985.2506 2948.5188)" class="st26 st50 st51">Skills</text>
				<g>
					<text transform="matrix(1 0 0 1 2359.957 2859.5256)" class="st49 st50 st51">Work Experience</text>
				</g>
				<text transform="matrix(1 0 0 1 1985.2506 2401.179)" class="st49 st52 st53 st54">A</text>
				<text transform="matrix(1 0 0 1 2038.3488 2401.179)" class="st49 st52 st53 st55">h</text>
				<text transform="matrix(1 0 0 1 2090.4814 2401.179)" class="st49 st52 st53 st55">m</text>
				<text transform="matrix(1 0 0 1 2154.9937 2401.179)" class="st49 st52 st53">ed El-Ze</text>
				<text transform="matrix(1 0 0 1 2457.5498 2401.179)" class="st49 st52 st53 st55">i</text>
				<text transform="matrix(1 0 0 1 2476.0117 2401.179)" class="st49 st52 st53">n</text>
				<text transform="matrix(1 0 0 1 1985.2506 2434.5745)" class="st56 st50 st51">G</text>
				<text transform="matrix(0.7 0 0 0.7 2005.4547 2434.5745)" class="st56 st50 st51">raphic</text>
				<text transform="matrix(1 0 0 1 2077.2397 2434.5745)" class="st56 st50 st51"> D</text>
				<text transform="matrix(0.7 0 0 0.7 2105.1665 2434.5745)" class="st56 st50 st51">esigner</text>
				<path class="st46" d="M2547.9,2570.3c-9.2,0-16.7,7.5-16.7,16.7s7.5,16.7,16.7,16.7s16.7-7.5,16.7-16.7
					S2557.2,2570.3,2547.9,2570.3z M2547.9,2602.6c-8.6,0-15.7-7-15.7-15.6s7-15.7,15.7-15.7c8.6,0,15.6,7,15.6,15.7
					S2556.6,2602.6,2547.9,2602.6z"/>
				<g>
					<path class="st46" d="M2557,2591.3c-1.8-1.4-4-2.7-4.7-3h0c-0.2-0.1-0.3-0.1-0.5-0.1c-0.4,0-0.7,0.2-0.9,0.5
						c-0.3,0.6-1.3,2-3.1,2.1c-1.8-0.1-2.8-1.6-3.1-2.1v0l0,0c-0.2-0.3-0.5-0.5-0.9-0.5c-0.2,0-0.3,0-0.5,0.1
						c-0.4,0.2-2.7,1.5-4.7,3c-1.7,1.4-2,3.3-2.1,4.3c0,0.4,0.1,0.7,0.4,1c0.3,0.3,0.6,0.4,1,0.4l8.5,0h1.5v0h1.3l8.4,0
						c0.4,0,0.7-0.2,1-0.4c0.3-0.3,0.4-0.6,0.4-1C2559,2594.5,2558.7,2592.7,2557,2591.3z M2557.7,2596.2H2538
						c-0.4,0-0.6-0.3-0.6-0.6c0-0.9,0.3-2.5,1.8-3.7c1.7-1.4,3.8-2.6,4.5-3c0.1-0.1,0.3,0,0.4,0.1c0.3,0.7,1.5,2.4,3.7,2.5
						c2.2-0.1,3.4-1.8,3.8-2.5c0-0.1,0.2-0.2,0.4-0.1c0.7,0.4,2.8,1.6,4.6,3c1.5,1.2,1.7,2.8,1.8,3.7
						C2558.3,2595.9,2558.1,2596.2,2557.7,2596.2z"/>
					<path class="st46" d="M2558.3,2595.6c0,0.3-0.3,0.6-0.6,0.6H2538c-0.4,0-0.6-0.3-0.6-0.6c0-0.9,0.3-2.5,1.8-3.7
						c1.7-1.4,3.8-2.6,4.5-3c0.1-0.1,0.3,0,0.4,0.1c0.3,0.7,1.5,2.4,3.7,2.5c2.2-0.1,3.4-1.8,3.8-2.5c0-0.1,0.2-0.2,0.4-0.1
						c0.7,0.4,2.8,1.6,4.6,3C2558,2593.1,2558.3,2594.7,2558.3,2595.6z"/>
					<path class="st46" d="M2555.4,2580.5c-0.1-0.9-0.6-1.3-1-1.5v-0.9c0-2.6-2.1-4.7-4.7-4.7h-3.5c-2.6,0-4.7,2.1-4.7,4.7v0.9
						c-0.5,0.2-0.9,0.6-1,1.5c-0.1,0.7,0.1,1.3,0.5,1.8c0.3,0.3,0.6,0.5,0.9,0.6c0.1,0.8,0.2,2.1,1.3,2.9l0.2,0.2
						c1.4,1.1,3.1,2.4,4.5,2.4c1.4,0,3.1-1.3,4.5-2.3l0.2-0.2c1.1-0.8,1.2-2.1,1.3-2.9c0.3-0.1,0.7-0.3,0.9-0.6
						C2555.3,2581.8,2555.5,2581.2,2555.4,2580.5z M2553.3,2582.1c-0.3-0.1,0.1,2-1.1,2.9c-1.3,0.9-3,2.4-4.2,2.4s-3-1.4-4.2-2.4
						c-1.3-1-0.8-3-1.1-2.9c-0.3,0.1-1.4-0.4-1.3-1.5c0.1-1.2,1-0.7,1-0.7v-1.7c0-2.1,1.7-3.9,3.9-3.9h3.5c2.1,0,3.9,1.7,3.9,3.9
						v1.7c0,0,0,0,0,0c0,0,0.9-0.4,1,0.7C2554.7,2581.8,2553.6,2582.2,2553.3,2582.1z"/>
					<path class="st46" d="M2544.3,2577.2c-1,0-1.2,1.4-1.2,1.4v2.2h-0.7v-2.7c0-2.1,1.7-3.9,3.9-3.9h3.5c2.1,0,3.9,1.7,3.9,3.9v1.7
						c0,0,0,0,0,0v1h-0.7v-2.2c0,0-0.3-1.4-1.2-1.4H2544.3z"/>
				</g>
				<g>
					<path class="st46" d="M2466.8,2745.1c-12.7-10-28.1-18.6-32.4-21.1h-0.2c-1.2-0.6-2.1-0.8-3.3-0.8c-2.7,0-5.1,1.4-6.4,3.7
						c-2.3,4.1-9.4,14.1-21.5,14.5c-12.7-0.4-19.5-11.1-21.5-14.5v-0.2l-0.2-0.2c-1.2-2.1-3.7-3.3-6.1-3.3c-1.4,0-2.3,0.2-3.5,0.8
						c-3.1,1.6-19,10.4-32.6,21.1c-12.1,9.8-14.3,22.9-14.5,29.7c-0.2,2.7,0.8,4.9,2.7,6.8c1.8,1.8,4.3,2.9,6.8,2.9l59.4,0.2h10.6
						v-0.2h9.2l58.6,0.2c2.7,0,4.9-1.2,6.8-3.1c1.8-1.8,2.7-4.3,2.7-6.8C2481.1,2767.8,2478.8,2754.7,2466.8,2745.1z M2471.9,2779.3
						h-137.8c-2.5,0-4.3-2-4.3-4.3c0.2-6.3,2.2-17.4,12.7-25.6c12.1-9.8,26.6-18,31.7-20.7c1-0.4,2.1-0.2,2.7,0.8
						c2.3,4.7,10.7,16.8,26,17.4c15.2-0.6,23.6-12.7,26.4-17.4c0.2-1,1.6-1.2,2.5-0.8c4.9,2.7,19.3,10.9,31.9,20.7
						c10.4,8.2,12.1,19.3,12.5,25.6C2476.2,2777.4,2474.5,2779.3,2471.9,2779.3z"/>
					<path class="st46" d="M2476.2,2775c0,2.3-1.8,4.3-4.3,4.3h-137.8c-2.5,0-4.3-2-4.3-4.3c0.2-6.3,2.2-17.4,12.7-25.6
						c12.1-9.8,26.6-18,31.7-20.7c1-0.4,2.1-0.2,2.7,0.8c2.3,4.7,10.7,16.8,26,17.4c15.2-0.6,23.6-12.7,26.4-17.4
						c0.2-1,1.6-1.2,2.5-0.8c4.9,2.7,19.3,10.9,31.9,20.7C2474.1,2757.6,2475.8,2768.8,2476.2,2775z"/>
					<path class="st46" d="M2456,2669.8c-0.8-6-3.9-9-7.2-10.2v-6c0-18.2-14.8-32.9-32.9-32.9h-24.2c-18.2,0-32.9,14.8-32.9,32.9v6
						c-3.4,1.2-6.5,4.3-7.2,10.2c-0.6,4.7,0.7,9,3.6,12.4c1.8,2,4.1,3.6,6.5,4.5c0.5,5.4,1.6,14.4,9,20.1l1.5,1.1
						c9.6,7.3,21.5,16.5,31.6,16.5c10,0,21.9-9.1,31.5-16.4l1.6-1.2c7.4-5.6,8.5-14.7,9-20.1c2.4-0.9,4.7-2.4,6.5-4.4
						C2455.3,2678.8,2456.5,2674.4,2456,2669.8z M2441.1,2681.4c-2.3-0.6,0.8,13.9-7.9,20.6c-8.7,6.6-21,16.4-29.5,16.4
						s-20.8-9.7-29.5-16.4c-8.7-6.6-5.6-21.2-7.9-20.6c-2.3,0.6-10-2.7-8.9-10.8c1-8.1,7.3-5,7.3-5v-12c0-14.9,12.1-27,27-27h24.2
						c14.9,0,27,12.1,27,27v12c0,0,0,0,0,0c0.3-0.2,6.3-2.9,7.3,5C2451.1,2678.7,2443.4,2682,2441.1,2681.4z"/>
					<path class="st46" d="M2378.1,2647c-6.6,0-8.6,10-8.6,10v15.5h-4.8v-18.9c0-14.9,12.1-27,27-27h24.2c14.9,0,27,12.1,27,27v12
						c0,0,0,0,0,0v6.9h-4.8V2657c0,0-1.9-10-8.6-10H2378.1z"/>
				</g>
				<g>
					<rect x="2525.4" y="2647.8" class="st59" width="544.9" height="17.7"/>
				</g>
				<g>
					<rect x="2525.4" y="2671.8" class="st59" width="544.9" height="17.7"/>
				</g>
				<g>
					<rect x="2525.4" y="2695.8" class="st59" width="544.9" height="17.7"/>
				</g>
				<g>
					<rect x="2525.4" y="2719.9" class="st59" width="544.9" height="17.7"/>
				</g>
				<g>
					<rect x="2525.4" y="2743.9" class="st59" width="544.9" height="17.7"/>
				</g>
				<g>
					<rect x="2525.4" y="2767.9" class="st59" width="246.8" height="17.7"/>
				</g>
				<g>
					<rect x="2315.3" y="2971.4" class="st59" width="580.6" height="17.7"/>
				</g>
				<g>
					<rect x="2315.3" y="2937.9" class="st59" width="152.5" height="17.7"/>
				</g>
				<g>
					<rect x="2315.3" y="2911.6" class="st59" width="111.6" height="17.7"/>
				</g>
				<g>
					<rect x="2890.4" y="2911.6" class="st59" width="180.2" height="21"/>
				</g>
				<g>
					<rect x="2315.3" y="2996.2" class="st59" width="580.6" height="17.7"/>
				</g>
				<g>
					<rect x="2315.3" y="3021" class="st59" width="580.6" height="17.7"/>
				</g>
				<g>
					<rect x="2315.3" y="3159.9" class="st59" width="580.6" height="17.7"/>
				</g>
				<g>
					<rect x="2315.3" y="3126.4" class="st59" width="152.5" height="17.7"/>
				</g>
				<g>
					<rect x="2315.3" y="3100.1" class="st59" width="111.6" height="17.7"/>
				</g>
				<rect x="1985.3" y="2629" class="st60" width="235.3" height="17.7"/>
				<rect x="1985.3" y="2654.5" class="st60" width="235.3" height="17.7"/>
				<rect x="1985.3" y="2687.7" class="st60" width="235.3" height="17.7"/>
				<rect x="1985.3" y="2729.6" class="st60" width="235.3" height="17.7"/>
				<rect x="1985.3" y="2771.8" class="st60" width="235.3" height="17.7"/>
				<rect x="1985.3" y="2814.8" class="st60" width="235.3" height="17.7"/>
				<rect x="1985.3" y="2855.4" class="st60" width="235.3" height="17.7"/>
				<g>
					<rect x="1940.8" y="2980.8" class="st57" width="235.3" height="17.7"/>
				</g>
				<rect x="1940.8" y="3007.1" class="st60" width="235.3" height="17.7"/>
				<rect x="1940.8" y="3033.9" class="st60" width="235.3" height="17.7"/>
				<rect x="1940.8" y="3060.7" class="st60" width="235.3" height="17.7"/>
				<rect x="1940.8" y="3087.4" class="st60" width="235.3" height="17.7"/>
				<rect x="1940.8" y="3114.2" class="st60" width="235.3" height="17.7"/>
				<g>
					<rect x="1940.8" y="3152.7" class="st57" width="235.3" height="17.7"/>
				</g>
				<rect x="1940.8" y="3179.7" class="st60" width="235.3" height="17.7"/>
				<rect x="1940.8" y="3205.1" class="st60" width="235.3" height="17.7"/>
				<g>
					<rect x="2890.4" y="3100.1" class="st59" width="180.2" height="21"/>
				</g>
				<g>
					<rect x="2315.3" y="3184.7" class="st59" width="580.6" height="17.7"/>
				</g>
				<g>
					<rect x="2315.3" y="3209.5" class="st59" width="580.6" height="17.7"/>
				</g>
			</g>
		</g>
		<g>
			<defs>
				<rect id="SVGID_27_" x="1887.1" y="2320.6" width="1216.5" height="1574.4"/>
			</defs>
			<clipPath id="SVGID_28_">
				<use xlink:href="#SVGID_27_"  style="overflow:visible;"/>
			</clipPath>
			<g class="st61">
				<g>
					<g>
						<defs>
							<rect id="SVGID_29_" x="1950" y="2773" width="24.5" height="15.3"/>
						</defs>
						<clipPath id="SVGID_30_">
							<use xlink:href="#SVGID_29_"  style="overflow:visible;"/>
						</clipPath>
					</g>
				</g>
			</g>
		</g>
	</g>
</g>
<g>
	
		<image style="overflow:visible;opacity:0.4;" width="1003" height="1267" xlink:href="FC6C393CBFB1FA5F.png"  transform="matrix(1 0 0 1 3436 2287)">
	</image>
	<g>
		<g>
			<path class="st15" d="M4220.2,3425.3h-695.6V2397.6h695.6c54.5,0,98.7,44.2,98.7,98.7v830.3
				C4318.9,3381.2,4274.7,3425.3,4220.2,3425.3z"/>
			<rect x="4128.4" y="2397.6" class="st57" width="61.7" height="1027.7"/>
			<g>
				<g>
					<path class="st26" d="M3775.6,2605.8l-1.3,3.2h-5.1l7.2-18.6h5.3l7,18.6h-5.2l-1.2-3.2H3775.6z M3779,2596.2L3779,2596.2
						l-2.1,5.9h4L3779,2596.2z"/>
					<path class="st26" d="M3794.5,2588.5v9.4h0c1-1.4,2.3-2,4.1-2c3.2,0,4.8,2.1,4.8,5.3v7.8h-4.5v-6.5c0-1.5-0.2-3-2-3
						c-1.8,0-2.3,1.5-2.3,3v6.5h-4.5v-20.5H3794.5z"/>
					<path class="st26" d="M3810.9,2598L3810.9,2598c1.1-1.4,2.4-2,4.1-2c1.8,0,3.4,0.7,4.3,2.4c0.9-1.6,2.6-2.4,4.3-2.4
						c3.2,0,4.3,2.1,4.3,5v8.1h-4.5v-6.1c0-1.3,0-3.5-1.9-3.5c-2.1,0-2.1,2-2.1,3.5v6.1h-4.5v-6.1c0-1.4,0-3.6-2-3.6s-2,2.1-2,3.6
						v6.1h-4.5v-12.7h4.5V2598z"/>
					<path class="st26" d="M3843.8,2603.5h-9.5c0,1.8,1,2.8,2.8,2.8c1,0,1.7-0.3,2.1-1.2h4.3c-0.3,1.5-1.2,2.6-2.4,3.3
						c-1.2,0.7-2.6,1.1-4.1,1.1c-4.2,0-7.3-2.4-7.3-6.7c0-4.2,2.9-6.8,7-6.8c4.4,0,6.9,2.7,6.9,7V2603.5z M3839.6,2600.9
						c-0.2-1.2-1.3-2-2.5-2c-1.3,0-2.4,0.7-2.7,2H3839.6z"/>
					<path class="st26" d="M3855.4,2607.6L3855.4,2607.6c-0.8,1.3-2.4,1.8-3.9,1.8c-3.8,0-6.4-3.1-6.4-6.8c0-3.6,2.6-6.7,6.3-6.7
						c1.5,0,3,0.5,3.9,1.7v-9.1h4.5v20.5h-4.5V2607.6z M3849.8,2602.7c0,1.6,1.1,2.8,2.9,2.8s2.9-1.2,2.9-2.8c0-1.6-1.1-2.9-2.9-2.9
						S3849.8,2601.2,3849.8,2602.7z"/>
					<path class="st26" d="M3876.1,2594.5v3.1h5.5v4.1h-5.5v3.2h5.8v4.1h-10.6v-18.6h10.6v4.1H3876.1z"/>
					<path class="st26" d="M3889.3,2609h-4.5v-20.5h4.5V2609z"/>
					<path class="st26" d="M3899.1,2599.3v3.7h-7.1v-3.7H3899.1z"/>
					<path class="st26" d="M3916.7,2604.9v4.1h-16l8.8-14.5h-7.3v-4.1h15.4l-8.8,14.5H3916.7z"/>
					<path class="st26" d="M3932.4,2603.5h-9.5c0,1.8,1,2.8,2.8,2.8c1,0,1.7-0.3,2.1-1.2h4.3c-0.3,1.5-1.2,2.6-2.4,3.3
						c-1.2,0.7-2.6,1.1-4.1,1.1c-4.2,0-7.3-2.4-7.3-6.7c0-4.2,2.9-6.8,7-6.8c4.4,0,6.9,2.7,6.9,7V2603.5z M3928.2,2600.9
						c-0.2-1.2-1.3-2-2.5-2c-1.3,0-2.4,0.7-2.7,2H3928.2z"/>
					<path class="st26" d="M3939.2,2591.5c0,1.4-1.1,2.5-2.5,2.5c-1.4,0-2.5-1.1-2.5-2.5c0-1.4,1.1-2.5,2.5-2.5
						C3938.1,2589,3939.2,2590.1,3939.2,2591.5z M3938.9,2609h-4.5v-12.7h4.5V2609z"/>
					<path class="st26" d="M3946.4,2598L3946.4,2598c1.1-1.5,2.3-2.1,4.1-2.1c3.4,0,4.8,2.1,4.8,5.3v7.8h-4.5v-6.2
						c0-1.2,0.2-3.3-2-3.3c-1.8,0-2.3,1.4-2.3,2.9v6.6h-4.5v-12.7h4.5V2598z"/>
				</g>
				<path class="st26" d="M3954.3,2545.2c-4.7,0-16.3,9.3-25.5,18.5c2-3.7,6.1-10.3,7.7-13.7c0.5-1,0.5-1.2,0.5-1.5
					c0-2.1-3.9-4-7.5-4c-2.1,0-4.2,0.6-5.2,2.4c-1.4,2.3-2.7,4.6-3.9,6.8c-5.7,4.3-15.2,11.1-24.4,14.2c1.6-6.2,7.1-16.1,7.1-19.3
					c0-2.5-4.2-3.5-6.6-3.5c-2.1,0-3.7,0.9-4.7,2.4c-1.1,1.6-2.3,4-3.4,6.4c-5.6,4.2-14.5,10.8-23.3,14.3c-2.4,0.9-5.1,1.6-7.7,1.6
					s-5-0.6-6.1-2.5c9.1-2,20-7.1,20-14.9c0-4.9-3.7-7.6-10.2-7.6c-8.8,0-20,7.2-22.7,16.1c-0.5,0.2-1,0.4-1.5,0.7
					c-2.5,1.2-5.6,2.5-9.3,3.6c-3.7,1.2-7.8,2.2-12.2,3c-4.4,0.8-9,1.5-13.8,1.9s-9.5,0.5-14,0.2c-3.3-0.3-5.2-1.1-5.8-2.4
					c-0.3-0.9-0.1-1.9,0.8-3c0.8-1.1,1.9-2.4,3.3-3.7c3.8-4,12.8-14.1,18.1-19c5-4.5,10-9,15.2-13.7c34.9-1.1,67.1,0.2,72.3,1.8
					c9.9,3.1,14-1.6,11.7-7.7c-2.3-6.1-13.3-7-13.3-7c-20.8-0.3-39.9,0.1-57.3,0.9c1.3-1.2,2.6-2.3,3.9-3.5
					c5.3-4.7,9.9-8.9,13.9-12.6c3-2.9,5.2-6,6.4-9.1c1.2-3.2,1.3-6,0.3-8.6c-0.9-2.3-2.6-4.1-5.1-5.4c-2.5-1.4-5.9-1.9-10.2-1.7
					c-11.2,0.2-21.6,0.9-31.4,2c-9.7,1.1-19,2.8-28,4.9c-3.2,0.9-5.5,2.1-7.1,3.6c-1.6,1.6-2.4,3.1-2.5,4.7c-0.1,1.5,0.2,2.9,1,4.2
					c0.7,1.2,1.7,2.1,3,2.6c1.3,0.5,2.6,0.4,4-0.4c1.4-0.8,2.9-1.5,4.6-2c8.4-1.9,16.5-3.4,24.3-4.4c7.8-1,16.4-1.8,25.7-2.2
					c2.3,0,3.7,0.5,4.2,1.5c0.5,0.7,0.5,1.5,0,2.4c-0.5,0.9-1.1,1.8-2,2.7c-4.5,4-9.3,8.2-14.4,12.7c-3.7,3.3-7.5,6.7-11.2,10.1
					c-29,2.1-51.9,5.5-68,8.6c-0.1-0.4-0.1-0.8-0.2-1c-1.5-6.4-5.2-42.7-8.4-49.8c-3.2-7.1-10.7-13.5-18.4-5.7
					c-7.6,7.7-20,34.7-24,45.3c-3.9,10.6-13.1,45.1-14.2,51.6c-1.1,6.5-3.7,0.2-3.9-2.8c-0.2-2.9-0.7-8-4.9-7.1
					c-4.2,0.9-10.2,3.5-7.2,12.7s4.3,26.8,10,28.1c5.6,1.3,9.6-0.4,11.1-14.1c1.5-13.4,18.6-79.4,36.3-99.4c0.5-0.6,1.4-0.4,1.6,0.4
					c1.6,5.3,6.4,22.9,8.2,44.9c-3.4,0.8-6.2,1.5-8.3,2.2c-17.1,5.1-25.6,11.4-25.8,16c-0.2,4.5,1.4,5.4,34.8-6.8l3.2,60.7
					c0.1,1.7,0.1,3.3,0,5c-0.1,2.3,0.6,6.3,6,5.8c7.6-0.7,10.2-4.7,9.4-11.3c-0.6-5.1-2.9-44.7-4.5-64.7c14.4-3.5,34-5.6,54.3-6.8
					c-2.4,2.2-4.7,4.4-7.1,6.6c-5.2,4.9-14.5,15.4-19.1,20.1c-3.3,3.3-5.6,6.4-6.9,9.5c-1.3,3-1.6,5.8-0.8,8.1c1.6,5,7.1,8,16.4,9
					c5,0.6,10.3,0.7,15.9,0.3c5.6-0.3,11.1-1,16.5-1.9c5.4-1,10.6-2.1,15.4-3.6c4.2-1.2,7.9-2.5,11.2-3.9c2.6,2.7,6.6,3.9,11.8,3.9
					c9.7,0,19.4-5,30.8-12.6c-1,2.6-1.8,5.2-1.8,7.1c0,3.7,1.7,5.5,4.9,5.5c6.5,0,16.6-4.9,28.3-12.5c-1.6,3.8-2.6,6.9-2.6,8.7
					c0,2.1,4.3,4.3,6.5,4.3c3.5,0,15.4-13.2,24.7-19.4c-1.2,3.4-4.6,9.6-4.6,15.2c0,3.7,1.7,4.9,3.5,4.9c4.1,0,9.2-2.9,9.8-4.7
					c0.7-2.5-0.7-4,3.2-12.1c2.9-5.7,4.1-8.4,4.1-11.8C3959.4,2547.7,3956.7,2545.2,3954.3,2545.2z M3859.3,2551.1
					c1.4,0,2.1,1,2.1,2.2c0,2.6-3,6.5-10.4,8C3851.8,2555.1,3855.4,2551.1,3859.3,2551.1z"/>
			</g>
			<path d="M3552.3,2489.3h-41.6c-7.6,0-13.7-6.1-13.7-13.7l0,0c0-7.6,6.1-13.7,13.7-13.7h41.6V2489.3z"/>
			<path d="M3552.3,2547.4h-41.6c-7.6,0-13.7-6.1-13.7-13.7l0,0c0-7.6,6.1-13.7,13.7-13.7h41.6V2547.4z"/>
			<path d="M3552.3,2605.5h-41.6c-7.6,0-13.7-6.1-13.7-13.7l0,0c0-7.6,6.1-13.7,13.7-13.7h41.6V2605.5z"/>
			<path d="M3552.3,2663.6h-41.6c-7.6,0-13.7-6.1-13.7-13.7v0c0-7.6,6.1-13.7,13.7-13.7h41.6V2663.6z"/>
			<path d="M3552.3,2721.8h-41.6c-7.6,0-13.7-6.1-13.7-13.7l0,0c0-7.6,6.1-13.7,13.7-13.7h41.6V2721.8z"/>
			<path d="M3552.3,2779.9h-41.6c-7.6,0-13.7-6.1-13.7-13.7l0,0c0-7.6,6.1-13.7,13.7-13.7h41.6V2779.9z"/>
			<path d="M3552.3,2838h-41.6c-7.6,0-13.7-6.1-13.7-13.7l0,0c0-7.6,6.1-13.7,13.7-13.7h41.6V2838z"/>
			<path d="M3552.3,2896.1h-41.6c-7.6,0-13.7-6.1-13.7-13.7v0c0-7.6,6.1-13.7,13.7-13.7h41.6V2896.1z"/>
			<path d="M3552.3,2954.3h-41.6c-7.6,0-13.7-6.1-13.7-13.7l0,0c0-7.6,6.1-13.7,13.7-13.7h41.6V2954.3z"/>
			<path d="M3552.3,3012.4h-41.6c-7.6,0-13.7-6.1-13.7-13.7l0,0c0-7.6,6.1-13.7,13.7-13.7h41.6V3012.4z"/>
			<path d="M3552.3,3070.5h-41.6c-7.6,0-13.7-6.1-13.7-13.7l0,0c0-7.6,6.1-13.7,13.7-13.7h41.6V3070.5z"/>
			<path d="M3552.3,3128.6h-41.6c-7.6,0-13.7-6.1-13.7-13.7v0c0-7.6,6.1-13.7,13.7-13.7h41.6V3128.6z"/>
			<path d="M3552.3,3186.8h-41.6c-7.6,0-13.7-6.1-13.7-13.7l0,0c0-7.6,6.1-13.7,13.7-13.7h41.6V3186.8z"/>
		</g>
	</g>
</g>
<g>
	
		<image style="overflow:visible;opacity:0.4;" width="237" height="960" xlink:href="FC6C393CBFB1FA54.png"  transform="matrix(1 0 0 1 3148 2454)">
	</image>
	<g>
		<g>
			<g>
				<polygon class="st16" points="3264.8,3238.8 3208.5,3238.8 3208.5,2639.6 3265,2639.6 				"/>
				<path class="st15" d="M3208.6,2614.7v-28.2c0-12.1,12.6-21.9,28.2-21.9l0,0c15.6,0,28.2,9.8,28.2,21.9v28.2H3208.6z"/>
				<rect x="3208.6" y="2614.7" class="st64" width="56.3" height="24.9"/>
			</g>
		</g>
	</g>
</g>
<g>
	
		<image style="overflow:visible;opacity:0.4;" width="265" height="1040" xlink:href="7BA445C7B4B92DCA.png"  transform="matrix(1 0 0 1 3270 2445)">
	</image>
	<g>
		<g>
			<path class="st15" d="M3414.1,2602.9v692.7h-15.2v-696.1h11.8C3412.5,2599.4,3414.1,2601,3414.1,2602.9z"/>
			<rect x="3392" y="2599.4" class="st16" width="6.9" height="696.1"/>
			<path class="st15" d="M3392,3295.6h-36.3v-692.7c0-1.9,1.6-3.5,3.5-3.5h32.8V3295.6z"/>
			<path d="M3398.4,2555.8h-27c-3.1,0-5.6,2.5-5.6,5.6v38.1h38.2v-38.1C3404,2558.3,3401.5,2555.8,3398.4,2555.8z"/>
			<path d="M3355.7,2698.3v-70l-24.7,25.3v13.6v56.5v172.7v29.7h5.5c8.2,0,14.9-6.7,14.9-14.9c0-6.2-3.8-11.5-9.1-13.7v-185.3
				L3355.7,2698.3z"/>
		</g>
	</g>
</g>
<g>
	
		<image style="overflow:visible;opacity:0.4;" width="693" height="825" xlink:href="7BA445C7B4B92DCD.png"  transform="matrix(1 0 0 1 1197 2210)">
	</image>
	<g>
		<g>
			<path class="st66" d="M1712.2,2326.1c55.5,10.6,39.4,36.7,43,92.3s-4.6,70-4.2,86.1c0.4,16.1-7.4,141.9-7.4,141.9l-1.1,14.8
				h-13.3v303h-223.4c0,0-89.6,5.2-117-41.4c0,0-18.2-38.8-23.9-90.8c0,0-3.3-72.6-4.5-84.5c-1.2-11.9-6.6-63.3-12.2-66
				c-3.1-1.5-29.5-14.6-53-26.4c-23.3-11.6-38-35.5-38-61.5v-73.3c0-26.1,14.7-49.9,38-61.5c23.6-11.8,50-24.9,53-26.4
				c0,0,24.6-54.8,27.9-63.2c3.3-8.4,13.3-40.3,42.4-43.3C1447.6,2323.1,1656.6,2315.5,1712.2,2326.1z"/>
			<path class="st58" d="M1748.5,2637.7c4.2,0,7.6,20.3,7.6,24.5V2926c0,41.6-26.9,38.2-26.9,38.2v-326.4h13.3L1748.5,2637.7z"/>
			<circle class="st67" cx="1565.5" cy="2370.8" r="34.3"/>
			<circle class="st66" cx="1565.5" cy="2370.8" r="28.8"/>
			<circle class="st59" cx="1407.1" cy="2745" r="20.3"/>
			<path class="st66" d="M1358.9,2706.2l9.6,123.9l-23.8,1.8c-4.1,0.3-7.7-2.8-8.1-6.9l-8.5-108.9c-0.3-4.1,2.8-7.8,6.9-8.1
				L1358.9,2706.2z"/>
			<circle class="st68" cx="1565.5" cy="2558.5" r="203.9"/>
			<circle class="st58" cx="1565.5" cy="2558.5" r="185.6"/>
			<ellipse class="st66" cx="1565.5" cy="2558.5" rx="159" ry="159"/>
			<path class="st69" d="M1565.5,2423.4c-74.6,0-135,60.5-135,135c0,74.6,60.5,135,135,135c74.6,0,135-60.4,135-135
				C1700.5,2483.9,1640.1,2423.4,1565.5,2423.4z"/>
			<path class="st66" d="M1565.5,2453.6c-57.9,0-104.9,47-104.9,104.9c0,57.9,46.9,104.9,104.9,104.9c57.9,0,104.9-46.9,104.9-104.9
				C1670.4,2500.5,1623.4,2453.6,1565.5,2453.6z"/>
			<ellipse class="st68" cx="1565.5" cy="2558.5" rx="54.8" ry="54.9"/>
			
				<ellipse transform="matrix(0.9616 -0.2745 0.2745 0.9616 -732.6746 492.1942)" class="st58" cx="1392" cy="2863.5" rx="19.1" ry="45.8"/>
			
				<ellipse transform="matrix(0.9747 -0.2234 0.2234 0.9747 -604.9008 381.5904)" class="st59" cx="1384" cy="2864.1" rx="11" ry="26.4"/>
			<path class="st15" d="M1477.9,2929.6l-39-123c-0.4-1.1,0.2-2.3,1.2-2.9l0.5-0.2c1.1-0.5,2.4-0.2,3.1,0.8
				c4.8,7.4,23.3,36.4,27.8,52.9c4.7,16.9,10.1,62,11.1,71.4c0.1,1-0.4,2-1.4,2.4v0C1479.8,2931.6,1478.3,2930.9,1477.9,2929.6z"/>
		</g>
	</g>
</g>
</svg>
