<?xml version="1.0" encoding="utf-8"?>
<!-- Generator: Adobe Illustrator 24.2.3, SVG Export Plug-In . SVG Version: 6.00 Build 0)  -->
<svg version="1.1" id="Layer_1" xmlns="http://www.w3.org/2000/svg" xmlns:xlink="http://www.w3.org/1999/xlink" x="0px" y="0px"
	 viewBox="0 0 484.9 371.7" style="enable-background:new 0 0 484.9 371.7;" xml:space="preserve">
<g>
	<path d="M353.4,267.6c-0.7,0-1.9,0.6-3.5,1.8c-1.6,1.2-3.8,2.5-6.5,4c-2.7,1.5-6.1,2.8-10.1,4c-4,1.2-8.7,1.8-14.2,1.8
		c-6.1,0-11.6-1.1-16.5-3.2c-4.9-2.1-9.1-5.2-12.6-9.4c-3.5-4.2-6.2-9.3-8.1-15.5c-1.9-6.2-2.8-13.3-2.8-21.4v-2.1h78.2
		c1,0,1.8-0.3,2.2-0.9c0.5-0.6,0.7-1.7,0.7-3.3c0-7.6-1.1-14.4-3.2-20.3c-2.1-5.9-5.1-10.8-8.9-14.9s-8.3-7.1-13.5-9.2
		c-5.2-2.1-10.8-3.2-16.9-3.2c-7.7,0-14.6,1.3-20.6,4c-6.1,2.7-11.2,6.4-15.4,11.2c-4.2,4.8-7.4,10.4-9.6,17
		c-2.2,6.6-3.3,13.7-3.3,21.5c0,9.2,1.2,17.4,3.6,24.6c2.4,7.2,5.8,13.2,10.1,18.1c4.4,4.9,9.6,8.7,15.7,11.3
		c6.1,2.6,12.8,3.9,20.3,3.9c4.1,0,8.1-0.4,12.1-1.2c4-0.8,7.8-1.9,11.3-3.2c3.5-1.3,6.7-3,9.6-4.8c2.9-1.9,5.2-3.9,6.9-6.1
		l-2.8-3.5C355.1,267.9,354.3,267.6,353.4,267.6z M283.5,205.6c2-4.6,4.6-8.5,7.8-11.8c3.2-3.3,7-5.8,11.5-7.5
		c4.4-1.7,9.4-2.6,15-2.6c4.9,0,9.4,0.9,13.5,2.6c4.1,1.7,7.5,4.2,10.4,7.3c2.9,3.2,5.1,7.1,6.7,11.7c1.6,4.6,2.4,9.8,2.4,15.6
		h-71.3C280.2,215.3,281.5,210.2,283.5,205.6z"/>
	<rect x="375.5" y="178.2" width="7.8" height="107.8"/>
	<path d="M478,178.2v90.5c0,1.4,0.1,2.9,0.2,4.4l-69.8-93.4c-0.5-0.6-0.9-1-1.3-1.2c-0.4-0.2-1-0.3-1.7-0.3h-3.8v107.8h6.8v-90.8
		c0-1.4-0.1-2.8-0.2-4.3l70.1,93.6c0.7,1,1.7,1.5,2.8,1.5h3.7V178.2H478z"/>
	<path d="M175.2,270.7l46.9-103.5h138.1v-12.9H227.9L272.5,56l0.8-1.7c1.1-2.6,1.4-5.1,1-7.4l-1.2-5.9l-0.1,0v0H169.1v14.7h85.7
		l-44.7,98.7h-83.7V63.8V0h-8.8h-8.8H100L0,244.4h13.5c1.6,0,3-0.5,4.1-1.4c1.1-0.9,2-2,2.4-3.3l28.7-71l0.7-1.6h59.5v1.6v203h17.6
		v-203v-1.6h77.9l-46.9,103.5l0,0l-3.4,7.6c-0.9,1.5-1.3,3.1-1.4,4.7c0,0.2,0,0.3,0,0.5v6.4h103.9v-14.7h-83.3L175.2,270.7z
		 M104,32.3c0.8-2.1,1.6-4.3,2.4-6.8c0.8-2.5,1.6-5.1,2.4-7.8v136.7H54.6L104,32.3z"/>
	<rect x="375.5" y="154.3" width="7.9" height="12.9"/>
	<path d="M172.2,332.1c-0.8-0.9-1.9-1.6-3.1-2.2c-1.2-0.5-2.6-0.8-4.2-0.8c-2.2,0-4.2,0.4-6,1.1c-1.8,0.7-3.5,1.9-5,3.4l0.9,1.6
		c0.1,0.3,0.3,0.5,0.6,0.7c0.3,0.2,0.5,0.3,0.9,0.3c0.4,0,0.9-0.2,1.3-0.5c0.4-0.3,1-0.6,1.6-1c0.6-0.4,1.3-0.7,2.1-1
		c0.8-0.3,1.8-0.5,3-0.5c1.8,0,3.2,0.6,4.2,1.7c0.9,1.1,1.4,2.8,1.4,5v2.2c-3.2,0-5.9,0.3-8.1,0.8c-2.2,0.5-4,1.2-5.4,2
		s-2.3,1.7-3,2.7c-0.6,1-0.9,2.1-0.9,3.2c0,1.3,0.2,2.4,0.6,3.3c0.4,0.9,1,1.7,1.7,2.3c0.7,0.6,1.5,1.1,2.5,1.4c1,0.3,2,0.5,3.1,0.5
		c1.1,0,2.1-0.1,2.9-0.3c0.9-0.2,1.7-0.5,2.5-0.8c0.8-0.4,1.5-0.8,2.2-1.3c0.7-0.5,1.4-1.1,2.2-1.8l0.6,2.6c0.1,0.5,0.3,0.8,0.6,0.9
		c0.3,0.1,0.7,0.2,1.2,0.2h2.2v-18c0-1.6-0.2-3-0.6-4.3C173.7,334.2,173.1,333,172.2,332.1z M169.9,351c-0.6,0.6-1.1,1.1-1.7,1.6
		c-0.6,0.5-1.2,0.9-1.8,1.2c-0.6,0.3-1.3,0.6-2,0.8c-0.7,0.2-1.5,0.3-2.4,0.3c-0.6,0-1.3-0.1-1.8-0.2c-0.6-0.2-1-0.4-1.4-0.8
		c-0.4-0.3-0.7-0.8-1-1.3c-0.2-0.5-0.4-1.2-0.4-1.9c0-0.8,0.2-1.5,0.7-2.1c0.5-0.6,1.2-1.2,2.2-1.6c1-0.5,2.3-0.8,3.9-1.1
		c1.6-0.3,3.5-0.4,5.8-0.4V351z"/>
	<path d="M203.3,332.2c-0.8-0.9-1.8-1.7-2.9-2.2c-1.2-0.5-2.5-0.8-4.1-0.8c-1.9,0-3.6,0.4-5.1,1.2c-1.5,0.8-2.8,1.8-4,3.1v-16.6
		h-4.9v40.9h4.9v-20.7c1.1-1.2,2.2-2.2,3.5-2.9c1.3-0.7,2.6-1.1,4.1-1.1c2,0,3.5,0.6,4.5,1.8c1,1.2,1.5,2.8,1.5,5v17.9h4.9v-17.9
		c0-1.6-0.2-3-0.6-4.4C204.7,334.2,204.1,333.1,203.3,332.2z"/>
	<path d="M248.8,332c-0.8-0.9-1.8-1.6-2.9-2.1c-1.2-0.5-2.5-0.7-4-0.7c-0.9,0-1.8,0.1-2.7,0.3c-0.9,0.2-1.7,0.6-2.5,1.1
		c-0.8,0.5-1.5,1.1-2.2,1.8c-0.6,0.7-1.2,1.6-1.5,2.6c-0.5-1.8-1.4-3.2-2.5-4.3c-1.2-1.1-2.7-1.6-4.6-1.6c-1.7,0-3.2,0.4-4.5,1.2
		c-1.3,0.8-2.5,1.9-3.5,3.1l-0.4-2.9c-0.2-0.7-0.6-1-1.3-1h-2.9v28.2h4.9v-21c0.9-1.1,1.8-2,2.9-2.7s2.2-1,3.4-1
		c1.7,0,3.1,0.6,4,1.7c0.9,1.1,1.4,2.8,1.4,5.1v17.9h4.9v-17.9c0-1.1,0.2-2.1,0.5-2.9c0.3-0.8,0.8-1.5,1.3-2.1
		c0.6-0.6,1.2-1,1.9-1.3c0.7-0.3,1.5-0.4,2.3-0.4c1.8,0,3.2,0.6,4.2,1.7c1,1.1,1.4,2.8,1.4,5v17.9h4.9v-17.9c0-1.7-0.2-3.2-0.6-4.5
		C250.3,334,249.6,332.9,248.8,332z"/>
	<path d="M278.3,332.5c-1-1.1-2.3-1.9-3.7-2.4c-1.4-0.6-3-0.8-4.7-0.8c-2,0-3.9,0.4-5.5,1.1c-1.6,0.7-3,1.7-4.1,2.9
		c-1.1,1.3-2,2.7-2.6,4.4c-0.6,1.7-0.9,3.5-0.9,5.5c0,2.4,0.3,4.6,1,6.4c0.7,1.9,1.6,3.4,2.8,4.7c1.2,1.3,2.6,2.2,4.3,2.9
		c1.6,0.7,3.4,1,5.4,1c1,0,2-0.1,3.1-0.3c1-0.2,2-0.4,3-0.8c1-0.4,1.9-0.8,2.7-1.3c0.9-0.5,1.6-1.2,2.2-1.9l-1.4-1.8
		c-0.2-0.3-0.5-0.5-0.9-0.5c-0.3,0-0.7,0.1-1.1,0.4c-0.4,0.3-1,0.6-1.6,0.9c-0.6,0.3-1.4,0.6-2.3,0.9c-0.9,0.3-2,0.4-3.2,0.4
		c-1.3,0-2.5-0.2-3.6-0.7c-1.1-0.4-2-1.1-2.8-2c-0.8-0.9-1.4-2-1.8-3.3c-0.4-1.3-0.7-2.9-0.7-4.6h18.7c0.5,0,0.8-0.1,0.9-0.4
		c0.2-0.3,0.2-0.8,0.2-1.6c0-2-0.3-3.8-0.9-5.4C280.2,334.9,279.3,333.6,278.3,332.5z M261.9,340.7c0.3-2.4,1.2-4.4,2.6-5.7
		c1.4-1.4,3.3-2.1,5.6-2.1c1.1,0,2.1,0.2,3,0.6c0.9,0.4,1.6,0.9,2.2,1.6c0.6,0.7,1.1,1.5,1.4,2.5c0.3,1,0.5,2,0.5,3.2H261.9z"/>
	<path d="M305.7,332.5c-1-1.1-2.1-1.9-3.3-2.5c-1.2-0.6-2.7-0.9-4.4-0.9c-1.9,0-3.6,0.4-5.1,1.1c-1.5,0.8-2.8,1.8-3.8,3.1
		c-1,1.3-1.8,2.9-2.4,4.7c-0.6,1.8-0.8,3.7-0.8,5.8c0,2.3,0.3,4.4,0.8,6.2c0.5,1.8,1.2,3.3,2.1,4.5c0.9,1.2,2,2.1,3.4,2.7
		s2.8,0.9,4.4,0.9c2,0,3.8-0.4,5.3-1.3c1.5-0.9,2.9-2.1,4.1-3.5l0.4,3.4c0.2,0.7,0.6,1,1.3,1h2.9v-40.9h-4.9V332.5z M305.7,350
		c-1,1.4-2.1,2.4-3.3,3.1c-1.2,0.7-2.6,1.1-4.2,1.1c-1.1,0-2.2-0.2-3.1-0.6c-0.9-0.4-1.6-1-2.3-1.8c-0.6-0.8-1.1-1.9-1.4-3.2
		c-0.3-1.3-0.5-2.9-0.5-4.7c0-3.5,0.7-6.1,2.1-8c1.4-1.9,3.4-2.8,6.1-2.8c1.3,0,2.5,0.2,3.6,0.7c1.1,0.5,2.1,1.3,3,2.6V350z"/>
	<path d="M349.2,332.5c-1-1.1-2.3-1.9-3.7-2.4c-1.4-0.6-3-0.8-4.7-0.8c-2,0-3.9,0.4-5.5,1.1c-1.6,0.7-3,1.7-4.1,2.9
		c-1.1,1.3-2,2.7-2.6,4.4c-0.6,1.7-0.9,3.5-0.9,5.5c0,2.4,0.3,4.6,1,6.4c0.7,1.9,1.6,3.4,2.8,4.7c1.2,1.3,2.6,2.2,4.3,2.9
		c1.6,0.7,3.4,1,5.4,1c1,0,2-0.1,3.1-0.3c1-0.2,2-0.4,3-0.8c1-0.4,1.9-0.8,2.7-1.3c0.9-0.5,1.6-1.2,2.2-1.9l-1.4-1.8
		c-0.2-0.3-0.5-0.5-0.9-0.5c-0.3,0-0.7,0.1-1.1,0.4c-0.4,0.3-1,0.6-1.6,0.9c-0.6,0.3-1.4,0.6-2.3,0.9c-0.9,0.3-2,0.4-3.2,0.4
		c-1.3,0-2.5-0.2-3.6-0.7c-1.1-0.4-2-1.1-2.8-2c-0.8-0.9-1.4-2-1.8-3.3c-0.4-1.3-0.7-2.9-0.7-4.6h18.7c0.5,0,0.8-0.1,0.9-0.4
		c0.2-0.3,0.2-0.8,0.2-1.6c0-2-0.3-3.8-0.9-5.4C351.1,334.9,350.3,333.6,349.2,332.5z M332.8,340.7c0.3-2.4,1.2-4.4,2.6-5.7
		c1.4-1.4,3.3-2.1,5.6-2.1c1.1,0,2.1,0.2,3,0.6c0.9,0.4,1.6,0.9,2.2,1.6c0.6,0.7,1.1,1.5,1.4,2.5c0.3,1,0.5,2,0.5,3.2H332.8z"/>
	<rect x="359.4" y="316.9" width="4.9" height="40.9"/>
	<rect x="371.8" y="339.1" width="13.7" height="4.2"/>
	<path d="M391.1,333.6h15.1L391,354c-0.2,0.3-0.4,0.6-0.5,0.9s-0.2,0.6-0.2,0.8v2.1h21.2V354h-15.4l15.2-20.3
		c0.2-0.3,0.4-0.6,0.5-0.9c0.1-0.3,0.2-0.7,0.2-1v-2.1h-20.9V333.6z"/>
	<path d="M437.6,332.5c-1-1.1-2.3-1.9-3.7-2.4c-1.4-0.6-3-0.8-4.7-0.8c-2,0-3.9,0.4-5.5,1.1c-1.6,0.7-3,1.7-4.1,2.9
		c-1.1,1.3-2,2.7-2.6,4.4c-0.6,1.7-0.9,3.5-0.9,5.5c0,2.4,0.3,4.6,1,6.4c0.7,1.9,1.6,3.4,2.8,4.7c1.2,1.3,2.6,2.2,4.3,2.9
		c1.6,0.7,3.4,1,5.4,1c1,0,2-0.1,3.1-0.3c1-0.2,2-0.4,3-0.8c1-0.4,1.9-0.8,2.7-1.3c0.9-0.5,1.6-1.2,2.2-1.9l-1.4-1.8
		c-0.2-0.3-0.5-0.5-0.9-0.5c-0.3,0-0.7,0.1-1.1,0.4c-0.4,0.3-1,0.6-1.6,0.9c-0.6,0.3-1.4,0.6-2.3,0.9c-0.9,0.3-2,0.4-3.2,0.4
		c-1.3,0-2.5-0.2-3.6-0.7c-1.1-0.4-2-1.1-2.8-2c-0.8-0.9-1.4-2-1.8-3.3c-0.4-1.3-0.7-2.9-0.7-4.6h18.7c0.5,0,0.8-0.1,0.9-0.4
		c0.2-0.3,0.2-0.8,0.2-1.6c0-2-0.3-3.8-0.9-5.4C439.4,334.9,438.6,333.6,437.6,332.5z M421.1,340.7c0.3-2.4,1.2-4.4,2.6-5.7
		c1.4-1.4,3.3-2.1,5.6-2.1c1.1,0,2.1,0.2,3,0.6c0.9,0.4,1.6,0.9,2.2,1.6c0.6,0.7,1.1,1.5,1.4,2.5c0.3,1,0.5,2,0.5,3.2H421.1z"/>
	<path d="M452.7,318.3c-0.3-0.3-0.7-0.6-1.1-0.8c-0.4-0.2-0.9-0.3-1.4-0.3s-0.9,0.1-1.3,0.3c-0.4,0.2-0.8,0.4-1.1,0.8
		c-0.3,0.3-0.6,0.7-0.8,1.1c-0.2,0.4-0.3,0.9-0.3,1.4c0,0.5,0.1,0.9,0.3,1.3c0.2,0.4,0.4,0.8,0.8,1.1c0.3,0.3,0.7,0.6,1.1,0.8
		c0.4,0.2,0.9,0.3,1.3,0.3s0.9-0.1,1.4-0.3s0.8-0.4,1.1-0.8c0.3-0.3,0.6-0.7,0.8-1.1c0.2-0.4,0.3-0.9,0.3-1.3c0-0.5-0.1-0.9-0.3-1.4
		C453.3,319,453.1,318.6,452.7,318.3z"/>
	<rect x="447.7" y="329.7" width="4.9" height="28.2"/>
	<path d="M482.4,332.2c-0.8-0.9-1.8-1.7-2.9-2.2c-1.2-0.5-2.5-0.8-4.1-0.8c-2,0-3.7,0.4-5.2,1.3c-1.5,0.8-2.9,1.9-4.1,3.3l-0.4-3.1
		c-0.2-0.7-0.6-1-1.3-1h-2.9v28.2h4.9v-20.7c1.1-1.2,2.2-2.2,3.5-2.9c1.3-0.7,2.6-1.1,4.1-1.1c2,0,3.5,0.6,4.5,1.8
		c1,1.2,1.5,2.8,1.5,5v17.9h4.9v-17.9c0-1.6-0.2-3-0.6-4.4C483.8,334.2,483.2,333.1,482.4,332.2z"/>
</g>
</svg>
