<svg id="Layer_1" data-name="Layer 1" xmlns="http://www.w3.org/2000/svg" viewBox="0 0 1326 737.1"><defs><style>.cls-1{fill:#f4ebe2;}.cls-2,.cls-45{fill:#f2f2f2;}.cls-3{fill:#e6e6e6;}.cls-4{fill:#69a0ef;}.cls-5{fill:#3763a2;}.cls-6{fill:#8fc899;}.cls-7{fill:#4c7b54;}.cls-8{fill:#fec123;}.cls-9{fill:#a17c29;}.cls-10{opacity:0.1;}.cls-11{fill:#f0f0f0;}.cls-12{fill:#f9b77a;}.cls-13{fill:#e29456;}.cls-14{fill:#231f20;}.cls-15,.cls-23,.cls-46,.cls-56,.cls-60,.cls-61,.cls-65,.cls-67,.cls-68,.cls-71{fill:none;}.cls-15,.cls-65,.cls-70{stroke:#000;}.cls-15,.cls-65,.cls-67,.cls-68,.cls-70{stroke-miterlimit:10;}.cls-15{stroke-width:0.42px;}.cls-16{fill:#afb0b4;}.cls-17{fill:#939598;}.cls-18{fill:#ff4078;opacity:0.9;}.cls-19{fill:#1554a9;}.cls-20{fill:#0b3276;}.cls-21{fill:#ffd801;}.cls-22{fill:#e5b201;}.cls-23,.cls-24{opacity:0.05;}.cls-25{fill:#692c11;}.cls-26{fill:#1e223b;}.cls-27{fill:#ffc691;}.cls-28,.cls-45{opacity:0.4;}.cls-29{fill:#0f111e;}.cls-30{fill:#787a89;}.cls-31{fill:#4b4e62;}.cls-32{fill:#313e54;}.cls-33{fill:#838b98;}.cls-34{fill:#c69c6d;}.cls-35{fill:#754c24;}.cls-36{fill:#353530;}.cls-37{fill:#b3b3b3;}.cls-38{fill:#d6d6d6;}.cls-39{fill:#ccc;}.cls-40{fill:#b2b2b2;}.cls-41{fill:#f1deb6;}.cls-42{fill:#c2ae8b;}.cls-43{fill:#d9c39a;}.cls-44{fill:#ae8a3c;}.cls-45{isolation:isolate;}.cls-46{opacity:0.7;}.cls-47{opacity:0.8;}.cls-48{fill:#e4e4e4;}.cls-49{fill:#f6f7f7;}.cls-50{fill:#ee695e;}.cls-51{fill:#f6be4f;}.cls-52{fill:#64c957;}.cls-53,.cls-57{fill:#666;}.cls-54{fill:#a09f9f;}.cls-55{fill:#505050;}.cls-56{stroke:#505050;}.cls-56,.cls-57,.cls-59,.cls-60,.cls-61,.cls-71{stroke-linecap:round;stroke-linejoin:round;}.cls-56,.cls-57,.cls-59,.cls-60,.cls-61{stroke-width:0.38px;}.cls-57,.cls-60{stroke:#666;}.cls-58{fill:#e3e4e4;}.cls-59{fill:#4093df;}.cls-59,.cls-61{stroke:#4093df;}.cls-62,.cls-70{fill:#fff;}.cls-63{fill:#c2c2c2;}.cls-64{fill:#495057;}.cls-65,.cls-67,.cls-70{stroke-width:0.74px;}.cls-66,.cls-69{fill:#86c7f3;}.cls-66{opacity:0.44;}.cls-67{stroke:#4b82a6;}.cls-68{stroke:#86c7f3;stroke-width:1.47px;}.cls-71{stroke:#fff;stroke-width:0.6px;}</style></defs><path class="cls-1" d="M1121.82,445.87a443.77,443.77,0,0,1-64.64,231.34H294.73a443.77,443.77,0,0,1-64.64-231.34C230.09,199.63,429.71,0,676,0S1121.82,199.63,1121.82,445.87Z"/><path class="cls-2" d="M1269.36,613.14H1051.23a26.36,26.36,0,0,1,0-52.71h218.13a81.06,81.06,0,0,0-3.62,17.36A82.13,82.13,0,0,0,1269.36,613.14Z"/><path class="cls-3" d="M1269.36,560.43a81.06,81.06,0,0,0-3.62,17.36h-239.1v-.49a26.38,26.38,0,0,1,24.59-16.87Z"/><path class="cls-4" d="M1274.44,564.22H1093.53a3.79,3.79,0,1,1,0-7.58h180.91a3.79,3.79,0,0,1,0,7.58Z"/><path class="cls-4" d="M1274.44,616.93H1093.53a3.8,3.8,0,0,1,0-7.59h180.91a3.8,3.8,0,0,1,0,7.59Z"/><path class="cls-5" d="M1093.53,616.93h-42.3a30.15,30.15,0,0,1,0-60.29h42.3v7.58h-42.3a22.56,22.56,0,1,0,0,45.12h42.3Z"/><path class="cls-2" d="M1103.28,552.53h170.21a20.58,20.58,0,0,0,19.19-28,20.6,20.6,0,0,0-19.19-13.17H1103.28a63.32,63.32,0,0,1,2.83,13.55A64.2,64.2,0,0,1,1103.28,552.53Z"/><path class="cls-3" d="M1103.28,511.4a63.32,63.32,0,0,1,2.83,13.55h186.57v-.38a20.6,20.6,0,0,0-19.19-13.17Z"/><path class="cls-6" d="M1240.48,556.32H1099.32a3.79,3.79,0,1,1,0-7.58h141.16a3.79,3.79,0,1,1,0,7.58Z"/><path class="cls-6" d="M1240.48,515.2H1099.32a3.8,3.8,0,0,1,0-7.59h141.16a3.8,3.8,0,1,1,0,7.59Z"/><path class="cls-7" d="M1273.49,556.32h-33v-7.58h33a16.77,16.77,0,0,0,0-33.54h-33v-7.59h33a24.36,24.36,0,1,1,0,48.71Z"/><path class="cls-2" d="M1282.06,673.43H1063.93a26.36,26.36,0,0,1,0-52.71h218.13a81.06,81.06,0,0,0-3.62,17.36A82.13,82.13,0,0,0,1282.06,673.43Z"/><path class="cls-3" d="M1282.06,620.72a81.06,81.06,0,0,0-3.62,17.36h-239.1v-.49a26.38,26.38,0,0,1,24.59-16.87Z"/><path class="cls-8" d="M1287.14,624.51H1106.23a3.79,3.79,0,0,1,0-7.58h180.91a3.79,3.79,0,0,1,0,7.58Z"/><path class="cls-8" d="M1287.14,677.22H1106.23a3.79,3.79,0,1,1,0-7.58h180.91a3.79,3.79,0,0,1,0,7.58Z"/><path class="cls-9" d="M1106.23,677.22h-42.3a30.15,30.15,0,0,1,0-60.29h42.3v7.58h-42.3a22.57,22.57,0,0,0,0,45.13h42.3Z"/><ellipse class="cls-10" cx="1134.77" cy="508.62" rx="4.97" ry="2.21"/><path class="cls-11" d="M1127.66,396a32.31,32.31,0,0,0,6,4.92c.43.26.87.5,1.32.73,0,0,.15,3.39.27,3.76.06.19.2.64.42,1.17h0a6.17,6.17,0,0,0,1,1.68,30.17,30.17,0,0,0,1.54,11.25c.13.41.27.82.42,1.24l0,.32,0,.34-.21,1.59-.32,1.65s-.34,1.12-.74,2.76a.3.3,0,0,1,0,.1,54.6,54.6,0,0,0-1.17,6.16c-.3,2.51-.67,6.48-.84,9.92,0,.88-.08,1.72-.09,2.49a24.37,24.37,0,0,0,.1,3.19,40.4,40.4,0,0,0,.79,4.63s.09-5.29.36-10.22l.09-1.44a54.2,54.2,0,0,1,.55-5.4c.25-1.36.53-3,.79-4.54.59-3.46,1.13-6.72,1.13-6.72l.37-1V426s-.15,8.38.32,13.73l.06.58c.54,5.29,2.17,11.3,3.54,13.55s2,3,4.26,3a4.32,4.32,0,0,0,3.67-2h0a19.45,19.45,0,0,0,2.65-5.73c1.46-4.61,2.89-11.9,4.19-23.34l.86,1.23a137.53,137.53,0,0,0,5.78,14.68c3,6,6.67,12,8.17,12,1.26,0,1-1.71.83-2.79h0c0-.21-.08-.4-.1-.54s-.95-8.73-2.39-13.07-3.23-9.18-3.23-9.18l.1-.27a3.62,3.62,0,0,1-1.35.19s-1.36.72-1.81.39a5.61,5.61,0,0,1-.92-1s-1.44.14-1.66-.36a2,2,0,0,1,0-1.23s-1.45-.08-1.39-.91c0-.47.08-.92.11-1.26a1.2,1.2,0,0,0,0-.49c-.09-.12-.61-.23-.59-.64a3.5,3.5,0,0,1,.39-1.07,1.91,1.91,0,0,1,1.06-1.24s.45-1.92,1.47-2l2.81-.13h0a4.56,4.56,0,0,1,1.06-1.13l1.8-1.42h0a33.37,33.37,0,0,0,1.54-4.89c-.31-.28-.63-.59-1-.95a25.73,25.73,0,0,1-4.2-6.35,34.58,34.58,0,0,1,11-7.09s.91,2.87.54,4a1.92,1.92,0,0,1,1.33,1.13,25.81,25.81,0,0,0,1.67,2.88s.3.22.71.56c.57-.28,7.67-3.77,9.47-6.69s2.25-4.55,1.87-6-2.08-1.92-4.17-2c0,0-6.79-1.83-17.6,1,0,0-.91-1.29-1.71-1.29a5,5,0,0,0-1.25.13l-.89.19h0a48,48,0,0,0-5.4,3.75,13,13,0,0,1-6.09,3.1c-2.88.71-8.45.55-9.76.46a2.69,2.69,0,0,1-2.42-2c-.4-1.1.92-3.32,1.4-4s2.11-.9,2.11-.9a3.31,3.31,0,0,0-1.47-.55,2.23,2.23,0,0,0-2,.55,5.28,5.28,0,0,0-.78,1.06,37.1,37.1,0,0,0-12.57.59,2.39,2.39,0,0,0-2.05.39C1126.63,393.39,1126.44,394.72,1127.66,396Z"/><path class="cls-12" d="M1144.46,393.52a1.48,1.48,0,0,0,.63,1.29c.71.47,1.68.44,3.43.41H1151a21,21,0,0,0,8.75-1.68l.26-.12.61-.3c1.3-.61,3.15-1.44,4.57-2.08l2.07-.93a9.54,9.54,0,0,0-3.58-2.84,37,37,0,0,0-1-6.16h0a2.25,2.25,0,0,1-1.53.07A13.23,13.23,0,0,1,1160,384a37.11,37.11,0,0,1-3.2,2.69,10.06,10.06,0,0,1-2.09,1.25,13.42,13.42,0,0,1-2.49.88.91.91,0,0,1-.66-.15l-1.78-1.24-.23.88s-1.92,1.27-3.26,2.33a6.77,6.77,0,0,0-1.16,1.06,3.54,3.54,0,0,0-.56,1.23A2.46,2.46,0,0,0,1144.46,393.52Z"/><path class="cls-13" d="M1149.27,388.46l.91.63,1.78,1.24a.92.92,0,0,0,.66.15,12.93,12.93,0,0,0,2.49-.88,9.75,9.75,0,0,0,2.1-1.26,39,39,0,0,0,3.2-2.68,13.06,13.06,0,0,0,1.22-2.81,2.35,2.35,0,0,0,1.47,0c-.2-1-.38-1.7-.38-1.7h0a2.25,2.25,0,0,1-1.53.07A13.23,13.23,0,0,1,1160,384a37.11,37.11,0,0,1-3.2,2.69,10.06,10.06,0,0,1-2.09,1.25,13.42,13.42,0,0,1-2.49.88.91.91,0,0,1-.66-.15l-1.79-1.24-.22.88Z"/><path class="cls-14" d="M1140.17,358.86l.39,6.56,1.45,5.7,0-.14c.28-.76.81-2.31,1.3-3.73h0c.35-1,.67-2,.86-2.51a1.89,1.89,0,0,1,.84-1c.25-.15.5-.21.59.06.16.53,1.69,6.34,2.11,7.94a.18.18,0,0,0,.21.13.2.2,0,0,0,.12-.08l4.16-6.72a5.73,5.73,0,0,1,1.48-1.62,3.2,3.2,0,0,1,2.37-.73c1.86.3,3.72,1.55,4.42,4.7s1,5.24-.53,5.88a.13.13,0,0,0,0,.22l1.53,1.7a.11.11,0,0,0,.18,0,19.52,19.52,0,0,1,1.51-2.52c.5-.56,1.59-1.58,2.28-.61a5.59,5.59,0,0,1,0,6.25c-1.15,1.55-1.88,2.49-2.72,2.85h0l.13.49,7.9-1.93-2.33-.44,8.76-3.12-6.5-.55-1.14-.5,3.56-2.37,7.72-11.06-6.56,2.78,3.06-11.12L1175.64,339l-5.28,6-4.56,2.67,2.62-5.84-6,2.56-6.45,3.78.54-2.72.62-3.07-7.72,7.84L1147,355l-2.62-6.5-3,13.51Z"/><path class="cls-12" d="M1141.78,374.14c0,.22,0,.44,0,.62a3.31,3.31,0,0,0,.08.55,5.5,5.5,0,0,0,.3.95l1.21,2.81.15.39,1.77,4.61a1.56,1.56,0,0,0,.54.68l3.86,2.67,1.78,1.24a.91.91,0,0,0,.66.15,13.42,13.42,0,0,0,2.49-.88,10.06,10.06,0,0,0,2.09-1.25A37.11,37.11,0,0,0,1160,384a13.23,13.23,0,0,0,1.23-2.81,2.29,2.29,0,0,0,1.52-.06h0c.84-.36,1.57-1.3,2.72-2.85a5.59,5.59,0,0,0,0-6.25c-.69-1-1.78.05-2.28.61a19.52,19.52,0,0,0-1.51,2.52.11.11,0,0,1-.18,0l-1.53-1.7a.13.13,0,0,1,0-.22c1.56-.64,1.26-2.6.53-5.88s-2.56-4.4-4.42-4.7a3.2,3.2,0,0,0-2.37.73,5.73,5.73,0,0,0-1.48,1.62l-4.16,6.72,0,0h0l0,0h0a.19.19,0,0,1-.25-.12c-.42-1.6-2-7.41-2.11-7.94-.09-.27-.34-.21-.59-.06a1.89,1.89,0,0,0-.84,1c-.45,1.33-1.69,4.95-2.16,6.25l0,.14a7.31,7.31,0,0,0-.25,1.88C1141.75,373.39,1141.76,373.78,1141.78,374.14Z"/><path d="M1147.76,371.69l.21.13a.2.2,0,0,0,.12-.08l4.16-6.72a5.73,5.73,0,0,1,1.48-1.62,3.2,3.2,0,0,1,2.37-.73c1.86.3,3.72,1.55,4.42,4.7s1,5.24-.53,5.88a.13.13,0,0,0,0,.22l1.53,1.7a.11.11,0,0,0,.18,0,19.52,19.52,0,0,1,1.51-2.52c.5-.56,1.59-1.58,2.28-.61a5.59,5.59,0,0,1,0,6.25c-1.15,1.55-1.88,2.49-2.72,2.85l.12.5,7.9-1.93-2.33-.44,8.76-3.12-6.5-.55-1.14-.5,3.56-2.37,7.72-11.06-6.56,2.78,3.06-11.12L1175.64,339l-3.39,11.18-8.51,7.78,1.9-12.12-5.9,6-4.39,6.95.67-10.62.54-2.72-3.38,4-3.11,6.12-2.28,9.06Z"/><polygon class="cls-15" points="1174.25 364.42 1171.86 367.64 1175.2 365.48 1180.82 361.64 1174.25 364.42"/><polygon points="1147.01 355.02 1146.23 357.75 1144.39 348.52 1147.01 355.02"/><path d="M1143.36,367.24c.35-1,.67-2,.86-2.51a1.89,1.89,0,0,1,.84-1c.25-.15.5-.21.59.06l-1.26-6.45Z"/><path class="cls-16" d="M1140.81,375.38l.51,3.2a1.29,1.29,0,0,0,1.5,1.08,4.52,4.52,0,0,0,.75-.2l-.15-.39-1.21-2.81a5.5,5.5,0,0,1-.3-.95,3.31,3.31,0,0,1-.08-.55c0-.18,0-.4,0-.62l-.77.69a.65.65,0,0,0-.2.36A.61.61,0,0,0,1140.81,375.38Z"/><path class="cls-17" d="M1140.81,375.19a1.41,1.41,0,0,0,1.1.12,3.31,3.31,0,0,1-.08-.55c0-.18,0-.4,0-.62l-.77.69A.65.65,0,0,0,1140.81,375.19Z"/><path class="cls-13" d="M1144.53,392.92a6.11,6.11,0,0,1,1.75,0,14.63,14.63,0,0,1,3.13,1.17c1.6-.95,5.76-1.14,6.6-1.16s4.24,0,4.39,0a.31.31,0,0,1,.26.16l-.61.3-.26.12c-1,0-3.16,0-3.76,0s-4.24.16-6,.91a2,2,0,0,0-.44.24l-.15.11a2.17,2.17,0,0,0-.3.41h-.65a2.74,2.74,0,0,1,.41-.68,12.83,12.83,0,0,0-2.75-1,4.37,4.37,0,0,0-.86-.08,5.34,5.34,0,0,0-.86.07A2.46,2.46,0,0,1,1144.53,392.92Z"/><path d="M1156.72,373.29l1,1.84a.08.08,0,0,1-.07.12h-.34a2.17,2.17,0,0,0-1,.25l-6.09,3.2a.09.09,0,0,1-.13,0l-.25-.5a.1.1,0,0,1,0-.13l6.5-4.82A.24.24,0,0,1,1156.72,373.29Z"/><path d="M1147.52,378.18v.33a.09.09,0,0,1-.15.06c-.61-.59-3.08-2.85-4.84-3a.25.25,0,0,1-.23-.25V373.9a.29.29,0,0,1,.29-.29h0a.32.32,0,0,1,.19.07,56.73,56.73,0,0,1,4.72,4.45A.08.08,0,0,1,1147.52,378.18Z"/><path class="cls-18" d="M1146.51,375.72l.15.11a1.49,1.49,0,0,1,.61,1l.42,3.17a1.22,1.22,0,0,1-1.21,1.38h-2.14a2.11,2.11,0,0,1-2.08-1.74l-.62-3.42a.73.73,0,0,1,.72-.86h3.05A1.89,1.89,0,0,1,1146.51,375.72Z"/><path class="cls-19" d="M1142.74,395.57a4.17,4.17,0,0,0,.41.85,2.43,2.43,0,0,0,2,1.19c1.31.09,6.88.25,9.76-.46l.62-.16a12.59,12.59,0,0,0,5.46-2.94h0a35,35,0,0,1,4.22-3c-1.42.64-3.27,1.47-4.57,2.08l-.61.3-.26.12a21,21,0,0,1-8.75,1.68h-2.52c-1.75,0-2.72.06-3.43-.41a1.48,1.48,0,0,1-.63-1.29,2.46,2.46,0,0,1,.07-.6,3.54,3.54,0,0,1,.56-1.23,6.77,6.77,0,0,1,1.16-1.06s-1.63.17-2.11.9a12.31,12.31,0,0,0-1.12,2.1A3,3,0,0,0,1142.74,395.57Z"/><path class="cls-20" d="M1148.09,396.39s4.43.2,7.45.6a12.59,12.59,0,0,0,5.46-2.94c-.11.06-3.82,2.2-7.26,2.2S1148.09,396.39,1148.09,396.39Z"/><path class="cls-20" d="M1142.74,395.57a4.17,4.17,0,0,0,.41.85l2.64-.11s-2.17-.2-2.4-.92c-.12-.42-.27-1.18-.37-1.76A3,3,0,0,0,1142.74,395.57Z"/><path class="cls-21" d="M1129.19,395.64a8.41,8.41,0,0,0,1,1.06c1.7,1.61,4.78,4.11,4.78,4.11a32.53,32.53,0,0,1,5.62-3.82,14.62,14.62,0,0,1,1.36-5.3h0a37.1,37.1,0,0,0-12.57.59A2.35,2.35,0,0,0,1129.19,395.64Z"/><path class="cls-22" d="M1130.19,396.7c1.7,1.61,4.78,4.11,4.78,4.11a32.53,32.53,0,0,1,5.62-3.82,14.62,14.62,0,0,1,1.36-5.3,18,18,0,0,0-2,4.09A31.37,31.37,0,0,0,1130.19,396.7Z"/><path class="cls-21" d="M1160.84,396.32a17.76,17.76,0,0,1,2.19,1.37c1.84,1.33,3.61,2.93,3.61,2.93a39.6,39.6,0,0,1,9.54-6.84h0a31.21,31.21,0,0,1,11.67-3.55s-6.79-1.83-17.6,1C1166.5,392.13,1160.84,396.32,1160.84,396.32Z"/><path class="cls-22" d="M1163,397.69c1.84,1.33,3.61,2.93,3.61,2.93a39.6,39.6,0,0,1,9.54-6.84A130.31,130.31,0,0,0,1163,397.69Z"/><path class="cls-21" d="M1177,400.28a1.92,1.92,0,0,1,1.33,1.13c.22.42.51.95.79,1.44,1.84-1,8.29-4.58,9.43-6.61.54-1,.57-1.7.17-2.19-.59-.73-2.1-1-4.26-.69a27.43,27.43,0,0,0-8,2.88,14.61,14.61,0,0,1,.62,3.08A2.82,2.82,0,0,1,1177,400.28Z"/><path class="cls-22" d="M1176.44,396.24a14.61,14.61,0,0,1,.62,3.08h0a36.72,36.72,0,0,1,11.64-5.27c-.59-.73-2.1-1-4.26-.69A27.43,27.43,0,0,0,1176.44,396.24Z"/><path class="cls-23" d="M1167.87,424a6.22,6.22,0,0,0,.78.76,10,10,0,0,0,2.17,1.34,2.45,2.45,0,0,0,.19-.23l.29,0a.27.27,0,0,0-.17-.23,10.34,10.34,0,0,1-1.93-1.15,5.77,5.77,0,0,1-.88-.83.29.29,0,0,0-.45.38Z"/><path class="cls-23" d="M1166.46,428.13l.26-.13a2.68,2.68,0,0,0,.49,0l1.19-.9a.29.29,0,0,0,0-.41.3.3,0,0,0-.41-.05l-1.5,1.14A.29.29,0,0,0,1166.46,428.13Z"/><path class="cls-20" d="M1183.4,409.12l2.29,2.71a6.65,6.65,0,0,0-.63-1.85Z"/><path class="cls-20" d="M1180.69,404.85l.92,3-1.63-1.51a7.25,7.25,0,0,0,0-2.07"/><path class="cls-22" d="M1166.19,418.07a4.56,4.56,0,0,1,1.06-1.13l.56-.44,1.24-1h0a33.37,33.37,0,0,0,1.54-4.89c-.27-.25-.55-.52-.84-.82l-.12-.13h-.91A54.72,54.72,0,0,1,1166.19,418.07Z"/><path class="cls-21" d="M1169.05,415.52h0a33.37,33.37,0,0,0,1.54-4.89c-.27-.25-.55-.52-.84-.82a44.74,44.74,0,0,1-1.94,6.69Z"/><path class="cls-21" d="M1160.93,426.38h0c.69,2,3.25,9.46,5.41,13.94,2.52,5.22,6.57,13.38,7.35,10.55h0c0-.21-.08-.4-.1-.54s-.39-3.62-1.06-7.35a44.71,44.71,0,0,0-1.33-5.72c-.18-.52-.36-1.05-.53-1.57-1.32-3.86-2.7-7.61-2.7-7.61l.1-.27a3.62,3.62,0,0,1-1.35.19s-1.36.72-1.81.39a5.61,5.61,0,0,1-.92-1s-1.44.14-1.66-.36a1.76,1.76,0,0,1-.06-1Z"/><path class="cls-22" d="M1166.72,428s1.58,3.32,3.2,7.39h0a78.35,78.35,0,0,1,2.61,7.59,44.71,44.71,0,0,0-1.33-5.72c-.18-.52-.36-1.05-.53-1.57-1.32-3.86-2.7-7.61-2.7-7.61l.1-.27A3.62,3.62,0,0,1,1166.72,428Z"/><path class="cls-10" d="M1160.93,426.38h0c0,.05,1.25,1.84,2.75,1.57,0,0,.65,1.38,1.64,1.41a9,9,0,0,0,1.16,0,49.83,49.83,0,0,0,3.44,6h0a.87.87,0,0,0,.75.3c-1.32-3.86-2.7-7.61-2.7-7.61l.1-.27a3.62,3.62,0,0,1-1.35.19s-1.36.72-1.81.39a5.61,5.61,0,0,1-.92-1s-1.44.14-1.66-.36a1.76,1.76,0,0,1-.06-1Z"/><path class="cls-11" d="M1167.91,504.76a1.85,1.85,0,0,0,.87,1,2.61,2.61,0,0,0,.72,1.75s.06.84.11,2a4.27,4.27,0,0,0,1,2.26c.23.36.56,3.47,1,5.17s4.45,4.75,6,4.7a2.69,2.69,0,0,0,.59-.1,4.58,4.58,0,0,0,2.47-2.66,6.06,6.06,0,0,0,.36-5.06,52.16,52.16,0,0,1-1.43-8l.25-.24a.73.73,0,0,0,.07-.94l-.34-.46a1.55,1.55,0,0,0,1-1.67s-.54-10.92-.58-11.8a1.67,1.67,0,0,0-.47-.91,8.67,8.67,0,0,0-1.36-1.21l-12.65.73s-1.67,1.11-1.81,1.87S1167.75,504.12,1167.91,504.76Z"/><path class="cls-24" d="M1177.81,512.38a14.55,14.55,0,0,0-3.46,1.33h2.75s2.53,3.93,1.08,7.83a4.58,4.58,0,0,0,2.47-2.66,6.06,6.06,0,0,0,.36-5.06,52.16,52.16,0,0,1-1.43-8l.25-.24a.73.73,0,0,0,.07-.94l-.34-.46a1.55,1.55,0,0,0,1-1.67s-.54-10.92-.58-11.8a1.67,1.67,0,0,0-.47-.91h0s-.14,2.5-7,4.54l1.35,7.13-1.31,1.09a0,0,0,0,0,0,.07l.94.57a1.36,1.36,0,0,1,.53.63l.33.85a.15.15,0,0,1-.14.21h-2a.1.1,0,0,0,0,.19l2.27,1.35a21.24,21.24,0,0,1-4.71-.37,15.28,15.28,0,0,0,6.26,2.38Z"/><path class="cls-11" d="M1129.72,509.29a19.35,19.35,0,0,0,3.35,0,36.46,36.46,0,0,0,6-.64,12.13,12.13,0,0,1,3.89-.95c1.33,0,3.36-.25,4.09-.88s.69-4.56.69-4.56c.61-.28.31-1.37.31-1.37.5-.11.53-.89.53-.89s1.39-10.46,1.64-12.17a1.35,1.35,0,0,0-.3-1.17,2,2,0,0,0-1.37-.5s-8.23-.31-10.34.33-1.87,1.61-1.87,1.61.8,9.26.74,10.42.37,1.5.37,1.5a2.24,2.24,0,0,0-.3.69.66.66,0,0,0,.14.66c-3.25,3.72-4,3.3-5.56,4.58S1128.69,509,1129.72,509.29Z"/><path class="cls-24" d="M1133.07,509.32a36.46,36.46,0,0,0,6-.64,12.13,12.13,0,0,1,3.89-.95c1.33,0,3.36-.25,4.09-.88s.69-4.56.69-4.56c.61-.28.31-1.37.31-1.37.5-.11.53-.89.53-.89s1.39-10.46,1.64-12.17a1.35,1.35,0,0,0-.3-1.17c-.55,1.63-4.75,1.72-5.79,2.71s-1.88,5.75-2.21,7.3c-.29,1.32-2.33,1.71-2.9,1.8a.09.09,0,0,0-.06.15,10.11,10.11,0,0,0,2.13,1.52.05.05,0,0,1,0,.09,9.83,9.83,0,0,1-2.73.21,0,0,0,0,0,0,.09,9.42,9.42,0,0,0,1.42.67.05.05,0,0,1,0,.1,4.06,4.06,0,0,1-2.59-.59.66.66,0,0,0,.14.66,19.1,19.1,0,0,0,2.76,2.14.24.24,0,0,1,0,.37C1138.53,505.41,1133.07,509.32,1133.07,509.32Z"/><path class="cls-19" d="M1138,471c.56,1.28.61,3.39-.11,7.67a36.31,36.31,0,0,0,0,9.4,19.84,19.84,0,0,0,11.12-.61c3.11-7.68.67-12.29-.06-13.79s-.66-2.61-.44-5.51-.22-1.89,1.28-4.5,1.42-8.7,1.42-8.8a4.32,4.32,0,0,1-3.67,2c-2.26,0-2.88-.79-4.26-3A15.11,15.11,0,0,1,1142,451h0a51.41,51.41,0,0,1-2.29-10.67c-.54-5.3-.38-14.31-.38-14.31v-1.42l-.37,1s-1.13,6.88-1.92,11.26-1,17.06-1,17.06a19.65,19.65,0,0,0,1.5,8.8C1137.08,466.06,1137.44,469.73,1138,471Z"/><path class="cls-20" d="M1136.43,443.65s1.88-6.23,2.29-7.25a32.17,32.17,0,0,0,1,3.34c-.47-5.35-.32-13.73-.32-13.73v-1.42l-.37,1s-1.13,6.88-1.92,11.26A65.53,65.53,0,0,0,1136.43,443.65Z"/><path class="cls-20" d="M1142.84,465.62a11.61,11.61,0,0,0-.89,7.31,8.19,8.19,0,0,0,1.69-2.17,10.54,10.54,0,0,1,0,3.25c-.32,1.21-2.94,6.59-2.48,13.81a9.75,9.75,0,0,1-3.27.26,19.84,19.84,0,0,0,11.12-.61c3.11-7.68.67-12.29-.06-13.79s-.66-2.61-.44-5.51-.22-1.89,1.28-4.5,1.42-8.7,1.42-8.8a4.32,4.32,0,0,1-3.67,2c-2.26,0-2.88-.79-4.26-3A15.11,15.11,0,0,1,1142,451a21.47,21.47,0,0,0,1.86,7.18l-.25,5.83s-3.72.45-6.07-1.33A10,10,0,0,0,1142.84,465.62Z"/><path class="cls-19" d="M1145.56,476.9a38.86,38.86,0,0,0-2.61,8.84s1.08-2.78,1.83-3.33S1147.09,480.77,1145.56,476.9Z"/><path class="cls-19" d="M1153.86,449.14a44.67,44.67,0,0,0,3.2,13.13,31.29,31.29,0,0,0,3.4,6.63,12.13,12.13,0,0,1,2.17,5.28c.39,1.44-.27,6.45,0,10.12s3,7.89,3,7.89a14.76,14.76,0,0,0,4.25,1.17,10.1,10.1,0,0,0,8.26-2.56s-.11-7.45-1-9.67-3.67-8.12-4-9.62a16.09,16.09,0,0,1,0-7.84c.84-4.06-.28-10-.28-10-1.5,0-5.22-6-8.17-12a137.53,137.53,0,0,1-5.78-14.68l-.86-1.23C1156.75,437.24,1155.32,444.53,1153.86,449.14Z"/><path class="cls-20" d="M1153.86,449.14a44.67,44.67,0,0,0,3.2,13.13,12.88,12.88,0,0,0,4.72,4.33.05.05,0,0,0,.06-.08c-5.18-6.14-6.19-16.17-6.32-17.77a1,1,0,0,1,.06-.41l4.51-11.41a.17.17,0,0,1,.32,0c1.13,2.59,6.8,12.69,7.58,14.08a.8.8,0,0,1,.11.34c1.45,12.42-1.92,16.44-1.92,16.44a11.88,11.88,0,0,0,2.57-.5A45,45,0,0,1,1170,474a4.29,4.29,0,0,1-1.15,2.6.22.22,0,0,0,0,.17c.23,1.19,2.39,12.46,2.65,13.91s-1.53,2.67-1.53,2.67h0a10.1,10.1,0,0,0,8.26-2.56s-.11-7.45-1-9.67-3.67-8.12-4-9.62a16.09,16.09,0,0,1,0-7.84c.84-4.06-.28-10-.28-10-1.5,0-5.22-6-8.17-12a137.53,137.53,0,0,1-5.78-14.68l-.86-1.23C1156.75,437.24,1155.32,444.53,1153.86,449.14Z"/><path class="cls-19" d="M1173.9,479.58c0,1.29.1,5.55.23,8.9a.09.09,0,0,0,.17,0,26.65,26.65,0,0,0,1.22-4.45c.1-1.17-1-3.61-1.45-4.52A.09.09,0,0,0,1173.9,479.58Z"/><path class="cls-11" d="M1131.44,426.86c.07.71.58,4.06.61,6s0,2.92.56,3.28c0,0-.2,1,.11,1.36,0,0-.32.18-.32,1,0,.5,0,2.08.07,3.33h0c0,.9,0,1.62,0,1.62s0,.74.6.88a8.9,8.9,0,0,0,2.07,1.66c0-.77,0-1.61.09-2.49.17-3.44.54-7.41.84-9.92a54.6,54.6,0,0,1,1.17-6.16l-.17-1.38-2.38,0-2.29,0S1131.37,426.15,1131.44,426.86Z"/><path class="cls-24" d="M1132.51,443.51s0,.74.6.88a8.9,8.9,0,0,0,2.07,1.66c0-.77,0-1.61.09-2.49.17-3.44.54-7.41.84-9.92a54.6,54.6,0,0,1,1.17-6.16l-.17-1.38-2.38,0a8.66,8.66,0,0,0,0,2.88,20.28,20.28,0,0,1,.25,5.17c-.08,2.11-.16,3.42-.16,3.42l-2.2-1.39s-.2,1,.11,1.36c0,0,1.66.55,1.64,1.44s.14,3.56,0,3.93-.36.45-.33.77c0,0-.3-.75-.59-.75s-.94.11-1-1C1132.49,442.79,1132.51,443.51,1132.51,443.51Z"/><path class="cls-24" d="M1164.25,404.92a8.89,8.89,0,0,0,3.16,4.51.17.17,0,0,1,.06.18c-.18.88-1.43,6.7-3.3,9.62l-1.33,3-4.79-.69s-.13-10.73-5.93-12.72c0,0,4.93,1.07,7.35-.44a29.87,29.87,0,0,0,4.47-3.57A.19.19,0,0,1,1164.25,404.92Z"/><path class="cls-24" d="M1138.23,419.48c.13.41.27.82.42,1.24l0,.32.69-.21s-.81-10.71,2.4-12.42a11.06,11.06,0,0,1-4.78-.08.18.18,0,0,0-.25.15A31,31,0,0,0,1138.23,419.48Z"/><path class="cls-24" d="M1160.36,396.76a31.91,31.91,0,0,1,5.4,4.23.18.18,0,0,1,0,.25c-.7.7-4,4-5.5,5.46-1.62,1.62-6.82,1.88-13.27,0a.17.17,0,0,1-.13-.16c-.09-.82-.55-5.63.66-7.19a.17.17,0,0,1,.14-.07c.58,0,4-.05,6.59-.21s5.36-2,5.91-2.35A.18.18,0,0,1,1160.36,396.76Z"/><path class="cls-24" d="M1135.08,401.56a.24.24,0,0,0,0,.14c0,.51.16,3.34.27,3.68s.2.64.42,1.17h0c.86,1.1,2.27,1.78,5.1,1.11,2.31-.54,3.9-.78,4.41-.85a.17.17,0,0,0,.15-.2,19,19,0,0,1,.34-7,.19.19,0,0,0-.19-.23c-3.61.17-4.54-1.12-4.74-1.53a.2.2,0,0,0-.2-.1C1138.58,398.07,1135.53,401.11,1135.08,401.56Z"/><path class="cls-21" d="M1140.38,428.48c.09,12.68,2.44,24.5,5.86,25.77a3.69,3.69,0,0,0,1.88.2c2.37-.4,4-3.46,4.75-7.21,1-4.67,5.18-25.67,2.42-32.56a10.28,10.28,0,0,0-6.33-6.26,8.74,8.74,0,0,0-2.72-.49C1139.19,407.92,1140.28,415.8,1140.38,428.48Z"/><path class="cls-22" d="M1148.12,454.45c2.37-.4,4-3.46,4.75-7.21,1-4.67,5.18-25.67,2.42-32.56a10.28,10.28,0,0,0-6.33-6.26C1150.27,413.6,1152.53,427.77,1148.12,454.45Z"/><path class="cls-25" d="M1137.5,424.83s9.17,4.81,23.43,1.55l1.34-.33.76-.2v-4.28l-2-.63s-7.71,2.34-22.41-.22Z"/><path class="cls-11" d="M1161.05,423.14a11,11,0,0,1-.11,1.75c-.06.83,1.39.91,1.39.91a2,2,0,0,0,0,1.23c.22.5,1.66.36,1.66.36h0a5.57,5.57,0,0,0,.91,1c.45.33,1.81-.39,1.81-.39a3.62,3.62,0,0,0,1.35-.19,8.6,8.6,0,0,0,2.22-1.21,3.37,3.37,0,0,0,.72-.71,35.55,35.55,0,0,0,7.43-2.61c2.67-1.26,2.64-2.72,2.64-2.72l-.41-2.14-.16-.82s-5.66-4.59-6.62-5a1.52,1.52,0,0,0-1.64.36l-3.2,2.53h0l-1.8,1.42a4.89,4.89,0,0,0-.89.89c-.11.15-.17.25-.17.25h-.3l-2.51.12c-.72,0-1.15,1-1.35,1.57-.08.24-.12.41-.12.41a1,1,0,0,0-.26.12,2.09,2.09,0,0,0-.8,1.12,3.5,3.5,0,0,0-.39,1.07C1160.44,422.91,1161,423,1161.05,423.14Z"/><path class="cls-24" d="M1162.33,426.1a.27.27,0,0,0,.17-.06l2.7-2a.3.3,0,0,0-.35-.48l-2.7,2a.3.3,0,0,0-.06.41A.33.33,0,0,0,1162.33,426.1Z"/><path class="cls-24" d="M1161.65,420.31a0,0,0,0,0,0,0,.29.29,0,0,0,.25.14.28.28,0,0,0,.15,0l1.14-.67a.29.29,0,0,0-.3-.5l-.87.51c-.08.24-.12.41-.12.41A1,1,0,0,0,1161.65,420.31Z"/><path class="cls-24" d="M1161.05,423.43a.33.33,0,0,0,.16-.05l.86-.59a.29.29,0,1,0-.32-.48l-.87.58a.3.3,0,0,0-.07.41A.28.28,0,0,0,1161.05,423.43Z"/><path class="cls-24" d="M1165.91,421.68a.3.3,0,0,0,.28.2h.09a.29.29,0,0,0,.19-.37,8.17,8.17,0,0,1,0-3.37.32.32,0,0,0-.12-.3c-.11.15-.17.25-.17.25h-.3A8.66,8.66,0,0,0,1165.91,421.68Z"/><path class="cls-24" d="M1166.34,426.08a.36.36,0,0,0,0-.09.29.29,0,0,0-.4-.1l-2.06,1.25a.31.31,0,0,0-.14.26h.3Z"/><path class="cls-24" d="M1169.2,424.47a10.34,10.34,0,0,0,1.93,1.15.27.27,0,0,1,.17.23,39.64,39.64,0,0,0,7.14-2.57c2.67-1.26,2.64-2.72,2.64-2.72l-.41-2.14-1.94-1.12-3.75.37s1,2.24,1.29,2.81Z"/><path class="cls-24" d="M1164.17,427.62a4.84,4.84,0,0,0,.74.77c.33.24,1.13-.07,1.55-.26a.29.29,0,0,1,.08-.36l1.5-1.14a.3.3,0,0,1,.41.05.29.29,0,0,1,0,.41l-1.19.9a3.66,3.66,0,0,0,.86-.18,8.6,8.6,0,0,0,2.22-1.21,3.17,3.17,0,0,0,.53-.48,10,10,0,0,1-2.17-1.34l-2.31,1.3a.3.3,0,0,1-.14.31Z"/><path class="cls-20" d="M1165.43,403.33a23.66,23.66,0,0,0,5.16,7.3,7.89,7.89,0,0,0,3.3,2c-.54.33-.83,2.12,1.09,5a9.5,9.5,0,0,0,4.5,3.76s2.38-1.26,3.42-1.92,1-1.42,2.34-2a2.72,2.72,0,0,0,1.87-2.84,2,2,0,0,0,0-.55,5.09,5.09,0,0,0-1.37-2.29c-.48-2.89-3.58-5.79-5-7-.41-.34-.67-.54-.71-.56a10.32,10.32,0,0,1-.88-1.44c-.13-.23-.27-.47-.39-.7l-.4-.74a1.92,1.92,0,0,0-1.33-1.13c.37-1.17-.54-4-.54-4A34.58,34.58,0,0,0,1165.43,403.33Z"/><path class="cls-19" d="M1170.76,408.21a9.34,9.34,0,0,0,5.42,3.67c-3,.95-.62,4.87-.62,4.87,1.63-.08,3.63-1.79,3.63-1.79-.17,1.09-2.13,3.05-2.13,3.05a6.53,6.53,0,0,0,5.88-.71c-1.46-2.63.17-3.59,1-4s1.25,1.29,1.84,1.62,1.32-.84,1.32-.84a5.09,5.09,0,0,0-1.37-2.29,6.65,6.65,0,0,0-.63-1.85,18.33,18.33,0,0,0-4.37-5.13c-.41-.34-.67-.54-.71-.56a10.32,10.32,0,0,1-.88-1.44c-.13-.23-.27-.47-.39-.7-1.61-1.15-2.27-1-2.27-1a14.18,14.18,0,0,1,.25,3.62,11.7,11.7,0,0,0-3.38-2.29l0-3.13-1.67,1.3.58.45a4.82,4.82,0,0,0-3.46,1.38C1167.8,403.41,1169,405.33,1170.76,408.21Z"/><path class="cls-19" d="M1132.46,426.33c0,.14,0,.29,0,.43a12.25,12.25,0,0,0,4.8.62c.4-1.64.74-2.76.74-2.76l.32-1.65.29-2.25a30.73,30.73,0,0,1-2-12.49,5,5,0,0,1-.69-1.08,5.38,5.38,0,0,1-.28-.6c-.22-.53-.36-1-.42-1.17-.12-.37-.27-3.76-.27-3.76-.45-.23-.89-.47-1.32-.73a12.22,12.22,0,0,0,.26,3.42,6.3,6.3,0,0,1,.61,2.26c0,.12-.14.46-.26.92a16.83,16.83,0,0,0-.5,2.78c-.09,1.33-.3,4.84-.21,5.32s.62,2.69.62,2.92a5.7,5.7,0,0,1-.25,1.94A9.23,9.23,0,0,0,1132.46,426.33Z"/><path class="cls-20" d="M1132.46,426.33c0,.14,0,.29,0,.43a12.25,12.25,0,0,0,4.8.62c.4-1.64.74-2.76.74-2.76l.32-1.65.29-2.25a30.73,30.73,0,0,1-2-12.49,5,5,0,0,1-.69-1.08,57.42,57.42,0,0,0-.67,8.51c0,1.44,1,3.33,1.11,3.83s-1.25,2.31-1.61,3.14a16.17,16.17,0,0,0-.36,3.7C1133.47,426.28,1132.46,426.33,1132.46,426.33Z"/><path class="cls-20" d="M1134,404.31a6.3,6.3,0,0,1,.61,2.26c0,.12-.14.46-.26.92a8.51,8.51,0,0,1,1.4-.94c-.22-.53-.36-1-.42-1.17-.12-.37-.27-3.76-.27-3.76-.45-.23-.89-.47-1.32-.73A12.22,12.22,0,0,0,1134,404.31Z"/><path class="cls-26" d="M847.12,436.67,820.7,537.39a26.28,26.28,0,0,0-9.65,17.24c-3,24.07-9.71,83.61-7.54,122.52.16,3.09.39,6.05.68,8.85,1.22,11.84,4.57,25.4,7.64,39.11.89,4,1.76,8,2.55,12H539.72c.79-4,1.66-8,2.55-12,3.07-13.71,6.42-27.27,7.64-39.11.29-2.8.52-5.76.68-8.85,2.17-38.91-4.53-98.45-7.54-122.52a26.36,26.36,0,0,0-9.65-17.24L507,436.67l19.81-36.32s61.1-23.12,118.89-19.82h62.74c57.79-3.3,118.89,19.82,118.89,19.82Z"/><path class="cls-26" d="M532.5,537.35c-16.91,11.34-7.37,89.77-7.37,89.77a105.3,105.3,0,0,0-20.35-4.88c-31.15-4.24-51.35,8-51.35,8a86.6,86.6,0,0,1-1.22-26.83c.07-.86.16-1.75.25-2.65,1.81-17.41,6.38-39.9,8-83.85,2.59-70.41,66.33-116.58,66.33-116.58,36.17,42,22.6,125.67,5.71,137Z"/><path class="cls-27" d="M449.7,626.66c-1.38-5.53,4.7-18,13.39-18.42a21.61,21.61,0,0,1,14.67,5.15c3.69-14.19,16.6-11.67,24-9s2.46,14.33-.33,21.23,1.11,22.12-5.4,26.72-20.32-.77-20.32-.77a30.93,30.93,0,0,1,.09,6.8c-.23,3.39-8.66,3.32-16.07,2.29a9.82,9.82,0,0,1-8.64-7.74,140.85,140.85,0,0,1-1.62-24.79Z"/><path class="cls-27" d="M505.7,609.46s9.17-8.85,20.83-4.74,0,22,0,28.06,1,24.82-6.79,25.69-20.13,1.72-20.86-2.21a26.82,26.82,0,0,1,.17-8.53l-2.84-23Z"/><path class="cls-26" d="M820.72,537.35c-16.89-11.33-29.59-95,6.59-137,0,0,62.86,46.17,65.45,116.58,1.62,44,6.19,66.44,8,83.85.09.9.18,1.79.25,2.65a86.6,86.6,0,0,1-1.22,26.83s-20.2-12.26-51.35-8a105.48,105.48,0,0,0-20.35,4.88s9.54-78.43-7.37-89.77Z"/><path class="cls-27" d="M903.71,628.08a140.85,140.85,0,0,1-1.62,24.79,9.82,9.82,0,0,1-8.64,7.74c-7.41,1-15.84,1.1-16.07-2.29a30.93,30.93,0,0,1,.09-6.8s-13.82,5.38-20.32.77-2.61-19.82-5.4-26.72S844,607,851.42,604.34s20.35-5.14,24,9a21.61,21.61,0,0,1,14.67-5.15c8.69.43,14.77,12.89,13.39,18.42Z"/><path class="cls-27" d="M857,624.74l-2.85,23a26.82,26.82,0,0,1,.17,8.53c-.73,3.93-13.1,3.07-20.86,2.21s-6.79-19.65-6.79-25.69-11.65-24,0-28.06,20.83,4.74,20.83,4.74Z"/><path class="cls-28" d="M792.19,409.7c-8.08,4.24-61.29,35.51-113.26,36.92h-.43c-51.94-1.41-105.17-32.68-113.25-36.92-4.24-2.23-4.85-5.34-4-8.41a7.62,7.62,0,0,0,4,4.11c8.08,4.25,61.31,35.5,113.25,36.92h.43c52-1.42,105.18-32.67,113.26-36.92a7.62,7.62,0,0,0,4-4.11C797,404.36,796.43,407.48,792.19,409.7Z"/><path class="cls-26" d="M729.66,338.83s49.42,15.34,59.31,31.88-.61,14.52,2.82,18.76,8.47,11.7.41,15.93-61.3,35.51-113.26,36.92h-.42c-52-1.41-105.19-32.68-113.26-36.92s-3-11.7.4-15.93-7.06-2.22,2.83-18.76,59.31-31.88,59.31-31.88Z"/><path class="cls-29" d="M728.69,350.33S779.53,364.05,782,377s-71.82,49.34-95.22,47.61h-17c-23.4,1.73-97.64-34.7-95.22-47.61s53.26-26.63,53.26-26.63Z"/><path class="cls-29" d="M653.4,429.41c0,2-2.86,3.69-6.76,4.12a15.28,15.28,0,0,1-2.08.13,16.47,16.47,0,0,1-2.13-.13c-3.86-.43-6.76-2.12-6.76-4.12s2.9-3.68,6.76-4.12a16.47,16.47,0,0,1,2.13-.13,15.28,15.28,0,0,1,2.08.13C650.54,425.73,653.4,427.42,653.4,429.41Z"/><path class="cls-30" d="M646.64,425.29V542h-4.21V425.29a16.47,16.47,0,0,1,2.13-.13A15.28,15.28,0,0,1,646.64,425.29Z"/><rect class="cls-31" x="642.42" y="539.35" width="4.24" height="14.12"/><path class="cls-29" d="M721.37,429.41c0,2-2.86,3.69-6.77,4.12a15.17,15.17,0,0,1-2.08.13,16.47,16.47,0,0,1-2.13-.13c-3.85-.43-6.76-2.12-6.76-4.12s2.91-3.68,6.76-4.12a16.47,16.47,0,0,1,2.13-.13,15.17,15.17,0,0,1,2.08.13C718.51,425.73,721.37,427.42,721.37,429.41Z"/><path class="cls-30" d="M714.6,425.29V542h-4.21V425.29a16.47,16.47,0,0,1,2.13-.13A15.17,15.17,0,0,1,714.6,425.29Z"/><rect class="cls-31" x="710.38" y="539.35" width="4.24" height="14.12"/><path class="cls-27" d="M730.77,392.59c-8.38,11.18-27.59,24.17-40.17,32a24.66,24.66,0,0,1-3.65,0H670a25.25,25.25,0,0,1-3,0c-12.58-7.8-31.83-20.81-40.24-32-8.93-11.92-7.64-30-6-40.12.78-4.63,1.62-7.6,1.62-7.6H735.12a75,75,0,0,1,1.63,7.78C738.43,362.82,739.66,380.74,730.77,392.59Z"/><path class="cls-10" d="M737.56,358.82c-11.81,13.18-29.21,21-58.63,21h-.2c-29.57,0-47-7.89-58.83-21.2a93.34,93.34,0,0,1,1.4-9.31c11.79,12.38,29,19.64,57.43,19.68h.2c28.28,0,45.45-7.22,57.24-19.49C736.65,351.9,737.2,355.14,737.56,358.82Z"/><path class="cls-27" d="M773,258a42.6,42.6,0,0,1-9,3.29v0a244.34,244.34,0,0,1,0,26.24c-.08,1.16-.12,2.27-.14,3.35-2.34,7.13-4.56,13.95-6.86,20.39-3.72,4.25-9.48,9.22-18.41,15.43-28.75,20-58,21.24-58,21.24-19.36,0-60-14.38-73.42-24.69a18.24,18.24,0,0,1-3.76-4.11c-4.51-11.35-8.38-24.17-13-37.93,0,0,0,0,0,0-2.14-10.35-3.19-18.43-3.19-18.43-.67-.17-1.32-.34-2-.52-16.78-4.86-22-15.6-21-34.46,1-19.59,14.14-19.8,14.14-19.8l7.29-29,16.93-53.63,70.56-20.69,75.34,19.2,17,53.61,5.47,21.75,1.83,7.29a9.17,9.17,0,0,1,1.72.25c3.59.82,11.64,4.37,12.43,19.53C787.65,242.15,784.11,252.27,773,258Z"/><path d="M609.16,198.24s23.82-8.25,60.41-5.1a49.75,49.75,0,0,0-24.74-9.88c-14.84-1.52-30.07-2.79-35.67,15Z"/><path d="M748.59,198.24c-5.6-17.77-20.82-16.5-35.66-15a49.75,49.75,0,0,0-24.75,9.88c36.59-3.15,60.41,5.1,60.41,5.1Z"/><path d="M678.73,123.43c63,0,69.62,8.47,69.62,8.47v31c22.46,23.48,20.17,87.2,20.17,87.2s45.76-128.37-49.79-166.81a115,115,0,0,0-85.65,0c-95.55,38.44-49.79,166.81-49.79,166.81S581,186.43,603.46,163v-31s6.59-8.47,69.62-8.47Z"/><path d="M774.39,206.72a126,126,0,0,0-3.66-19.31s.19,4.6.11,11.77c-.24,20.16-2.72,60.69-18,76.66-20.7,21.64-30.1,22.58-30.1,22.58l1.19-12.56a10.29,10.29,0,0,0-6.23-10.43c-36.28-15.55-65.87-6-78.49-.26a10.26,10.26,0,0,0-5.94,10.31l1.23,12.94s-9.41-.94-30.1-22.58-17.88-88.43-17.88-88.43-10,33.14-1.4,74.82a158.35,158.35,0,0,0,5.14,18.95s0,0,0,0c4.65,13.76,8.52,26.58,13,37.93,11.91,30,28.28,49.77,75.22,49.83h.2c50.94-.06,65.87-23.36,78.18-57.7,2.3-6.44,4.52-13.26,6.86-20.39,1-3.16,2.1-6.39,3.21-9.67A162.75,162.75,0,0,0,773,258,174.51,174.51,0,0,0,774.39,206.72ZM641.1,289.19a12,12,0,0,1,9.71-11.83c5.59-1.08,14.33-2,27.92-2s22.32.91,27.92,2a12,12,0,0,1,9.71,11.83v23.18a10.66,10.66,0,0,1-6.29,9.75c-6,2.68-16.4,5.93-31.34,5.93s-25.33-3.25-31.35-5.93a10.65,10.65,0,0,1-6.28-9.75Z"/><path d="M663.68,303.12h30.11a0,0,0,0,1,0,0v2.23a9.06,9.06,0,0,1-9.06,9.06h-12a9.06,9.06,0,0,1-9.06-9.06v-2.23A0,0,0,0,1,663.68,303.12Z"/><path class="cls-32" d="M373.37,669.16H984.08v8H373.37Z"/><path class="cls-33" d="M381.39,661.16H976.08a8,8,0,0,1,8,8H373.39A8,8,0,0,1,381.39,661.16Z"/><path class="cls-34" d="M980.75,677.15H24a24,24,0,0,0-24,24H0a24,24,0,0,0,24,24H1302a24,24,0,0,0,24-24h0a24,24,0,0,0-24-24Z"/><rect class="cls-35" x="183.61" y="725.11" width="972.47" height="11.99"/><path class="cls-32" d="M1027.92,672.4h34a0,0,0,0,1,0,0v2.15a2.6,2.6,0,0,1-2.6,2.6h-28.81a2.6,2.6,0,0,1-2.6-2.6V672.4A0,0,0,0,1,1027.92,672.4Z"/><path class="cls-33" d="M1045.67,677.15c19.38,0,26-7.09,27.82-14,1.77-6.76-1.92-13.82-7.77-15.1a92.84,92.84,0,0,0-41.6,0c-5.94,1.3-9.61,8.56-7.69,15.39s8.63,13.76,27.74,13.76Z"/><path class="cls-36" d="M218.54,603c-13.42-29.93-19.79-55.12-18.93-74.85.93-21.26,10-28.75,13.87-31,5.63-3.25,11.76-2.49,14.91,1.86,7.83,10.83,3,15.42-3.76,21.78-1.69,1.59-3.59,3.39-5.56,5.51s-2.85,4.31-2.5,6.52c.7,4.57,6.36,8.68,8.49,9.88l-2.17,3.86c-.39-.21-9.51-5.4-10.7-13-.56-3.6.66-7,3.63-10.24,2.07-2.22,4-4.07,5.76-5.71,6.74-6.36,8.77-8.28,3.22-16-1.77-2.44-5.51-2.7-9.11-.62-6.72,3.88-11.07,14.1-11.65,27.33-.82,18.77,5.6,44,18.55,72.84Z"/><path class="cls-36" d="M288.06,603,284,601.2c13-28.88,19.37-54.07,18.55-72.84-.58-13.23-4.93-23.45-11.65-27.33-3.6-2.08-7.34-1.82-9.11.62-5.55,7.68-3.52,9.6,3.22,16,1.73,1.64,3.69,3.49,5.76,5.71,3,3.2,4.19,6.64,3.63,10.24-1.19,7.64-10.31,12.83-10.69,13l-2.17-3.86,1.08,1.93-1.08-1.93c2.12-1.2,7.78-5.31,8.49-9.88.34-2.21-.48-4.34-2.5-6.52s-3.88-3.92-5.56-5.51c-6.73-6.36-11.6-11-3.77-21.78,3.15-4.35,9.28-5.11,14.91-1.86,3.86,2.23,12.94,9.72,13.87,31C307.85,547.9,301.48,573.09,288.06,603Z"/><path class="cls-37" d="M285.7,674.93h-8.86s2-2.22-9.9-9.14-14.09-7.18-.49-32.89,18.79-77.65,18.79-77.65c-14.09-8.16-14.34-18.55-14.34-18.55h3.57a2.13,2.13,0,0,0,1.94-3l-.74-1.59a4.84,4.84,0,0,0-4.4-2.79h8.86a4.84,4.84,0,0,1,4.4,2.79l.74,1.59a2.13,2.13,0,0,1-1.94,3h-3.57s.25,10.39,14.34,18.55c0,0-5.19,51.93-18.79,77.65s-11.37,26,.49,32.89S285.7,674.93,285.7,674.93Z"/><path class="cls-38" d="M239.66,665.79c-11.87,6.92-9.9,9.14-9.9,9.14H220.9s-2-2.22,9.9-9.14,14.09-7.18.49-32.89-18.79-77.65-18.79-77.65c14.09-8.16,14.34-18.55,14.34-18.55h-3.57a2.13,2.13,0,0,1-1.94-3l.74-1.59a4.84,4.84,0,0,1,4.4-2.79h8.86a4.84,4.84,0,0,0-4.4,2.79l-.74,1.59a2.13,2.13,0,0,0,1.94,3h3.57s-.25,10.39-14.34,18.55c0,0,5.19,51.93,18.79,77.65S251.53,658.86,239.66,665.79Z"/><path class="cls-39" d="M276.84,674.93H229.76s-2-2.22,9.9-9.14,14.09-7.18.49-32.89-18.79-77.65-18.79-77.65c14.09-8.16,14.34-18.55,14.34-18.55h-3.57a2.13,2.13,0,0,1-1.94-3l.74-1.59a4.85,4.85,0,0,1,4.4-2.8h35.94a4.85,4.85,0,0,1,4.4,2.8l.74,1.59a2.13,2.13,0,0,1-1.94,3H270.9s.25,10.39,14.34,18.55c0,0-5.19,51.93-18.79,77.65s-11.37,26,.49,32.89S276.84,674.93,276.84,674.93Z"/><path class="cls-36" d="M286.69,677.15H219.91l-.66-.74a3,3,0,0,1-.64-2.5c.27-1.7,1.71-4.58,11.07-10l1-.61c5.63-3.27,7.58-4.54,7.67-7.33.14-3.81-3.22-10.95-9.07-22-5.74-10.86-10.69-27.38-14.71-49.1-3-16.1-4.31-29.23-4.33-29.36l-.14-1.42,1.24-.72c9-5.2,11.87-11.22,12.8-14.41h-.92a4.35,4.35,0,0,1-3.94-6.19l.74-1.58a7.07,7.07,0,0,1,6.4-4.08h53.66a7.1,7.1,0,0,1,6.41,4.08l.73,1.58a4.35,4.35,0,0,1-3.94,6.19h-.92c.92,3.19,3.81,9.2,12.8,14.41l1.24.72-.14,1.42c-.22,2.14-5.4,52.66-19,78.46-5.85,11.05-9.2,18.19-9.07,22,.09,2.79,2,4.06,7.67,7.33l1.05.61c9.36,5.46,10.8,8.34,11.07,10a3,3,0,0,1-.64,2.5Zm-62.08-4.43H282a45,45,0,0,0-7.3-5l-1.05-.61c-5.62-3.26-9.69-5.62-9.87-11-.17-4.84,3.1-12,9.58-24.22,12-22.71,17.45-67,18.4-75.44-13.78-8.57-14.19-19.2-14.2-19.67l-.06-2.26h5.72l-.69-1.47a2.65,2.65,0,0,0-2.39-1.52H226.47a2.65,2.65,0,0,0-2.39,1.52l-.68,1.47h5.71l-.05,2.26c0,.47-.43,11.1-14.21,19.67,1,8.41,6.39,52.73,18.4,75.44,6.49,12.26,9.75,19.38,9.58,24.22-.18,5.39-4.25,7.75-9.87,11l-1.05.61A45,45,0,0,0,224.61,672.72Z"/><path class="cls-40" d="M253.3,571.69a7.29,7.29,0,1,1,7.28-7.28A7.29,7.29,0,0,1,253.3,571.69Zm0-12.79a5.51,5.51,0,1,0,5.51,5.51A5.51,5.51,0,0,0,253.3,558.9Z"/><path class="cls-40" d="M253.3,575.43a11,11,0,1,1,11-11A11,11,0,0,1,253.3,575.43Zm0-20.28a9.26,9.26,0,1,0,9.25,9.26A9.26,9.26,0,0,0,253.3,555.15Z"/><rect class="cls-41" x="138.17" y="668.34" width="52.39" height="7.01"/><rect class="cls-42" x="170.2" y="668.34" width="20.35" height="7.01"/><rect class="cls-43" x="153.47" y="668.34" width="16.74" height="7.01" transform="translate(323.67 1343.7) rotate(180)"/><path class="cls-44" d="M192.35,677.15h-56v-10.6h56ZM140,673.56h48.79v-3.42H140Z"/><rect class="cls-41" x="143.64" y="662.86" width="41.43" height="5.48"/><rect class="cls-42" x="168.96" y="662.86" width="16.11" height="5.48"/><rect class="cls-43" x="157.8" y="662.86" width="11.16" height="5.48" transform="translate(326.76 1331.2) rotate(180)"/><path class="cls-44" d="M186.87,670.14h-45v-9.08h45Zm-41.43-3.59h37.84v-1.9H145.44Z"/><polygon class="cls-41" points="177.78 662.86 150.93 662.86 136.57 583.08 192.15 583.08 177.78 662.86"/><polygon class="cls-42" points="192.15 583.08 177.78 662.86 171.16 662.86 185.53 583.08 192.15 583.08"/><polygon class="cls-43" points="185.53 583.08 171.16 662.86 163.64 662.86 178 583.08 185.53 583.08"/><path class="cls-44" d="M179.29,664.65H149.43l-15-83.37H194.3Zm-26.86-3.59h23.85L190,584.87H138.71Z"/><rect class="cls-41" x="133.16" y="578.53" width="62.4" height="4.54"/><rect class="cls-42" x="182.84" y="578.53" width="12.72" height="4.54"/><rect class="cls-43" x="165.32" y="578.53" width="17.52" height="4.54"/><path class="cls-44" d="M197.35,584.87h-66v-8.13h66ZM135,581.28h58.81v-.95H135Z"/><rect class="cls-44" x="133.16" y="573.99" width="15.48" height="4.54"/><path class="cls-44" d="M150.43,580.33H131.36v-8.14h19.07ZM135,576.74h11.89v-1H135Z"/><circle class="cls-41" cx="142.44" cy="541.51" r="32.47"/><path class="cls-42" d="M175,541.51A32.48,32.48,0,0,1,142.48,574a31,31,0,0,1-3.62-.21,32.47,32.47,0,0,0,0-64.54,33.35,33.35,0,0,1,3.62-.2A32.48,32.48,0,0,1,175,541.51Z"/><path class="cls-43" d="M167.71,541.51a32.47,32.47,0,0,1-28.85,32.27,31.6,31.6,0,0,1-3.91-.67,32.48,32.48,0,0,0,0-63.19,31.62,31.62,0,0,1,3.91-.68A32.47,32.47,0,0,1,167.71,541.51Z"/><path class="cls-44" d="M142.44,575.78a34.27,34.27,0,1,1,34.27-34.27A34.3,34.3,0,0,1,142.44,575.78Zm0-64.95a30.68,30.68,0,1,0,30.67,30.68A30.72,30.72,0,0,0,142.44,510.83Z"/><polygon class="cls-44" points="162.74 663.64 140.96 618.23 150.73 582.6 154.19 583.55 144.77 617.88 165.98 662.08 162.74 663.64"/><polygon class="cls-44" points="150.24 650.91 147.03 649.3 162.45 618.42 153.66 583.51 157.14 582.64 166.26 618.83 150.24 650.91"/><polygon class="cls-44" points="165.98 663.64 162.74 662.08 183.94 617.88 174.53 583.55 177.99 582.6 187.76 618.23 165.98 663.64"/><polygon class="cls-44" points="178.47 650.91 162.45 618.83 171.57 582.64 175.06 583.51 166.26 618.42 181.69 649.3 178.47 650.91"/><rect class="cls-44" x="140.93" y="508.88" width="3.59" height="64.96" transform="translate(-231.28 124.76) rotate(-27.15)"/><rect class="cls-44" x="109.78" y="539.37" width="64.95" height="3.59" transform="translate(-231.24 124.52) rotate(-27.15)"/><path class="cls-44" d="M130.15,572.27l-2.58-2.5a19.79,19.79,0,0,0-14.21-33.58,20.83,20.83,0,0,0-2.38.14l-.43-3.57a23.82,23.82,0,0,1,2.81-.16,23.39,23.39,0,0,1,16.79,39.67Z"/><path class="cls-44" d="M171.19,549.72A23.39,23.39,0,0,1,154,510.48l2.64,2.43a19.79,19.79,0,0,0,14.55,33.21,19.3,19.3,0,0,0,3.41-.29l.62,3.54A23.58,23.58,0,0,1,171.19,549.72Z"/><path class="cls-45" d="M317.36,155.53h716.27V554.61H317.36Z"/><path class="cls-32" d="M323.87,545.27l-6.51,9.35V155.53l6.51,9.36Z"/><path class="cls-32" d="M1027.12,164.89l6.51-9.36V554.62l-6.51-9.35Z"/><rect class="cls-46" x="356.23" y="177.59" width="643.5" height="358.43" rx="13.51"/><g class="cls-47"><rect class="cls-48" x="385.94" y="177.59" width="584.18" height="358.43" rx="1.91" transform="translate(1356.06 713.61) rotate(-180)"/><path class="cls-49" d="M385.94,177.59H970.12a0,0,0,0,1,0,0v12.86a1.86,1.86,0,0,1-1.86,1.86H387.8a1.86,1.86,0,0,1-1.86-1.86V177.59a0,0,0,0,1,0,0Z" transform="translate(1356.06 369.9) rotate(-180)"/><path class="cls-49" d="M957,192.31h13.08a0,0,0,0,1,0,0V536a0,0,0,0,1,0,0h-15a0,0,0,0,1,0,0V194.2a1.88,1.88,0,0,1,1.88-1.88Z" transform="translate(1925.28 728.33) rotate(-180)"/><circle class="cls-50" cx="962.97" cy="184.62" r="2.25"/><circle class="cls-51" cx="955.4" cy="184.62" r="2.25"/><circle class="cls-52" cx="947.84" cy="184.62" r="2.25"/><path class="cls-53" d="M934.82,185.1v2.26h-1.55v-1.93h-.57a.23.23,0,0,1-.16-.39l2.9-2.9a.26.26,0,0,1,.35,0l2.9,2.9a.23.23,0,0,1-.16.39H938v1.93h-1.54V185.1Z"/><rect class="cls-54" x="909.48" y="184.94" width="15.14" height="1.52" transform="translate(1834.1 371.39) rotate(-180)"/><rect class="cls-55" x="879.56" y="184.94" width="21.7" height="1.52" transform="translate(1780.82 371.39) rotate(-180)"/><rect class="cls-54" x="858.44" y="184.94" width="12.9" height="1.52" transform="translate(1729.78 371.39) rotate(-180)"/><rect class="cls-55" x="661.55" y="184.5" width="28.82" height="1.52" transform="translate(1351.91 370.52) rotate(-180)"/><path class="cls-37" d="M696.88,186.55h2.85a.71.71,0,0,0,.72-.71v0a.71.71,0,0,0-.72-.71h0a1.49,1.49,0,0,0-1.48-1.49H698a1.16,1.16,0,0,0-1.16-1.16h-.35a1.16,1.16,0,0,0-1.16,1.16v.14h-.36a.74.74,0,0,0-.75.75h0a.76.76,0,0,0-.77.77v.38a.9.9,0,0,0,.9.9Z"/><polyline class="cls-56" points="656.26 183.87 657.65 185.25 659.04 183.87"/><rect class="cls-54" x="406.66" y="184.5" width="9.46" height="1.52" transform="translate(822.77 370.52) rotate(-180)"/><polyline class="cls-56" points="394.53 183.87 395.92 185.25 397.31 183.87"/><circle class="cls-53" cx="450.38" cy="184.62" r="2.79"/><rect class="cls-57" x="436.23" y="181.83" width="3.39" height="5.58" transform="translate(875.85 369.24) rotate(-180)"/><polygon class="cls-57" points="422.2 184.73 426.86 187.05 426.86 182.4 422.2 184.73"/><rect class="cls-54" x="393.73" y="188.38" width="22.71" height="0.32" transform="translate(810.16 377.07) rotate(-180)"/><rect class="cls-58" x="385.94" y="191.39" width="584.18" height="0.92" transform="translate(1356.06 383.71) rotate(-180)"/><rect class="cls-55" x="878.36" y="190.65" width="24.31" height="0.74" transform="translate(1781.03 382.05) rotate(-180)"/><polygon class="cls-59" points="962.66 201.56 964.19 203.41 964.19 197.85 960.43 201.5 962.66 201.56"/><circle class="cls-60" cx="962.31" cy="213.99" r="2.14"/><line class="cls-60" x1="960.79" y1="215.49" x2="959.41" y2="216.87"/><polygon class="cls-61" points="964.28 502.01 965.09 502.01 965.09 497.78 960.86 497.78 960.86 498.59 964.28 498.59 964.28 502.01"/><rect class="cls-61" x="960.08" y="498.59" width="4.2" height="4.2" transform="translate(1924.36 1001.38) rotate(-180)"/><polygon class="cls-59" points="960.86 498.59 962.18 498.59 962.18 501.27 961.52 500.58 960.86 501.27 960.86 498.59"/><polygon class="cls-53" points="962.55 514.98 965.29 512.99 962.55 511.38 959.8 512.99 962.55 514.98"/><polygon class="cls-53" points="959.8 514.79 962.55 516.77 965.29 514.79 964.32 514.22 962.55 515.5 960.77 514.22 959.8 514.79"/><rect class="cls-53" x="960.01" y="526.54" width="5.28" height="3.39" rx="0.33" transform="translate(1925.3 1056.46) rotate(-180)"/><rect class="cls-53" x="963.16" y="525.3" width="1.38" height="2.54" rx="0.32" transform="translate(1927.69 1053.14) rotate(-180)"/><rect class="cls-53" x="960.77" y="525.3" width="1.38" height="2.54" rx="0.32" transform="translate(1922.91 1053.14) rotate(-180)"/><rect class="cls-58" x="784.13" y="361.51" width="341.14" height="0.92" transform="translate(1316.66 -592.73) rotate(90)"/><rect class="cls-62" x="801.68" y="245.62" width="130.8" height="233.62" transform="translate(1734.15 724.85) rotate(-180)"/><rect class="cls-63" x="892.85" y="238.21" width="38.53" height="3.7" transform="translate(1824.23 480.13) rotate(-180)"/><rect class="cls-64" x="825.12" y="263.85" width="81.16" height="13.16" transform="translate(1731.41 540.86) rotate(-180)"/><rect class="cls-64" x="840.19" y="282.77" width="51.02" height="13.16" transform="translate(1731.41 578.7) rotate(-180)"/><rect class="cls-65" x="827.8" y="384.64" width="78.49" height="12.96" rx="6.48" transform="translate(1734.09 782.23) rotate(-180)"/><rect class="cls-63" x="889.24" y="389.93" width="11.67" height="2.57" transform="translate(1790.14 782.44) rotate(-180)"/><rect class="cls-65" x="827.8" y="401.04" width="78.49" height="12.96" rx="6.48" transform="translate(1734.09 815.03) rotate(180)"/><rect class="cls-63" x="889.24" y="406.33" width="11.67" height="2.57" transform="translate(1790.14 815.24) rotate(-180)"/><rect class="cls-63" x="855.72" y="460.73" width="22.72" height="5.66" transform="translate(1734.15 927.11) rotate(-180)"/><rect class="cls-66" x="814.91" y="260.83" width="101.59" height="61.08" transform="translate(1731.41 582.75) rotate(-180)"/><rect class="cls-67" x="815.25" y="260.83" width="101.59" height="61.08" transform="translate(1732.1 582.75) rotate(-180)"/><rect class="cls-66" x="827.08" y="384.64" width="80.26" height="12.96" transform="translate(1734.41 782.23) rotate(-180)"/><rect class="cls-67" x="827.28" y="384.64" width="80.26" height="12.96" transform="translate(1734.81 782.23) rotate(-180)"/><rect class="cls-66" x="840.24" y="386.69" width="61.54" height="10.9" transform="translate(1742.02 784.29) rotate(-180)"/><rect class="cls-67" x="840.39" y="386.69" width="61.54" height="10.9" transform="translate(1742.33 784.29) rotate(-180)"/><rect class="cls-66" x="827.08" y="401.04" width="80.26" height="12.96" transform="translate(1734.41 815.03) rotate(-180)"/><rect class="cls-67" x="827.28" y="401.04" width="80.26" height="12.96" transform="translate(1734.81 815.03) rotate(-180)"/><rect class="cls-66" x="840.24" y="403.1" width="61.54" height="10.9" transform="translate(1742.02 817.09) rotate(-180)"/><rect class="cls-67" x="840.39" y="403.1" width="61.54" height="10.9" transform="translate(1742.33 817.09) rotate(-180)"/><circle class="cls-64" cx="863.79" cy="339.81" r="28.79"/><rect class="cls-66" x="833.75" y="309.99" width="59.87" height="60.05" transform="translate(1727.37 680.02) rotate(-180)"/><rect class="cls-67" x="833.95" y="309.99" width="59.87" height="60.05" transform="translate(1727.77 680.02) rotate(-180)"/><path class="cls-68" d="M825.23,430.6s-21.08,6.58-22.32-23,.83-45.19-26.32-45.19"/><path class="cls-69" d="M821.42,427.42h3.75a3.46,3.46,0,0,1,3.46,3.46v0a3.46,3.46,0,0,1-3.46,3.46h-3.75a0,0,0,0,1,0,0v-6.92a0,0,0,0,1,0,0Z" transform="translate(1650.05 861.76) rotate(-180)"/><path class="cls-69" d="M584.29,406.2H588a3.46,3.46,0,0,1,3.46,3.46v0a3.46,3.46,0,0,1-3.46,3.46h-3.75a0,0,0,0,1,0,0V406.2a0,0,0,0,1,0,0Z" transform="translate(1175.79 819.33) rotate(180)"/><path class="cls-69" d="M440.33,363.72h3.75a3.46,3.46,0,0,1,3.46,3.46v0a3.46,3.46,0,0,1-3.46,3.46h-3.75a0,0,0,0,1,0,0v-6.92A0,0,0,0,1,440.33,363.72Z" transform="translate(887.88 734.35) rotate(-180)"/><path class="cls-69" d="M776.59,359h2.57a3.46,3.46,0,0,1,3.46,3.46v0a3.46,3.46,0,0,1-3.46,3.46h-2.57a0,0,0,0,1,0,0V359A0,0,0,0,1,776.59,359Z"/><rect class="cls-70" x="827.8" y="424.12" width="78.49" height="12.96" rx="6.48" transform="translate(1734.09 861.2) rotate(-180)"/><rect class="cls-63" x="861.24" y="429.32" width="11.67" height="2.57" transform="translate(1734.15 861.2) rotate(-180)"/><polyline class="cls-71" points="780.12 360.22 777.91 362.43 780.12 364.64"/><path class="cls-69" d="M639.76,359h2.57a3.46,3.46,0,0,1,3.46,3.46v0a3.46,3.46,0,0,1-3.46,3.46h-2.57a0,0,0,0,1,0,0V359A0,0,0,0,1,639.76,359Z" transform="translate(1285.55 724.85) rotate(180)"/><polyline class="cls-71" points="642.26 364.64 644.47 362.43 642.26 360.22"/><path class="cls-69" d="M562.09,358.39h2.57a3.46,3.46,0,0,1,3.46,3.46v0a3.46,3.46,0,0,1-3.46,3.46h-2.57a0,0,0,0,1,0,0v-6.92A0,0,0,0,1,562.09,358.39Z"/><polyline class="cls-71" points="565.63 359.63 563.41 361.84 565.63 364.06"/><rect class="cls-62" x="645.79" y="245.62" width="130.8" height="233.62" transform="translate(1422.38 724.85) rotate(-180)"/><rect class="cls-64" x="645.79" y="245.62" width="130.8" height="9.57" transform="translate(1422.38 500.8) rotate(-180)"/><rect class="cls-63" x="736.97" y="238.21" width="38.53" height="3.7" transform="translate(1512.46 480.13) rotate(-180)"/><rect class="cls-64" x="656.42" y="267.41" width="109.07" height="80.07"/><rect class="cls-66" x="656.42" y="267.41" width="108.72" height="80.07" transform="translate(1421.56 614.9) rotate(-180)"/><rect class="cls-67" x="656.76" y="267.41" width="108.72" height="80.07" transform="translate(1422.25 614.9) rotate(-180)"/><rect class="cls-62" x="769.01" y="249.16" width="3.65" height="0.5" transform="translate(1541.66 498.82) rotate(-180)"/><rect class="cls-62" x="769.01" y="250.51" width="3.65" height="0.5" transform="translate(1541.66 501.52) rotate(-180)"/><rect class="cls-62" x="769.01" y="251.86" width="3.65" height="0.5" transform="translate(1541.66 504.22) rotate(-180)"/><rect class="cls-66" x="768.16" y="248.34" width="5.35" height="4.84" transform="translate(1541.66 501.52) rotate(-180)"/><rect class="cls-67" x="768.16" y="248.34" width="5.35" height="4.84" transform="translate(1541.66 501.52) rotate(-180)"/><rect class="cls-66" x="673.15" y="248.34" width="75.99" height="4.84" transform="translate(1422.28 501.52) rotate(-180)"/><rect class="cls-67" x="673.15" y="248.34" width="75.99" height="4.84" transform="translate(1422.28 501.52) rotate(-180)"/><rect class="cls-62" x="689.49" y="249.81" width="43.6" height="2.55" transform="translate(1422.59 502.17) rotate(-180)"/><rect class="cls-62" x="650.77" y="248.98" width="3.55" height="3.55" transform="translate(1305.1 501.52) rotate(-180)"/><rect class="cls-66" x="649.88" y="248.34" width="5.35" height="4.84" transform="translate(1305.1 501.52) rotate(-180)"/><rect class="cls-67" x="649.88" y="248.34" width="5.35" height="4.84" transform="translate(1305.1 501.52) rotate(-180)"/><rect class="cls-62" x="431.3" y="245.62" width="130.8" height="233.62" transform="translate(993.39 724.85) rotate(-180)"/><rect class="cls-64" x="431.3" y="245.62" width="130.8" height="9.57" transform="translate(993.39 500.8) rotate(-180)"/><rect class="cls-63" x="522.47" y="238.21" width="38.53" height="3.7" transform="translate(1083.46 480.13) rotate(-180)"/><rect class="cls-62" x="554.51" y="249.16" width="3.65" height="0.5" transform="translate(1112.67 498.82) rotate(-180)"/><rect class="cls-62" x="554.51" y="250.51" width="3.65" height="0.5" transform="translate(1112.67 501.52) rotate(-180)"/><rect class="cls-62" x="554.51" y="251.86" width="3.65" height="0.5" transform="translate(1112.67 504.22) rotate(-180)"/><rect class="cls-66" x="553.66" y="248.34" width="5.35" height="4.84" transform="translate(1112.67 501.52) rotate(-180)"/><rect class="cls-67" x="553.66" y="248.34" width="5.35" height="4.84" transform="translate(1112.67 501.52) rotate(-180)"/><rect class="cls-66" x="458.65" y="248.34" width="75.99" height="4.84" transform="translate(993.29 501.52) rotate(-180)"/><rect class="cls-67" x="458.65" y="248.34" width="75.99" height="4.84" transform="translate(993.29 501.52) rotate(-180)"/><rect class="cls-62" x="475" y="249.81" width="43.6" height="2.55" transform="translate(993.59 502.17) rotate(-180)"/><rect class="cls-62" x="436.28" y="248.98" width="3.55" height="3.55" transform="translate(876.11 501.52) rotate(-180)"/><rect class="cls-66" x="435.38" y="248.34" width="5.35" height="4.84" transform="translate(876.11 501.52) rotate(-180)"/><rect class="cls-67" x="435.38" y="248.34" width="5.35" height="4.84" transform="translate(876.11 501.52) rotate(-180)"/><circle class="cls-64" cx="748.07" cy="397.59" r="14.98"/><rect class="cls-64" x="733.09" y="429.32" width="32.08" height="2.57" transform="translate(1498.27 861.2) rotate(-180)"/><rect class="cls-64" x="714.64" y="363.35" width="50.54" height="2.57" transform="translate(1479.82 729.28) rotate(-180)"/><rect class="cls-63" x="676.53" y="459.17" width="68.51" height="5.67" transform="translate(1421.56 924.01) rotate(-180)"/><circle class="cls-64" cx="701.46" cy="397.59" r="14.98"/><rect class="cls-64" x="686.48" y="429.32" width="32.08" height="2.57" transform="translate(1405.04 861.2) rotate(-180)"/><circle class="cls-64" cx="654.84" cy="397.59" r="14.98"/><rect class="cls-64" x="639.86" y="429.32" width="32.08" height="2.57" transform="translate(1311.81 861.2) rotate(-180)"/><circle class="cls-64" cx="608.23" cy="397.59" r="14.98"/><rect class="cls-64" x="593.25" y="429.32" width="32.08" height="2.57" transform="translate(1218.58 861.2) rotate(-180)"/><rect class="cls-66" x="656.42" y="359.03" width="109.07" height="16.28" transform="translate(1421.9 734.35) rotate(-180)"/><rect class="cls-67" x="656.42" y="359.03" width="109.07" height="16.28" transform="translate(1421.9 734.35) rotate(-180)"/><rect class="cls-66" x="591.5" y="380.26" width="173.98" height="58.81" transform="translate(1356.98 819.33) rotate(-180)"/><rect class="cls-67" x="591.5" y="380.26" width="173.98" height="58.81" transform="translate(1356.98 819.33) rotate(-180)"/><circle class="cls-64" cx="528.78" cy="367.17" r="14.98"/><path class="cls-68" d="M587.9,409.66s-11.41,3.56-11.41-17.41-1.3-30.41-8.37-30.41"/><path class="cls-69" d="M534.64,247.3h3.75a3.46,3.46,0,0,1,3.46,3.46v0a3.46,3.46,0,0,1-3.46,3.46h-3.75a0,0,0,0,1,0,0V247.3A0,0,0,0,1,534.64,247.3Z"/><rect class="cls-64" x="466.74" y="271.83" width="58.41" height="9.6" transform="translate(991.88 553.26) rotate(-180)"/><rect class="cls-64" x="459.61" y="365.89" width="47.99" height="5.73" transform="translate(967.2 737.5) rotate(-180)"/><circle class="cls-64" cx="528.78" cy="406.2" r="14.98"/><rect class="cls-64" x="459.61" y="404.92" width="47.99" height="5.73" transform="translate(967.2 815.56) rotate(-180)"/><circle class="cls-64" cx="528.78" cy="445.24" r="14.98"/><rect class="cls-64" x="459.61" y="443.95" width="47.99" height="5.73" transform="translate(967.2 893.62) rotate(-180)"/><circle class="cls-64" cx="528.78" cy="484.27" r="14.98"/><rect class="cls-64" x="459.61" y="482.98" width="47.99" height="5.73" transform="translate(967.2 971.68) rotate(-180)"/><rect class="cls-66" x="447.54" y="348.97" width="97.34" height="154.27" transform="translate(992.43 852.21) rotate(-180)"/><rect class="cls-67" x="447.54" y="348.97" width="97.34" height="154.27" transform="translate(992.43 852.21) rotate(-180)"/><path class="cls-68" d="M440.33,367.17s-18-3-21.58,22.13-14.26,25-32.9,23.82"/><rect class="cls-64" x="479.21" y="289.96" width="33.45" height="33.27"/><rect class="cls-66" x="479.21" y="289.96" width="33.35" height="33.27" transform="translate(991.77 613.19) rotate(-180)"/><rect class="cls-67" x="479.32" y="289.96" width="33.35" height="33.27" transform="translate(991.98 613.19) rotate(-180)"/><path class="cls-68" d="M538.24,250.76c30.45,0,43.94,23.51,56.83,67.66s44.69,44,44.69,44-57,5.07-98-24c-38.2-27.08-60.8-81-155.79-86.92"/></g><polygon class="cls-32" points="317.36 155.53 1033.63 155.53 1027.12 164.89 323.87 164.89 317.36 155.53"/><polygon class="cls-32" points="317.36 554.62 1033.63 554.62 1027.12 545.27 323.87 545.27 317.36 554.62"/></svg>