<?xml version="1.0" encoding="utf-8"?>
<!-- Generator: Adobe Illustrator 20.1.0, SVG Export Plug-In . SVG Version: 6.00 Build 0)  -->
<svg version="1.1" id="Layer_1" xmlns="http://www.w3.org/2000/svg" xmlns:xlink="http://www.w3.org/1999/xlink" x="0px" y="0px"
	 viewBox="0 0 504 504" style="enable-background:new 0 0 504 504;" xml:space="preserve">
<style type="text/css">
	.st0{fill:#CD0A2C;}
	.st1{fill:#FFFFFF;}
</style>
<g>
	<path class="st0" d="M390.6,468H116.1c-43.4,0-78.5-35.2-78.5-78.5V126.9c0-43.4,35.2-78.5,78.5-78.5h274.5
		c43.4,0,78.5,35.2,78.5,78.5v262.5C469.2,432.8,434,468,390.6,468z"/>
</g>
<g>
	<path class="st1" d="M477.4,197.6v31.3c-61.3,3.6-124.7,9.8-168.1,20.2c-10.7,2.7-20.5,5.7-28.9,8.6c-4.5,1.8-8.9,3.3-13.1,4.8
		c-98.5,36-103.6,33.3-103,20.2c0.6-14,25.6-32.4,76.5-47.6c6.3-1.8,14.3-4.2,24.4-6.5c11.3-2.7,25-5.7,41.1-8.3
		C347.3,212.2,407.4,203.9,477.4,197.6z"/>
	<path class="st1" d="M265.9,236.2l10.8,206.1c0.3,4.9,0.2,9.8,0.1,14.7c-0.2,6.7,1.7,18.5,17.9,17.1c22.4-2,30.3-14,27.8-33.4
		S310,236,305.7,216.9S290.3,90.6,280.8,69.6S249,29.8,226.4,52.7s-59.3,102.7-71,134.1c-11.7,31.4-38.8,133.5-42,152.6
		s-10.8,0.5-11.4-8.2s-2.1-23.7-14.4-21.1s-30.2,10.5-21.4,37.5c8.7,27,12.8,79.3,29.5,83.2c16.7,3.9,28.4-1.2,32.9-41.7
		C133,349.4,183.7,154.2,236,94.8c1.5-1.7,4.2-1.1,4.9,1.1C245.7,112,260.9,167.6,265.9,236.2z"/>
</g>
</svg>
