<?xml version="1.0" encoding="utf-8"?>
<!-- Generator: Adobe Illustrator 20.0.0, SVG Export Plug-In . SVG Version: 6.00 Build 0)  -->
<svg version="1.1" id="Layer_1" xmlns="http://www.w3.org/2000/svg" xmlns:xlink="http://www.w3.org/1999/xlink" x="0px" y="0px"
	 width="504px" height="504px" viewBox="0 0 504 504" style="enable-background:new 0 0 504 504;" xml:space="preserve">
<style type="text/css">
	.st0{fill:#CD0A2C;}
	.st1{fill:#FFFFFF;}
</style>
<g>
	<path class="st0" d="M390.6,468H116.1c-43.4,0-78.5-35.2-78.5-78.5V126.9c0-43.4,35.2-78.5,78.5-78.5h274.5
		c43.4,0,78.5,35.2,78.5,78.5v262.5C469.2,432.8,434,468,390.6,468z"/>
	<g>
		<g>
			<path class="st1" d="M207.6,335.9L206,340h-6.5l9.1-23.6h6.7l8.9,23.6h-6.5l-1.5-4.1H207.6z M211.8,323.7L211.8,323.7l-2.6,7.5
				h5.1L211.8,323.7z"/>
			<path class="st1" d="M231.5,314.1V326h0.1c1.3-1.7,2.9-2.6,5.1-2.6c4.1,0,6,2.7,6,6.7v9.8H237v-8.2c0-1.9-0.3-3.8-2.6-3.8
				c-2.2,0-3,1.9-3,3.8v8.2h-5.7V314h5.8V314.1z"/>
			<path class="st1" d="M252.2,326L252.2,326c1.4-1.8,3.1-2.5,5.1-2.5c2.3,0,4.3,0.9,5.5,3.1c1.1-2,3.2-3.1,5.4-3.1
				c4.1,0,5.5,2.7,5.5,6.3V340H268v-7.7c0-1.7,0.1-4.4-2.3-4.4c-2.6,0-2.7,2.5-2.7,4.4v7.7h-5.7v-7.7c0-1.8,0-4.5-2.5-4.5
				c-2.5,0-2.5,2.7-2.5,4.5v7.7h-5.7v-16h5.7L252.2,326L252.2,326z"/>
			<path class="st1" d="M293.8,333h-12c0,2.3,1.2,3.6,3.6,3.6c1.2,0,2.1-0.4,2.7-1.5h5.5c-0.4,1.9-1.6,3.2-3,4.2
				c-1.5,0.9-3.3,1.3-5.1,1.3c-5.3,0-9.3-3-9.3-8.5c0-5.3,3.7-8.6,8.9-8.6c5.6,0,8.8,3.4,8.8,8.9v0.6H293.8z M288.5,329.7
				c-0.3-1.5-1.7-2.5-3.2-2.5c-1.7,0-3,0.9-3.4,2.5H288.5z"/>
			<path class="st1" d="M308.5,338.2L308.5,338.2c-1.1,1.6-3,2.3-4.9,2.3c-4.7,0-8.1-4-8.1-8.6s3.3-8.5,8-8.5c1.8,0,3.8,0.7,5,2.1
				V314h5.7v26h-5.7V338.2z M301.4,332c0,2,1.3,3.6,3.7,3.6c2.3,0,3.7-1.6,3.7-3.6s-1.3-3.6-3.7-3.6
				C302.7,328.4,301.4,330,301.4,332z"/>
			<path class="st1" d="M334.7,321.6v3.9h6.9v5.2h-6.9v4.1h7.3v5.2h-13.4v-23.6H342v5.2L334.7,321.6L334.7,321.6z"/>
			<path class="st1" d="M351.3,340h-5.7v-25.9h5.7V340z"/>
			<path class="st1" d="M363.8,327.6v4.7h-8.9v-4.7H363.8z"/>
			<path class="st1" d="M385.9,334.8v5.2h-20.2l11.2-18.4h-9.2v-5.2h19.5l-11.1,18.4H385.9z"/>
			<path class="st1" d="M405.8,333h-12c0,2.3,1.2,3.6,3.6,3.6c1.2,0,2.1-0.4,2.7-1.5h5.5c-0.4,1.9-1.6,3.2-3,4.2
				c-1.5,0.9-3.3,1.3-5.1,1.3c-5.3,0-9.3-3-9.3-8.5c0-5.3,3.7-8.6,8.9-8.6c5.6,0,8.8,3.4,8.8,8.9v0.6H405.8z M400.5,329.7
				c-0.3-1.5-1.7-2.5-3.2-2.5c-1.7,0-3,0.9-3.4,2.5H400.5z"/>
			<path class="st1" d="M414.4,317.8c0,1.7-1.4,3.2-3.2,3.2c-1.7,0-3.2-1.4-3.2-3.2c0-1.7,1.4-3.2,3.2-3.2
				C413,314.6,414.4,316.1,414.4,317.8z M414.1,340h-5.7v-16h5.7V340z"/>
			<path class="st1" d="M423.5,326L423.5,326c1.4-1.9,3-2.6,5.2-2.6c4.3,0,6,2.7,6,6.7v9.9H429v-7.8c0-1.5,0.3-4.2-2.6-4.2
				c-2.3,0-3,1.7-3,3.7v8.3h-5.7v-16h5.7v2H423.5z"/>
		</g>
		<g>
			<path class="st1" d="M433.6,259.3c-6,0-20.6,11.8-32.2,23.4c2.5-4.7,7.7-13,9.7-17.3c0.6-1.3,0.6-1.6,0.6-1.9c0-2.7-4.9-5-9.4-5
				c-2.7,0-5.3,0.8-6.6,3c-1.8,2.9-3.4,5.8-5,8.6c-7.2,5.4-19.2,14-30.9,18c2-7.9,9-20.4,9-24.4c0-3.1-5.3-4.4-8.3-4.4
				c-2.7,0-4.7,1.1-6,3c-1.4,2.1-2.9,5.1-4.3,8.1c-7.1,5.4-18.4,13.7-29.5,18c-3,1.1-6.4,2-9.7,2s-6.3-0.8-7.7-3.1
				c11.5-2.5,25.3-9,25.3-18.9c0-6.1-4.7-9.6-12.9-9.6c-11.2,0-25.3,9.1-28.7,20.4c-0.6,0.2-1.3,0.5-1.9,0.9
				c-3.1,1.6-7.1,3.1-11.8,4.6c-4.7,1.5-9.8,2.8-15.4,3.9c-5.6,1.1-11.4,1.9-17.5,2.4s-12,0.6-17.7,0.3c-4.2-0.4-6.6-1.4-7.3-3
				c-0.4-1.1-0.1-2.4,1-3.9c1.1-1.4,2.5-3,4.2-4.7c4.8-5,16.2-17.9,22.9-24c6.7-6.1,13.6-12.2,20.6-18.5s13.9-12.4,20.6-18.3
				c6.7-5.9,12.6-11.2,17.6-16c3.9-3.7,6.5-7.6,8-11.6s1.6-7.6,0.3-10.9c-1.1-2.9-3.3-5.1-6.4-6.9c-3.1-1.7-7.4-2.4-12.9-2.1
				c-14.1,0.3-27.4,1.1-39.6,2.6c-12.3,1.4-24.1,3.5-35.4,6.2c-4,1.1-7,2.6-9,4.5c-2,2-3.1,4-3.2,5.9c-0.1,1.9,0.3,3.7,1.3,5.3
				c0.9,1.6,2.1,2.7,3.8,3.3c1.6,0.6,3.3,0.5,5-0.5s3.6-1.9,5.8-2.6c10.6-2.4,20.8-4.3,30.8-5.6c9.9-1.3,20.7-2.2,32.5-2.8
				c2.9,0,4.6,0.6,5.4,1.9c0.6,0.9,0.6,1.9,0,3s-1.4,2.3-2.6,3.4c-5.7,5-11.8,10.4-18.2,16.1s-12.9,11.6-19.5,17.6
				s-13.1,12.1-19.7,18.2c-6.6,6.1-18.3,19.5-24.2,25.4c-4.1,4.1-7,8.1-8.7,12c-1.6,3.9-2,7.3-1,10.3c2,6.3,8.9,10.1,20.8,11.4
				c6.3,0.7,13,0.9,20,0.4c7.1-0.4,14-1.2,20.9-2.5c6.9-1.2,13.4-2.7,19.5-4.5c5.3-1.5,10-3.2,14.2-5c3.2,3.4,8.4,4.9,14.9,4.9
				c12.2,0,24.5-6.3,38.9-15.9c-1.3,3.3-2.3,6.6-2.3,9c0,4.7,2.2,6.9,6.1,6.9c8.2,0,21-6.2,35.8-15.8c-2.1,4.9-3.3,8.7-3.3,10.9
				c0,2.7,5.5,5.5,8.2,5.5c4.4,0,19.5-16.7,31.3-24.5c-1.6,4.2-5.8,12.1-5.8,19.2c0,4.7,2.2,6.1,4.4,6.1c5.2,0,11.6-3.6,12.4-6
				c0.9-3.1-0.9-5,4.1-15.2c3.6-7.2,5.2-10.7,5.2-14.9C440,262.5,436.5,259.3,433.6,259.3z M313.3,266.7c1.7,0,2.7,1.3,2.7,2.8
				c0,3.3-3.8,8.2-13.2,10.1C303.9,271.8,308.5,266.7,313.3,266.7z"/>
		</g>
		<path class="st1" d="M352.1,222.2c0,0,13.9,1.1,16.9,8.8c2.9,7.7-2.2,13.6-14.8,9.7s-150.2-6.3-197.7,11.1
			c-47.5,17.5-49.8,16.5-49.5,10.6s11-13.8,32.6-20.3S236.5,220.4,352.1,222.2z"/>
		<path class="st1" d="M150.3,242.6l4.6,88c0.1,2.1,0.1,4.2,0,6.3c-0.1,2.9,0.7,7.9,7.6,7.3c9.6-0.9,12.9-6,11.9-14.3
			s-5.3-87.5-7.2-95.6c-1.8-8.1-6.6-54-10.6-62.9c-4.1-9-13.6-17-23.2-7.2s-25.3,43.9-30.3,57.3s-16.6,57-18,65.2s-4.6,0.2-4.9-3.5
			s-0.9-10.1-6.2-9c-5.3,1.1-12.9,4.5-9.2,16c3.7,11.5,5.5,33.9,12.6,35.6s12.1-0.5,14.1-17.8c1.9-17,23.6-100.3,45.9-125.7
			c0.6-0.7,1.8-0.5,2.1,0.5C141.7,189.5,148.2,213.3,150.3,242.6z"/>
	</g>
</g>
</svg>
