<?xml version="1.0" encoding="utf-8"?>
<!-- Generator: Adobe Illustrator 20.0.0, SVG Export Plug-In . SVG Version: 6.00 Build 0)  -->
<svg version="1.1" id="Layer_1" xmlns="http://www.w3.org/2000/svg" xmlns:xlink="http://www.w3.org/1999/xlink" x="0px" y="0px"
	 width="504px" height="504px" viewBox="0 0 504 504" style="enable-background:new 0 0 504 504;" xml:space="preserve">
<style type="text/css">
	.st0{fill:#CD0A2C;}
	.st1{fill:#FFFFFF;}
</style>
<g>
	<path class="st0" d="M390.6,468H116.1c-43.4,0-78.5-35.2-78.5-78.5V126.9c0-43.4,35.2-78.5,78.5-78.5h274.5
		c43.4,0,78.5,35.2,78.5,78.5v262.5C469.2,432.8,434,468,390.6,468z"/>
</g>
<path class="st1" d="M304.8,152.8h90.6v27h-90.6V152.8z M352.8,195.3c-85.1,0-85,85-85,85s-5.8,84.6,85,84.6c0,0,75.7,4.3,75.7-58.8
	h-39c0,0,1.3,23.7-35.5,23.7c0,0-39,2.6-39-38.5h114.6C429.8,291.4,442.3,195.3,352.8,195.3z M387.4,261.8h-72.6
	c0,0,4.7-34.1,39-34.1C387.8,227.8,387.4,261.8,387.4,261.8z M217.6,240.1c0,0,33.7-2.5,33.7-42.1c0-39.5-27.6-58.9-62.6-58.9H73.6
	v221.2h115.1c0,0,70.3,2.2,70.3-65.3C259.1,295,262.2,240.1,217.6,240.1L217.6,240.1z M124.4,178.4h64.3c0,0,15.6,0,15.6,23.1
	s-9.2,26.4-19.6,26.4h-60.4L124.4,178.4z M185.8,321h-61.3v-59.1h64.3c0,0,23.4-0.3,23.4,30.4C212.1,317.8,195,320.7,185.8,321
	L185.8,321z"/>
</svg>
