<?xml version="1.0" encoding="UTF-8"?>
<svg id="Layer_1" xmlns="http://www.w3.org/2000/svg" version="1.1" viewBox="0 0 514.7 218.9">
  <!-- Generator: Adobe Illustrator 29.0.1, SVG Export Plug-In . SVG Version: 2.1.0 Build 192)  -->
  <defs>
    <style>
      .st0 {
        fill: #ae96ea;
      }
    </style>
  </defs>
  <g id="hdNkha">
    <g>
      <path class="st0" d="M111.2,174.9c-11.9,26.8-38,46-68.2,43.8-51.9-3.8-61.7-84.5-2-95s18.3,1.5,29.7,2.7c11.3,1.2,12.8-5.4,15.2-14.8C34.1,119.6,11,48.5,36.1,11.9c18.5-27,65.5-3,46.6,25.7-4.4,6.7-10.7,11.3-13.3,19.4-5.4,16.8,14.8,29.8,25.7,14.5S112,23.2,136.9,7c15.9-10.3,43.1-11.2,48.4,10.8s-16.4,25.3-30.3,34.1c-28.5,18-31.4,54-33.5,84.6.9,4.5,14.6,8.5,19,10.1,76.1,27.5,161.7,26.6,241.1,16.2,20.2-2.6,45.1-5.7,64.3-11.6,13.2-4,32.2-15.3,45.2-14.3,17.4,1.3,28,20.6,21.6,36.4-8.9,21.7-59.6,33.1-80.6,36.9-81.2,14.7-165.9,9.2-245.3-12.6-25.4-7-50.1-16.9-75.7-22.7ZM64.9,157.8c-6.4-1-16.9-.2-21.6,4.8s-2.1,12.4,6.2,10.6c6.1-1.3,12.5-10.2,15.4-15.4ZM470,171.9c4.5,1.2,2.9,8.2,7.8,9.6,3.5-1.8.4-11.8,3-12.6,4.8-1.5,2.7,14.5,10.2,12.5,6.9-1.8,1.4-22.2-4.6-24.1s-11,2.5-12,8.6c-4.9-.3-4.3-6.1-10.5-4.1s-4.1,15.8-2.4,20.3,8.4,2.8,8.4,1.2v-11.5ZM444.5,165.3c-15.5,2.5-13.2,26.3,3.5,24.3,15.3-1.8,13.9-27.1-3.5-24.3ZM419.9,169.8c-9.3,1.5-13.2,13.5-7.9,20.9s22.9,5.4,21.9-5.5c-.7-8.2-9.2,0-11.2-2.9s-.6-2,.4-2.6c11.8-1.5,7.1-11.5-3.2-9.9ZM410.2,197.7c2.6-2.6-1-8.1-4.7-5.1s1.6,8.2,4.7,5.1Z"/>
      <path class="st0" d="M274,43.5c42.1-3.1,57,19.4,55.3,58.9-.3,7.9-2.8,17.5-2.3,25.3s5.5,14,1.1,21.1-17.7,8.8-25.5,6.2c-6.2-2-9.6-7.2-14.7-10.7-1.5-.1-6,4-8.3,5.1-14.9,7.6-37.5,3.9-45.1-12-7.8-16.4-2.6-33.7,11.8-44.2,12.6-9.2,21.4-3.3,34.1-4.6,14-1.5,8.2-21.9-6.3-16.7s-9.9,13-19.7,13.8c-16,1.3-27.7-13.1-17.2-26.8,8.5-11,23.5-14.4,36.7-15.4ZM283.1,110.2c-2.2.6-3.2,2.1-5.5,3-3.9,1.5-17.9,1-13.4,7.4s19.1-3.6,19-10.4Z"/>
      <path class="st0" d="M340.7,147.8c-2.6-2.6-3.9-9.4-3.9-12.9-.2-11.4,1.1-22.4,0-34.1-1.3-14-9-37.5-3.4-50.2,6.7-15.1,40.4-12.6,36.9,7.8l1.5.4c14-28.6,47-49.6,78.9-36.8,14.1,5.6,25.1,18.9,21.4,34.7-2.6,11.1-17,18.2-27.4,12.9-8.4-4.3-8.4-16.3-22-19.7-26.3-6.4-42.7,28.5-39.5,50.6,2.4,16.7,18.2,37.1-3.2,47.8-8.7,4.3-32,6.6-39.2-.6Z"/>
      <path class="st0" d="M181.1,113.2c4,6.3,12,6.6,18.8,5.7s24.3-11.4,26.4-.8-12.4,22.7-21.4,26.6c-55.8,23.8-99-42.1-53.6-84,30-27.6,85.8-18.2,80.3,28.2-2.7,23.4-31.6,27.5-50.5,24.2ZM188.3,76.2c-3,.5-11.8,6.4-11.7,9.1s1.4.7,2,.6c1.8-.3,3.9-1.3,5.9-1.6,3.5-.4,13,1.1,13-4.2s-6.2-4.4-9.2-3.9Z"/>
      <path class="st0" d="M417.7,52.4c13-.9,9.4,7.1,14.1,14.4,5,7.9,20.5,8.7,29.1,11.8,39.1,13.8,21.9,58-11.3,66.7-21.1,5.5-56.3-6-52.6-32.5,1.4-10.2,14.5-17.3,23.4-11.6s4.3,10.4,7.2,15.1c4.4,7.1,13.4,2.2,9.4-6.4-6.6-14-39.3-17.5-43.2-32.7-3.8-14.7,11.1-24.1,23.9-24.9Z"/>
      <path class="st0" d="M447.5,176.9c-1.9,1.9-6.4,1.3-6.3-2.3.2-7.1,11.5-2.9,6.3,2.3Z"/>
    </g>
  </g>
</svg>