<svg id="Layer_1" data-name="Layer 1" xmlns="http://www.w3.org/2000/svg" viewBox="0 0 300 300"><defs><style>.cls-1{fill:#fff;}</style></defs><title>icon</title><path d="M150,0A150,150,0,1,0,300,150,150,150,0,0,0,150,0ZM75,75H225a18.5,18.5,0,0,1,7.68,1.61L150,173,67.32,76.61A19.1,19.1,0,0,1,75,75ZM56.25,206.25V92.5l55,64.29L57,211.07A15.06,15.06,0,0,1,56.25,206.25ZM225,225H75a15.06,15.06,0,0,1-4.82-.71l53.39-53.21L150,202l26.43-30.89,53.39,53.21A15.05,15.05,0,0,1,225,225Zm18.75-18.75a15,15,0,0,1-.71,4.82l-54.29-54.29,55-64.29Z"/><path class="cls-1" d="M243.75,92.5V206.25a15,15,0,0,1-.71,4.82l-54.29-54.29Z"/><path class="cls-1" d="M229.82,224.29A15.05,15.05,0,0,1,225,225H75a15.06,15.06,0,0,1-4.82-.71l53.39-53.21L150,202l26.43-30.89Z"/><path class="cls-1" d="M111.25,156.79,57,211.07a15.06,15.06,0,0,1-.71-4.82V92.5Z"/><path class="cls-1" d="M232.68,76.61,150,173,67.32,76.61A19.1,19.1,0,0,1,75,75H225A18.5,18.5,0,0,1,232.68,76.61Z"/></svg>