<?xml version="1.0" encoding="utf-8"?>
<!-- Generator: Adobe Illustrator 24.2.3, SVG Export Plug-In . SVG Version: 6.00 Build 0)  -->
<svg version="1.1" id="Layer_1" xmlns="http://www.w3.org/2000/svg" xmlns:xlink="http://www.w3.org/1999/xlink" x="0px" y="0px"
	 viewBox="0 0 300 300" style="enable-background:new 0 0 300 300;" xml:space="preserve">
<style type="text/css">
	.st0{fill:#404041;}
	.st1{clip-path:url(#SVGID_2_);}
	.st2{fill:#F2F2F2;}
	.st3{fill:#FFFFFF;}
	.st4{fill:#CE0E2D;}
	.st5{fill:none;stroke:#CE0E2D;stroke-linecap:round;stroke-miterlimit:10;}
</style>
<g>
	<path class="st0" d="M277,50.6H22.7c-5.5,0-10,4.5-10,10V224c0,5.5,4.5,10,10,10H277c5.5,0,10-4.5,10-10V60.6
		C287,55,282.6,50.6,277,50.6z M277.1,223.4H22.7V60.6h254.4V223.4z"/>
	<path class="st0" d="M294.9,249.4H5.1c-2.8,0-5.1-2.3-5.1-5.1l0,0c0-2.8,2.3-5.1,5.1-5.1h289.8c2.8,0,5.1,2.3,5.1,5.1l0,0
		C300,247.2,297.7,249.4,294.9,249.4z"/>
</g>
<g>
	<g>
		<defs>
			<rect id="SVGID_1_" x="22.7" y="60.6" width="254.4" height="162.8"/>
		</defs>
		<clipPath id="SVGID_2_">
			<use xlink:href="#SVGID_1_"  style="overflow:visible;"/>
		</clipPath>
		<g class="st1">
			<g>
				<rect x="22.7" y="58.1" class="st2" width="258" height="170.6"/>
			</g>
			<g>
				
					<image style="overflow:visible;opacity:0.1;enable-background:new    ;" width="111" height="111" xlink:href="592C45CA2343CB2F.png"  transform="matrix(1 0 0 1 2 41)">
				</image>
				<g>
					<path class="st3" d="M77.9,136.7h-40c-11,0-20-9-20-20v-40c0-11,9-20,20-20h40c11,0,20,9,20,20v40
						C97.9,127.7,88.9,136.7,77.9,136.7z"/>
				</g>
			</g>
			<g>
				
					<image style="overflow:visible;opacity:0.1;enable-background:new    ;" width="111" height="111" xlink:href="592C45CA2343CB2A.png"  transform="matrix(1 0 0 1 2 143)">
				</image>
				<g>
					<path class="st3" d="M77.9,239h-40c-11,0-20-9-20-20v-40c0-11,9-20,20-20h40c11,0,20,9,20,20v40C97.9,230,88.9,239,77.9,239z"
						/>
				</g>
			</g>
			<g>
				
					<image style="overflow:visible;opacity:0.1;enable-background:new    ;" width="111" height="111" xlink:href="592C45CA2343CB29.png"  transform="matrix(1 0 0 1 209 41)">
				</image>
				<g>
					<path class="st3" d="M284.4,136.7h-40c-11,0-20-9-20-20v-40c0-11,9-20,20-20h40c11,0,20,9,20,20v40
						C304.4,127.7,295.4,136.7,284.4,136.7z"/>
				</g>
			</g>
			<g>
				
					<image style="overflow:visible;opacity:0.1;enable-background:new    ;" width="111" height="111" xlink:href="592C45CA2343CB36.png"  transform="matrix(1 0 0 1 209 143)">
				</image>
				<g>
					<path class="st3" d="M284.4,239h-40c-11,0-20-9-20-20v-40c0-11,9-20,20-20h40c11,0,20,9,20,20v40
						C304.4,230,295.4,239,284.4,239z"/>
				</g>
			</g>
			<g>
				
					<image style="overflow:visible;opacity:0.1;enable-background:new    ;" width="111" height="111" xlink:href="592C45CA2343CB39.png"  transform="matrix(1 0 0 1 103 69)">
				</image>
				<g>
					<path class="st3" d="M178.1,164.3h-40c-11,0-20-9-20-20v-40c0-11,9-20,20-20h40c11,0,20,9,20,20v40
						C198.1,155.3,189.1,164.3,178.1,164.3z"/>
				</g>
			</g>
			<g>
				
					<image style="overflow:visible;opacity:0.1;enable-background:new    ;" width="111" height="111" xlink:href="592C45CA2343CB3A.png"  transform="matrix(1 0 0 1 103 -24)">
				</image>
				<g>
					<path class="st3" d="M178.1,71.1h-40c-11,0-20-9-20-20v-40c0-11,9-20,20-20h40c11,0,20,9,20,20v40
						C198.1,62.1,189.1,71.1,178.1,71.1z"/>
				</g>
			</g>
			<g>
				
					<image style="overflow:visible;opacity:0.1;enable-background:new    ;" width="111" height="111" xlink:href="592C45CA2343CB38.png"  transform="matrix(1 0 0 1 103 162)">
				</image>
				<g>
					<path class="st3" d="M178,257.4h-40c-11,0-20-9-20-20v-40c0-11,9-20,20-20h40c11,0,20,9,20,20v40
						C198,248.5,189.1,257.4,178,257.4z"/>
				</g>
			</g>
			<g>
				<path class="st4" d="M80.7,168.6H41.5c-0.5,0-1,0.4-1,1v5.6H35c-0.5,0-1,0.4-1,1v52.1c0,0.5,0.4,1,1,1h39.2c0.5,0,1-0.4,1-1
					v-5.6h5.5c0.5,0,1-0.4,1-1v-52.1C81.7,169,81.3,168.6,80.7,168.6z M73.2,227.3H36v-50.1h27.4v4.6c0,2.5,2.1,4.6,4.7,4.6h5
					c0.1,0,0.1,0,0.2,0L73.2,227.3L73.2,227.3z M65.4,177.4l7.2,6.9h-4.5c-1.5,0-2.7-1.1-2.7-2.6V177.4z M79.7,220.6h-4.5v-36.1
					c0-0.3-0.1-0.5-0.3-0.7l-8.7-8.3c-0.2-0.2-0.4-0.3-0.7-0.3h-23v-4.6h37.2V220.6z"/>
				<path class="st4" d="M66,196.1H43.2c-0.5,0-1-0.4-1-1c0-0.5,0.4-1,1-1H66c0.5,0,1,0.4,1,1C67,195.6,66.6,196.1,66,196.1z"/>
				<path class="st4" d="M66,204.1H43.2c-0.5,0-1-0.4-1-1c0-0.5,0.4-1,1-1H66c0.5,0,1,0.4,1,1S66.6,204.1,66,204.1z"/>
				<path class="st4" d="M66,212.2H43.2c-0.5,0-1-0.4-1-1c0-0.5,0.4-1,1-1H66c0.5,0,1,0.4,1,1S66.6,212.2,66,212.2z"/>
			</g>
			<path class="st4" d="M177.5,144.3h-10.7l9.3-18.9c0.2-0.3,0.1-0.6-0.1-0.9L158.9,95c-0.3-0.4-0.8-0.6-1.3-0.3
				c-0.2,0.1-0.3,0.2-0.3,0.3l-17.1,29.4c-0.2,0.3-0.2,0.6-0.1,0.9l9.3,18.9h-10.7c-0.6,0-0.9,0.4-0.9,0.9v7.8
				c0,0.6,0.4,0.9,0.9,0.9h38.8c0.6,0,0.9-0.4,0.9-0.9v-7.8C178.4,144.7,178,144.3,177.5,144.3L177.5,144.3z M158.1,121.6
				c1.2,0,2.1,0.9,2.1,2.1s-0.9,2.1-2.1,2.1c-1.2,0-2.1-0.9-2.1-2.1l0,0C155.9,122.6,156.9,121.6,158.1,121.6z M142,124.9L157,99
				v20.8c-2.1,0.6-3.5,2.7-3,4.9c0.5,2.2,2.7,3.5,4.9,3c2.1-0.6,3.5-2.7,3-4.9c-0.3-1.5-1.5-2.6-3-3V99l15,25.9l-9.5,19.3h-13
				L142,124.9z M176.5,152.1h-36.8v-5.9h36.8V152.1z"/>
			<g>
				<path class="st4" d="M277.9,173.6c-0.2,0-0.3,0-0.5-0.1c-8.2-4.4-17.5-2.1-17.6-2.1c-0.5,0.1-1.1-0.2-1.2-0.7
					c-0.1-0.5,0.2-1,0.7-1.2c0.4-0.1,10.2-2.6,19.1,2.2c0.5,0.3,0.7,0.9,0.4,1.3C278.6,173.4,278.2,173.6,277.9,173.6L277.9,173.6z"
					/>
				<path class="st4" d="M285.9,183.6c-0.2,0-0.5-0.1-0.7-0.2c-7.1-6.2-15.1-9-23.9-8.2c-6.6,0.6-11.1,3.1-11.1,3.1
					c-0.5,0.3-1.1,0.1-1.3-0.4c-0.2-0.5-0.1-1,0.4-1.3c0.2-0.1,4.9-2.7,11.9-3.3c6.4-0.6,16.1,0.4,25.4,8.7c0.4,0.4,0.5,1,0.1,1.4
					C286.5,183.5,286.2,183.6,285.9,183.6L285.9,183.6z"/>
				<path class="st4" d="M287.6,194.7c-0.4,0-0.7-0.2-0.9-0.5c-0.1-0.1-6.2-11.5-18.2-14.3s-23.5,5.9-23.6,6c-0.4,0.3-1,0.2-1.4-0.2
					c-0.3-0.4-0.2-1,0.2-1.4c0.1-0.1,3.1-2.3,7.7-4.3c4.3-1.8,10.8-3.6,17.6-2c12.9,2.9,19.2,14.8,19.4,15.3
					c0.3,0.5,0.1,1.1-0.4,1.3C287.9,194.7,287.7,194.7,287.6,194.7L287.6,194.7z"/>
				<path class="st4" d="M285.4,209.7c-0.5,0-1-0.4-1-1c-0.2-3.6-0.9-7.1-2.2-10.4c-2.8-7.2-7.5-11.9-14.2-13.9
					c-13.7-4.2-25.1,11.2-25.2,11.4c-0.3,0.4-1,0.5-1.4,0.2c-0.4-0.3-0.5-0.9-0.2-1.4c2.3-3,4.9-5.6,7.9-7.8
					c6.5-4.8,13.2-6.3,19.5-4.3c7.2,2.2,12.5,7.5,15.5,15.2c1.3,3.5,2.1,7.3,2.3,11C286.4,209.2,286,209.7,285.4,209.7L285.4,209.7
					L285.4,209.7z"/>
				<path class="st4" d="M268.3,228.2c-0.6,0-1-0.4-1-1c0-0.3,0.1-0.6,0.4-0.8c6.5-5.2,8.5-12.4,9.3-15.1c0.1-0.3,0.1-0.5,0.2-0.7
					c0.2-0.8,1-4.7,0.3-9.1c-0.9-5.4-3.5-9.2-7.9-11.4c-3.6-1.8-7.2-2-10.9-0.8c-5.3,1.9-9.1,6.5-10.2,9c0,0.1-0.1,0.2-0.1,0.3
					c-0.4,0.9-2.3,5.6-6.3,9.2c-0.4,0.4-1,0.4-1.4,0c-0.4-0.4-0.4-1,0-1.4c0,0,0,0,0.1-0.1c3.7-3.3,5.5-7.6,5.8-8.4
					c0.1-0.1,0.1-0.3,0.2-0.4c1.3-2.9,5.4-7.9,11.4-10c4.2-1.5,8.3-1.2,12.4,0.9c11.1,5.5,9.6,19.4,8.5,22.8
					c-0.1,0.2-0.1,0.4-0.2,0.7c-0.8,2.9-2.9,10.5-9.9,16.1C268.7,228.2,268.5,228.2,268.3,228.2z"/>
				<path class="st4" d="M255.3,228c-0.6,0-1-0.4-1-1c0-0.4,0.3-0.8,0.6-0.9c9.8-3.7,14.8-12.8,15.9-16c0.6-1.6,1.5-4.8,1.3-8
					c-0.2-3.8-1.8-6.4-4.7-7.7c-2.6-1.2-5.1-1.2-7.3-0.1c-3.2,1.6-5.7,5.5-6.7,10.1c-1.6,7.7-11.3,10.7-11.7,10.8
					c-0.5,0.1-1.1-0.2-1.2-0.7c-0.1-0.5,0.1-1,0.7-1.2c0.1,0,8.9-2.8,10.3-9.3c1.1-5.2,4.1-9.6,7.8-11.5c2.8-1.4,5.9-1.4,9,0.1
					c8.6,3.9,5.6,14.9,4.4,18.1c-1.2,3.4-6.5,13.2-17.1,17.2C255.5,228,255.4,228,255.3,228z"/>
				<path class="st4" d="M248.8,224.4c-0.6,0-1-0.5-1-1c0-0.4,0.3-0.8,0.7-0.9c6.7-2.2,15.3-7.7,17.5-16.2c1-3.6,0.8-6.7-0.5-8.1
					c-0.6-0.6-1.3-0.9-2.2-0.7c-2.3,0.3-3,1.6-3.5,6.1c-0.6,5-2.5,8.5-6.1,11c-4.2,3-8.9,4.7-9.1,4.8c-0.5,0.2-1.1-0.1-1.2-0.7
					c-0.1-0.5,0.1-1,0.5-1.2c0,0,4.6-1.8,8.7-4.6c3.1-2.2,4.8-5.2,5.3-9.6c0.5-4,1.1-7.3,5.2-7.9c1.5-0.2,2.9,0.3,3.9,1.4
					c1.7,2,2.1,5.6,0.9,9.9c-0.9,3.5-3.1,7-6.1,10c-3.4,3.3-7.8,6-12.7,7.6C249,224.4,248.9,224.4,248.8,224.4L248.8,224.4z"/>
				<path class="st4" d="M258.5,215c-0.4,0-0.8-0.3-0.8-0.8c0-0.2,0.1-0.4,0.2-0.6c4.5-4.1,4.9-13.6,4.9-13.7c0-0.4,0.4-0.8,0.8-0.7
					c0.4,0,0.7,0.4,0.7,0.8c0,0.4-0.5,10.2-5.4,14.8C258.9,214.9,258.7,215,258.5,215z"/>
			</g>
			<g>
				<path class="st4" d="M283.5,123.2h-37.2V73.1h27.4v4.6c0,2.5,2.1,4.6,4.7,4.6h5c0.1,0,0.1,0,0.2,0v40.9H283.5z M275.7,73.3
					l7.2,6.9h-4.5c-1.5,0-2.7-1.1-2.7-2.6V73.3z M285.6,80.4c0-0.3-0.1-0.5-0.3-0.7l-8.7-8.3c-0.2-0.2-0.4-0.3-0.7-0.3h-30.6
					c-0.5,0-1,0.4-1,1v52.1c0,0.5,0.4,1,1,1h39.2c0.5,0,1-0.4,1-1V80.4H285.6z"/>
			</g>
			<path class="st4" d="M265.9,82.3h-15.2c-0.6,0-1-0.5-1-1l0,0c0-0.6,0.5-1,1-1h15.2c0.6,0,1,0.5,1,1l0,0
				C267,81.8,266.5,82.3,265.9,82.3z"/>
			<path class="st4" d="M274.1,107.7h-18.3c-0.6,0-1-0.5-1-1l0,0c0-0.6,0.5-1,1-1h18.3c0.6,0,1,0.5,1,1l0,0
				C275.2,107.3,274.7,107.7,274.1,107.7z"/>
			<path class="st4" d="M274.1,112.6h-18.3c-0.6,0-1-0.5-1-1l0,0c0-0.6,0.5-1,1-1h18.3c0.6,0,1,0.5,1,1l0,0
				C275.2,112.2,274.7,112.6,274.1,112.6z"/>
			<path class="st4" d="M274.1,117.5h-18.3c-0.6,0-1-0.5-1-1l0,0c0-0.6,0.5-1,1-1h18.3c0.6,0,1,0.5,1,1l0,0
				C275.2,117,274.7,117.5,274.1,117.5z"/>
			<path class="st4" d="M265,85c-4.8,0-8.8,3.9-8.8,8.8c0,2.5,1,4.7,2.7,6.3c0.6,0.6,1.4,1.1,2.2,1.6c1.2,0.6,2.5,0.9,3.9,0.9
				s2.7-0.3,3.9-0.9c0.8-0.4,1.6-0.9,2.2-1.6c1.6-1.6,2.7-3.8,2.7-6.3C273.7,89,269.8,85,265,85z M265,100.5c-1.4,0-2.8-0.5-3.8-1.2
				c0.5-1.6,2-2.8,3.8-2.8l0,0l0,0c1.8,0,3.3,1.2,3.8,2.8C267.7,100,266.4,100.5,265,100.5z M262.9,92.4c0-1.1,0.9-2.1,2.1-2.1
				c1.1,0,2.1,0.9,2.1,2.1c0,1.1-0.9,2-2.1,2.1l0,0l0,0C263.8,94.4,262.9,93.5,262.9,92.4z M270.4,97.7c-0.5-1-1.4-1.9-2.4-2.5
				c0.7-0.7,1.2-1.7,1.2-2.9c0-2.3-1.8-4.1-4.1-4.1c-2.3,0-4.1,1.8-4.1,4.1c0,1.1,0.4,2.1,1.2,2.8c-1,0.6-1.9,1.4-2.4,2.5
				c-0.8-1.1-1.3-2.4-1.3-3.9c0-3.7,3-6.7,6.7-6.7s6.7,3,6.7,6.7C271.6,95.3,271.2,96.6,270.4,97.7z"/>
			<path class="st4" d="M239.6,82.2h-5.2c-1,0-1.8,0.8-1.8,1.8v24.9v0.4v1.2l1.7,1.7l0,0l0.4,0.4l0,0l0.8,0.8l0,0l1.5,1.5l1.5-1.5
				l0.8-0.8l0,0l0.4-0.4l0,0l1.5-1.5l0.2-0.2v-1.2v-0.4V84C241.4,83,240.6,82.2,239.6,82.2z M239.3,109.6l-2.3,2.3l-2.3-2.3v-0.4
				h4.6V109.6z M234.8,86c0-1,0.8-1.8,1.8-1.8h1c1,0,1.8,0.8,1.8,1.8v1.4h-4.6V86z M234.8,89.5h4.6v17.7h-4.6V89.5z"/>
			<g>
				<path class="st4" d="M186.9,220.3v17.6h-61.3v-42h22.6c0.6,0,1-0.5,1-1l0,0c0-0.6-0.5-1-1-1h-22.7c-1.1,0-2,0.9-2,2V238
					c0,1.1,0.9,2,2,2H187c1.1,0,2-0.9,2-2v-17.7c0-0.6-0.5-1-1-1l0,0C187.3,219.3,186.9,219.8,186.9,220.3z"/>
				<path class="st4" d="M170.3,251.4L170.3,251.4c0,0.6-0.5,1-1,1h-26.1c-0.6,0-1-0.5-1-1l0,0c0-0.6,0.5-1,1-1h26.1
					C169.8,250.4,170.3,250.8,170.3,251.4z"/>
				<rect x="161.2" y="238.4" class="st4" width="2.1" height="14.1"/>
				<rect x="149.2" y="238.4" class="st4" width="2.1" height="14.1"/>
				<g>
					<path class="st4" d="M140.7,214.2c-0.1-0.8-0.2-1.6-0.2-2.3c0.2-2.8,1.5-4.8,4.1-6c1.7-0.8,3.5-1.5,5.2-2.3
						c0.3-0.1,0.5-0.3,0.8-0.5c5-4.9,9.9-9.9,14.9-14.8c0.3-0.3,0.3-0.4,0.2-0.8c-1-2.5,0.5-4.9,3-5c1.5-0.1,2.8,0.8,3.5,2.4
						c1.3,3,2.6,6,3.9,9c0.2,0.4,0.4,0.6,0.9,0.5c1.3-0.2,2.7-0.2,4-0.3c0.7-0.1,1,0.1,1.2,0.7c0.6,1.4,1.2,2.9,1.9,4.3
						c0.3,0.7,0.2,1-0.3,1.4c-1,0.9-2,1.8-3.1,2.7c-0.3,0.3-0.3,0.5-0.2,0.8c1.3,3,2.6,6,3.9,9c0.4,1,0.6,1.9,0.3,2.9
						c-0.5,1.4-1.5,2.2-2.9,2.4c-1.5,0.2-2.7-0.4-3.4-1.7c-0.4-0.8-0.9-1-1.8-1c-6.1,0.2-12.3,0.3-18.4,0.5c-0.2,0-0.4,0-0.6,0
						c0.1,0.2,0.2,0.3,0.3,0.4c1.6,2.1,3.2,4.2,4.8,6.3c0.2,0.3,0.6,0.4,0.9,0.6c0.4,0.3,1,0.5,1.3,0.8c0.8,0.9,0.6,2.3-0.4,3
						c-1.8,1.3-3.6,2.5-5.4,3.7c-0.6,0.4-1,0.3-1.4-0.3c-2.8-3.7-5.5-7.4-8.2-11.2c-0.3-0.4-0.6-0.5-1-0.5c-2.8,0.2-5-0.9-6.5-3.3
						c0-0.1-0.1-0.1-0.2-0.2C141.1,215.2,140.9,214.7,140.7,214.2z M166.4,189.7c-0.1,0.1-0.2,0.2-0.3,0.3c-4.7,4.7-9.4,9.4-14.1,14
						c-0.2,0.2-0.2,0.4-0.1,0.7c1.4,3.1,2.7,6.3,4,9.4c0.1,0.3,0.3,0.4,0.6,0.4c6.6-0.2,13.2-0.3,19.7-0.5c0.2,0,0.3,0,0.5,0
						C173.3,205.8,169.9,197.8,166.4,189.7z M176.5,199.7c-2-4.7-4-9.4-6.1-14.2c-0.5-1.2-1.4-1.7-2.4-1.3s-1.3,1.4-0.8,2.7
						c0.2,0.4,0.4,0.8,0.5,1.3c3.7,8.6,7.3,17.1,11,25.7c0.3,0.7,0.5,1.3,0.9,1.9c0.6,1,2,1,2.7,0.2c0.6-0.7,0.5-1.4,0.2-2.2
						C180.5,209.2,178.5,204.5,176.5,199.7z M150.2,205.3c-1.6,0.7-3.1,1.3-4.6,2c-2,0.9-3.1,2.4-3.3,4.6c-0.3,3.7,3.6,6.6,7.1,5.2
						c1.6-0.6,3.1-1.3,4.7-2c0.1-0.1,0.2-0.1,0.3-0.2C152.9,211.7,151.5,208.5,150.2,205.3z M158.4,229.3c1.5-1,3-2,4.4-3
						c0.2-0.2,0.4-0.4,0.6-0.6c-0.2-0.2-0.4-0.4-0.7-0.5c-0.6-0.3-1.2-0.5-1.6-1.1c-1.8-2.4-3.6-4.8-5.4-7.1
						c-0.2-0.3-0.4-0.4-0.8-0.2c-1.3,0.6-2.5,1.1-3.8,1.7c-0.2,0.1-0.3,0.1-0.5,0.2C153.1,222.1,155.7,225.7,158.4,229.3z
						 M176.9,196.1c0.8,1.9,1.6,3.8,2.5,5.8c0.9-0.8,1.7-1.5,2.5-2.3c0.1-0.1,0.1-0.3,0-0.4c-0.4-1-0.9-2-1.3-3.1
						c-0.1-0.1-0.2-0.3-0.3-0.3C179.2,195.9,178.1,196,176.9,196.1z"/>
					<path class="st4" d="M188.9,195.4l-3.2,1.4c-0.4,0.2-1,0-1.1-0.5l0,0c-0.2-0.4,0-1,0.5-1.1l3.2-1.4c0.4-0.2,1,0,1.1,0.5l0,0
						C189.6,194.6,189.4,195.2,188.9,195.4z"/>
					<path class="st4" d="M184.4,184.9L184.4,184.9c0.4,0.3,0.5,0.8,0.2,1.2l-2,2.7c-0.3,0.4-0.8,0.5-1.2,0.2l0,0
						c-0.4-0.3-0.5-0.8-0.2-1.2l2-2.7C183.5,184.7,184,184.6,184.4,184.9z"/>
					<path class="st4" d="M188.7,202.7l3.3,0.5c0.5,0.1,0.8,0.5,0.7,1l0,0c-0.1,0.5-0.5,0.8-1,0.8l-3.3-0.4c-0.5-0.1-0.8-0.5-0.7-1
						l0,0C187.7,203,188.2,202.7,188.7,202.7z"/>
					<path class="st4" d="M144.5,209.6c0.5-0.2,1-0.4,1.6-0.7c0.5,1.1,0.9,2.1,1.4,3.2c-0.5,0.2-1,0.4-1.6,0.7
						C145.4,211.8,144.9,210.7,144.5,209.6z"/>
					<path class="st4" d="M149.1,211.4c-0.5-1.1-0.9-2.1-1.4-3.2c0.5-0.2,1-0.4,1.5-0.7c0.4,1,0.9,2.1,1.4,3.2
						C150.1,211,149.6,211.2,149.1,211.4z"/>
				</g>
			</g>
			<g>
				<path class="st4" d="M72.1,66.5H43l0,0c-1.2,0-2.3,1.1-2.3,2.3l0,0v55.3l0,0c0,1.2,1.1,2.3,2.3,2.3l0,0h29.1l0,0
					c1.2,0,2.3-1.1,2.3-2.3l0,0V68.8l0,0C74.3,67.7,73.3,66.5,72.1,66.5L72.1,66.5z M72.1,124.2H43V68.8h29.1V124.2z"/>
				<line class="st5" x1="51.9" y1="121.8" x2="63.1" y2="121.8"/>
			</g>
		</g>
	</g>
</g>
</svg>
