<?xml version="1.0" encoding="utf-8"?>
<!-- Generator: Adobe Illustrator 24.2.3, SVG Export Plug-In . SVG Version: 6.00 Build 0)  -->
<svg version="1.1" id="Layer_1" xmlns="http://www.w3.org/2000/svg" xmlns:xlink="http://www.w3.org/1999/xlink" x="0px" y="0px"
	 viewBox="0 0 300 300" style="enable-background:new 0 0 300 300;" xml:space="preserve">
<style type="text/css">
	.st0{fill:#2D82B7;}
</style>
<g>
	<path class="st0" d="M262.9,0H69.2c-2.8,0-5,2.2-5,5v27.7H37.1c-2.8,0-5,2.2-5,5V295c0,2.8,2.2,5,5,5h193.6c2.8,0,5-2.2,5-5v-27.7
		h27.1c2.8,0,5-2.2,5-5V5C267.9,2.2,265.6,0,262.9,0z M225.8,290H42.1V42.7h135.1v22.8c0,12.4,10.4,22.5,23.2,22.5h24.6
		c0.2,0,0.5,0,0.7-0.1L225.8,290L225.8,290z M187.3,44l35.5,34.1h-22.2c-7.3,0-13.2-5.6-13.2-12.5V44z M257.9,257.2h-22.1V78.9
		c0-1.4-0.6-2.7-1.5-3.6l-42.8-41.2c-0.9-0.9-2.2-1.4-3.5-1.4H74.2V10h183.6V257.2z"/>
	<path class="st0" d="M190.3,135.8H77.6c-2.8,0-5-2.2-5-5s2.2-5,5-5h112.7c2.8,0,5,2.2,5,5S193.1,135.8,190.3,135.8z"/>
	<path class="st0" d="M190.3,175.7H77.6c-2.8,0-5-2.2-5-5s2.2-5,5-5h112.7c2.8,0,5,2.2,5,5S193.1,175.7,190.3,175.7z"/>
	<path class="st0" d="M190.3,215.6H77.6c-2.8,0-5-2.2-5-5s2.2-5,5-5h112.7c2.8,0,5,2.2,5,5S193.1,215.6,190.3,215.6z"/>
</g>
</svg>
