<svg viewBox="0 0 300 300" xmlns="http://www.w3.org/2000/svg"><circle cx="150" cy="150" r="150"/><path d="m130.72 143.3s18.93-1.41 18.93-23.6-15.48-33-35.1-33h-64.55v124h64.54s39.4 1.24 39.4-36.61c0 0 1.72-30.8-23.23-30.8zm-20.82-34.59h4.65s8.77 0 8.77 12.91-5.16 14.77-11 14.77h-33.88v-27.68zm2.82 79.94h-34.28v-33.14h36.1s13.08-.17 13.08 17c0 14.51-9.77 16-14.9 16.11zm93.77-70.43c-47.7 0-47.66 47.66-47.66 47.66s-3.27 47.41 47.66 47.41c0 0 42.44 2.42 42.44-33h-21.82s.73 13.33-19.89 13.33c0 0-21.83 1.46-21.83-21.58h64.27s7-53.84-43.17-53.84zm-21.34 37.28s2.67-19.12 21.83-19.12 18.92 19.12 18.92 19.12zm45.85-46.25h-51.19v-15.25h51.19v15.27z" fill="#fff"/></svg>