<?xml version="1.0" encoding="utf-8"?>
<!-- Generator: Adobe Illustrator 20.0.0, SVG Export Plug-In . SVG Version: 6.00 Build 0)  -->
<svg version="1.1" id="Layer_1" xmlns="http://www.w3.org/2000/svg" xmlns:xlink="http://www.w3.org/1999/xlink" x="0px" y="0px"
	 width="504px" height="504px" viewBox="0 0 504 504" style="enable-background:new 0 0 504 504;" xml:space="preserve">
<style type="text/css">
	.st0{fill:#00A142;}
	.st1{opacity:4.000000e-02;}
	.st2{fill:#FB7546;}
	.st3{fill:#5FD8D2;}
	.st4{opacity:0.2;}
	.st5{fill:#FFDCD2;}
	.st6{fill:#EAB226;}
</style>
<g>
	<circle class="st0" cx="252" cy="252" r="252"/>
	<path class="st1" d="M430.2,430.2c-98.4,98.4-258,98.4-356.4,0L430.2,73.8C528.6,172.2,528.6,331.8,430.2,430.2z"/>
	<path class="st2" d="M328.7,112.8H175.3V70c0-19.1,15.4-34.5,34.5-34.5h84.3c19.1,0,34.5,15.4,34.5,34.5V112.8z"/>
	<path class="st3" d="M333.3,124.2H170.7c-3.1,0-5.7-2.5-5.7-5.7v0c0-3.1,2.5-5.7,5.7-5.7h162.6c3.1,0,5.7,2.5,5.7,5.7v0
		C339,121.6,336.4,124.2,333.3,124.2z"/>
	<path class="st3" d="M343.2,136.8H160.8c-3.1,0-5.7-2.5-5.7-5.7v-1.3c0-3.1,2.5-5.7,5.7-5.7h182.4c3.1,0,5.7,2.5,5.7,5.7v1.3
		C348.9,134.3,346.3,136.8,343.2,136.8z"/>
	<path class="st3" d="M333.3,148.1H170.7c-3.1,0-5.7-2.5-5.7-5.7v0c0-3.1,2.5-5.7,5.7-5.7h162.6c3.1,0,5.7,2.5,5.7,5.7v0
		C339,145.6,336.4,148.1,333.3,148.1z"/>
	<path class="st3" d="M343.2,160.8H160.8c-3.1,0-5.7-2.5-5.7-5.7v-1.3c0-3.1,2.5-5.7,5.7-5.7h182.4c3.1,0,5.7,2.5,5.7,5.7v1.3
		C348.9,158.2,346.3,160.8,343.2,160.8z"/>
	<path class="st4" d="M343.2,136.8H160.8c-3.1,0-5.7-2.5-5.7-5.7v-1.3c0-3.1,2.5-5.7,5.7-5.7h182.4c3.1,0,5.7,2.5,5.7,5.7v1.3
		C348.9,134.3,346.3,136.8,343.2,136.8z"/>
	<path class="st4" d="M343.2,160.8H160.8c-3.1,0-5.7-2.5-5.7-5.7v-1.3c0-3.1,2.5-5.7,5.7-5.7h182.4c3.1,0,5.7,2.5,5.7,5.7v1.3
		C348.9,158.2,346.3,160.8,343.2,160.8z"/>
	<polygon class="st5" points="328.7,353.6 328.7,362.6 289.3,342.6 251.8,383.8 214.3,342.8 173.8,362.3 173.8,354.3 218.6,330.6 
		251.8,367.3 284.8,330.6 	"/>
	<polygon class="st6" points="173.8,354.3 218.6,330.6 218.6,160.8 173.8,160.8 	"/>
	<polygon class="st6" points="328.7,353.6 284.8,330.6 284.8,160.8 328.7,160.8 	"/>
	<polygon class="st4" points="173.8,354.3 218.6,330.6 218.6,160.8 173.8,160.8 	"/>
	<polygon class="st4" points="328.7,353.6 284.8,330.6 284.8,160.8 328.7,160.8 	"/>
	<polygon class="st6" points="251.8,367.3 251.8,160.8 284.8,160.8 284.8,330.6 	"/>
	<polygon class="st6" points="218.6,330.6 251.8,367.3 251.8,160.8 218.6,160.8 	"/>
	<polygon class="st2" points="173.8,362.3 225.7,430.5 279.7,430.5 328.7,362.6 289.3,342.6 251.8,383.8 214.3,342.8 	"/>
	<polygon points="225.7,430.5 251.8,469.5 279.7,430.5 	"/>
</g>
</svg>
