<svg viewBox="0 0 300 300" xmlns="http://www.w3.org/2000/svg"><g fill="#ff3b3f"><path d="m262.87 0h-193.63a5 5 0 0 0 -5 5v27.74h-27.11a5 5 0 0 0 -5 5v257.26a5 5 0 0 0 5 5h193.63a5 5 0 0 0 5-5v-27.74h27.11a5 5 0 0 0 5-5v-257.26a5 5 0 0 0 -5-5zm-37.11 290h-183.63v-247.26h135.14v22.85c0 12.43 10.42 22.53 23.24 22.53h24.58a4.94 4.94 0 0 0 .68-.07v201.95zm-38.49-246 35.47 34.1h-22.23c-7.3 0-13.24-5.62-13.24-12.53zm70.6 213.23h-22.11v-178.33a5 5 0 0 0 -1.53-3.6l-42.82-41.16a5 5 0 0 0 -3.46-1.4h-113.71v-22.74h183.63z"/><path d="m190.31 135.77h-112.73a5 5 0 1 1 0-10h112.73a5 5 0 0 1 0 10z"/><path d="m190.31 175.67h-112.73a5 5 0 0 1 0-10h112.73a5 5 0 0 1 0 10z"/><path d="m190.31 215.56h-112.73a5 5 0 1 1 0-10h112.73a5 5 0 0 1 0 10z"/></g></svg>