<?xml version="1.0" encoding="utf-8"?>
<!-- Generator: Adobe Illustrator 24.2.3, SVG Export Plug-In . SVG Version: 6.00 Build 0)  -->
<svg version="1.1" id="Layer_1" xmlns="http://www.w3.org/2000/svg" xmlns:xlink="http://www.w3.org/1999/xlink" x="0px" y="0px"
	 viewBox="0 0 300 300" style="enable-background:new 0 0 300 300;" xml:space="preserve">
<style type="text/css">
	.st0{fill:#2D82B7;}
</style>
<path class="st0" d="M247.8,250.8h-54.2l46.9-95.5c0.7-1.5,0.7-3.2-0.2-4.6L154.2,2.4c-1.3-2.3-4.3-3.1-6.6-1.8
	c-0.7,0.4-1.3,1-1.8,1.8L59.6,150.7c-0.8,1.4-0.9,3.1-0.2,4.6l46.9,95.5H52.2c-2.7,0-4.8,2.2-4.8,4.8v39.5c0,2.7,2.2,4.8,4.8,4.8
	h195.6c2.7,0,4.8-2.2,4.8-4.8v-39.5C252.7,253,250.5,250.8,247.8,250.8L247.8,250.8z M150,136.5c5.9,0,10.7,4.8,10.7,10.7
	s-4.8,10.7-10.7,10.7c-5.9,0-10.7-4.8-10.7-10.7l0,0C139.3,141.3,144.1,136.5,150,136.5z M69.3,153.4l75.9-130.6v104.6
	c-10.9,2.7-17.6,13.7-15,24.6c2.7,10.9,13.7,17.6,24.6,15c10.9-2.7,17.6-13.7,15-24.6c-1.8-7.4-7.6-13.2-15-15V22.8l75.9,130.6
	l-47.9,97.4h-65.7L69.3,153.4z M243,290.3H57v-29.9h186V290.3z"/>
</svg>
