<?xml version="1.0" encoding="utf-8"?>
<!-- Generator: Adobe Illustrator 20.0.0, SVG Export Plug-In . SVG Version: 6.00 Build 0)  -->
<svg version="1.1" id="Layer_1" xmlns="http://www.w3.org/2000/svg" xmlns:xlink="http://www.w3.org/1999/xlink" x="0px" y="0px"
	 width="504px" height="504px" viewBox="0 0 504 504" style="enable-background:new 0 0 504 504;" xml:space="preserve">
<style type="text/css">
	.st0{fill:#F9EE5F;}
	.st1{fill:#E0DCE3;}
	.st2{fill:#7CC174;}
	.st3{fill:#385C8D;}
</style>
<circle class="st0" cx="252" cy="252" r="252"/>
<rect x="152.3" y="66.3" class="st1" width="199.3" height="157.3"/>
<rect x="152.3" y="356.3" class="st1" width="199.3" height="81.3"/>
<path class="st2" d="M456.3,285v87.1c0,10.8-8.8,19.6-19.6,19.6h-74.4v-47.3h-224v47.3H67.2c-10.8,0-19.6-8.8-19.6-19.6V285H456.3z"
	/>
<path class="st2" d="M456.3,182.1v86.2H47.7v-86.2c0-12.8,10.4-23.2,23.2-23.2h67.5v74.7h224V159h70.8
	C446,159,456.3,169.3,456.3,182.1z"/>
<circle class="st3" cx="423" cy="180.3" r="10.5"/>
<circle class="st2" cx="423" cy="180.3" r="6.8"/>
<circle class="st3" cx="423" cy="213.6" r="10.5"/>
<circle class="st2" cx="423" cy="213.6" r="6.8"/>
<rect x="47.7" y="268.3" class="st3" width="408.7" height="16.7"/>
</svg>
