<?xml version="1.0" encoding="utf-8"?>
<!-- Generator: Adobe Illustrator 24.2.3, SVG Export Plug-In . SVG Version: 6.00 Build 0)  -->
<svg version="1.1" id="Layer_1" xmlns="http://www.w3.org/2000/svg" xmlns:xlink="http://www.w3.org/1999/xlink" x="0px" y="0px"
	 viewBox="0 0 300 300" style="enable-background:new 0 0 300 300;" xml:space="preserve">
<style type="text/css">
	.st0{fill:#CE0E2D;}
	.st1{fill:#404041;}
</style>
<g>
	<g>
		<path class="st0" d="M178.8,118.1h-72c-1,0-1.9,0.8-1.9,1.9v10.3H94.9c-1,0-1.9,0.8-1.9,1.9v95.6c0,1,0.8,1.9,1.9,1.9h72
			c1,0,1.9-0.8,1.9-1.9v-10.3h10.1c1,0,1.9-0.8,1.9-1.9v-95.6C180.7,118.9,179.8,118.1,178.8,118.1z M165,225.9H96.8V134H147v8.5
			c0,4.6,3.9,8.4,8.6,8.4h9.1c0.1,0,0.2,0,0.3,0L165,225.9L165,225.9z M150.7,134.4l13.2,12.7h-8.3c-2.7,0-4.9-2.1-4.9-4.7V134.4z
			 M177,213.7h-8.2v-66.3c0-0.5-0.2-1-0.6-1.3l-15.9-15.3c-0.3-0.3-0.8-0.5-1.3-0.5h-42.3v-8.5H177V213.7z"/>
		<path class="st0" d="M151.8,168.6h-41.9c-1,0-1.9-0.8-1.9-1.9c0-1,0.8-1.9,1.9-1.9h41.9c1,0,1.9,0.8,1.9,1.9
			C153.7,167.7,152.9,168.6,151.8,168.6z"/>
		<path class="st0" d="M151.8,183.4h-41.9c-1,0-1.9-0.8-1.9-1.9c0-1,0.8-1.9,1.9-1.9h41.9c1,0,1.9,0.8,1.9,1.9
			C153.7,182.6,152.9,183.4,151.8,183.4z"/>
		<path class="st0" d="M151.8,198.2h-41.9c-1,0-1.9-0.8-1.9-1.9c0-1,0.8-1.9,1.9-1.9h41.9c1,0,1.9,0.8,1.9,1.9
			C153.7,197.4,152.9,198.2,151.8,198.2z"/>
	</g>
	<path class="st0" d="M268.5,212H249l16.9-34.4c0.3-0.5,0.2-1.1-0.1-1.6l-31-53.4c-0.5-0.8-1.5-1.1-2.4-0.6
		c-0.3,0.2-0.5,0.4-0.6,0.6l-31,53.4c-0.3,0.5-0.3,1.1-0.1,1.6l16.9,34.4h-19.5c-1,0-1.7,0.8-1.7,1.7v14.2c0,1,0.8,1.7,1.7,1.7h70.4
		c1,0,1.7-0.8,1.7-1.7v-14.2C270.2,212.8,269.4,212,268.5,212L268.5,212z M233.3,170.8c2.1,0,3.9,1.7,3.9,3.9s-1.7,3.9-3.9,3.9
		c-2.1,0-3.9-1.7-3.9-3.9l0,0C229.4,172.6,231.1,170.8,233.3,170.8z M204.2,176.9l27.3-47v37.7c-3.9,1-6.3,4.9-5.4,8.9
		s4.9,6.3,8.9,5.4c3.9-1,6.3-4.9,5.4-8.9c-0.6-2.7-2.7-4.7-5.4-5.4v-37.7l27.3,47L245.1,212h-23.6L204.2,176.9z M266.7,226.2h-66.9
		v-10.7h66.9V226.2z"/>
	<path class="st0" d="M73.8,164.8H42.6h0c-2,0-3.7,1.7-3.7,3.7v0v59.3l0,0c0,2,1.7,3.7,3.7,3.7h0h31.2l0,0c2,0,3.7-1.7,3.7-3.7l0,0
		v-59.3v0C77.5,166.5,75.9,164.8,73.8,164.8L73.8,164.8z M73.8,227.8H42.6v-59.3h31.2V227.8z"/>
</g>
<g>
	<path class="st1" d="M277,50.6H22.7c-5.5,0-10,4.5-10,10V224c0,5.5,4.5,10,10,10H277c5.5,0,10-4.5,10-10V60.6
		C287,55,282.6,50.6,277,50.6z M277.1,223.4H22.7V60.6h254.4V223.4z"/>
	<path class="st1" d="M294.9,249.4H5.1c-2.8,0-5.1-2.3-5.1-5.1v0c0-2.8,2.3-5.1,5.1-5.1h289.8c2.8,0,5.1,2.3,5.1,5.1v0
		C300,247.2,297.7,249.4,294.9,249.4z"/>
</g>
</svg>
