<?xml version="1.0" encoding="UTF-8"?>
<svg id="Layer_1" xmlns="http://www.w3.org/2000/svg" version="1.1" viewBox="0 0 200 200">
  <!-- Generator: Adobe Illustrator 29.0.1, SVG Export Plug-In . SVG Version: 2.1.0 Build 192)  -->
  <defs>
    <style>
      .st0 {
        fill: #6e675e;
      }
    </style>
  </defs>
  <path class="st0" d="M82.6,175.1H2.4c-1.4,0-2.5-1.1-2.5-2.5v-40.2c0-1.4,1.1-2.5,2.5-2.5h80.3c1.4,0,2.5,1.1,2.5,2.5v40.2c0,1.4-1.1,2.5-2.5,2.5ZM4.9,170.1h75.3v-35.2H4.9v35.2Z"/>
  <path class="st0" d="M71.8,148.4H13.2c-1.4,0-2.5-1.1-2.5-2.5s1.1-2.5,2.5-2.5h58.7c1.4,0,2.5,1.1,2.5,2.5s-1.1,2.5-2.5,2.5Z"/>
  <path class="st0" d="M71.8,160.6h-14.8c-1.4,0-2.5-1.1-2.5-2.5s1.1-2.5,2.5-2.5h14.8c1.4,0,2.5,1.1,2.5,2.5s-1.1,2.5-2.5,2.5Z"/>
  <path class="st0" d="M39.5,160.6H13.2c-1.4,0-2.5-1.1-2.5-2.5s1.1-2.5,2.5-2.5h26.3c1.4,0,2.5,1.1,2.5,2.5s-1.1,2.5-2.5,2.5Z"/>
  <path class="st0" d="M197.6,66h-80.3c-1.4,0-2.5-1.1-2.5-2.5V23.3c0-1.4,1.1-2.5,2.5-2.5h80.3c1.4,0,2.5,1.1,2.5,2.5v40.2c0,1.4-1.1,2.5-2.5,2.5ZM119.9,61h75.3V25.8h-75.3v35.2Z"/>
  <path class="st0" d="M186.8,52.6h-58.7c-1.4,0-2.5-1.1-2.5-2.5s1.1-2.5,2.5-2.5h58.7c1.4,0,2.5,1.1,2.5,2.5s-1.1,2.5-2.5,2.5Z"/>
  <path class="st0" d="M142.9,40.4h-14.8c-1.4,0-2.5-1.1-2.5-2.5s1.1-2.5,2.5-2.5h14.8c1.4,0,2.5,1.1,2.5,2.5s-1.1,2.5-2.5,2.5Z"/>
  <path class="st0" d="M186.8,40.4h-26.3c-1.4,0-2.5-1.1-2.5-2.5s1.1-2.5,2.5-2.5h26.3c1.4,0,2.5,1.1,2.5,2.5s-1.1,2.5-2.5,2.5Z"/>
  <path class="st0" d="M24.4,119.1c-.9,0-1.8-.5-2.2-1.4-14-28.2-7.7-62.9,15.4-84.3,17.5-16.3,41.8-22.8,65.1-17.4,1.3.3,2.2,1.7,1.9,3-.3,1.3-1.6,2.2-3,1.9-21.7-5-44.3,1.1-60.5,16.2-21.4,20-27.3,52.2-14.3,78.5.6,1.2.1,2.7-1.1,3.4-.4.2-.7.3-1.1.3Z"/>
  <path class="st0" d="M97.6,156.7c-1.2,0-2.3-.9-2.5-2.1-.2-1.4.7-2.6,2.1-2.9,13-2.1,25-8,34.6-17,15.3-14.2,22.9-34.3,20.9-55.1-.1-1.4.9-2.6,2.3-2.7,1.4-.1,2.6.9,2.7,2.3,2.1,22.3-6.1,43.9-22.5,59.2-10.4,9.7-23.3,16-37.2,18.3-.1,0-.3,0-.4,0Z"/>
  <path class="st0" d="M145.1,151.4c-.7,0-1.4-.3-1.9-.9l-11.1-12.8c-.9-1-.8-2.6.3-3.5,1-.9,2.6-.8,3.5.3l11.1,12.8c.9,1,.8,2.6-.3,3.5-.5.4-1.1.6-1.6.6Z"/>
  <path class="st0" d="M160.1,185.8c-.7,0-1.3-.3-1.8-.8l-24.2-25.9c-.9-1-.9-2.6.1-3.5l18.3-17.1c.5-.5,1.1-.7,1.8-.7.7,0,1.3.3,1.7.8l24.2,25.9c.9,1,.9,2.6-.1,3.5-1,.9-2.6.9-3.5-.1l-22.5-24.1-14.7,13.7,22.5,24.1c.9,1,.9,2.6-.1,3.5-.5.4-1.1.7-1.7.7Z"/>
  <path class="st0" d="M82.6,86.3c-13.1,0-23.8-10.7-23.8-23.8s10.7-23.8,23.8-23.8,23.8,10.7,23.8,23.8-10.7,23.8-23.8,23.8ZM82.6,43.7c-10.4,0-18.8,8.4-18.8,18.8s8.4,18.8,18.8,18.8,18.8-8.4,18.8-18.8-8.4-18.8-18.8-18.8Z"/>
  <path class="st0" d="M54.1,119.6"/>
  <path class="st0" d="M111.2,122.1c-1.4,0-2.5-1.1-2.5-2.5v-11.7c0-10.5-6.2-19.9-15.9-24-1.3-.5-1.9-2-1.3-3.3.5-1.3,2-1.9,3.3-1.3,11.5,4.9,19,16.1,19,28.6v11.7c0,1.4-1.1,2.5-2.5,2.5Z"/>
  <path class="st0" d="M54.1,122.1c-1.4,0-2.5-1.1-2.5-2.5v-11.7c0-12.5,7.4-23.7,18.9-28.6,1.3-.5,2.7,0,3.3,1.3.5,1.3,0,2.7-1.3,3.3-9.6,4.1-15.8,13.5-15.8,24v11.7c0,1.4-1.1,2.5-2.5,2.5Z"/>
</svg>