<?xml version="1.0" encoding="utf-8"?>
<!-- Generator: Adobe Illustrator 24.2.3, SVG Export Plug-In . SVG Version: 6.00 Build 0)  -->
<svg version="1.1" id="Layer_1" xmlns="http://www.w3.org/2000/svg" xmlns:xlink="http://www.w3.org/1999/xlink" x="0px" y="0px"
	 viewBox="0 0 300 300" style="enable-background:new 0 0 300 300;" xml:space="preserve">
<style type="text/css">
	.st0{fill:#CE202F;}
	.st1{fill:#FFFFFF;}
</style>
<circle class="st0" cx="150" cy="150" r="150"/>
<path class="st1" d="M82.7,98.5c-0.1-4.1,1.5-8,4.6-10.7c3-2.8,7-4.2,11.8-4.2s8.7,1.4,11.6,4.2c3.1,2.9,4.7,7,4.6,11.2
	c0.1,3.9-1.5,7.7-4.4,10.4c-3,2.9-7,4.3-11.9,4.3h-0.1c-4.8,0-8.6-1.4-11.6-4.3C84.2,106.5,82.6,102.6,82.7,98.5L82.7,98.5z
	 M84.4,212.2v-86.8h28.8v86.8L84.4,212.2z M129.2,212.2h28.8v-48.4c-0.4-5.6,2.1-11,6.6-14.5c2.6-2.1,5.9-3.2,9.3-3.1
	c9.7,0,14.6,6.5,14.6,19.6v46.4h28.8v-49.8c0-12.8-3-22.5-9.1-29.2c-6.1-6.6-14.1-9.9-24-9.9c-11.2,0-19.9,4.8-26.1,14.4v0.3h-0.1
	l0.1-0.3v-12.3h-28.9c0.2,2.8,0.3,11.4,0.3,25.9S129.4,186,129.2,212.2L129.2,212.2z"/>
</svg>
