<?xml version="1.0" encoding="utf-8"?>
<!-- Generator: Adobe Illustrator 23.0.1, SVG Export Plug-In . SVG Version: 6.00 Build 0)  -->
<svg version="1.1" id="Layer_1" xmlns="http://www.w3.org/2000/svg" xmlns:xlink="http://www.w3.org/1999/xlink" x="0px" y="0px"
	 viewBox="0 0 300 300" style="enable-background:new 0 0 300 300;" xml:space="preserve">
<style type="text/css">
	.st0{fill:#FFFFFF;}
	.st1{fill:#FF3B3F;}
</style>
<title>icon</title>
<polygon class="st0" points="238.7,87.6 238.7,213.3 176.4,154 "/>
<path class="st0" d="M232.2,80l-66.4,70.7c-4.1,4.4-9.7,6.8-15.8,6.8s-11.6-2.4-15.8-6.8l0,0L67.8,80H232.2z"/>
<path class="st0" d="M231.2,220H68.8l61.9-59c5.5,4.3,12.2,6.6,19.3,6.6s13.8-2.3,19.3-6.6L231.2,220z"/>
<polygon class="st0" points="123.6,154 61.3,213.3 61.3,87.6 "/>
<g>
	<path class="st1" d="M56.2,231.5c-0.5,0-0.8-0.1-1.2-0.1c-0.3-0.1-0.6-0.2-0.9-0.3l0.3-1.5l-0.4,1.4l-0.2-0.1
		c-0.4-0.2-0.8-0.4-1.2-0.6c-0.1-0.1-0.2-0.1-0.2-0.2c-0.3-0.2-0.5-0.4-0.7-0.6l-0.2-0.2l-0.1-0.1c0-0.1-0.1-0.1-0.1-0.2
		c-0.1-0.2-0.3-0.4-0.4-0.6c-0.1-0.2-0.2-0.3-0.3-0.5l-0.1-0.1c-0.1-0.2-0.2-0.3-0.2-0.5c-0.1-0.2-0.1-0.4-0.2-0.5l0-0.1
		c-0.1-0.3-0.1-0.4-0.2-0.6c0-0.2-0.1-0.4-0.1-0.6l0-0.1c0-0.2,0-0.3,0-0.5V74.8l0-0.1c0-0.2,0-0.3,0-0.5l0-0.3c0-0.2,0-0.3,0.1-0.4
		c0-0.1,0.1-0.3,0.1-0.5l0.1-0.2c0-0.1,0.1-0.3,0.1-0.4c0.1-0.2,0.2-0.3,0.2-0.4l0.2-0.3c0.1-0.1,0.1-0.3,0.2-0.4l0.1-0.1
		c0.1-0.1,0.2-0.2,0.3-0.3c0.1-0.1,0.2-0.3,0.3-0.4l0.2-0.2c0.1-0.1,0.3-0.2,0.4-0.3c0.2-0.1,0.4-0.3,0.6-0.4
		c0.1-0.1,0.3-0.2,0.5-0.3l0.7,1.3l-0.6-1.4c0.2-0.1,0.4-0.2,0.6-0.3c0.2-0.1,0.4-0.1,0.6-0.2l0.1,0c0.1,0,0.3-0.1,0.4-0.1
		c0.3-0.1,0.5-0.1,0.8-0.1c0.1,0,0.3,0,0.4,0h187.5c0.1,0,0.3,0,0.4,0l0.2,0c0.2,0,0.4,0,0.6,0.1c0.1,0,0.3,0.1,0.4,0.1l0.1,0
		c0.2,0.1,0.5,0.1,0.7,0.2c0.1,0,0.3,0.1,0.5,0.2l0.1,0c0.2,0.1,0.4,0.2,0.5,0.3c0.1,0.1,0.3,0.2,0.4,0.3l0.1,0.1
		c0.2,0.1,0.3,0.2,0.4,0.3l0.2,0.2l0,0c0.1,0.1,0.2,0.3,0.3,0.4c0.1,0.1,0.2,0.2,0.3,0.3l0,0l0,0.1c0.1,0.1,0.2,0.3,0.2,0.4l0.2,0.3
		c0.1,0.1,0.1,0.2,0.2,0.4c0.1,0.2,0.1,0.4,0.2,0.5l0.1,0.3c0.1,0.2,0.1,0.4,0.1,0.5c0,0.1,0,0.2,0.1,0.4l0,0.3c0,0.2,0,0.3,0,0.5
		l0,0l0,0.2v150c0,0.1,0,0.3,0,0.4l0,0.2c0,0.2,0,0.4-0.1,0.6c0,0.1-0.1,0.3-0.1,0.4l-0.1,0.3c0,0.2-0.1,0.3-0.1,0.5
		c-0.1,0.2-0.2,0.4-0.3,0.6l-0.1,0.1c-0.1,0.2-0.2,0.4-0.3,0.5c-0.1,0.2-0.3,0.4-0.5,0.6c0,0,0,0.1-0.1,0.1l-0.1,0.2l-0.2,0.2
		c-0.2,0.2-0.4,0.4-0.7,0.6c-0.1,0.1-0.2,0.1-0.2,0.2c-0.4,0.3-0.8,0.5-1.2,0.6l-0.3,0.1c-0.3,0.1-0.6,0.2-0.9,0.3
		c-0.4,0.1-0.8,0.1-1.2,0.1l0,0H56.2z M227.5,218.5l-58.3-55.6c-5.6,4-12.2,6.1-19.2,6.1c-7,0-13.6-2.1-19.2-6.1l-58.3,55.6H227.5z
		 M237.2,209.8V91.4l-58.7,62.5L237.2,209.8z M62.8,209.8l58.7-55.9L62.8,91.4V209.8z M135.4,149.8c3.8,4,9,6.3,14.6,6.3
		c5.6,0,10.8-2.3,14.7-6.3l64-68.2H71.3L135.4,149.8L135.4,149.8z"/>
	<path class="st1" d="M243.7,70c0.1,0,0.2,0,0.4,0c0.2,0,0.4,0,0.6,0.1c0.1,0,0.3,0.1,0.5,0.1c0.2,0,0.3,0.1,0.5,0.1
		c0.2,0.1,0.3,0.1,0.5,0.2c0.1,0.1,0.3,0.1,0.4,0.2c0.2,0.1,0.3,0.2,0.5,0.3c0.1,0.1,0.2,0.1,0.3,0.2c0,0,0,0,0,0.1
		c0.1,0.1,0.3,0.3,0.4,0.5c0.1,0.1,0.2,0.2,0.3,0.3c0.1,0.2,0.2,0.3,0.3,0.5c0.1,0.1,0.1,0.3,0.2,0.4c0.1,0.1,0.1,0.3,0.1,0.5
		c0.1,0.2,0.1,0.3,0.1,0.5c0,0.1,0,0.3,0.1,0.4c0,0.2,0.1,0.4,0.1,0.6c0,0,0,0.1,0,0.1v150c0,0.1,0,0.2,0,0.3c0,0.2,0,0.4-0.1,0.6
		c0,0.2-0.1,0.3-0.1,0.5c-0.1,0.2-0.1,0.3-0.2,0.5c-0.1,0.2-0.2,0.3-0.2,0.4c-0.1,0.1-0.1,0.3-0.2,0.4c-0.1,0.2-0.2,0.3-0.4,0.5
		c-0.1,0.1-0.1,0.2-0.2,0.3c0,0,0,0,0,0c-0.2,0.2-0.4,0.3-0.6,0.5c-0.1,0.1-0.1,0.1-0.2,0.2c-0.3,0.2-0.6,0.3-0.9,0.5
		c-0.1,0-0.2,0-0.2,0.1c-0.2,0.1-0.5,0.2-0.7,0.2c-0.3,0.1-0.6,0.1-0.9,0.1H56.2c-0.3,0-0.6,0-0.9-0.1c-0.2-0.1-0.5-0.1-0.7-0.2
		c-0.1,0-0.2-0.1-0.2-0.1c-0.3-0.1-0.6-0.3-0.9-0.5c-0.1,0-0.1-0.1-0.2-0.2c-0.2-0.1-0.4-0.3-0.6-0.5c0,0,0,0,0,0
		c-0.1-0.1-0.1-0.2-0.2-0.3c-0.1-0.1-0.2-0.3-0.4-0.5c-0.1-0.1-0.2-0.3-0.2-0.4c-0.1-0.2-0.2-0.3-0.2-0.4c-0.1-0.2-0.1-0.3-0.2-0.5
		c0-0.1-0.1-0.3-0.1-0.5c0-0.2,0-0.4-0.1-0.6c0-0.1,0-0.2,0-0.3V75c0,0,0-0.1,0-0.1c0-0.2,0-0.4,0-0.6c0-0.1,0-0.3,0.1-0.4
		c0-0.2,0.1-0.3,0.1-0.5c0-0.2,0.1-0.3,0.1-0.5c0.1-0.1,0.1-0.3,0.2-0.4c0.1-0.2,0.2-0.3,0.3-0.5c0.1-0.1,0.2-0.2,0.3-0.3
		c0.1-0.2,0.2-0.3,0.4-0.5c0,0,0,0,0-0.1c0.1-0.1,0.2-0.1,0.3-0.2c0.1-0.1,0.3-0.2,0.5-0.4c0.1-0.1,0.3-0.1,0.4-0.2
		c0.2-0.1,0.3-0.2,0.5-0.2c0.2-0.1,0.3-0.1,0.5-0.1c0.2,0,0.3-0.1,0.5-0.1c0.2,0,0.4-0.1,0.6-0.1c0.1,0,0.2,0,0.3,0H243.7
		 M150,157.5c6,0,11.6-2.4,15.8-6.8L232.2,80H67.8l66.4,70.7l0,0C138.4,155.1,144,157.5,150,157.5 M238.7,213.3V87.6l-62.3,66.3
		L238.7,213.3 M61.3,213.3l62.3-59.4L61.3,87.6V213.3 M150,167.5c-7.1,0-13.8-2.3-19.3-6.6l-61.9,59h162.5l-61.9-59
		C163.8,165.2,157.1,167.5,150,167.5 M243.7,67H56.3c-0.3,0-0.5,0-0.6,0c-0.2,0-0.6,0-0.9,0.1c-0.2,0-0.3,0.1-0.5,0.1l-0.1,0
		c-0.2,0-0.5,0.1-0.8,0.3c-0.3,0.1-0.5,0.2-0.7,0.3l0,0l0,0c-0.1,0.1-0.4,0.2-0.7,0.4c-0.3,0.2-0.5,0.3-0.6,0.5
		c-0.1,0.1-0.3,0.2-0.6,0.5c0,0-0.1,0.1-0.1,0.2c-0.2,0.2-0.4,0.4-0.5,0.6c-0.1,0.1-0.2,0.2-0.3,0.3l-0.1,0.1l-0.1,0.1
		c-0.1,0.2-0.2,0.4-0.3,0.5l0,0.1l0,0.1l0,0l0,0.1c-0.1,0.2-0.2,0.3-0.2,0.5l0,0.1l0,0.1c-0.1,0.2-0.1,0.3-0.2,0.5l0,0.1l0,0l0,0
		l0,0.1c-0.1,0.2-0.1,0.4-0.2,0.7c0,0.2-0.1,0.3-0.1,0.5l0,0.1l0,0.1l0,0.1l0,0.1c0,0.1,0,0.3,0,0.6c0,0.1,0,0.2,0,0.3v150
		c0,0.3,0,0.5,0,0.6l0,0.1c0,0.2,0,0.4,0.1,0.8c0.1,0.3,0.1,0.5,0.2,0.6l0,0.1l0,0.1c0.1,0.2,0.1,0.4,0.2,0.6l0,0.1l0,0.1
		c0.1,0.2,0.2,0.4,0.3,0.6l0,0l0,0c0.1,0.2,0.2,0.4,0.4,0.7c0.1,0.2,0.3,0.4,0.5,0.6c0,0,0,0,0,0l0.2,0.3l0.4,0.3
		c0.2,0.2,0.5,0.4,0.7,0.6c0.1,0.1,0.2,0.2,0.3,0.2l0,0l0,0c0.4,0.3,0.9,0.5,1.4,0.7l0.1,0l0.1,0c0.1,0,0.2,0.1,0.3,0.1l0,0l0,0
		c0.3,0.1,0.7,0.2,1.1,0.3c0.5,0.1,0.9,0.1,1.4,0.2l0,0h0h187.6h0l0,0c0.5,0,1-0.1,1.4-0.2c0.5-0.1,0.8-0.2,1.1-0.3l0,0
		c0.1,0,0.2-0.1,0.3-0.1l0.1,0l0.1,0c0.5-0.2,0.9-0.4,1.4-0.7l0,0l0,0c0.1-0.1,0.2-0.1,0.3-0.2c0.3-0.2,0.5-0.4,0.8-0.7
		c0.1-0.1,0.2-0.2,0.3-0.3c0.1-0.1,0.2-0.3,0.3-0.4c0.2-0.2,0.3-0.4,0.5-0.6c0.2-0.3,0.3-0.5,0.4-0.7l0,0l0,0
		c0.1-0.2,0.2-0.4,0.3-0.6l0-0.1l0-0.1c0.1-0.2,0.1-0.4,0.2-0.6l0-0.1l0,0l0,0l0-0.1c0.1-0.2,0.1-0.4,0.1-0.6
		c0.1-0.3,0.1-0.6,0.1-0.8l0-0.1c0-0.2,0-0.4,0-0.6V75v-0.3l0-0.1c0-0.2,0-0.3,0-0.5l0-0.1l0-0.1l0-0.1l0-0.1c0-0.2,0-0.4-0.1-0.5
		c-0.1-0.3-0.1-0.5-0.2-0.7l0-0.1l0,0l0,0l0-0.1c-0.1-0.2-0.1-0.3-0.2-0.5l0-0.1l0-0.1c-0.1-0.2-0.2-0.3-0.2-0.5l0-0.1l0-0.1l0-0.1
		l0-0.1c-0.1-0.2-0.2-0.4-0.3-0.5l-0.1-0.1l-0.1-0.1c-0.1-0.1-0.2-0.2-0.3-0.3c-0.1-0.2-0.3-0.4-0.5-0.6c-0.1-0.1-0.1-0.1-0.1-0.2
		c-0.2-0.2-0.4-0.4-0.5-0.4l0,0l-0.1-0.1c-0.1-0.1-0.3-0.3-0.6-0.4c-0.3-0.2-0.5-0.3-0.7-0.4l0,0l0,0c-0.2-0.1-0.4-0.2-0.7-0.3
		c-0.4-0.2-0.7-0.2-0.9-0.3l0,0c-0.2-0.1-0.4-0.1-0.5-0.1c-0.3-0.1-0.6-0.1-0.7-0.1l-0.1,0l0,0l-0.1,0C244.1,67,243.9,67,243.7,67
		L243.7,67z M74.8,83h150.5l-61.7,65.7c-3.6,3.8-8.4,5.9-13.6,5.9c-5.1,0-9.9-2-13.4-5.7l-0.2-0.2L74.8,83L74.8,83z M180.7,153.8
		l55.1-58.6v111.1L180.7,153.8L180.7,153.8z M64.3,206.3V95.2l55.1,58.6L64.3,206.3L64.3,206.3z M150,170.5c6.9,0,13.4-2,19-5.7
		l54.7,52.2H76.3l54.7-52.2C136.6,168.6,143.1,170.5,150,170.5L150,170.5z"/>
</g>
</svg>
