<svg viewBox="0 0 300 300" xmlns="http://www.w3.org/2000/svg"><g fill="#ff3b3f"><path d="m295 188.63h-35.08a9.94 9.94 0 0 0 -3-5.83h20.11a10 10 0 0 0 10-10v-162.8a10 10 0 0 0 -10-10h-254.34a10 10 0 0 0 -10 10v162.8a10 10 0 0 0 10 10h74.6v5.83h-92.29a5 5 0 0 0 0 10h92.29v59.84a10 10 0 0 0 10 10h82.35v21.53a10 10 0 0 0 10 10h50.36a10 10 0 0 0 10-10v-91.37h35a5 5 0 0 0 0-10zm-272.31-15.83v-162.8h254.37v162.8h-53v-64.33a10 10 0 0 0 -10-10h-106.77a10 10 0 0 0 -10 10v64.33zm167 85.67h-82.4v-150h106.79v71.53h-14.44a10 10 0 0 0 -9.9 8.63 8.84 8.84 0 0 0 -.1 1.37v68.47zm60.31 31.53h-50.36v-100h50.36z"/><circle cx="160.68" cy="245.57" r="5.57"/></g></svg>