<?xml version="1.0" encoding="utf-8"?>
<!-- Generator: Adobe Illustrator 24.2.3, SVG Export Plug-In . SVG Version: 6.00 Build 0)  -->
<svg version="1.1" id="Layer_1" xmlns="http://www.w3.org/2000/svg" xmlns:xlink="http://www.w3.org/1999/xlink" x="0px" y="0px"
	 viewBox="0 0 300 300" style="enable-background:new 0 0 300 300;" xml:space="preserve">
<style type="text/css">
	.st0{fill:#CE202F;}
	.st1{fill:#FFFFFF;}
</style>
<circle class="st0" cx="150" cy="150" r="150"/>
<path class="st1" d="M215.5,85.3c-1,0-2,0.3-2.9,1l-16.3,12.3L150,133.4l-46.3-34.9L87.4,86.2c-0.8-0.6-1.8-1-2.9-1h0
	c-11.2,0-20.2,9.1-20.2,20.2v12.7v84.2c0,6.8,5.5,12.4,12.4,12.4h27.1v-66.8l45.6,34.4c0.4,0.3,0.9,0.3,1.2,0l45.7-34.4v66.8h27.1
	c6.8,0,12.4-5.5,12.4-12.4v-84.2v-12.7C235.7,94.3,226.6,85.3,215.5,85.3L215.5,85.3z"/>
</svg>
