<svg viewBox="0 0 300 300" xmlns="http://www.w3.org/2000/svg"><g fill="#ff3b3f"><path d="m217.61 24.32a5 5 0 0 1 -2.38-.6c-41.37-22.4-88.43-10.49-88.9-10.36a5 5 0 0 1 -2.54-9.67c2.07-.54 51.27-13.08 96.2 11.24a5 5 0 0 1 -2.38 9.4z"/><path d="m258.23 74.73a5 5 0 0 1 -3.31-1.25c-35.6-31.48-76.2-45.34-120.65-41.21-33.15 3.08-55.92 15.48-56.14 15.6a5 5 0 0 1 -4.83-8.75c1-.55 24.84-13.53 60.05-16.8 32.53-3 81.18 2.1 128.2 43.67a5 5 0 0 1 -3.31 8.75z"/><path d="m266.46 130.8a5 5 0 0 1 -4.44-2.69c-.3-.58-31.13-58.32-91.79-72s-118.69 29.51-119.23 29.95a5 5 0 1 1 -6-8c.63-.48 15.69-11.81 38.89-21.47 21.55-9 54.41-18 88.63-10.29 65.27 14.74 97.13 74.61 98.45 77.15a5 5 0 0 1 -4.43 7.31z"/><path d="m255.66 206.41a5 5 0 0 1 -5-4.93 171 171 0 0 0 -11.1-52.5c-14-36.3-38.15-60-71.75-70.36-69.29-21.42-126.56 56.52-127.13 57.31a5 5 0 0 1 -8.11-5.85 198.6 198.6 0 0 1 39.85-39.2c32.7-24 66.7-31.58 98.33-21.8 36.25 11.2 63.33 37.7 78.25 76.61a177.86 177.86 0 0 1 11.65 55.65 5 5 0 0 1 -4.93 5.07z"/><path d="m169.28 300a5 5 0 0 1 -3.11-8.91c33-26.21 42.94-62.61 46.69-76.31.38-1.4.71-2.58 1-3.51 1.23-4.11 5.13-23.89 1.7-45.71-4.26-27.1-17.62-46.44-39.72-57.48-18-9-36.44-10.27-54.86-3.81-26.74 9.42-45.84 32.73-51.6 45.25-.22.49-.42 1-.61 1.48-1.77 4.54-11.63 28.08-31.87 46.4a5 5 0 1 1 -6.71-7.4c18.58-16.82 27.63-38.46 29.26-42.62.27-.68.54-1.36.85-2 6.7-14.54 27.5-40 57.36-50.48 21.06-7.4 42.14-6 62.64 4.3 56 28 48.27 97.84 43.13 115-.26.87-.56 2-.92 3.28-4 14.56-14.58 53.25-50.12 81.5a5 5 0 0 1 -3.11 1.02z"/><path d="m103.47 299a5 5 0 0 1 -1.78-9.68c49.61-18.86 74.82-64.72 80.34-80.8 2.8-8.14 7.38-24.21 6.68-40.32-.83-19-8.85-32.12-23.83-39-13.15-6-25.58-6.16-37-.43-16 8.06-29 27.61-34 51-8.23 39-56.91 54.06-59 54.68a5 5 0 0 1 -2.89-9.57c.45-.14 45.08-14 52.08-47.17 5.55-26.3 20.59-48.47 39.24-57.87 14-7.07 29.8-7 45.62.27 43.24 19.79 28.11 75.15 22.44 91.64-5.95 17.31-33 66.67-86.24 86.89a5 5 0 0 1 -1.66.36z"/><path d="m70.79 280.74a5 5 0 0 1 -1.55-9.74c33.7-11 77.11-39.09 88.5-81.94 4.78-18 3.81-33.61-2.55-40.77-2.75-3.1-6.44-4.36-10.94-3.72-11.4 1.61-15.23 8.28-17.82 31-2.87 25.21-12.69 42.85-30.91 55.51-21.43 14.92-44.82 23.87-45.8 24.24a5 5 0 0 1 -3.55-9.32c.23-.09 23.26-8.92 43.65-23.09 15.9-11.05 24.13-26 26.68-48.43 2.28-20.05 5.84-36.89 26.35-39.79 7.8-1.11 14.84 1.38 19.82 7 8.81 9.93 10.53 28.14 4.73 50-4.65 17.48-15.62 35.44-30.91 50.57-17.1 16.93-39.28 30.17-64.14 38.3a5 5 0 0 1 -1.56.18z"/><path d="m120 233.25a3.89 3.89 0 0 1 -2.64-6.74c22.58-20.82 24.84-68.82 24.86-69.3a3.89 3.89 0 0 1 7.77.32c-.09 2.1-2.41 51.69-27.36 74.7a3.87 3.87 0 0 1 -2.63 1.02z"/></g></svg>