<svg viewBox="0 0 300 300" xmlns="http://www.w3.org/2000/svg"><circle cx="150" cy="150" fill="#fff" r="150"/><path d="m82.72 98.52a14 14 0 0 1 4.55-10.72q4.55-4.22 11.82-4.22t11.56 4.16a14.65 14.65 0 0 1 4.55 11.17 13.68 13.68 0 0 1 -4.42 10.39q-4.55 4.29-11.95 4.29h-.13q-7.14 0-11.56-4.29a14.39 14.39 0 0 1 -4.42-10.78zm1.69 113.65v-86.77h28.83v86.76zm44.81 0h28.83v-48.45a16.91 16.91 0 0 1 6.56-14.48 14.11 14.11 0 0 1 9.29-3.05q14.55 0 14.55 19.61v46.37h28.83v-49.75q0-19.22-9.09-29.16t-24-9.94q-16.75 0-26.11 14.42v.26h-.13l.13-.26v-12.34h-28.86q.26 4.16.26 25.85t-.26 60.91z"/></svg>