<?xml version="1.0" encoding="utf-8"?>
<!-- Generator: Adobe Illustrator 20.0.0, SVG Export Plug-In . SVG Version: 6.00 Build 0)  -->
<svg version="1.1" id="Layer_1" xmlns="http://www.w3.org/2000/svg" xmlns:xlink="http://www.w3.org/1999/xlink" x="0px" y="0px"
	 width="504px" height="504px" viewBox="0 0 504 504" style="enable-background:new 0 0 504 504;" xml:space="preserve">
<style type="text/css">
	.st0{fill:#70648D;}
	.st1{fill:#16BAA7;}
</style>
<circle class="st0" cx="252" cy="252" r="252"/>
<g>
	<path class="st1" d="M391.1,271.7h-16.8c-25.4,0-46-20.7-46-46v-71c0-31.4-25.6-57-57-57h-38.8c-29.8,0-54,24.2-54,54
		c0,28-22.8,50.7-50.7,50.7H108c-3.6,0-6.4-2.9-6.4-6.4s2.9-6.4,6.4-6.4h19.7c20.9,0,37.8-17,37.8-37.8c0-36.9,30-66.9,66.9-66.9
		h38.8c38.5,0,69.9,31.4,69.9,69.9v71c0,18.3,14.9,33.1,33.1,33.1H391c3.6,0,6.4,2.9,6.4,6.4C397.5,268.8,394.7,271.7,391.1,271.7z"
		/>
	<path class="st1" d="M262.5,347.1H240c-29.3,0-53.2-23.9-53.2-53.2V165c0-29.3,23.9-53.2,53.2-53.2h22.5
		c29.3,0,53.2,23.9,53.2,53.2v128.9C315.7,323.2,291.9,347.1,262.5,347.1z M240,124.7c-22.2,0-40.3,18.1-40.3,40.3v128.9
		c0,22.2,18.1,40.3,40.3,40.3h22.5c22.2,0,40.3-18.1,40.3-40.3V165c0-22.2-18.1-40.3-40.3-40.3H240z"/>
	<path class="st1" d="M251.3,308.4c-22.1,0-40.1-18-40.1-40.1v-76.2c0-22.1,18-40.1,40.1-40.1s40.1,18,40.1,40.1v76.2
		C291.4,290.4,273.4,308.4,251.3,308.4z M251.3,165c-15,0-27.2,12.2-27.2,27.2v76.2c0,15,12.2,27.2,27.2,27.2
		c15,0,27.2-12.2,27.2-27.2v-76.2C278.5,177.2,266.3,165,251.3,165z"/>
	<path class="st1" d="M384.6,331.4c-41.8,0-61.8-35.4-62.7-36.9c-1.7-3.1-0.6-7,2.5-8.8c3.1-1.7,7-0.6,8.8,2.5
		c0.7,1.3,17.3,30.3,51.4,30.3c3.6,0,6.4,2.9,6.4,6.4C391.1,328.5,388.2,331.4,384.6,331.4z"/>
	<path class="st1" d="M386.4,213.7c-27.7,0-41-23.5-41.5-24.5c-1.7-3.1-0.6-7,2.5-8.8c3.1-1.7,7-0.6,8.7,2.5
		c0.4,0.8,10.3,17.8,30.2,17.8c3.6,0,6.4,2.9,6.4,6.4C392.9,210.8,390,213.7,386.4,213.7z"/>
	<path class="st1" d="M386.4,247.3c-27.7,0-41-23.5-41.5-24.5c-1.7-3.1-0.6-7,2.5-8.8c3.1-1.7,7-0.6,8.7,2.5
		c0.4,0.8,10.3,17.8,30.2,17.8c3.6,0,6.4,2.9,6.4,6.4C392.9,244.4,390,247.3,386.4,247.3z"/>
	<path class="st1" d="M113.8,247.3c-3.6,0-6.4-2.9-6.4-6.4c0-3.6,2.9-6.4,6.4-6.4c34.3,0,51.2-30,51.4-30.3c1.7-3.1,5.6-4.3,8.8-2.5
		c3.1,1.7,4.3,5.6,2.5,8.8C175.7,211.9,155.7,247.3,113.8,247.3z"/>
	<path class="st1" d="M113.8,288.5c-3.6,0-6.4-2.9-6.4-6.4s2.9-6.4,6.4-6.4c34.1,0,50.7-29,51.4-30.3c1.7-3.1,5.7-4.2,8.8-2.5
		s4.2,5.6,2.5,8.7C175.7,253,155.7,288.5,113.8,288.5z"/>
	<path class="st1" d="M113.8,329.6c-3.6,0-6.4-2.9-6.4-6.4c0-3.6,2.9-6.4,6.4-6.4c34.1,0,50.7-29,51.4-30.3c1.7-3.1,5.7-4.2,8.8-2.5
		s4.2,5.6,2.5,8.7C175.7,294.2,155.7,329.6,113.8,329.6z"/>
	<path class="st1" d="M256.7,384.1H246c-22.2,0-43.9-4.3-64.5-12.8l-4.1-1.7c-19.5-8.1-40.1-12.2-61.3-12.2h-2.3
		c-3.6,0-6.4-2.9-6.4-6.4c0-3.6,2.9-6.4,6.4-6.4h2.3c22.8,0,45.1,4.4,66.2,13.2l4.1,1.7c19,7.9,39,11.8,59.6,11.8h10.7
		c20.5,0,40.6-4,59.6-11.8l4.1-1.7c21.1-8.7,43.4-13.2,66.2-13.2h2.3c3.6,0,6.4,2.9,6.4,6.4c0,3.6-2.9,6.4-6.4,6.4h-2.3
		c-21.1,0-41.7,4.1-61.3,12.2l-4.1,1.7C300.6,379.8,278.9,384.1,256.7,384.1z"/>
	<path class="st1" d="M255.7,426.2h-8.9c-18.7,0-36.9-4.4-54.1-13l-3.4-1.7c-15.9-7.9-32.6-12-49.8-12h-1.9c-3.6,0-6.4-2.9-6.4-6.4
		c0-3.6,2.9-6.4,6.4-6.4h1.9c19.2,0,37.9,4.5,55.6,13.3l3.4,1.7c15.4,7.7,31.7,11.6,48.4,11.6h8.9c16.7,0,32.9-3.9,48.4-11.6
		l3.4-1.7c17.7-8.9,36.4-13.3,55.6-13.3h1.9c3.6,0,6.4,2.9,6.4,6.4c0,3.6-2.9,6.4-6.4,6.4H363c-17.2,0-33.9,4-49.8,12l-3.4,1.7
		C292.6,421.9,274.4,426.2,255.7,426.2z"/>
	<path class="st1" d="M254.5,468.3h-6.4c-14.1,0-27.8-4.5-40.6-13.5l-2.4-1.7c-11-7.6-22.5-11.5-34.3-11.5h-1.4
		c-3.6,0-6.4-2.9-6.4-6.4s2.9-6.4,6.4-6.4h1.4c14.4,0,28.4,4.6,41.6,13.8l2.4,1.7c10.7,7.4,21.9,11.2,33.3,11.2h6.4
		c11.4,0,22.6-3.8,33.3-11.2l2.4-1.7c13.2-9.2,27.2-13.8,41.6-13.8h1.4c3.6,0,6.4,2.9,6.4,6.4s-2.9,6.4-6.4,6.4h-1.4
		c-11.8,0-23.3,3.9-34.3,11.5l-2.4,1.7C282.2,463.8,268.6,468.3,254.5,468.3z"/>
	<path class="st1" d="M372.8,178.6c-3.2,0-6-2.4-6.4-5.8c0-0.3-3.7-32-20.2-63c-21.6-40.6-54.1-61.3-96.7-61.3s-75,20.6-96.5,61.2
		c-16.4,31-19.9,62.7-19.9,63c-0.4,3.5-3.5,6.1-7.1,5.7c-3.5-0.4-6.1-3.5-5.7-7.1c0.1-1.4,3.7-34.1,21.1-67.3
		c23.5-44.8,60.9-68.5,108.1-68.5s84.6,23.7,108.3,68.4c17.5,33.2,21.3,65.9,21.4,67.3c0.4,3.5-2.2,6.7-5.7,7.1
		C373.3,178.6,373,178.6,372.8,178.6z"/>
	<path class="st1" d="M249.5,284.5c-3.6,0-6.4-2.9-6.4-6.4v-91.9c0-3.6,2.9-6.4,6.4-6.4s6.4,2.9,6.4,6.4V278
		C256,281.6,253.1,284.5,249.5,284.5z"/>
</g>
</svg>
