<?xml version="1.0" encoding="utf-8"?>
<!-- Generator: Adobe Illustrator 24.2.3, SVG Export Plug-In . SVG Version: 6.00 Build 0)  -->
<svg version="1.1" id="Layer_1" xmlns="http://www.w3.org/2000/svg" xmlns:xlink="http://www.w3.org/1999/xlink" x="0px" y="0px"
	 viewBox="0 0 300 300" style="enable-background:new 0 0 300 300;" xml:space="preserve">
<style type="text/css">
	.st0{fill:#414042;}
</style>
<g>
	<path class="st0" d="M295,188.6h-35.1c-0.3-2.2-1.4-4.3-3-5.8H277c5.5,0,10-4.5,10-10V10c0-5.5-4.5-10-10-10H22.7
		c-5.5,0-10,4.5-10,10v162.8c0,5.5,4.5,10,10,10h74.6v5.8H5c-2.8,0-5,2.2-5,5s2.2,5,5,5h92.3v59.8c0,5.5,4.5,10,10,10h82.3V290
		c0,5.5,4.5,10,10,10H250c5.5,0,10-4.5,10-10v-91.4h35c2.8,0,5-2.2,5-5S297.8,188.6,295,188.6L295,188.6z M22.7,172.8V10h254.4
		v162.8h-53v-64.3c0-5.5-4.5-10-10-10H107.3c-5.5,0-10,4.5-10,10v64.3H22.7z M189.7,258.5h-82.4v-150h106.8V180h-14.4
		c-5,0-9.2,3.7-9.9,8.6c-0.1,0.5-0.1,0.9-0.1,1.4L189.7,258.5L189.7,258.5z M250,290h-50.4V190H250V290z"/>
	<circle class="st0" cx="160.7" cy="245.6" r="5.6"/>
</g>
</svg>
