<?xml version="1.0" encoding="utf-8"?>
<!-- Generator: Adobe Illustrator 24.2.3, SVG Export Plug-In . SVG Version: 6.00 Build 0)  -->
<svg version="1.1" id="Layer_1" xmlns="http://www.w3.org/2000/svg" xmlns:xlink="http://www.w3.org/1999/xlink" x="0px" y="0px"
	 viewBox="0 0 300 300" style="enable-background:new 0 0 300 300;" xml:space="preserve">
<style type="text/css">
	.st0{fill:#2D82B7;}
</style>
<g>
	<path class="st0" d="M217.6,24.3c-0.8,0-1.6-0.2-2.4-0.6c-41.4-22.4-88.4-10.5-88.9-10.4c-2.7,0.6-5.4-1-6-3.7
		c-0.6-2.6,0.9-5.3,3.5-6c2.1-0.5,51.3-13.1,96.2,11.2c2.4,1.3,3.3,4.3,2,6.8C221.1,23.3,219.4,24.3,217.6,24.3L217.6,24.3z"/>
	<path class="st0" d="M258.2,74.7c-1.2,0-2.4-0.4-3.3-1.2C219.3,42,178.7,28.1,134.3,32.3c-33.2,3.1-55.9,15.5-56.1,15.6
		c-2.5,1.3-5.5,0.3-6.7-2.2c-1.2-2.3-0.4-5.2,1.9-6.6c1-0.5,24.8-13.5,60.1-16.8c32.5-3,81.2,2.1,128.2,43.7c2.1,1.8,2.3,5,0.4,7.1
		C261,74.1,259.7,74.7,258.2,74.7L258.2,74.7z"/>
	<path class="st0" d="M266.5,130.8c-1.9,0-3.6-1-4.4-2.7c-0.3-0.6-31.1-58.3-91.8-72S51.5,85.6,51,86.1c-2.2,1.7-5.3,1.2-7-1
		s-1.2-5.3,1-7c0.6-0.5,15.7-11.8,38.9-21.5c21.5-9,54.4-18,88.6-10.3c65.3,14.7,97.1,74.6,98.4,77.2c1.3,2.4,0.3,5.5-2.1,6.7
		C268.1,130.6,267.3,130.8,266.5,130.8L266.5,130.8z"/>
	<path class="st0" d="M255.7,206.4c-2.7,0-5-2.2-5-4.9c-0.9-18-4.7-35.7-11.1-52.5c-14-36.3-38.1-60-71.8-70.4
		C98.5,57.2,41.2,135.1,40.7,135.9c-1.6,2.2-4.8,2.7-7,1.1c-2.2-1.6-2.7-4.7-1.1-6.9c11.4-14.9,24.8-28.1,39.8-39.2
		c32.7-24,66.7-31.6,98.3-21.8c36.2,11.2,63.3,37.7,78.2,76.6c6.8,17.8,10.8,36.6,11.6,55.6C260.7,204.1,258.5,206.4,255.7,206.4
		C255.7,206.4,255.7,206.4,255.7,206.4L255.7,206.4z"/>
	<path class="st0" d="M169.3,300c-2.8,0-5-2.2-5-5c0-1.5,0.7-3,1.9-3.9c33-26.2,42.9-62.6,46.7-76.3c0.4-1.4,0.7-2.6,1-3.5
		c1.2-4.1,5.1-23.9,1.7-45.7c-4.3-27.1-17.6-46.4-39.7-57.5c-18-9-36.4-10.3-54.9-3.8c-26.7,9.4-45.8,32.7-51.6,45.2
		c-0.2,0.5-0.4,1-0.6,1.5c-1.8,4.5-11.6,28.1-31.9,46.4c-2,1.9-5.1,1.9-7.1,0s-1.9-5.1,0-7.1c0.1-0.1,0.2-0.2,0.3-0.3
		c18.6-16.8,27.6-38.5,29.3-42.6c0.3-0.7,0.5-1.4,0.8-2c6.7-14.5,27.5-40,57.4-50.5c21.1-7.4,42.1-6,62.6,4.3
		c56,28,48.3,97.8,43.1,115c-0.3,0.9-0.6,2-0.9,3.3c-4,14.6-14.6,53.2-50.1,81.5C171.5,299.7,170.4,300,169.3,300z"/>
	<path class="st0" d="M103.5,299c-2.8,0-5-2.2-5-5c0-2.1,1.3-4,3.2-4.7c49.6-18.9,74.8-64.7,80.3-80.8c2.8-8.1,7.4-24.2,6.7-40.3
		c-0.8-19-8.9-32.1-23.8-39c-13.1-6-25.6-6.2-37-0.4c-16,8.1-29,27.6-34,51c-8.2,39-56.9,54.1-59,54.7c-2.7,0.7-5.4-0.8-6.1-3.5
		c-0.7-2.6,0.7-5.2,3.3-6.1c0.5-0.1,45.1-14,52.1-47.2c5.6-26.3,20.6-48.5,39.2-57.9c14-7.1,29.8-7,45.6,0.3
		c43.2,19.8,28.1,75.2,22.4,91.6c-5.9,17.3-33,66.7-86.2,86.9C104.6,298.9,104,299,103.5,299z"/>
	<path class="st0" d="M70.8,280.7c-2.8,0-5-2.3-5-5c0-2.1,1.4-4,3.4-4.7c33.7-11,77.1-39.1,88.5-81.9c4.8-18,3.8-33.6-2.6-40.8
		c-2.8-3.1-6.4-4.4-10.9-3.7c-11.4,1.6-15.2,8.3-17.8,31c-2.9,25.2-12.7,42.8-30.9,55.5c-21.4,14.9-44.8,23.9-45.8,24.2
		c-2.6,0.8-5.4-0.7-6.2-3.4c-0.7-2.4,0.4-4.9,2.7-6c0.2-0.1,23.3-8.9,43.7-23.1c15.9-11.1,24.1-26,26.7-48.4
		c2.3-20.1,5.8-36.9,26.3-39.8c7.8-1.1,14.8,1.4,19.8,7c8.8,9.9,10.5,28.1,4.7,50c-4.6,17.5-15.6,35.4-30.9,50.6
		c-17.1,16.9-39.3,30.2-64.1,38.3C71.8,280.7,71.3,280.8,70.8,280.7L70.8,280.7z"/>
	<path class="st0" d="M120,233.2c-2.1,0-3.9-1.7-3.9-3.9c0-1.1,0.5-2.1,1.2-2.8c22.6-20.8,24.8-68.8,24.9-69.3
		c0.2-2.1,2-3.8,4.2-3.6c2.1,0.1,3.6,1.9,3.6,3.9c-0.1,2.1-2.4,51.7-27.4,74.7C121.9,232.9,121,233.3,120,233.2z"/>
</g>
</svg>
