<svg viewBox="0 0 300 300" xmlns="http://www.w3.org/2000/svg"><circle cx="150" cy="150" fill="#fff" r="150"/><path d="m246.36 153.87c-3.17 0-10.93 6.26-17.11 12.44 1.32-2.49 4.07-6.93 5.16-9.2.34-.68.34-.83.34-1 0-1.43-2.6-2.68-5-2.68a3.84 3.84 0 0 0 -3.5 1.58c-.94 1.55-1.81 3.09-2.64 4.56-3.84 2.86-10.21 7.42-16.39 9.53 1.09-4.18 4.75-10.85 4.75-12.93 0-1.66-2.83-2.34-4.41-2.34a3.58 3.58 0 0 0 -3.17 1.58 30 30 0 0 0 -2.26 4.3c-3.77 2.86-9.76 7.27-15.68 9.57a16 16 0 0 1 -5.16 1.09c-1.73 0-3.35-.41-4.07-1.66 6.11-1.32 13.42-4.75 13.42-10 0-3.24-2.49-5.09-6.86-5.09-5.92 0-13.45 4.82-15.23 10.82a6 6 0 0 0 -1 .45 44.33 44.33 0 0 1 -6.26 2.45 72 72 0 0 1 -8.18 2 86.08 86.08 0 0 1 -9.27 1.24 71.51 71.51 0 0 1 -9.38.15c-2.22-.23-3.5-.75-3.88-1.58a2.13 2.13 0 0 1 .53-2 24.23 24.23 0 0 1 2.22-2.49c2.56-2.64 8.59-9.5 12.17-12.74 3.32-3 6.69-6 10.13-9.12 23.46-.74 45.09.12 48.58 1.21 6.67 2.07 9.38-1.09 7.84-5.16s-8.93-4.67-8.93-4.67c-14-.22-26.81 0-38.48.59l2.72-2.4c3.58-3.13 6.67-6 9.35-8.48a17 17 0 0 0 4.26-6.14 7.76 7.76 0 0 0 .15-5.8 7.28 7.28 0 0 0 -3.43-3.66 13 13 0 0 0 -6.82-1.13q-11.25.23-21 1.36a152 152 0 0 0 -18.87 3.29 11.81 11.81 0 0 0 -4.79 2.37 5.11 5.11 0 0 0 -1.7 3.13 4.47 4.47 0 0 0 .68 2.79 3.82 3.82 0 0 0 2 1.77 3 3 0 0 0 2.68-.26 15.58 15.58 0 0 1 3.09-1.36c5.62-1.28 11-2.26 16.32-2.94s11-1.17 17.22-1.47q2.26 0 2.83 1a1.49 1.49 0 0 1 0 1.58 7.09 7.09 0 0 1 -1.36 1.81c-3 2.64-6.26 5.5-9.69 8.52-2.52 2.21-5 4.5-7.59 6.82a408.23 408.23 0 0 0 -45.54 5.72c0-.27-.08-.5-.12-.67-1-4.33-3.47-28.64-5.65-33.43s-7.2-9-12.32-3.84-13.42 23.31-16.06 30.43-8.78 30.3-9.53 34.6-2.45.11-2.6-1.85-.49-5.39-3.28-4.79-6.82 2.37-4.86 8.48 2.9 18 6.71 18.88 6.44-.26 7.46-9.46c1-9 12.51-53.29 24.38-66.74a.63.63 0 0 1 1.09.23 167.62 167.62 0 0 1 5.47 30.15c-2.29.54-4.16 1-5.59 1.47-11.53 3.43-17.18 7.65-17.34 10.78s1 3.61 23.38-4.54l2.14 40.76c.08 1.13 0 2.22 0 3.35 0 1.51.38 4.22 4.07 3.88 5.09-.45 6.86-3.17 6.33-7.57-.44-3.46-1.93-30-3-43.45 9.62-2.32 22.78-3.75 36.37-4.56l-4.74 4.41c-3.5 3.28-9.72 10.36-12.85 13.45a21 21 0 0 0 -4.6 6.37 7.68 7.68 0 0 0 -.53 5.46c1.06 3.35 4.75 5.35 11 6a61.73 61.73 0 0 0 10.63.23 96.71 96.71 0 0 0 11.15-1.32 99.71 99.71 0 0 0 10.36-2.37 72.34 72.34 0 0 0 7.54-2.64c1.7 1.85 4.45 2.6 8 2.6 6.48 0 13-3.32 20.65-8.44a14.82 14.82 0 0 0 -1.21 4.79c0 2.49 1.17 3.66 3.24 3.66 4.37 0 11.16-3.32 19-8.4a18.21 18.21 0 0 0 -1.73 5.8c0 1.43 2.9 2.9 4.33 2.9 2.34 0 10.36-8.86 16.62-13-.83 2.26-3.09 6.41-3.09 10.18 0 2.49 1.17 3.24 2.34 3.24 2.75 0 6.18-1.92 6.59-3.17.49-1.66-.49-2.68 2.19-8.1 1.92-3.84 2.75-5.69 2.75-7.91a3.77 3.77 0 0 0 -3.48-3.27zm-63.84 3.92a1.4 1.4 0 0 1 1.43 1.51c0 1.73-2 4.33-7 5.35.56-4.19 3.05-6.86 5.57-6.86z"/></svg>