<?xml version="1.0" encoding="utf-8"?>
<!-- Generator: Adobe Illustrator 20.0.0, SVG Export Plug-In . SVG Version: 6.00 Build 0)  -->
<svg version="1.1" id="Layer_1" xmlns="http://www.w3.org/2000/svg" xmlns:xlink="http://www.w3.org/1999/xlink" x="0px" y="0px"
	 width="504px" height="504px" viewBox="0 0 504 504" style="enable-background:new 0 0 504 504;" xml:space="preserve">
<style type="text/css">
	.st0{fill:#6CBBD7;}
	.st1{fill:#10222E;}
	.st2{fill:#BBEBF2;}
	.st3{fill:#E9E9E9;}
	.st4{fill:#79D3DF;}
	.st5{fill:#CDCDCD;}
	.st6{fill:#E9E9E9;stroke:#10222E;stroke-width:2;stroke-miterlimit:10;}
	.st7{fill:#E9E9E9;stroke:#10222E;stroke-width:1.5;stroke-miterlimit:10;}
	.st8{fill:#FFFFFF;}
	.st9{opacity:4.000000e-02;}
</style>
<circle class="st0" cx="252" cy="252" r="252"/>
<g>
	<path class="st1" d="M417.4,286.2H71.8V101.5c0-3.3,2.7-6,6-6h333.6c3.3,0,6,2.7,6,6V286.2z"/>
	<rect x="85.6" y="107.2" class="st2" width="318.4" height="165"/>
	<path class="st3" d="M413,337.1H76.3c-2.4,0-4.4-2-4.4-4.4v-46.4h345.6v46.4C417.4,335.1,415.4,337.1,413,337.1z"/>
	<circle class="st1" cx="244.6" cy="311.6" r="12.5"/>
	<circle class="st4" cx="244.6" cy="311.6" r="9.4"/>
	<rect x="197.2" y="382.7" class="st5" width="99" height="3.3"/>
	<rect x="211.2" y="337.1" class="st3" width="69.3" height="29.5"/>
	<path class="st3" d="M296.2,382.1v1h-99v-0.6c0.7,0.1,1.3,0.2,2,0.2c6.6,0,12-5.4,12-12v-4.1h69.3v4.1c0,6.6,5.4,12,12,12
		C293.8,382.7,295,382.5,296.2,382.1z"/>
	<rect x="211.2" y="337.1" class="st5" width="69.3" height="11"/>
	<path class="st6" d="M425.4,386H312.5c-3.2,0-5.8-2.6-5.8-5.8V228.3c0-3.2,2.6-5.8,5.8-5.8h112.9c3.2,0,5.8,2.6,5.8,5.8v151.9
		C431.2,383.4,428.6,386,425.4,386z"/>
	<rect x="319.4" y="235.5" class="st2" width="102.5" height="133.5"/>
	<circle class="st1" cx="370.3" cy="377.4" r="4.3"/>
	<circle class="st4" cx="370.3" cy="377.4" r="2.7"/>
	<path class="st7" d="M175.5,407.7h-39.1c-3,0-5.4-2.4-5.4-5.4V312c0-3,2.4-5.4,5.4-5.4h39.1c3,0,5.4,2.4,5.4,5.4v90.2
		C180.9,405.3,178.5,407.7,175.5,407.7z"/>
	<circle class="st1" cx="155.9" cy="400.2" r="4.4"/>
	<circle class="st4" cx="155.9" cy="400.2" r="2.9"/>
	<rect x="136.5" y="323.5" class="st2" width="39" height="69"/>
	<circle class="st8" cx="244.8" cy="100.7" r="2.3"/>
	<circle class="st8" cx="370.7" cy="229" r="2.3"/>
	<circle class="st8" cx="147.3" cy="315.1" r="2.3"/>
	<path class="st8" d="M154.6,313.6h11c0.8,0,1.5,0.7,1.5,1.5l0,0c0,0.8-0.7,1.5-1.5,1.5h-11c-0.8,0-1.5-0.7-1.5-1.5l0,0
		C153.1,314.3,153.8,313.6,154.6,313.6z"/>
</g>
<path class="st9" d="M430.2,430.2c-98.4,98.4-258,98.4-356.4,0L430.2,73.8C528.6,172.2,528.6,331.8,430.2,430.2z"/>
</svg>
