<svg viewBox="0 0 382 769.73" xmlns="http://www.w3.org/2000/svg"><path d="m209.08 419.81c5.29 45.19 28.06 197.19 100.76 268.19v29.1h180.32v-29.1c72.7-71.06 95.47-223 100.76-268.2a11.58 11.58 0 0 0 -11.5-12.93h-358.84a11.58 11.58 0 0 0 -11.5 12.94z" fill="#fff" transform="translate(-209 -13.78)"/><ellipse cx="191.01" cy="703.31" opacity=".1" rx="121.03" ry="7.86"/><g transform="translate(-209 -13.78)"><path d="m452.05 713a8.07 8.07 0 0 1 8.75 7.55c0 1.6-.44 3.24 0 4.78 1.22 4.36 7.43 4 11.55 5.84a9.48 9.48 0 0 1 5.14 5.92 13.79 13.79 0 0 0 1.16 3.67c1.4 2.26 4.49 2.55 7.11 3a28.23 28.23 0 0 1 17.57 10.47c2.76 3.55 4.9 8 9 9.79a12.22 12.22 0 0 1 3.27 1.58c1.93 1.69 1.5 5-.23 6.9s-4.31 2.71-6.77 3.41a203.1 203.1 0 0 1 -80.34 6.07 14 14 0 0 1 -5.7-1.58 5 5 0 0 1 -2.57-5c.48-2.39 3-3.64 5.19-4.78s4.47-3.16 3.91-5.54a5.44 5.44 0 0 0 -1.52-2.39c-1.92-2-4.18-3.65-5.88-5.82s-2.82-5.08-1.94-7.69c1.51-4.46 8.22-7 7.14-11.55-.63-2.66-3.62-3.86-6.12-5s-5.27-3.22-4.71-5.89c.6-2.85 4.76-4.32 4.46-7.22a5.78 5.78 0 0 0 -1.92-3.1 4.48 4.48 0 0 1 -1.61-3.21c.09-1.24 1.79-2.23 2.61-1.31z" fill="#cab2a3"/><path d="m444.22 744.39a11.74 11.74 0 0 0 -4.27 2.83c-1.09 1.33-1.49 3.4-.44 4.76a5.84 5.84 0 0 0 3 1.68l6 1.9a2.5 2.5 0 0 1 1.49.9 2.23 2.23 0 0 1 -.13 2c-.68 1.51-1.8 2.81-2.48 4.33s-.79 3.5.38 4.68a5.06 5.06 0 0 0 2.57 1.17 41.94 41.94 0 0 0 12.51.42q5.34-.45 10.63-1.37c1.69-.29 3.53-.72 4.56-2.1a4.52 4.52 0 0 0 .54-3.94 9.87 9.87 0 0 0 -2.08-3.53 25.35 25.35 0 0 0 -7.17-5.86 6.66 6.66 0 0 1 -2.42-1.78c-.9-1.31-.59-3.06-.35-4.63s.24-3.44-1-4.43-3.14-.55-4.67-1.07z" fill="#eae2d2"/><path d="m578.72 493.09c-.43 2-.85 4-1.31 6h-354.82c-.44-2-.88-4-1.3-6z" fill="#d9a100"/><path d="m470.73 446.73-6 5.95h-251.03q-.51-3.06-.94-5.95z" fill="#d9a100"/><path d="m472 475.86h-254.2c-.4-2-.77-4-1.13-5.95h249.41z" fill="#d9a100"/><path d="m224.42 507.1c2.37 10.15 5.07 20.67 8.1 31.37h22.38v-31.37zm20.42 21.32h-11.26v-11.26h11.26z" fill="#d9a100"/><path d="m236.15 550.79c3.21 10.42 6.73 21 10.63 31.37h19.75v-31.37zm20.32 21.32h-11.27v-11.27h11.27z" fill="#d9a100"/><path d="m268.06 150.41s38.48 11.16 74.38 16 49.49 24.25 24.74 39.29-137.62 64.06-47.38 169.3c0 0-74-48.08-55-94.12 19.18-46.57 116-89 68.89-106.73-47.34-17.83-65.63-23.74-65.63-23.74z" fill="#fff"/><path d="m556.39 247.93s-21.26 32.53-51.39 54.34c-29.5 21.32-73.9 68.89-7.92 87.81 0 0-22.93-38.44 11-67.93 37.13-32.35 48.31-74.22 48.31-74.22z" fill="#fff"/><path d="m404.87 388.14s-62.87-37.36-39.14-87.81 124.2-52.88 159.61-90.24 16-112.56-79.56-116.92-177.07-31.38-125-79.39c0 0-66.64 14.86-44.32 75.51s168.35 11.15 221.23 66.46-39.47 62.93-73.26 74.72c-41.72 14.53-159.28 78.59-19.56 157.67z" fill="#fff"/><path d="m268.06 150.41a334.85 334.85 0 0 0 65.49 16c35.9 4.85 49.49 24.25 24.75 39.29s-141.83 69.41-38.5 169.3c0 0-81.82-47.06-63.87-94.12s115-86.55 68.89-106.73-56.76-23.74-56.76-23.74z" fill="#eae2d2"/><path d="m556.39 247.93s-30.15 32.53-60.31 54.34c-29.5 21.32-65 68.89 1 87.81 0 0-31.05-35.9 1-67.44s58.31-74.71 58.31-74.71z" fill="#eae2d2"/><path d="m404.87 388.14s-71.8-37.36-48-87.81 124.13-52.88 159.59-90.24 16-112.56-79.57-116.92-176.89-28.68-124.89-76.68c0 0-66.78 12.15-44.47 72.8s168.35 11.15 221.23 66.46-39.47 62.93-73.26 74.72c-41.68 14.53-150.35 78.59-10.63 157.67z" fill="#eae2d2"/><path d="m590.92 419.8c-.29 2.49-.64 5.3-1 8.4h-379.8c-.4-3.1-.75-5.91-1-8.4a11.56 11.56 0 0 1 11.5-12.92h358.8a11.57 11.57 0 0 1 11.5 12.92z" fill="#d9a100"/><path d="m589.88 428.2c-.17 1.28-.34 2.62-.54 4h-378.69c-.2-1.38-.37-2.72-.54-4z" fill="#e6e6e6"/><path d="m577.43 499h-354.83c.3 1.33.6 2.66.91 4h353z" fill="#e6e6e6"/><path d="m254.9 538.47v4h-21.23c-.39-1.34-.78-2.67-1.15-4z" fill="#e6e6e6"/><path d="m266.53 581.9v4h-18.34c-.52-1.33-1-2.66-1.52-4z" fill="#e6e6e6"/><path d="m341.62 673.18v4h-42q-1.71-2-3.37-4z" fill="#e6e6e6"/><path d="m464.78 452.68-4 4h-246.43c-.22-1.35-.44-2.68-.65-4z" fill="#e6e6e6"/><path d="m476 479.87h-257.43c-.27-1.35-.53-2.68-.78-4h254.21z" fill="#e6e6e6"/></g><path d="m98.59 542.54h53.37v4h-53.37z" fill="#e6e6e6"/><path d="m282.14 542.54h53.37v4h-53.37z" fill="#e6e6e6"/><path d="m266.03 562.63h62.71v4h-62.71z" fill="#e6e6e6"/><path d="m100.85 683.21h168.18v4h-168.18z" fill="#e6e6e6"/><path d="m214.45 647.3h26.13v4h-26.13z" fill="#e6e6e6"/><path d="m36.2 556.33h11.27v2h-11.27z" fill="#e6e6e6"/><path d="m24.58 512.64h11.27v2h-11.27z" fill="#e6e6e6"/><path d="m286.32 450.84h11.27v4h-11.27z" fill="#e6e6e6"/><path d="m338.38 450.84h11.27v4h-11.27z" fill="#e6e6e6"/><path d="m82.5 562.64h69.47v4h-69.47z" fill="#e6e6e6"/><path d="m81.79 639.3h34.73v4h-34.73z" fill="#e6e6e6"/><path d="m273.89 602.45h-19q3.51 8.16 7.34 16.09a297 297 0 0 0 22 38.54c3.81 5.6 7.81 11 12 16.09h45.33v-70.72zm51.63 54.63h-22.18a281.44 281.44 0 0 1 -22.14-38.54h44.32z" fill="#d9a100" transform="translate(-209 -13.78)"/><path d="m475.05 510.72v65.7h59.63c-12.72 33-32.77 74.38-59.63 97.7v26.88h-29.24v-19.78l31.86-55.22v-12.5l-6.21-3.59h-69.9l-6.21 3.59v12.5l31.86 55.2v19.8h-50.15v-190.28h-85.56v65.7h69.5v124.58h-51.16v16.09h180.32v-29.09c30.56-29.87 52.28-74 67.61-118.55.21-.6.41-1.19.62-1.78.83-2.45 1.65-4.9 2.44-7.35 3.66-11.28 6.93-22.53 9.83-33.51.43-1.64.86-3.27 1.27-4.9q1.45-5.65 2.77-11.19zm-167.46 49.6v-33.51h53.41v33.51zm106.34 65.68h45.16l-22.58 39.11zm126.65-65.7h-49.44v-33.49h59.77s-3.5 13.84-10.33 33.51z" fill="#d9a100" transform="translate(-209 -13.78)"/><path d="m501 438.46-22.18 22.19 22.18 22.18 22.19-22.18zm-8 22.19 8-8 8 8-8 8z" fill="#d9a100" transform="translate(-209 -13.78)"/><path d="m553 438.46-22.18 22.19 22.18 22.18 22.19-22.18zm-8 22.19 8-8 8 8-8 8z" fill="#d9a100" transform="translate(-209 -13.78)"/></svg>