<?xml version="1.0" encoding="utf-8"?>
<!-- Generator: Adobe Illustrator 20.0.0, SVG Export Plug-In . SVG Version: 6.00 Build 0)  -->
<svg version="1.1" id="Layer_1" xmlns="http://www.w3.org/2000/svg" xmlns:xlink="http://www.w3.org/1999/xlink" x="0px" y="0px"
	 width="504px" height="504px" viewBox="0 0 504 504" style="enable-background:new 0 0 504 504;" xml:space="preserve">
<style type="text/css">
	.st0{fill:#CD0A2C;}
	.st1{fill:#FFFFFF;}
</style>
<g>
	<path class="st0" d="M390.6,468H116.1c-43.4,0-78.5-35.2-78.5-78.5V126.9c0-43.4,35.2-78.5,78.5-78.5h274.5
		c43.4,0,78.5,35.2,78.5,78.5v262.5C469.2,432.8,434,468,390.6,468z"/>
</g>
<path class="st1" d="M388.8,282v106.7H330v-99.9c0-23.9-8.6-40.3-29.8-40.3c-16.2,0-25.9,11-30.1,21.7c-1.6,3.9-2.1,9.1-2.1,14.4
	v104.1h-58.7V206H268v25.4c8.6-12.2,21.9-29.7,53-29.7C359.6,201.8,388.8,227.2,388.8,282z M178.4,146.8c0,17.5-12.2,31.5-31.7,31.5
	h-0.4c-18.8,0-31-14-31-31.5c-0.1-17.8,12.4-31.5,31.6-31.5S178,128.8,178.4,146.8L178.4,146.8z M115.2,206h58.7v182.7h-58.7V206z"
	/>
</svg>
