<?xml version="1.0" encoding="utf-8"?>
<!-- Generator: Adobe Illustrator 20.0.0, SVG Export Plug-In . SVG Version: 6.00 Build 0)  -->
<svg version="1.1" id="Layer_1" xmlns="http://www.w3.org/2000/svg" xmlns:xlink="http://www.w3.org/1999/xlink" x="0px" y="0px"
	 width="4928px" height="3213.5px" viewBox="0 0 4928 3213.5" style="enable-background:new 0 0 4928 3213.5;" xml:space="preserve"
	>
<style type="text/css">
	.st0{fill:none;}
	.st1{fill:#231F20;}
	.st2{fill:#FFFFFF;}
	.st3{fill:url(#SVGID_1_);}
	.st4{opacity:0.9;fill:#FFFFFF;}
</style>
<pattern  x="1894.4" y="1149.4" width="37" height="40" patternUnits="userSpaceOnUse" id="New_Pattern_6" viewBox="0 -40 37 40" style="overflow:visible;">
	<g>
		<rect y="-40" class="st0" width="37" height="40"/>
		<path class="st1" d="M31.7-18.8c0-0.3-0.9-4.5-4.7-5.6c-2.9-0.8-5.6-1.6-6.8-3c-0.9,0-1.5,0-1.6,0h0c-0.1,0-0.8,0-1.7,0
			c-1.2,1.4-3.9,2.2-6.8,3c-3.8,1.1-4.6,5.4-4.7,5.6c0.1-0.2,1.6-2,4.4-3.5c2.9-1.5,3.7-0.9,3.7-0.9c-0.1-0.4,0.3-1.3,0.3-1.3
			c0.1,0.3,0.9,0.3,0.9,0.3c-0.1-0.6,0.6-1.3,0.6-1.3c0.3,0.5,1,0.5,1,0.5c-0.1-0.6,1-1.7,1-1.7c0.1,1.1,1.2,1.5,1.2,1.5
			s1.1-0.4,1.2-1.5c0,0,1.1,1.1,1,1.7c0,0,0.8-0.1,1-0.5c0,0,0.7,0.8,0.6,1.3c0,0,0.8,0,0.9-0.3c0,0,0.4,0.9,0.3,1.3
			c0,0,0.8-0.6,3.7,0.9C30.1-20.8,31.5-19,31.7-18.8L31.7-18.8z M30.8-12.7c-1-4-5.1-6.3-5.8-6.8c-0.8-0.5-1-1.5-0.7-1.7
			s0.4-1.1,0.4-1.1C33.5-19.1,30.8-12.7,30.8-12.7z M24.4-19.1c2.5,2.8,4.2,1.8,4.7,5.4c0.5,3.6-1.6,6.4-1.6,6.4
			c0.2-4.6-3.8-8.4-4.2-8.9c-0.3-0.5,0.4-1.4,0.4-1.4c3.3,1.7,4.3,6.7,4.3,6.7c0.3-4.6-4-7.2-4-7.2C24.3-18.5,24.4-19.1,24.4-19.1
			L24.4-19.1z M22.8-15.5c1.3,1.1,2.5,2.5,3.1,6.1c0.6,3.6-0.9,5-0.9,5c1-4.3-3-9.3-3-9.3C22.8-14,22.8-15.5,22.8-15.5L22.8-15.5z
			 M21.8-12.7c0,0,2,1.9,2.2,4.6c0.2,2.7-1.2,4.9-1.2,4.9c0.3-5.2-1.2-8.3-1.3-8.5c-0.1-0.2-0.2-0.4,0-0.5
			C21.7-12.3,21.8-12.7,21.8-12.7L21.8-12.7z M21.4-8.4c0.4,2.9-1.4,3.9-1.4,3.9c0.9-2.5,0.5-7.1,0.5-7.1L21.4-8.4z M6.5-12.7
			c1-4,5.1-6.3,5.8-6.8s1-1.5,0.7-1.7c-0.3-0.2-0.4-1.1-0.4-1.1C3.9-19.1,6.5-12.7,6.5-12.7z M12.9-19.1c-2.5,2.8-4.2,1.8-4.7,5.4
			C7.8-10,9.9-7.2,9.9-7.2c-0.2-4.6,3.8-8.4,4.2-8.9c0.3-0.5-0.4-1.4-0.4-1.4c-3.3,1.7-4.3,6.7-4.3,6.7c-0.3-4.6,4-7.2,4-7.2
			C13-18.5,12.9-19.1,12.9-19.1L12.9-19.1z M14.6-15.5c-1.3,1.1-2.5,2.5-3.1,6.1s0.9,5,0.9,5c-1-4.3,3-9.3,3-9.3
			C14.6-14,14.6-15.5,14.6-15.5L14.6-15.5z M15.5-12.7c0,0-2,1.9-2.2,4.6c-0.2,2.7,1.2,4.9,1.2,4.9c-0.3-5.2,1.2-8.3,1.3-8.5
			c0.1-0.2,0.2-0.4,0-0.5C15.7-12.3,15.5-12.7,15.5-12.7L15.5-12.7z M16.8-11.6l-0.8,3.2c-0.4,2.9,1.4,3.9,1.4,3.9
			C16.4-7,16.8-11.6,16.8-11.6L16.8-11.6z M18.6-6.1c0.5-1.1,0.6-4.1,0.7-5.2c0-0.2-0.1-0.3-0.3-0.3h0h-0.7c-0.2,0-0.3,0.2-0.3,0.3
			C17.9-10.3,18.1-7.2,18.6-6.1L18.6-6.1z M21.4-22.7c0.3,0.6,0.6,0.5,0.6,0.4c-0.1-0.1-0.3-0.5-0.3-0.5c0.1-0.1,0.4-0.4,0.6-0.1
			c0.2,0.3,1,0.7,1,0.7c-0.2,0.1-0.8-0.1-0.8-0.1c-0.3,1.1-1.3,0.7-1.3,0.7C21-21.3,21-20.7,21-20.7c-0.1-0.1-0.3-0.1-0.3-0.1
			c-0.1,0.8,0.7,2.6,0.7,2.6c-0.9-0.8-1.1-3-1-3.6c0-0.7,0.1-0.4,0.4-0.5S21.4-22.7,21.4-22.7L21.4-22.7z M14.8-22.4
			c-0.2,0.3-0.9,0.5-0.9,0.5c0.2,0.2,0.2,0.1,0.6,0.1c0.4,0,0.3,0.4,0.3,0.4l0.8-1C15.1-22.8,15-22.7,14.8-22.4z M16.9-20.9
			c0,1.5-0.6,2.5-0.6,2.5c0.2-0.9,0.2-1.8,0.3-2.1c0-0.4-0.4,0-0.4,0v-0.7c-0.3,0-0.5-0.1-0.5-0.1c-0.3-0.1-0.6,0-0.6,0l0.8-1
			C16.7-21.9,16.9-22.4,16.9-20.9z M18.4-14.1h0.3c0.8,0,1.4,0.3,2,0.8s0.5-1,0.5-1c-1.2,0.9-2.3-0.4-2.3-0.4v-0.8
			c0-0.5,0.5-0.5,1.2-0.9s0.6-0.9,0.6-0.9l-0.6,0.3c-0.6,0-0.5-0.1-0.8,0.1c-0.3,0.2-0.7,0.3-0.7,0.3h-0.1c0,0-0.4-0.1-0.7-0.3
			c-0.3-0.2-0.3-0.1-0.8-0.1s-0.6-0.3-0.6-0.3l0.6,0.9c0.7,0.4,1.2,0.9,1.2,0.9v0.8c0,0-1.1,1.3-2.3,0.4c0,0-0.1,1.6,0.5,1
			C17-13.8,17.7-14.1,18.4-14.1L18.4-14.1z M21.2-14.8c0.2-0.1,0.5-0.4,0.2-0.4c-0.3,0-1.2,0-1.2,0C19.4-15.2,21-14.7,21.2-14.8z
			 M14.6-16.5c-0.1-0.2,0.2-0.2,0.6,0.3c0.4,0.5,1.1,0.4,1.1,0.4c1.4-0.4,1.5,0.3,1.3,0.2c-0.2-0.1-0.4,0-1.4,0.1
			C15.3-15.3,14.6-16.5,14.6-16.5L14.6-16.5z M15.3-16.7l0.9,0.4c0.4,0.1,0.4,0.2-0.1,0.2c-0.5,0-1.1-0.7-1.1-0.7l0,0
			C14.7-17.1,15.3-16.7,15.3-16.7z M27.4-27.3C27.4-27.3,27.3-27.3,27.4-27.3c-0.5,0.3-1.1,0.7-1.1,0.7c-1.5-0.5-3.5-0.7-5.1-0.8
			c0.5,0.5,1.5,1,2.8,1.2c2.4,0.3,3.1,0.2,5.8,2C29.8-24.2,29.1-26.6,27.4-27.3z M10.8-26.6c0,0-0.6-0.4-1-0.7
			c-0.1,0-0.1-0.1-0.2-0.2c-2,0.5-2.7,3.2-2.7,3.2c2.7-1.8,3.4-1.7,5.8-2c1.3-0.1,2.2-0.7,2.7-1.2C13.9-27.3,12.2-27.1,10.8-26.6z
			 M28-31.4c0.3,0,0.5,0.2,0.5,0.5c0,0.3-0.2,0.5-0.4,0.5c-0.8,0.9-0.7,2-0.7,2s0.3,0.5,0,0.8c0,0-0.1,0-0.1,0.1
			c-0.5,0.2-1,0.7-1,0.7c-1.5-0.5-3.5-0.7-5.1-0.8c-0.4,0-0.7,0-1,0c-0.9,0-1.5,0-1.6,0h0c-0.1,0-0.8,0-1.7,0c-0.4,0-0.9,0-1.4,0.1
			c-1.5,0.1-3.3,0.3-4.7,0.8c0,0-0.6-0.4-1-0.7c-0.1,0-0.1-0.1-0.2-0.2c-0.2-0.3,0.1-0.7,0.1-0.7s0.1-1.1-0.7-2
			c-0.3,0-0.5-0.2-0.5-0.5c0-0.3,0.2-0.5,0.5-0.5c0.3,0,0.5,0.2,0.5,0.5c0,0.1,0,0.1,0,0.1l0,0l1.7,1.4c1.4,0.2,2.2-0.2,2.3-1.2
			c0.2-1-2.1-0.8-1.7,0.5c0,0-0.7-0.3-0.9-1c-0.1-0.8,1.2-1.3,2.2-0.8c0,0-0.4-1.2,0.1-2c1.1,0.4,1,1.9,1,1.9c0.7-0.8,2-0.4,2.1,0.3
			c0.1,0.7-0.6,1.1-0.6,1.1c-0.1-1.3-2-0.7-1.5,0.2c0.4,0.7,1.2,1,2.2,0.7c0.4-0.4,0.7-0.9,0.7-0.9s-0.2-0.1-0.3,0
			c-0.2,0.1-0.4-0.1-0.3-0.3c0.1-0.2,0.6-0.4,0.8,0c0,0,0.3-0.4,0.6-1c-0.2-0.4-0.4-0.7-0.4-0.8L17.5-33c-1.2-2.7-0.2-3.7-0.1-3.8
			c-0.4,0.8,0.1,2.1,0.1,2.1c0-0.8,0.3-1.4,0.3-1.4c0,1.2,0.3,2.3,0.6,3.2c0.4-0.9,0.7-2,0.6-3.2c0,0,0.3,0.6,0.3,1.4
			c0,0,0.5-1.4,0.1-2.1c0.1,0.1,1.1,1.1-0.1,3.8l-0.1,0.3c0,0.1-0.2,0.4-0.4,0.8c0.3,0.6,0.6,1,0.6,1c0.2-0.4,0.7-0.2,0.8,0
			c0.1,0.2-0.1,0.4-0.3,0.3c-0.2-0.1-0.3,0-0.3,0s0.5,0.6,0.8,1c0.9,0.2,1.7-0.1,2.1-0.8c0.5-0.8-1.4-1.5-1.5-0.2
			c0,0-0.7-0.3-0.6-1.1c0.1-0.8,1.4-1.1,2.1-0.3c0,0-0.1-1.4,1-1.9c0.5,0.8,0.2,2,0.2,2c0.9-0.5,2.3,0.1,2.2,0.8
			c-0.1,0.8-0.9,1-0.9,1c0.4-1.3-1.8-1.4-1.7-0.5c0.2,1,1,1.3,2.3,1.2c1.2-0.1,1.6-1.2,1.6-1.4c0,0,0-0.1,0-0.2
			C27.5-31.1,27.7-31.4,28-31.4L28-31.4z M9.1-30.6c0.1,0,0.1-0.2,0.1-0.3c0-0.1-0.2-0.2-0.3-0.2c-0.1,0-0.1,0.2-0.1,0.3
			C8.9-30.6,9-30.5,9.1-30.6L9.1-30.6z M10.5-27.8l0.1-0.3l-0.6-0.2l-0.2,0.6l0.1,0l0.5,0.2L10.5-27.8L10.5-27.8z M14.7-28.9
			L14-29.3l-0.5,0.7l0.7,0.5L14.7-28.9z M17.5-30.1l-0.1,0.2c0,0,0,0,0.1,0c0.1,0,0.4-0.1,0.6-0.1c0.2,0,0.4,0,0.5,0.2h0
			c0.1-0.1,0.3-0.2,0.5-0.2c0.3,0,0.6,0.1,0.7,0.1h0c0,0,0,0,0,0l-0.1-0.2l-0.2-0.4c0,0.1-0.1,0.1-0.1,0.1h0c-0.3,0.2-0.6,0-0.7-0.2
			c-0.1-0.2,0.1-0.4,0.3-0.3c0,0,0,0,0,0c0,0,0,0,0,0c0.1,0,0.2,0,0.2,0l-0.4-0.7l-0.2-0.3l-0.2,0.3l-0.5,0.8c0,0,0.1,0.1,0.2,0
			c0,0,0.1,0,0.1,0c0,0,0,0,0.1,0c0.1,0,0.3,0.1,0.2,0.3c-0.1,0.2-0.4,0.3-0.6,0.2c0,0,0,0,0,0c-0.1,0-0.1-0.1-0.1-0.1L17.5-30.1
			L17.5-30.1z M19.7-28.9c0-0.2-0.1-0.4-0.3-0.5v0c-0.1,0-0.2-0.1-0.3-0.1c-0.3,0-0.6,0.3-0.6,0.6c0-0.3-0.3-0.6-0.6-0.6
			c-0.1,0-0.3,0.1-0.4,0.1c-0.1,0.1-0.2,0.3-0.2,0.5c0,0,0,0.1,0,0.1c0-0.1,0.1-0.2,0.2-0.3c0.1-0.1,0.2-0.2,0.4-0.2
			c0.3,0,0.5,0.2,0.6,0.5c0,0,0-0.1,0-0.1c0,0,0,0.1,0,0.1c0.1-0.3,0.3-0.5,0.6-0.5c0.1,0,0.3,0,0.4,0.1v0c0.1,0.1,0.2,0.2,0.2,0.4
			C19.7-28.8,19.7-28.9,19.7-28.9z M23.5-28.7l-0.5-0.7l-0.7,0.5l0.5,0.7L23.5-28.7z M27-27.7l0.2-0.1L27-28.4l-0.6,0.2l0.1,0.4
			l0.1,0.2L27-27.7L27-27.7z M28.2-30.8c0.1-0.1,0-0.3-0.1-0.3c-0.1,0-0.2,0-0.3,0.2c-0.1,0.1,0,0.3,0.1,0.3
			C28.1-30.5,28.2-30.6,28.2-30.8L28.2-30.8z"/>
	</g>
</pattern>
<g>
	<path class="st2" d="M4692.1,3145.2l-1,2.6h-4.1l5.8-15h4.3l5.7,15h-4.2l-1-2.6H4692.1z M4694.9,3137.4L4694.9,3137.4l-1.7,4.8h3.2
		L4694.9,3137.4z"/>
	<path class="st2" d="M4707.4,3131.2v7.6h0c0.8-1.1,1.9-1.6,3.3-1.6c2.6,0,3.8,1.7,3.8,4.3v6.3h-3.6v-5.2c0-1.2-0.2-2.4-1.6-2.4
		c-1.4,0-1.9,1.2-1.9,2.4v5.2h-3.6v-16.5H4707.4z"/>
	<path class="st2" d="M4720.6,3138.8L4720.6,3138.8c0.9-1.1,2-1.6,3.3-1.6c1.5,0,2.7,0.6,3.5,2c0.7-1.3,2.1-2,3.5-2
		c2.6,0,3.5,1.7,3.5,4v6.5h-3.6v-4.9c0-1.1,0-2.8-1.5-2.8c-1.7,0-1.7,1.6-1.7,2.8v4.9h-3.6v-4.9c0-1.1,0-2.9-1.6-2.9
		s-1.6,1.7-1.6,2.9v4.9h-3.6v-10.2h3.6V3138.8z"/>
	<path class="st2" d="M4747.1,3143.3h-7.6c0,1.5,0.8,2.3,2.3,2.3c0.8,0,1.3-0.3,1.7-0.9h3.5c-0.3,1.2-1,2.1-1.9,2.6
		c-0.9,0.6-2.1,0.9-3.3,0.9c-3.4,0-5.9-1.9-5.9-5.4c0-3.4,2.3-5.5,5.7-5.5c3.5,0,5.6,2.2,5.6,5.7V3143.3z M4743.8,3141.2
		c-0.2-1-1.1-1.6-2.1-1.6c-1.1,0-1.9,0.6-2.2,1.6H4743.8z"/>
	<path class="st2" d="M4756.5,3146.6L4756.5,3146.6c-0.7,1-1.9,1.5-3.1,1.5c-3,0-5.2-2.5-5.2-5.5s2.1-5.4,5.1-5.4
		c1.2,0,2.4,0.4,3.2,1.3v-7.3h3.6v16.5h-3.6V3146.6z M4751.9,3142.7c0,1.3,0.9,2.3,2.3,2.3c1.5,0,2.3-1,2.3-2.3
		c0-1.3-0.9-2.3-2.3-2.3C4752.8,3140.4,4751.9,3141.4,4751.9,3142.7z"/>
	<path class="st2" d="M4773.2,3136.1v2.5h4.4v3.3h-4.4v2.6h4.6v3.3h-8.5v-15h8.5v3.3H4773.2z"/>
	<path class="st2" d="M4783.8,3147.8h-3.6v-16.5h3.6V3147.8z"/>
	<path class="st2" d="M4791.7,3139.9v3h-5.7v-3H4791.7z"/>
	<path class="st2" d="M4805.9,3144.5v3.3H4793l7.1-11.7h-5.9v-3.3h12.4l-7.1,11.7H4805.9z"/>
	<path class="st2" d="M4818.6,3143.3h-7.6c0,1.5,0.8,2.3,2.3,2.3c0.8,0,1.3-0.3,1.7-0.9h3.5c-0.3,1.2-1,2.1-1.9,2.6
		c-0.9,0.6-2.1,0.9-3.3,0.9c-3.4,0-5.9-1.9-5.9-5.4c0-3.4,2.3-5.5,5.7-5.5c3.5,0,5.6,2.2,5.6,5.7V3143.3z M4815.2,3141.2
		c-0.2-1-1.1-1.6-2.1-1.6c-1.1,0-1.9,0.6-2.2,1.6H4815.2z"/>
	<path class="st2" d="M4824.1,3133.6c0,1.1-0.9,2-2,2s-2-0.9-2-2c0-1.1,0.9-2,2-2S4824.1,3132.5,4824.1,3133.6z M4823.9,3147.8h-3.6
		v-10.2h3.6V3147.8z"/>
	<path class="st2" d="M4829.9,3138.9L4829.9,3138.9c0.9-1.2,1.9-1.7,3.3-1.7c2.7,0,3.8,1.7,3.8,4.2v6.3h-3.6v-5c0-1,0.2-2.7-1.6-2.7
		c-1.5,0-1.9,1.1-1.9,2.4v5.3h-3.6v-10.2h3.6V3138.9z"/>
</g>
<g>
	<path class="st2" d="M4836.3,3096.3c-3.8,0-13.1,7.5-20.5,14.9c1.6-3,4.9-8.3,6.2-11c0.4-0.8,0.4-1,0.4-1.2c0-1.7-3.1-3.2-6-3.2
		c-1.7,0-3.4,0.5-4.2,1.9c-1.1,1.9-2.2,3.7-3.2,5.5c-4.6,3.4-12.3,8.9-19.7,11.5c1.3-5,5.7-13,5.7-15.5c0-2-3.4-2.8-5.3-2.8
		c-1.7,0-3,0.7-3.8,1.9c-0.9,1.3-1.9,3.3-2.7,5.1c-4.5,3.4-11.7,8.7-18.8,11.5c-1.9,0.7-4.1,1.3-6.2,1.3c-2.1,0-4-0.5-4.9-2
		c7.3-1.6,16.1-5.7,16.1-12c0-3.9-3-6.1-8.2-6.1c-7.1,0-16.2,5.8-18.3,13c-0.4,0.1-0.8,0.3-1.2,0.6c-2,1-4.5,2-7.5,2.9
		c-3,1-6.3,1.8-9.8,2.5c-3.6,0.7-7.3,1.2-11.1,1.5c-3.9,0.3-7.6,0.4-11.3,0.2c-2.7-0.3-4.2-0.9-4.7-1.9c-0.3-0.7-0.1-1.5,0.6-2.5
		c0.7-0.9,1.6-1.9,2.7-3c3.1-3.2,10.3-11.4,14.6-15.3c4.3-3.9,8.7-7.8,13.1-11.8c4.5-4,8.8-7.9,13.1-11.7c4.3-3.8,8-7.2,11.2-10.2
		c2.5-2.4,4.2-4.8,5.1-7.4c1-2.6,1-4.9,0.2-7c-0.7-1.8-2.1-3.3-4.1-4.4c-2-1.1-4.7-1.5-8.2-1.4c-9,0.2-17.4,0.7-25.3,1.6
		c-7.8,0.9-15.4,2.2-22.6,4c-2.6,0.7-4.5,1.7-5.7,2.9c-1.3,1.3-2,2.5-2.1,3.8c-0.1,1.2,0.2,2.4,0.8,3.4c0.5,1,1.3,1.7,2.4,2.1
		c1,0.4,2.1,0.3,3.2-0.3c1.1-0.6,2.3-1.2,3.7-1.6c6.7-1.5,13.3-2.7,19.6-3.6c6.3-0.8,13.2-1.4,20.7-1.8c1.8,0,3,0.4,3.4,1.2
		c0.4,0.5,0.4,1.2,0,1.9c-0.4,0.7-0.9,1.5-1.6,2.2c-3.6,3.2-7.5,6.6-11.6,10.3s-8.2,7.4-12.4,11.2c-4.2,3.8-8.4,7.7-12.6,11.6
		c-4.2,3.9-11.7,12.4-15.4,16.2c-2.6,2.6-4.5,5.2-5.5,7.7c-1,2.5-1.3,4.6-0.6,6.6c1.3,4,5.7,6.4,13.3,7.2c4,0.5,8.3,0.5,12.8,0.3
		c4.5-0.3,9-0.8,13.3-1.6c4.4-0.8,8.5-1.7,12.4-2.9c3.4-1,6.4-2,9-3.2c2.1,2.2,5.3,3.1,9.5,3.1c7.8,0,15.6-4,24.8-10.2
		c-0.8,2.1-1.5,4.2-1.5,5.7c0,3,1.4,4.4,3.9,4.4c5.2,0,13.4-4,22.8-10.1c-1.3,3.1-2.1,5.5-2.1,7c0,1.7,3.5,3.5,5.2,3.5
		c2.8,0,12.4-10.6,19.9-15.6c-1,2.7-3.7,7.7-3.7,12.2c0,3,1.4,3.9,2.8,3.9c3.3,0,7.4-2.3,7.9-3.8c0.6-2-0.6-3.2,2.6-9.7
		c2.3-4.6,3.3-6.8,3.3-9.5C4840.4,3098.3,4838.2,3096.3,4836.3,3096.3z M4759.6,3101c1.1,0,1.7,0.8,1.7,1.8c0,2.1-2.4,5.2-8.4,6.4
		C4753.6,3104.2,4756.5,3101,4759.6,3101z"/>
</g>
<path class="st2" d="M4784.3,3072.6c0,0,8.9,0.7,10.8,5.6c1.9,4.9-1.4,8.7-9.4,6.2c-8-2.5-95.8-4-126.1,7.1s-31.8,10.5-31.6,6.8
	s7-8.8,20.8-12.9C4662.6,3081.2,4710.6,3071.5,4784.3,3072.6z"/>
<path class="st2" d="M4655.6,3085.6l2.9,56.2c0.1,1.3,0.1,2.7,0,4c-0.1,1.8,0.5,5.1,4.9,4.7c6.1-0.6,8.3-3.8,7.6-9.1
	c-0.7-5.3-3.4-55.8-4.6-61c-1.2-5.2-4.2-34.4-6.8-40.1c-2.6-5.7-8.6-10.9-14.8-4.6c-6.2,6.2-16.2,28-19.3,36.5
	c-3.2,8.5-10.6,36.4-11.5,41.6c-0.9,5.2-2.9,0.1-3.1-2.2c-0.2-2.4-0.6-6.5-3.9-5.7c-3.4,0.7-8.2,2.9-5.8,10.2
	c2.4,7.4,3.5,21.6,8,22.7c4.5,1.1,7.7-0.3,9-11.4c1.2-10.8,15-64,29.3-80.2c0.4-0.5,1.2-0.3,1.3,0.3
	C4650.1,3051.8,4654.3,3066.9,4655.6,3085.6z"/>
<pattern  id="SVGID_1_" xlink:href="#New_Pattern_6" patternTransform="matrix(1 0 0 0.9985 12.5772 36.5493)">
</pattern>
<rect class="st3" width="4928" height="3213.5"/>
<rect x="0" y="0" class="st4" width="4928" height="3213.5"/>
</svg>
