<svg xmlns="http://www.w3.org/2000/svg" viewBox="-17 109 576 576" enable-background="new -17 109 576 576"><style type="text/css">.st0{fill:#FFFFFF;}</style><path class="st0" d="M495 417.1c-2.1-2.6-27-34.5-74.1-58.8-49.1-25.4-63.5-15.6-63.5-15.6 1.1-6.6-5.4-21.8-5.4-21.8-2.2 4.9-15.8 4.4-15.8 4.4 1.7-9.9-10.3-22.9-10.3-22.9-4.3 7.7-17.4 8.7-17.4 8.7 1.1-9.8-17.4-28.9-17.4-28.9-2.2 18.5-20.1 26.1-20.1 26.1s-18-7.6-20.2-26.1c0 0-18.5 19.1-17.4 28.9 0 0-13.1-1-17.4-8.7 0 0-12 13.1-10.3 22.9 0 0-13.6.5-15.8-4.4 0 0-6.6 15.2-5.4 21.8 0 0-14.4-9.8-63.5 15.6-47 24.3-72 56.1-74.1 58.8.8-4.5 15.1-77.1 79.9-95.6 50-14.3 95.4-27.9 116-51.1 15.1-.4 25.8-.1 28.1 0h.4c2.2-.1 12.7-.4 27.6 0 20.7 23.1 66.1 36.8 116.1 51.1 64.9 18.5 79.2 91.1 80 95.6zm-119.3-59.6s-2.7 14.9-7.5 18.8-.4 21.6 12.6 29.6 81.6 47.5 99 115.6c0-.1 45.9-108.6-104.1-164zm-4.7 55s-.8 10.6-6.5 18.2c0 0 72.6 43.8 68.2 122.2 0 0-17.4-85-73.7-113.6 0 0-12.5 16.6-6.8 24.5s74.7 72.7 70.9 150.8c0 0 35.3-47.9 27.2-109.4s-37.4-45.6-79.3-92.7zm-26.1 60.7s-.5 26.7-14.7 31.6c0 0 68 83.9 51.6 157.9 0 0 26.6-22.9 15.8-84.9-10.8-62.1-30.9-86-52.7-104.6zm-17.4 48.2s-2.5 6.1-5.2 7.9c-2.7 1.7-1.1 6.3 0 8.9 1.1 2.6 26.4 57 22.1 144.7 0 0 25.1-36.3 20.9-82.8-4.3-46.4-37.8-78.7-37.8-78.7zm-21.4 18.3s6.5 77.9-8.7 120.9c0 0 29.1-18 23.1-67l-14.4-53.9zm-134.5-182.2s2.7 14.9 7.5 18.8.4 21.6-12.6 29.6-81.6 47.5-99 115.6c0-.1-45.9-108.6 104.1-164zm4.6 55s.8 10.6 6.5 18.2c0 0-72.6 43.8-68.2 122.2 0 0 17.4-85 73.7-113.6 0 0 12.5 16.6 6.8 24.5s-74.7 72.7-70.9 150.8c0 0-35.3-47.9-27.2-109.4s37.5-45.6 79.3-92.7zm27.8 60.7s.5 26.7 14.7 31.6c0 0-68 83.9-51.6 157.9 0 0-26.6-22.9-15.8-84.9s30.9-86 52.7-104.6zm16.2 48.2s2.5 6.1 5.2 7.9c2.7 1.7 1.1 6.3 0 8.9-1.1 2.6-26.4 57-22.1 144.7 0 0-25.1-36.3-20.9-82.8 4.3-46.4 37.8-78.7 37.8-78.7zm21.4 18.3s-6.5 77.9 8.7 120.9c0 0-29.1-18-23.1-67l14.4-53.9zm30.3 93c-8.5-18.6-11-70.1-11.7-87.7-.1-3.2 2.5-5.9 5.7-5.9h12.2-.6c3.2 0 5.8 2.7 5.7 5.9-.6 17.5-2.8 69-11.3 87.7zm48.5-280.9s-6.1 5.5-11 6.9c-4.9 1.4-6.1-3.1-6.7 8s2.7 48.4 17.7 61.9c0 0-13.5-31.2-11.2-44.9 0 0 2.4-.4 4.3 1.8 0 0-.8-11.4 2-13.3 0 0 17.5 5.5 22-12.7 0 0 9.6 3.5 13.3 1.6 0 0-14.1-7.1-16.9-12.5-2.9-5.3-7.1.8-9.6 1.8 0 0 4.4 8.1 5.6 9-.1.2-4.3 1.8-9.5-7.6zm-98.1 4.3l-13.7 17.2s.8-8.2-5.3-7.4c-6.1.8-6.9 2.5-10-1.2 0 0 11.4-4.3 14.5-8.6 3.1-4.3 6-6.6 14.5 0zm3.9 2.4l-14.3 16.3s5.1-1.8 9.6 0c0 0 4.9 1.3 9.2 1.5v11.3s6.5-6.3 6.3 0-1 22-4.3 36.5c0 0 10.4-18.4 10.6-43.3.3-24.9-2.2-16.5-17.1-22.3zm43.1 138.9c-12.8 0-23.1 4.6-33.2 13.6-10.1 9-7.9-17.7-7.9-17.7 19.8 15 38.3-6.5 38.3-6.5v-14.4s-8.7-9.3-21.2-15.8l-10.6-15.8s1.1 4.4 10.6 4.4 8.7-2.2 13.9 1.9c5.2 4.1 12 5.2 12 5.2h.9s6.8-1.1 12-5.2 4.3-1.9 13.9-1.9l10.6-4.4s1.9 9.3-10.6 15.8-21.2 7.9-21.2 15.8v14.4s18.4 21.5 38.3 6.5c0 0 2.2 26.7-7.9 17.7s-20.4-13.6-33.2-13.6h-4.7zm30.2-18s14.5.5 20.3 0 1.2 5.2-2.9 6.8c-4 1.6-29.9-7-17.4-6.8zm-94.5-22.9s11.5 19.9 27.3 18 19.3-4.1 23.1-2.5 1.7-9.1-21.5-3.1c0 0-12.3 2.4-19-6.9s-11.6-8.9-9.9-5.5zm5.4-4.6l.1.1c1 1.3 10.1 12.5 19.3 12.4 9.7 0 9.9-3 2.4-4l-16-6.9s-10.1-7.4-5.8-1.6zm252.1-126.8c-46.5-30.7-58.3-29.4-98.7-34-22.3-2.4-37.7-11.9-47-20.1 26.8 1.5 60.2 5.1 86 14.1 0 0 10-7.4 17.7-11.5.7-.3 1.1-.7 1.6-1.1 30.1 11.7 40.4 52.6 40.4 52.6zm-243.6-53.7c-9.4 8-24.7 17.3-46.5 19.7-40.4 4.5-52.2 3.3-98.7 34 0 0 11.5-45.1 45.2-54.1.7 1 1.6 1.9 3 2.6 7.8 4 17.7 11.5 17.7 11.5 23.8-8.3 53.8-12.1 79.3-13.7zm213.4-68.1c-5 0-8.9 3.9-8.9 8.7 0 .9.2 1.9.5 2.7-.8 3.4-6.7 21.3-27.9 23.6-23.5 2.5-37.1-3.5-39.7-19.7-2.6-16.3 35.1-13.5 28.4 7.8 0 0 12.3-4.6 14.5-17.4 2.2-12.8-21.1-22.5-36.6-14.1 0 0 6-19.7-2.9-33.5-19.1 7.3-16.7 31.5-16.7 31.5-11.6-13.3-33.4-7.3-35.8 5.5-2.3 12.7 10 18 10 18 1.1-22.3 33.6-11.1 25.5 3.3-6.6 11.7-19.7 17.1-35.7 13.1-6.2-6.3-14-16.6-14-16.6s2.4-2.3 5.1-.5c2.6 1.9 6.7-1.1 4.7-5.1-1.9-4-10.5-7.3-14.3-.5 0 0-4.4-6.1-9.9-16.3 4-6.5 6.8-11.6 7.4-12.8l2.4-5.1c20.7-47 2.7-63.7 1.2-64.9 6.4 13.4-2.3 36.4-2.3 36.4.7-13.4-5-23.3-5-23.3.7 20.5-4.6 39.7-10.7 54.8-6.2-15-11.6-34.3-10.9-54.9 0 0-5.6 9.9-5 23.1 0 0-8.6-22.9-2.3-36.1-1.5 1.2-19.2 17.7 1.2 64.4l2.4 5c.8 1.3 3.6 6.5 7.6 13.2-5.5 10.7-10.3 17.2-10.3 17.2-3.8-7-12.4-3.5-14.4.6-2 4 2.2 7 4.8 5.1 2.5-1.9 5.1.5 5.1.5s-6.7 8.7-12.7 15.1c-16.9 5-30.8-.4-37.7-12.5-8.1-14.4 24.4-25.6 25.5-3.3 0 0 12.4-5.3 10-18-2.3-12.8-24.1-18.7-35.8-5.5 0 0 2.3-24.2-16.7-31.5-8.4 13.9-2.4 33.6-2.4 33.6-15.5-8.4-38.8 1.3-36.6 14.1 2.2 12.8 14.5 17.4 14.5 17.4-6.7-21.3 31.1-24.1 28.4-7.8-2.6 16.3-16.2 22.3-39.7 19.7l-28.1-24.2-.3.2c.3-.8.4-1.5.4-2.4 0-4.8-3.9-8.7-8.9-8.7-4.9 0-8.8 3.9-8.8 8.7 0 4.5 3.5 8.2 8 8.6 12.8 14.8 11.1 33.4 11.1 33.4s-3.9 7.1-.9 11.9c.7 1 1.6 1.9 3 2.6 7.8 4 17.7 11.5 17.7 11.5 23.7-8.3 53.7-12 79.2-13.6 8.6-.6 16.8-.8 24-1 15.1-.4 25.8-.1 28.1 0h.4c2.2-.1 12.7-.4 27.6 0 5.4.1 11.4.3 17.7.6 26.8 1.5 60.2 5.1 86 14.1 0 0 10-7.4 17.7-11.5.7-.3 1.1-.7 1.6-1.1 5.4-4.6.5-13.4.5-13.4s-1.7-18.6 11.1-33.5c4.2-.6 7.4-4.1 7.4-8.5 0-4.8-3.9-8.7-8.8-8.7zm-321.7 13.4c-1.6.7-3.6-.8-4.4-3.1-.8-2.3-.2-4.7 1.3-5.3 1.6-.6 3.6.8 4.4 3.2.9 2.3.3 4.7-1.3 5.2zm24.4 47.3l-1.4 3.6-7.8-3-1.8-.7 3.6-9.5 9.7 3.8-2.3 5.8zm63-6.5l-11.5-8.2 8-11.3 11.5 8.2-8 11.3zm55.4-32.7l3.2-6.3c.7.9 1.3 1.7 2.2 2.2.3.3.6.4.8.6 4.1 2 9.5-.8 10.7-3.9 1.4-3.4-1.6-5.7-3.8-4.9-.4.1-.7.3-.9.5-.6.5-1.1.7-1.6.8-1.8.4-3.3-.8-3.3-.8l8.1-13.3 2.9-4.8 3.1 5.4 7.5 12.7s-1.7 1.3-3.7.7c-.1 0-.3-.1-.5-.3-.2 0-.5-.2-.7-.4-2.3-2-6.4.6-4.8 4.4 1.2 3.2 6.9 6.1 11.3 3.5h.1c.8-.6 1.7-1.3 2.3-2.4l3.5 6.8 1.7 3.3s-.1 0-.3-.1h-.1c-1.5-.3-6.9-1.4-11.6-1.2-3.4.2-6.4.8-7.7 2.9h-.7c-1.3-2.1-4.6-2.8-8.1-2.9-3.7-.1-7.7.5-9.9.9-1.1.2-1.8.4-1.8.4l2.1-3.8zm38.3 22.4c-.6-2.4-2-4.6-4-6v-.1c-1.7-1.2-3.8-2-6-2-4.9 0-9 3.6-10 8.1-.1-.6-.2-1.1-.2-1.7 0 .6-.1 1.1-.2 1.7-.9-4.5-5-8.1-10-8.1-2.7 0-5.2 1-6.9 2.9-1.5 1.3-2.5 3.2-3 5.2-.1-.6-.2-1.1-.2-1.7 0-3.2 1.5-6.1 3.8-7.9 1.7-1.4 3.9-2.3 6.3-2.3 5.6 0 10.1 4.5 10.1 10.2 0-5.6 4.6-10.2 10.1-10.2 1.7 0 3.3.4 4.6 1v.1c3.4 1.6 5.6 5.1 5.6 9 .1.7.1 1.2 0 1.8zm53.6 10.3l-7.9-11.3 11.5-8.2 7.9 11.3-11.5 8.2zm70 7.9l-5.8 2.3-1.2-3.2-2.4-6.2 9.7-3.8 3.7 9.5-4 1.4zm21.5-51.8c-.8 2.4-2.8 3.8-4.4 3.1-1.5-.6-2.2-2.9-1.3-5.2.8-2.4 2.8-3.8 4.4-3.2 1.6.6 2.2 3 1.3 5.3z"/></svg>