<?xml version="1.0" encoding="utf-8"?>
<!-- Generator: Adobe Illustrator 20.0.0, SVG Export Plug-In . SVG Version: 6.00 Build 0)  -->
<svg version="1.1" id="Layer_1" xmlns="http://www.w3.org/2000/svg" xmlns:xlink="http://www.w3.org/1999/xlink" x="0px" y="0px"
	 width="504px" height="504px" viewBox="0 0 504 504" style="enable-background:new 0 0 504 504;" xml:space="preserve">
<style type="text/css">
	.st0{fill:#CD0A2C;}
	.st1{fill:#FFFFFF;}
</style>
<g>
	<path class="st0" d="M390.6,468H116.1c-43.4,0-78.5-35.2-78.5-78.5V126.9c0-43.4,35.2-78.5,78.5-78.5h274.5
		c43.4,0,78.5,35.2,78.5,78.5v262.5C469.2,432.8,434,468,390.6,468z"/>
</g>
<path class="st1" d="M397,163v176c0,2.5-0.3,5-1.1,7.5l-84-84L397,163z M375.5,367c-2.5,0.8-5,1.1-7.5,1.1H135.9
	c-2.5,0-5-0.3-7.5-1.1l82.6-82.3l41,47.8l40.9-47.8L375.5,367L375.5,367z M192.1,262.5l-84,84c-0.8-2.5-1.1-5-1.1-7.5V163
	L192.1,262.5z M379.8,138.5L252,287.7L124,138.5c3.9-1.7,7.7-2.5,11.9-2.5H368C372,136,376.3,136.8,379.8,138.5z"/>
</svg>
