<?xml version="1.0" encoding="utf-8"?>
<!-- Generator: Adobe Illustrator 19.1.0, SVG Export Plug-In . SVG Version: 6.00 Build 0)  -->
<svg version="1.1" xmlns="http://www.w3.org/2000/svg" xmlns:xlink="http://www.w3.org/1999/xlink" x="0px" y="0px"
	 viewBox="0 0 865.4 882.2" style="enable-background:new 0 0 865.4 882.2;" xml:space="preserve">
<style type="text/css">
	.st0{clip-path:url(#SVGID_2_);}
	.st1{fill:#F7BF9E;stroke:#000000;stroke-width:3;stroke-linejoin:round;stroke-miterlimit:10;}
	.st2{fill:#DFA88A;}
	.st3{stroke:#000000;stroke-width:2;stroke-miterlimit:10;}
	.st4{stroke:#000000;stroke-width:2;stroke-linejoin:round;stroke-miterlimit:10;}
	.st5{fill:none;stroke:#231F20;stroke-width:2;stroke-miterlimit:10;}
	.st6{fill:#FFFFFF;stroke:#000000;stroke-width:2;stroke-miterlimit:10;}
	.st7{fill:#754C29;stroke:#000000;stroke-width:3;stroke-miterlimit:10;}
	.st8{fill:none;stroke:#000000;stroke-width:3;stroke-linecap:round;stroke-miterlimit:10;}
	.st9{fill:none;stroke:#000000;stroke-width:3;stroke-miterlimit:10;}
	.st10{stroke:#000000;stroke-width:3;stroke-miterlimit:10;}
	.st11{fill:#E69582;stroke:#000000;stroke-width:3;stroke-linejoin:round;stroke-miterlimit:10;}
	.st12{fill:#9DD5FB;}
</style>
<g id="Layer_2">
	<g>
		<defs>
			<circle id="SVGID_1_" cx="432.7" cy="432.7" r="432.7"/>
		</defs>
		<use xlink:href="#SVGID_1_"  style="overflow:visible;fill:#9DD5FB;"/>
		<clipPath id="SVGID_2_">
			<use xlink:href="#SVGID_1_"  style="overflow:visible;"/>
		</clipPath>
		<g class="st0">
			<path class="st1" d="M657,686.1c-56.4,75.6-297.1,195-297.1,195s-45.1-26.5-54.4-42.4c-5.7-9.8-9.5-26.3-11.4-37.4
				c-1.1-6.3-1.7-10.9-1.8-11.6c0-0.1,0-0.1,0-0.1s0.3,0,0.9-0.2c0.2,0,0.3-0.1,0.5-0.1c0.2,0,0.4-0.1,0.6-0.1
				c0.5-0.1,1-0.2,1.6-0.3c0.2,0,0.3-0.1,0.5-0.1c0.2,0,0.4-0.1,0.6-0.1c5-0.9,13.5-2.4,24.3-4.5c1.1-0.2,2.2-0.4,3.3-0.6
				c2.2-0.4,4.5-0.9,6.9-1.4c0.8-0.2,1.7-0.3,2.5-0.5c0.4-0.1,0.8-0.1,1.1-0.2c0.3-0.1,0.6-0.1,0.9-0.2s0.6-0.1,0.9-0.2
				c0.9-0.2,1.8-0.4,2.8-0.6c0.9-0.2,1.9-0.4,2.8-0.6c1-0.2,1.9-0.4,2.9-0.6c1-0.2,1.9-0.4,2.9-0.6c8.1-1.7,16.7-3.5,25.5-5.5
				c1.5-0.3,2.9-0.7,4.4-1c1.2-0.3,2.4-0.5,3.6-0.8c2-0.5,4-0.9,6-1.4c2.7-0.6,5.4-1.3,8.1-1.9c0.3-0.1,0.6-0.2,0.9-0.2
				c2.7-0.6,5.3-1.3,8-2c2.9-0.7,5.8-1.4,8.7-2.2c0,0,0.1,0,0.2,0c3.6-0.9,7.2-1.9,10.8-2.8c9-2.4,17.7-4.9,25.8-7.5
				c0.8-0.2,1.6-0.5,2.4-0.8c1.7-0.5,3.4-1.1,5-1.6c1.6-0.5,3.2-1.1,4.8-1.7c0.4-0.1,0.9-0.3,1.3-0.5c0.1,0,0.3-0.1,0.5-0.2
				c0.6-0.2,1.2-0.4,1.7-0.6c0.1,0,0.1,0,0.2-0.1c0.1,0,0.1,0,0.2-0.1c1-0.4,2-0.7,3-1.1c1.8-0.7,3.5-1.3,5.1-2
				c1.1-0.4,2.2-0.9,3.2-1.3c1.6-0.7,3.1-1.3,4.5-2c0.7-0.3,1.4-0.6,2-1c5.2-2.5,9.3-5,12.3-7.5c31.2-26.5,74.9-62.3,82.9-100.8
				c8-38.5,24.5-89.5,24.5-89.5s0.3,0.3,0.8,0.9l0.4,0.4c1.3,1.3,3.6,3.5,6.8,5.8c0.6,0.4,1.2,0.9,1.8,1.3c0.9,0.6,1.8,1.2,2.7,1.8
				c1,0.6,2,1.2,3,1.8c3.6,2.1,7.7,4,12.2,5.4c0.4,0.1,0.7,0.2,1.1,0.3c0.4,0.1,0.7,0.2,1.1,0.3c0.4,0.1,0.7,0.2,1.1,0.3
				c0.4,0.1,0.9,0.2,1.3,0.3c0.4,0.1,0.9,0.2,1.3,0.2c0.9,0.2,1.8,0.3,2.7,0.4c0.4,0,0.7,0.1,1.1,0.1c0.3,0,0.7,0.1,1.1,0.1
				c0.7,0,1.4,0.1,2,0.1c0.4,0,0.9,0,1.3,0c1.5,0,3-0.1,4.5-0.2c0.5,0,1-0.1,1.5-0.2c0.2,0,0.5-0.1,0.8-0.1c0.5-0.1,1-0.2,1.5-0.3
				c0.5-0.1,1-0.2,1.6-0.3c0.5-0.1,1.1-0.2,1.6-0.4c0.5-0.1,1-0.3,1.6-0.5c0,0,0,0,0,0c0.8-0.2,1.6-0.5,2.4-0.8
				c3.2-1.2,6.5-2.8,9.8-4.9C681.5,678.1,713.4,610.5,657,686.1z"/>
			<path class="st2" d="M371.5,803.6c-32.6,2.4-74.5-12.2-79.3-14c-0.1,0-0.1-0.1-0.2-0.1c0.1,0,0.2,0,0.2,0c0,0,0.3,0,0.9-0.2
				c0.2,0,0.3-0.1,0.5-0.1c0.2,0,0.4-0.1,0.6-0.1c0.5-0.1,1-0.2,1.6-0.3c0.2,0,0.4,0,0.5-0.1c0.2,0,0.4-0.1,0.6-0.1
				c5-0.9,13.5-2.4,24.3-4.5c1.1-0.2,2.2-0.4,3.3-0.6c2.2-0.4,4.5-0.9,6.9-1.4c0.8-0.2,1.7-0.3,2.5-0.5c0.4-0.1,0.8-0.1,1.1-0.2
				c0.3-0.1,0.6-0.1,0.9-0.2c0.3-0.1,0.6-0.1,0.9-0.2c0.9-0.2,1.8-0.4,2.8-0.6s1.9-0.4,2.8-0.6c1-0.2,1.9-0.4,2.9-0.6
				c1-0.2,1.9-0.4,2.9-0.6c8.1-1.7,16.7-3.5,25.5-5.5c1.5-0.3,2.9-0.7,4.4-1c1.2-0.3,2.4-0.5,3.6-0.8c2-0.5,4-0.9,6-1.4
				c2.7-0.6,5.4-1.3,8.1-1.9c0.3-0.1,0.6-0.2,0.9-0.2c2.7-0.6,5.3-1.3,8-2c2.9-0.7,5.8-1.4,8.7-2.2c0,0,0.1,0,0.2,0
				c3.6-0.9,7.2-1.9,10.8-2.8c9-2.4,17.7-4.9,25.8-7.5c0.8-0.2,1.6-0.5,2.4-0.8c1.7-0.5,3.4-1.1,5-1.6c1.6-0.5,3.2-1.1,4.8-1.7
				c0.4-0.1,0.9-0.3,1.3-0.5c0.1,0,0.3-0.1,0.5-0.2c0.6-0.2,1.2-0.4,1.7-0.6c0.1,0,0.1,0,0.2-0.1c0.1,0,0.1,0,0.2-0.1
				c1-0.4,2-0.7,3-1.1c1.8-0.7,3.5-1.3,5.1-2c1.1-0.4,2.2-0.9,3.2-1.3c1.6-0.7,3.1-1.3,4.5-2c0.7-0.3,1.4-0.6,2-1
				C509.8,749.5,406.1,801.1,371.5,803.6z"/>
			<path class="st1" d="M337,610.9c0-0.1-0.1-0.2-0.1-0.3c0-0.1-0.1-0.2-0.1-0.2c-0.1-0.1-0.2-0.3-0.3-0.5c-0.9-1.6-2.8-3.8-6.9-6.7
				c-25.2-18-87.7-31.6-98.5-27.9c-14.6,5-23.3,4.7-35.8-0.8c-0.6-0.3-1.3-0.6-1.9-0.9c-1-0.5-2-0.9-3-1.5c-0.3-0.2-0.7-0.3-1-0.5
				c-0.9-0.4-1.8-0.9-2.7-1.4c-0.9-0.5-1.8-1-2.8-1.5c-0.5-0.3-1-0.5-1.5-0.7c-0.5-0.2-1-0.4-1.5-0.5c-2.3-0.6-4.6-0.5-7.1,0.3
				c-12.1,4-23.5,23.9-26.8,31.2l-0.9-0.4c19.6,53.7,20,89.6,19.2,102.6c11.8-1.6,27.8-2.6,45.4-0.7c1.3,0.1,2.7,0.3,4.1,0.5
				c5.5,0.7,11.1,1.8,16.8,3.1c2.1,0.5,4.3,1.1,6.4,1.7c2.1,0.6,4.3,1.3,6.4,2c0.7,0.2,1.4,0.5,2.1,0.8c1.4,0.5,2.9,1.1,4.3,1.6
				c0.7,0.3,1.4,0.6,2.1,0.9c0.7,0.3,1.4,0.6,2.1,0.9c0.7,0.3,1.4,0.6,2.1,1c1.1,0.5,2.2,1,3.2,1.5c1.1,0.5,2.1,0.9,3.2,1.4
				c3.2,1.4,6.2,2.6,9.3,3.7c1,0.4,2,0.8,3,1.1c2,0.7,4,1.4,5.9,2c1.9,0.6,3.8,1.2,5.6,1.8c1.9,0.6,3.7,1.1,5.5,1.6
				c1.8,0.5,3.5,0.9,5.2,1.3c0.9,0.2,1.8,0.4,2.6,0.6c1.7,0.4,3.3,0.7,4.9,1c0,0,0,0,0.1,0c1.8,0.3,3.5,0.6,5.2,0.9
				c0.6,0.1,1.1,0.2,1.7,0.3c1.6,0.2,3.2,0.5,4.8,0.6c2.7,0.3,5.2,0.6,7.6,0.7c0.8,0.1,1.7,0.1,2.5,0.2c0.8,0,1.5,0.1,2.2,0.1
				c1.9,0.1,3.6,0.1,5.2,0.1c0.3,0,0.6,0,0.9,0c0.3,0,0.6,0,0.9,0h0.5V612.2C337.3,612,337.3,611.5,337,610.9z M221.3,585.3
				c-10,4.6-18.6,9.3-34.5-3.3c-8.3-6.6-15.9-4.8-21.3-1.7c-5.5,3.2-7.2,10.4-3.8,15.7c6.4,9.9,14.6,11.9,14.6,11.9
				s-23,16.4-8.4,35.8c4.5,6,9.3,10,15.2,12.5c10.7,4.6,25.1,4,47.7,0.5c5.4-0.8,11.2-1.9,17.6-3c47.8-8.6,76.9-35.1,76.9-35.1
				S231.2,580.6,221.3,585.3z M223.3,349.2c0-0.1-0.1-0.3-0.2-0.5c-0.3-0.9-0.8-2.2-1.4-3.7c-0.3-0.7-0.6-1.5-0.9-2.3
				c-0.2-0.4-0.4-0.8-0.5-1.3c-0.1-0.2-0.2-0.4-0.3-0.7c-0.4-0.9-0.8-1.8-1.3-2.7c-0.2-0.5-0.5-0.9-0.7-1.4c0-0.1-0.1-0.1-0.1-0.2
				c-0.3-0.5-0.5-1.1-0.8-1.6c-0.3-0.6-0.7-1.2-1-1.8c-0.3-0.5-0.6-1-0.9-1.5c-0.4-0.7-0.9-1.5-1.4-2.2c-0.2-0.2-0.3-0.5-0.5-0.7
				c-0.6-0.9-1.1-1.7-1.8-2.5c-0.3-0.4-0.6-0.8-0.9-1.2c-2.1-2.8-4.5-5.3-7.1-7.4c-0.2-0.2-0.4-0.3-0.7-0.5
				c-0.5-0.4-1.1-0.8-1.6-1.1c-0.3-0.2-0.5-0.3-0.8-0.5c-0.4-0.2-0.7-0.4-1.1-0.6c-11.1-5.9-41.5-5.7-58.9-5.1
				c-0.6,1.6-1.1,3.1-1.7,4.7c-0.2,0.6-0.4,1.2-0.6,1.8c-0.2,0.7-0.5,1.5-0.7,2.2c-1.4,4.9-2.3,10-2.5,16.2c0.7-0.3,1.3-0.5,2-0.8
				c0.2-0.1,0.4-0.2,0.7-0.2c1.5-0.5,3-1,4.6-1.4c0.8-0.2,1.7-0.4,2.5-0.5c1.3-0.2,2.6-0.4,3.9-0.5c2-0.2,4-0.3,6-0.3
				c2,0,4.1,0,6.2,0.2c0.5,0,0.9,0.1,1.4,0.1c0.9,0.1,1.8,0.2,2.8,0.3c1.4,0.2,2.8,0.3,4.2,0.5c0.5,0.1,0.9,0.2,1.4,0.2
				c0.5,0.1,0.9,0.1,1.4,0.2c0.5,0.1,0.9,0.2,1.4,0.2c0.9,0.2,1.8,0.4,2.8,0.5c1.4,0.3,2.7,0.6,4.1,0.9c0.1,0,0.1,0,0.2,0
				c0.8,0.2,1.7,0.4,2.5,0.6c1.3,0.4,2.7,0.7,4,1.1c0.4,0.1,0.9,0.2,1.3,0.4c0.4,0.1,0.9,0.3,1.3,0.4c0.4,0.1,0.9,0.3,1.3,0.4
				c1.3,0.4,2.5,0.8,3.8,1.2c1.2,0.4,2.4,0.8,3.6,1.3c0.8,0.3,1.7,0.6,2.5,0.9c0.8,0.3,1.6,0.6,2.4,0.9c0.8,0.3,1.6,0.6,2.3,0.9
				c1.1,0.5,2.2,0.9,3.3,1.3c1.4,0.6,2.7,1.2,4,1.7c0.6,0.3,1.2,0.5,1.8,0.8c0.6,0.3,1.1,0.5,1.7,0.8c0.3,0.1,0.5,0.2,0.8,0.4
				c1.5,0.7,2.8,1.3,3.9,1.9c0.3,0.1,0.5,0.2,0.7,0.4c0.2,0.1,0.4,0.2,0.6,0.3c0.1,0.1,0.2,0.1,0.4,0.2c0.2,0.1,0.3,0.2,0.5,0.2
				c0.1,0,0.1,0,0.1,0.1c0.3,0.2,0.5,0.3,0.6,0.3C223.6,350.3,223.5,349.9,223.3,349.2z M209.4,388.9L209.4,388.9
				c-0.5,0.1-0.9,0.2-1.3,0.3C208.5,389.1,209,389,209.4,388.9C209.4,388.9,209.5,388.9,209.4,388.9c3.7-9.6,6.8-18.1,9.2-24.7
				L209.4,388.9z M204.2,368.2c-2.7,0-4.9,2.2-4.9,4.9c0,2.7,2.2,4.9,4.9,4.9c2.7,0,4.9-2.2,4.9-4.9
				C209.1,370.3,206.9,368.2,204.2,368.2z M254.1,522.1c0,0-0.1-0.1-0.1-0.2c-0.2-0.2-0.5-0.4-0.9-0.6c-0.2-0.1-0.4-0.2-0.6-0.2
				c-0.2-0.1-0.4-0.2-0.7-0.2c-0.6-0.2-1.3-0.4-2.1-0.5c-0.5-0.1-1-0.2-1.5-0.3c-0.4-0.1-0.8-0.1-1.2-0.2c-0.4,0-0.8-0.1-1.3-0.1
				c-0.9-0.1-1.8-0.2-2.8-0.2c-0.4,0-0.7,0-1.1,0c-0.4,0-0.7,0-1.1,0c-0.3,0-0.5,0-0.8,0c-0.2,0-0.5,0-0.8,0c-0.3,0-0.5,0-0.8,0
				c-0.2,0-0.5,0-0.8,0c-0.4,0-0.8,0-1.1,0c-0.4,0-0.7,0-1.1,0c-0.5,0-1,0-1.4,0.1c-0.5,0-0.9,0.1-1.3,0.1c-0.4,0-0.7,0.1-1,0.1
				c-0.5,0.1-1,0.1-1.4,0.2c-0.5,0.1-1,0.2-1.5,0.3c-0.2,0-0.3,0.1-0.5,0.1c-0.5,0.1-1,0.2-1.5,0.4c-0.3,0.1-0.6,0.2-0.9,0.3
				c-0.2,0.1-0.4,0.2-0.6,0.2c-0.1,0-0.2,0.1-0.2,0.1c-0.2,0.1-0.3,0.2-0.4,0.3c-0.1,0-0.1,0.1-0.2,0.1c-0.2,0.2-0.3,0.4-0.3,0.6
				c0,0.2,0.1,0.4,0.3,0.6c0.1,0.1,0.2,0.2,0.4,0.3c0.1,0.1,0.2,0.1,0.4,0.2c0.1,0.1,0.3,0.2,0.4,0.2c0.2,0.1,0.3,0.1,0.5,0.2
				c0.2,0.1,0.4,0.1,0.6,0.2c0.8,0.2,1.8,0.5,2.9,0.7c0.4,0.1,0.8,0.1,1.2,0.2c0.3,0,0.5,0.1,0.8,0.1c0.6,0.1,1.2,0.1,1.8,0.2
				c1.8,0.2,3.8,0.2,5.9,0.2c2.1,0,4.1-0.1,5.9-0.2c0.7-0.1,1.3-0.1,1.9-0.2c0.2,0,0.4-0.1,0.6-0.1c0.4-0.1,0.8-0.1,1.1-0.2
				c1.1-0.2,2.1-0.4,2.9-0.7c0.2-0.1,0.4-0.1,0.6-0.2c0.2-0.1,0.3-0.1,0.5-0.2c0.3-0.1,0.6-0.3,0.8-0.4c0.2-0.1,0.3-0.2,0.4-0.4
				c0-0.1,0.1-0.1,0.1-0.2c0,0,0,0,0-0.1c0,0,0-0.1,0.1-0.2c0-0.1,0-0.1,0-0.2C254.2,522.3,254.2,522.2,254.1,522.1z M390,369.5
				c-2.4,0-4.4,2-4.4,4.4c0,2.5,2,4.4,4.4,4.4s4.4-2,4.4-4.4C394.4,371.5,392.4,369.5,390,369.5z M474.8,340.7
				c-0.1-0.1-0.1-0.1-0.2-0.2v0c-0.1-0.1-0.2-0.2-0.2-0.2c-0.2-0.2-0.4-0.4-0.6-0.6l-0.3-0.3c-0.2-0.2-0.4-0.4-0.6-0.6
				c-0.5-0.5-1-1-1.6-1.5c-0.3-0.3-0.7-0.7-1.1-1c-0.3-0.3-0.6-0.5-0.9-0.8c-0.7-0.7-1.5-1.4-2.3-2.1c-0.1-0.1-0.2-0.2-0.4-0.3
				c-0.1-0.1-0.2-0.2-0.4-0.3c-0.2-0.2-0.5-0.4-0.7-0.7c-0.5-0.4-1-0.9-1.5-1.4c-0.5-0.5-1.1-0.9-1.7-1.4c-0.6-0.5-1.1-1-1.7-1.5
				c-1.2-1-2.4-2-3.8-3c-0.4-0.3-0.9-0.7-1.3-1c-0.1,0-0.1-0.1-0.2-0.1c-0.2-0.1-0.3-0.3-0.5-0.4c-0.3-0.3-0.7-0.5-1-0.8
				c-0.5-0.4-1-0.8-1.6-1.2c-0.2-0.1-0.4-0.3-0.5-0.4c-0.7-0.5-1.5-1.1-2.2-1.6c-0.6-0.4-1.1-0.8-1.7-1.2c-0.2-0.1-0.4-0.3-0.6-0.4
				c-0.4-0.3-0.8-0.5-1.2-0.8c-0.8-0.5-1.6-1.1-2.4-1.6c-1-0.6-1.9-1.2-2.9-1.9c-0.5-0.3-1-0.6-1.5-0.9c-1-0.6-2-1.2-3.1-1.9
				c-0.5-0.3-1-0.6-1.5-0.8c-0.5-0.3-1.1-0.6-1.7-0.9c-0.5-0.3-1-0.5-1.5-0.8c-1-0.6-2.1-1.1-3.2-1.6c-0.1,0-0.1-0.1-0.2-0.1
				c-0.9-0.5-1.8-0.9-2.7-1.3c-0.2-0.1-0.3-0.2-0.5-0.2c-0.5-0.2-1-0.5-1.5-0.7c-0.3-0.2-0.7-0.3-1-0.5c-0.4-0.2-0.7-0.3-1.1-0.5
				c-1-0.4-1.9-0.8-2.9-1.2c-1.8-0.7-3.8-1.3-6-1.8c-0.5-0.1-1.1-0.3-1.7-0.4c-1-0.2-2-0.4-3.1-0.6c-0.3-0.1-0.7-0.1-1-0.2
				c-0.4-0.1-0.9-0.1-1.3-0.2c-0.9-0.1-1.7-0.2-2.6-0.4c-1.8-0.2-3.6-0.4-5.5-0.6c-3.3-0.3-6.9-0.5-10.5-0.6c-0.5,0-1,0-1.6,0
				c-1,0-2.1-0.1-3.1-0.1c-0.6,0-1.2,0-1.8,0c-1.7,0-3.4,0-5.1,0c-0.2,0-0.5,0-0.7,0c-0.8,0-1.7,0-2.5,0c-1.1,0-2.3,0-3.4,0
				c-0.3,0-0.6,0-0.9,0c-0.4,0-0.8,0-1.2,0c-1.2,0-2.5,0-3.7,0.1c-0.3,0-0.5,0-0.8,0c-0.5,0-1,0-1.5,0c-0.5,0-0.9,0-1.4,0.1
				c-3.4,0.1-6.8,0.3-10.2,0.5c-0.9,0-1.9,0.1-2.8,0.2c-1.2,0.1-2.4,0.2-3.6,0.2c-3.6,0.2-7.2,0.5-10.7,0.8
				c-1.1,0.1-2.3,0.2-3.4,0.3c-1.1,0.1-2.2,0.2-3.3,0.3c-0.8,0.1-1.6,0.2-2.4,0.2c-0.8,0.1-1.6,0.1-2.4,0.2
				c-0.8,0.1-1.6,0.2-2.3,0.2c-0.8,0.1-1.5,0.1-2.3,0.2c-1.5,0.1-2.9,0.3-4.3,0.4c-1.8,0.2-3.6,0.4-5.2,0.6
				c-1.6,0.2-3.2,0.4-4.6,0.5c-0.7,0.1-1.4,0.2-2.1,0.2c-0.6,0.1-1.3,0.1-1.8,0.2c-0.3,0-0.6,0.1-0.8,0.1c-0.6,0.1-1.1,0.1-1.6,0.2
				c-0.5,0.1-0.9,0.1-1.3,0.2c-0.2,0-0.4,0-0.6,0.1c-0.7,0.1-1.3,0.2-1.8,0.2c-0.1,0-0.2,0-0.3,0c-0.3,0-0.5,0.1-0.5,0.1
				c-13.3,21.2,11.1,28.7,11.1,28.7s47.3-1.3,75.2-8.8c27.5-7.4,96.7,17.4,98.6,18.1C475.2,341.1,475,340.9,474.8,340.7z"/>
			<path class="st1" d="M719.7,377.5c-3.3-4.4-7.4-8.4-12.3-11.8C684.2,349.8,663,377,663,377s-2.3,0.7-5.9,2.1
				c-11,4.4-34,15.4-40.5,32.3c-0.2,0.4-0.4,0.8-0.5,1.1c-0.1,0.5-0.2,1-0.3,1.4l-35.6,170.7c0.2-1.4,0.5-3.3,0.8-5.7
				c0.1-1.1,0.3-2.3,0.5-3.6c0-0.4,0.1-0.8,0.1-1.2c0.2-1.6,0.4-3.4,0.6-5.3c0.2-1.7,0.4-3.5,0.6-5.3c0.1-1,0.2-2,0.3-3.1
				c0.1-0.7,0.2-1.4,0.2-2.2c0.1-0.7,0.2-1.5,0.2-2.2c0.2-1.5,0.3-3,0.5-4.5c0.1-0.8,0.1-1.5,0.2-2.3c0.2-2.4,0.5-4.8,0.7-7.4
				c0.1-0.9,0.2-1.8,0.2-2.8c0.1-0.8,0.1-1.5,0.2-2.3c0.1-1.4,0.2-2.8,0.3-4.2c0.2-3,0.4-6.1,0.7-9.4c0.1-1,0.1-2,0.2-3
				c0.1-2,0.2-4,0.3-6c0.1-1.3,0.2-2.7,0.2-4c0.1-0.8,0.1-1.6,0.1-2.5c0.1-2.2,0.2-4.4,0.3-6.6c0.1-2.6,0.2-5.3,0.3-8
				c0-1.3,0.1-2.5,0.1-3.8c0-1.3,0-2.7,0.1-4c0-1.6,0.1-3.3,0.1-4.9c0.1-5.1,0.1-10.4,0.1-15.8c0-1.7,0-3.3-0.1-5v-0.5
				c0-1.7,0-3.4-0.1-5.2c0-1.6,0-3.1-0.1-4.7c-0.1-2.5-0.2-5-0.3-7.6c-0.1-2.7-0.2-5.4-0.4-8.2c-0.1-1.6-0.2-3.2-0.3-4.8
				c-0.1-1.7-0.2-3.5-0.3-5.2c-0.2-3.5-0.5-7-0.8-10.4c-0.1-1.4-0.2-2.8-0.4-4.2c-0.1-1.7-0.3-3.4-0.5-5.1v-0.1
				c-0.2-1.6-0.4-3.3-0.6-4.9c-0.6-5-1.3-10.1-2.1-15.1c-0.2-1.7-0.5-3.3-0.8-5c0-0.3-0.1-0.5-0.1-0.8c-0.2-1.4-0.5-2.8-0.7-4.1
				c-0.3-1.6-0.6-3.3-0.9-4.9c-0.1-0.6-0.2-1.2-0.4-1.9c-0.3-1.8-0.7-3.5-1.1-5.3c-0.9-3.9-1.8-7.7-2.7-11.5c-0.2-1-0.5-1.9-0.7-2.8
				c-2.3-8.7-5-17.1-8.1-25.1c-0.5-1.2-0.9-2.4-1.4-3.5c-0.5-1.3-1.1-2.7-1.7-4c-0.4-1-0.9-2-1.3-2.9c-0.6-1.4-1.3-2.8-1.9-4.1
				c-0.6-1.2-1.1-2.3-1.8-3.4c-0.5-0.9-0.9-1.8-1.4-2.7c-0.5-0.9-1-1.9-1.6-2.8c-0.5-0.9-1-1.8-1.5-2.6c-0.6-1-1.2-2-1.8-2.9
				c-0.4-0.7-0.8-1.3-1.2-1.9c-1.7-2.7-3.5-5.2-5.4-7.8c-0.5-0.7-1-1.3-1.5-2c-0.6-0.7-1.2-1.5-1.8-2.2c-0.4-0.5-0.8-1-1.2-1.5
				c-0.7-0.9-1.5-1.8-2.4-2.6c-0.3-0.4-0.7-0.8-1.1-1.2c-3.6-3.8-7.5-7.3-11.6-10.5l1.5-84.9c-8.8-2.9-191.1-52-339.3-13.3
				c0,0-31.6,70.8-36.9,105.9c-2.7,18.1-7,28.6-10.5,38c17.4-0.6,47.8-0.8,58.9,5.1c0.4,0.2,0.7,0.4,1.1,0.6
				c0.3,0.2,0.6,0.3,0.8,0.5c0.5,0.3,1.1,0.7,1.6,1.1c0.2,0.2,0.4,0.3,0.7,0.5c2.6,2.1,5,4.6,7.1,7.4c0.3,0.4,0.6,0.8,0.9,1.2
				c0.6,0.8,1.2,1.7,1.8,2.5c0.2,0.2,0.3,0.5,0.5,0.7c0.5,0.7,0.9,1.5,1.4,2.2c0.3,0.5,0.6,1,0.9,1.5c0.3,0.6,0.7,1.2,1,1.8
				c0.3,0.5,0.6,1.1,0.8,1.6c0,0.1,0.1,0.1,0.1,0.2c0.2,0.5,0.5,0.9,0.7,1.4c0.5,0.9,0.9,1.8,1.3,2.7c0.1,0.2,0.2,0.4,0.3,0.7
				c0.2,0.4,0.4,0.8,0.5,1.3c0.3,0.8,0.7,1.6,0.9,2.3c0.6,1.5,1,2.7,1.4,3.7c0.1,0.2,0.1,0.3,0.2,0.5c0.2,0.7,0.4,1.1,0.4,1.3v0
				c-0.1,0-0.3-0.2-0.6-0.3c0,0-0.1,0-0.1-0.1c-0.1-0.1-0.3-0.2-0.5-0.2c-0.1-0.1-0.2-0.1-0.4-0.2c-0.2-0.1-0.4-0.2-0.6-0.3
				c-0.2-0.1-0.5-0.2-0.7-0.4c-1-0.5-2.3-1.1-3.9-1.9c-0.2-0.1-0.5-0.2-0.8-0.4c-0.5-0.2-1.1-0.5-1.7-0.8c-0.6-0.3-1.2-0.5-1.8-0.8
				c-1.2-0.5-2.6-1.1-4-1.7c-1-0.4-2.1-0.9-3.3-1.3c-0.8-0.3-1.5-0.6-2.3-0.9c-0.8-0.3-1.6-0.6-2.4-0.9c-0.8-0.3-1.7-0.6-2.5-0.9
				c-1.2-0.4-2.4-0.8-3.6-1.3c-1.2-0.4-2.5-0.8-3.8-1.2c-0.4-0.1-0.9-0.3-1.3-0.4c-0.4-0.1-0.9-0.3-1.3-0.4
				c-0.4-0.1-0.9-0.2-1.3-0.4c-1.3-0.4-2.6-0.8-4-1.1c-0.8-0.2-1.7-0.4-2.5-0.6c-0.1,0-0.1,0-0.2,0c-1.4-0.3-2.7-0.6-4.1-0.9
				c-0.9-0.2-1.8-0.4-2.8-0.5c-0.5-0.1-0.9-0.2-1.4-0.2c-0.5-0.1-0.9-0.2-1.4-0.2c-0.5-0.1-0.9-0.1-1.4-0.2
				c-1.4-0.2-2.8-0.4-4.2-0.5c-0.9-0.1-1.8-0.2-2.8-0.3c-0.5,0-0.9-0.1-1.4-0.1c-4.2-0.3-8.3-0.3-12.2,0.1c-1.3,0.1-2.6,0.3-3.9,0.5
				c-0.9,0.2-1.7,0.3-2.5,0.5c-1.6,0.4-3.1,0.8-4.6,1.4c-0.2,0.1-0.4,0.1-0.7,0.2c-0.7,0.2-1.3,0.5-2,0.8c0,1.3,0,2.7,0,4
				c0.7,25.2,13.3,61.7,4.6,84.2c-8.6,22.5-39.8,67.7-3.3,151.2c1.9,4.3,3.7,8.5,5.3,12.7c1-1.8,2.2-3.8,3.6-5.8
				c0.5-0.7,0.9-1.4,1.4-2.1c0.7-1,1.5-2.1,2.3-3.2c5.6-7.5,13.1-15,21.6-17.8c6.4-2.1,12.6-1.5,18.5,1.7c18.2,10,24,10.8,38.6,5.8
				c16-5.5,82.2,10.9,108.1,29.3c8.2,5.8,12.1,11.6,12.1,17.7v166.4c-3.9,0.8-7.7,1.6-11.4,2.3c-0.3,0-0.6,0.1-0.9,0.2
				c-0.3,0.1-0.6,0.1-0.9,0.2c-0.4,0.1-0.8,0.1-1.1,0.2c-0.9,0.2-1.7,0.4-2.5,0.5c-2.4,0.5-4.7,0.9-6.9,1.4
				c-1.1,0.2-2.2,0.5-3.3,0.6c-10.8,2.1-19.3,3.7-24.3,4.5c-0.4,0.1-0.8,0.1-1.1,0.2c-2.4,0.5-3.7,0.7-3.7,0.7s0.1,0,0.3,0.1
				c0.1,0,0.2,0,0.2,0c0,0,0.3,0,0.9-0.2c0.2,0,0.3-0.1,0.5-0.1c0.2,0,0.4-0.1,0.6-0.1c0.5-0.1,1-0.2,1.6-0.3c0.2,0,0.4,0,0.5-0.1
				c0.2,0,0.4-0.1,0.6-0.1c5-0.9,13.5-2.4,24.3-4.5c1.1-0.2,2.2-0.4,3.3-0.6c2.2-0.4,4.5-0.9,6.9-1.4c0.8-0.2,1.7-0.3,2.5-0.5
				c0.4-0.1,0.8-0.1,1.1-0.2c0.3-0.1,0.6-0.1,0.9-0.2c0.3-0.1,0.6-0.1,0.9-0.2c0.9-0.2,1.8-0.4,2.8-0.6s1.9-0.4,2.8-0.6
				c1-0.2,1.9-0.4,2.9-0.6c1-0.2,1.9-0.4,2.9-0.6c8.1-1.7,16.7-3.5,25.5-5.5c1.5-0.3,2.9-0.7,4.4-1c1.2-0.3,2.4-0.5,3.6-0.8
				c2-0.5,4-0.9,6-1.4c2.7-0.6,5.4-1.3,8.1-1.9c0.3-0.1,0.6-0.2,0.9-0.2c2.7-0.6,5.3-1.3,8-2c2.9-0.7,5.8-1.4,8.7-2.2
				c0,0,0.1,0,0.2,0c3.6-0.9,7.2-1.9,10.8-2.8c9-2.4,17.7-4.9,25.8-7.5c0.8-0.2,1.6-0.5,2.4-0.8c1.7-0.5,3.4-1.1,5-1.6
				c1.6-0.5,3.2-1.1,4.8-1.7c0.4-0.1,0.9-0.3,1.3-0.5c0.1,0,0.3-0.1,0.5-0.2c0.6-0.2,1.2-0.4,1.7-0.6c0.1,0,0.1,0,0.2-0.1
				c0.1,0,0.1,0,0.2-0.1c1-0.4,2-0.7,3-1.1c1.8-0.7,3.5-1.3,5.1-2c1.1-0.4,2.2-0.9,3.2-1.3c1.6-0.7,3.1-1.3,4.5-2
				c0.7-0.3,1.4-0.6,2-1c5.2-2.5,9.3-5,12.3-7.5c31.2-26.5,74.9-62.3,82.9-100.8c8-38.5,24.5-89.5,24.5-89.5s0.3,0.3,0.8,0.9
				c0.1,0.1,0.2,0.2,0.4,0.4c1.3,1.3,3.6,3.5,6.8,5.8c0.6,0.4,1.2,0.9,1.8,1.3c0.9,0.6,1.8,1.2,2.7,1.8c1,0.6,2,1.2,3,1.8
				c3.6,2.1,7.7,4,12.2,5.4c0.4,0.1,0.7,0.2,1.1,0.3c0.4,0.1,0.7,0.2,1.1,0.3c0.4,0.1,0.7,0.2,1.1,0.3c0.4,0.1,0.9,0.2,1.3,0.3
				c0.4,0.1,0.9,0.2,1.3,0.2c0.9,0.2,1.8,0.3,2.7,0.4c0.4,0,0.7,0.1,1.1,0.1c0.3,0,0.7,0.1,1.1,0.1c0.7,0,1.4,0.1,2,0.1
				c0.4,0,0.9,0,1.3,0c1.5,0,3-0.1,4.5-0.2c0.5,0,1-0.1,1.5-0.2c0.2,0,0.5-0.1,0.8-0.1c0.5-0.1,1-0.2,1.5-0.3c0.5-0.1,1-0.2,1.6-0.3
				c0.5-0.1,1.1-0.2,1.6-0.4c0.5-0.2,1-0.3,1.6-0.5c0,0,0,0,0,0c0.8-0.2,1.6-0.5,2.4-0.8c3.2-1.2,6.5-2.8,9.8-4.9
				c0,0,23.2-23.2,35.2-55c12-31.8,14.6-63.7,21.9-75.6C733.7,414.7,732.1,393.7,719.7,377.5z M209.5,388.9
				C209.5,388.9,209.4,388.9,209.5,388.9c-0.5,0.1-0.9,0.2-1.4,0.3c-0.8,0.2-1.6,0.3-2.4,0.5c-0.3,0.1-0.7,0.1-1,0.2
				c-0.8,0.1-1.5,0.3-2.3,0.4c-0.7,0.1-1.5,0.2-2.2,0.4c-0.7,0.1-1.5,0.2-2.2,0.3c0,0,0,0,0,0c-12.9,1.9-26.7,2.6-32.5,1.1
				c-11.9-3.1-25.7-29.2,5.7-36.3c8.6-1.9,16.8-1.7,24.1-0.4c9.7,1.8,17.8,5.6,23.5,8.8C216.3,370.8,213.1,379.3,209.5,388.9z
				 M254.2,522.6c0,0,0,0.1-0.1,0.2c0,0,0,0,0,0.1c0,0.1-0.1,0.1-0.1,0.2c-0.1,0.1-0.2,0.2-0.4,0.4c-0.2,0.2-0.5,0.3-0.8,0.4
				c-0.2,0.1-0.3,0.1-0.5,0.2c-0.2,0.1-0.4,0.1-0.6,0.2c-0.8,0.2-1.8,0.5-2.9,0.7c-0.4,0.1-0.8,0.1-1.1,0.2c-0.2,0-0.4,0.1-0.6,0.1
				c-0.6,0.1-1.3,0.1-1.9,0.2c-1.8,0.2-3.8,0.2-5.9,0.2c-2.1,0-4.1-0.1-5.9-0.2c-0.6,0-1.2-0.1-1.8-0.2c-0.3,0-0.5-0.1-0.8-0.1
				c-0.4,0-0.8-0.1-1.2-0.2c-1.1-0.2-2.1-0.4-2.9-0.7c-0.2-0.1-0.4-0.1-0.6-0.2c-0.2-0.1-0.3-0.1-0.5-0.2c-0.2-0.1-0.3-0.1-0.4-0.2
				c-0.1-0.1-0.2-0.1-0.4-0.2c-0.1-0.1-0.3-0.2-0.4-0.3c-0.2-0.2-0.3-0.4-0.3-0.6c0-0.2,0.1-0.4,0.3-0.6c0,0,0.1-0.1,0.2-0.1
				c0.1-0.1,0.3-0.2,0.4-0.3c0.1,0,0.2-0.1,0.2-0.1c0.2-0.1,0.4-0.2,0.6-0.2c0.3-0.1,0.5-0.2,0.9-0.3c0.5-0.1,0.9-0.3,1.5-0.4
				c0.2,0,0.3-0.1,0.5-0.1c0.5-0.1,1-0.2,1.5-0.3c0.5-0.1,0.9-0.1,1.4-0.2c0.3,0,0.7-0.1,1-0.1c0.4-0.1,0.9-0.1,1.3-0.1
				c0.5,0,0.9-0.1,1.4-0.1c0.4,0,0.7,0,1.1,0c0.4,0,0.7,0,1.1,0c0.2,0,0.5,0,0.8,0c0.3,0,0.5,0,0.8,0c0.3,0,0.5,0,0.8,0
				c0.3,0,0.5,0,0.8,0c0.4,0,0.8,0,1.1,0c0.4,0,0.7,0,1.1,0c1,0,1.9,0.1,2.8,0.2c0.4,0,0.9,0.1,1.3,0.1c0.4,0.1,0.8,0.1,1.2,0.2
				c0.5,0.1,1,0.2,1.5,0.3c0.8,0.2,1.5,0.3,2.1,0.5c0.2,0.1,0.5,0.1,0.7,0.2c0.2,0.1,0.4,0.2,0.6,0.2c0.4,0.2,0.7,0.4,0.9,0.6
				c0.1,0,0.1,0.1,0.1,0.2c0.1,0.1,0.1,0.3,0.1,0.4C254.2,522.5,254.2,522.6,254.2,522.6z M290.5,303.2c0,0,0.2,0,0.5-0.1
				c0.1,0,0.2,0,0.3,0c0.4-0.1,1-0.1,1.8-0.2c0.2,0,0.4-0.1,0.6-0.1c0.4-0.1,0.9-0.1,1.3-0.2c0.5-0.1,1-0.1,1.6-0.2
				c0.3,0,0.6-0.1,0.8-0.1c0.6-0.1,1.2-0.1,1.8-0.2c0.7-0.1,1.3-0.2,2.1-0.2c1.4-0.2,3-0.3,4.6-0.5c1.7-0.2,3.4-0.4,5.2-0.6
				c1.4-0.1,2.8-0.3,4.3-0.4c0.7-0.1,1.5-0.2,2.3-0.2c0.8-0.1,1.5-0.1,2.3-0.2c0.8-0.1,1.6-0.2,2.4-0.2c0.8-0.1,1.6-0.1,2.4-0.2
				c1.1-0.1,2.2-0.2,3.3-0.3c1.1-0.1,2.3-0.2,3.4-0.3c3.5-0.3,7-0.5,10.7-0.8c1.2-0.1,2.4-0.2,3.6-0.2c0.9-0.1,1.8-0.1,2.8-0.2
				c3.4-0.2,6.8-0.4,10.2-0.5c0.5,0,0.9,0,1.4-0.1c0.5,0,1,0,1.5,0c0.3,0,0.5,0,0.8,0c1.7-0.1,3.3-0.1,4.9-0.1
				c2.3-0.1,4.6-0.1,6.9-0.1c2,0,3.9,0,5.9,0c0.6,0,1.2,0,1.8,0c1.1,0,2.1,0,3.1,0.1c0.5,0,1.1,0,1.6,0c3.6,0.1,7.1,0.3,10.5,0.6
				c1.9,0.2,3.8,0.4,5.5,0.6c0.9,0.1,1.8,0.2,2.6,0.4c0.4,0.1,0.9,0.1,1.3,0.2c0.4,0.1,0.7,0.1,1,0.2c1.1,0.2,2.1,0.4,3.1,0.6
				c0.6,0.1,1.2,0.2,1.7,0.4c2.2,0.5,4.2,1.1,6,1.8c1,0.4,1.9,0.8,2.9,1.2c0.4,0.1,0.7,0.3,1.1,0.5c0.3,0.1,0.7,0.3,1,0.5
				c0.5,0.2,1,0.4,1.5,0.7c0.2,0.1,0.3,0.2,0.5,0.2c0.9,0.4,1.8,0.9,2.7,1.3c0.1,0,0.1,0.1,0.2,0.1c1.1,0.5,2.1,1.1,3.2,1.6
				c0.5,0.3,1,0.5,1.5,0.8c0.5,0.3,1.1,0.6,1.7,0.9c0.5,0.3,1,0.6,1.5,0.8c1,0.6,2.1,1.2,3.1,1.9c0.5,0.3,1,0.6,1.5,0.9
				c1,0.6,1.9,1.2,2.9,1.9c0.8,0.5,1.6,1.1,2.4,1.6c0.4,0.3,0.8,0.5,1.2,0.8c0.2,0.1,0.4,0.3,0.6,0.4c0,0,0.1,0.1,0.2,0.1
				c0.5,0.4,1,0.7,1.5,1.1c0.7,0.5,1.5,1.1,2.2,1.6c0.2,0.1,0.4,0.3,0.5,0.4c0.1,0.1,0.2,0.2,0.3,0.2c0.4,0.3,0.9,0.6,1.3,1
				c0.4,0.3,0.7,0.5,1,0.8c0.2,0.1,0.3,0.3,0.5,0.4c0.1,0.1,0.1,0.1,0.2,0.2c0.4,0.3,0.9,0.7,1.3,1c1.3,1,2.6,2,3.8,3
				c0.6,0.5,1.2,1,1.7,1.5c0.6,0.5,1.1,1,1.7,1.4c0.5,0.5,1,0.9,1.5,1.4c0.2,0.2,0.5,0.4,0.7,0.7c0.1,0.1,0.2,0.2,0.4,0.3
				c0.1,0.1,0.2,0.2,0.4,0.3c0.8,0.7,1.6,1.4,2.3,2.1c0.3,0.3,0.6,0.5,0.9,0.8c0.4,0.4,0.7,0.7,1.1,1c0.6,0.6,1.1,1.1,1.6,1.5
				c0.2,0.2,0.4,0.4,0.6,0.6c0.1,0.1,0.2,0.2,0.3,0.3c0.2,0.2,0.4,0.4,0.6,0.6c0.1,0.1,0.2,0.2,0.2,0.2v0c0.1,0.1,0.1,0.1,0.2,0.2
				c0.3,0.3,0.4,0.4,0.5,0.5c-1.9-0.7-71.1-25.5-98.6-18.1c-27.9,7.5-75.2,8.8-75.2,8.8S277.2,324.4,290.5,303.2z M320.5,373
				c0,0,22.6-13.6,51.1-13.5c13,0,27.3,3,41.1,11.3c6.8,4.1,13.6,9.6,20,16.7c0,0-1.6-0.8-25.3,0.6c-1.5,0.1-3.1,0.2-4.8,0.3
				c-10.4,0.7-18.2,2.8-26.1,3.7C363.1,393.9,349.1,392.1,320.5,373z"/>
			<path class="st3" d="M719.7,377.5c-3.3-4.4-7.4-8.4-12.3-11.8C684.2,349.8,663,377,663,377s-2.3,0.7-5.9,2.1
				c-11,4.4-34,15.4-40.5,32.3c-0.2,0.4-0.4,0.8-0.5,1.1c-0.1,0.5-0.2,1-0.3,1.4l-35.6,170.7c0.2-1.4,0.5-3.3,0.8-5.7
				c0.2-1.1,0.3-2.3,0.5-3.6c0-0.4,0.1-0.8,0.1-1.2c0.2-1.6,0.4-3.4,0.6-5.3c0.2-1.7,0.4-3.5,0.6-5.3c0.1-1,0.2-2,0.3-3.1
				c0.1-0.7,0.2-1.4,0.2-2.2c0.1-0.7,0.2-1.5,0.2-2.2c0.2-1.5,0.3-3,0.5-4.5c0.1-0.8,0.1-1.5,0.2-2.3c0.2-2.4,0.5-4.8,0.7-7.4
				c0.1-0.9,0.2-1.8,0.2-2.8c0.1-0.8,0.1-1.5,0.2-2.3c0.1-1.4,0.2-2.8,0.3-4.2c0.2-3,0.4-6.1,0.7-9.4c0.1-1,0.1-2,0.2-3
				c0.1-2,0.2-4,0.3-6c0.1-1.3,0.2-2.7,0.2-4c0.1-0.8,0.1-1.6,0.1-2.5c0.1-2.2,0.2-4.4,0.3-6.6c0.1-2.6,0.2-5.3,0.3-8
				c0-1.3,0.1-2.5,0.1-3.8c0-1.3,0-2.7,0.1-4c0-1.6,0.1-3.3,0.1-4.9c0.1-5.1,0.1-10.4,0.1-15.8c0-1.7,0-3.3-0.1-5v-0.5
				c0-1.7,0-3.4-0.1-5.2c0-1.6,0-3.1-0.1-4.7c-0.1-2.5-0.2-5-0.3-7.6c-0.1-2.7-0.2-5.4-0.4-8.2c-0.1-1.6-0.2-3.2-0.3-4.8
				c-0.1-1.7-0.2-3.5-0.3-5.2c-0.2-3.5-0.5-7-0.8-10.4c-0.1-1.4-0.2-2.8-0.4-4.2c-0.1-1.7-0.3-3.4-0.5-5.1v-0.1
				c-0.2-1.6-0.4-3.3-0.6-4.9c-0.6-5-1.3-10.1-2.1-15.1c-0.2-1.7-0.5-3.3-0.8-5c0-0.3-0.1-0.5-0.1-0.8c-0.2-1.4-0.5-2.8-0.7-4.1
				c-0.3-1.6-0.6-3.3-0.9-4.9c-0.1-0.6-0.2-1.2-0.4-1.9c-0.3-1.8-0.7-3.5-1.1-5.3c-0.9-3.9-1.8-7.7-2.7-11.5c-0.2-1-0.5-1.9-0.7-2.8
				c-2.3-8.7-5-17.1-8.1-25.1c-0.5-1.2-0.9-2.4-1.4-3.5c-0.5-1.3-1.1-2.7-1.7-4c-0.4-1-0.9-2-1.3-2.9c-0.6-1.4-1.3-2.8-1.9-4.1
				c-0.6-1.2-1.1-2.3-1.8-3.4c-0.5-0.9-0.9-1.8-1.4-2.7c-0.5-0.9-1-1.9-1.6-2.8c-0.5-0.9-1-1.8-1.5-2.6c-0.6-1-1.2-2-1.8-2.9
				c-0.4-0.7-0.8-1.3-1.2-1.9c-1.7-2.7-3.5-5.2-5.4-7.8c-0.5-0.7-1-1.3-1.5-2c-0.6-0.7-1.2-1.5-1.8-2.2c-0.4-0.5-0.8-1-1.2-1.5
				c-0.7-0.9-1.5-1.8-2.4-2.6c-0.3-0.4-0.7-0.8-1.1-1.2c-3.6-3.8-7.5-7.3-11.6-10.5l1.5-84.9c-8.8-2.9-191.1-52-339.3-13.3
				c0,0,47.3-141.5,239.6-133.5C617.8,40,769.2,107.6,719.7,377.5z"/>
			<path class="st4" d="M223.7,350.5L223.7,350.5c-0.1,0-0.3-0.1-0.6-0.3c0,0-0.1,0-0.1-0.1c-0.1-0.1-0.3-0.2-0.5-0.2
				c-0.1-0.1-0.2-0.1-0.4-0.2c-0.2-0.1-0.4-0.2-0.6-0.3c-0.2-0.1-0.5-0.2-0.7-0.4c-1-0.5-2.3-1.1-3.9-1.9c-0.2-0.1-0.5-0.2-0.8-0.4
				c-0.5-0.2-1.1-0.5-1.7-0.8c-0.6-0.3-1.2-0.5-1.8-0.8c-1.2-0.5-2.6-1.1-4-1.7c-1-0.4-2.1-0.9-3.3-1.3c-0.8-0.3-1.5-0.6-2.3-0.9
				c-0.8-0.3-1.6-0.6-2.4-0.9c-0.8-0.3-1.7-0.6-2.5-0.9c-1.2-0.4-2.4-0.8-3.6-1.3c-1.2-0.4-2.5-0.8-3.8-1.2
				c-0.4-0.1-0.8-0.3-1.3-0.4l-1.3-0.4c-0.4-0.1-0.9-0.3-1.3-0.4c-1.3-0.4-2.6-0.8-4-1.1c-0.8-0.2-1.7-0.4-2.5-0.6
				c-0.1,0-0.1,0-0.2,0c-1.4-0.3-2.7-0.7-4.1-0.9c-0.9-0.2-1.8-0.4-2.8-0.5c-0.5-0.1-0.9-0.2-1.4-0.2c-0.5-0.1-0.9-0.2-1.4-0.2
				c-0.5-0.1-0.9-0.2-1.4-0.2c-1.4-0.2-2.8-0.4-4.2-0.5c-0.9-0.1-1.8-0.2-2.8-0.3c-0.5,0-0.9-0.1-1.4-0.1c-4.2-0.3-8.3-0.3-12.2,0.1
				c-1.3,0.1-2.6,0.3-3.9,0.5c-0.9,0.1-1.7,0.3-2.5,0.5c-1.6,0.4-3.1,0.8-4.6,1.4c-0.2,0.1-0.4,0.1-0.7,0.2c-0.7,0.2-1.3,0.5-2,0.8
				c0.2-6.2,1.1-11.3,2.5-16.2c0.2-0.7,0.4-1.5,0.7-2.2c0.2-0.6,0.4-1.2,0.6-1.8c0.5-1.6,1.1-3.1,1.7-4.7
				c17.4-0.6,47.8-0.8,58.9,5.1c0.4,0.2,0.7,0.4,1.1,0.6c0.3,0.2,0.6,0.3,0.8,0.5c0.5,0.3,1.1,0.7,1.6,1.1c0.2,0.2,0.4,0.3,0.7,0.5
				c2.6,2.1,5,4.6,7.1,7.4c0.3,0.4,0.6,0.8,0.9,1.2c0.6,0.8,1.2,1.7,1.8,2.5c0.2,0.2,0.3,0.5,0.5,0.7c0.5,0.7,0.9,1.5,1.4,2.2
				c0.3,0.5,0.6,1,0.9,1.5c0.3,0.6,0.7,1.2,1,1.8c0.3,0.5,0.6,1.1,0.8,1.6c0,0.1,0.1,0.1,0.1,0.2c0.2,0.5,0.5,1,0.7,1.4
				c0.5,0.9,0.9,1.8,1.3,2.7c0.1,0.2,0.2,0.4,0.3,0.7c0.2,0.4,0.4,0.8,0.5,1.3c0.3,0.8,0.7,1.6,0.9,2.3c0.6,1.5,1,2.7,1.4,3.7
				c0.1,0.2,0.1,0.3,0.2,0.5C223.5,349.9,223.6,350.3,223.7,350.5z"/>
			<path class="st3" d="M475.3,341.2c-1.9-0.7-71.1-25.5-98.6-18.1c-27.9,7.5-75.2,8.8-75.2,8.8s-24.3-7.5-11.1-28.7
				c0,0,0.2,0,0.5-0.1c0.1,0,0.2,0,0.3,0c0.4-0.1,1-0.1,1.8-0.2c0.2,0,0.4-0.1,0.6-0.1c0.4-0.1,0.9-0.1,1.3-0.2
				c0.5-0.1,1-0.1,1.6-0.2c0.3,0,0.6-0.1,0.8-0.1c0.6-0.1,1.2-0.1,1.8-0.2c0.7-0.1,1.3-0.2,2.1-0.2c1.4-0.2,3-0.3,4.6-0.5
				c1.7-0.2,3.4-0.4,5.2-0.6c1.4-0.1,2.8-0.3,4.3-0.4c0.7-0.1,1.5-0.1,2.3-0.2c0.8-0.1,1.5-0.1,2.3-0.2c0.8-0.1,1.6-0.2,2.4-0.2
				c0.8-0.1,1.6-0.1,2.4-0.2c1.1-0.1,2.2-0.2,3.3-0.3c1.1-0.1,2.3-0.2,3.4-0.3c3.5-0.3,7-0.5,10.7-0.8c1.2-0.1,2.4-0.2,3.6-0.2
				c0.9,0,1.9-0.1,2.8-0.2c3.4-0.2,6.8-0.4,10.2-0.5c0.6,0,1.2,0,1.9-0.1c0.6,0,1.2,0,1.9-0.1c1.2,0,2.5-0.1,3.7-0.1
				c0.4,0,0.8,0,1.2,0c0.3,0,0.6,0,0.9,0c1.1,0,2.3,0,3.4,0c2.8,0,5.6,0,8.4,0c0.6,0,1.2,0,1.8,0c1.1,0,2.1,0,3.1,0.1
				c0.5,0,1.1,0,1.6,0c3.6,0.1,7.1,0.3,10.5,0.6c1.9,0.2,3.8,0.4,5.5,0.6c0.9,0.1,1.8,0.2,2.6,0.4c0.4,0.1,0.9,0.1,1.3,0.2
				c0.3,0.1,0.7,0.1,1,0.2c1.1,0.2,2.1,0.4,3.1,0.6c0.6,0.1,1.2,0.2,1.7,0.4c2.2,0.5,4.2,1.1,6,1.8c1,0.4,1.9,0.8,2.9,1.2
				c0.4,0.1,0.7,0.3,1.1,0.5c0.3,0.1,0.7,0.3,1,0.5c0.5,0.2,1,0.4,1.5,0.7c0.2,0.1,0.3,0.2,0.5,0.2c0.9,0.4,1.8,0.9,2.7,1.3
				c0.1,0,0.1,0.1,0.2,0.1c1.1,0.5,2.1,1.1,3.2,1.6c0.5,0.3,1,0.5,1.5,0.8c0.5,0.3,1.1,0.6,1.7,0.9c0.5,0.3,1,0.6,1.5,0.8
				c1,0.6,2.1,1.2,3.1,1.9c0.5,0.3,1,0.6,1.5,0.9c1,0.6,1.9,1.2,2.9,1.9c0.8,0.5,1.6,1.1,2.4,1.6c0.4,0.3,0.8,0.5,1.2,0.8
				c0.2,0.1,0.4,0.3,0.6,0.4v0c0.1,0,0.1,0.1,0.2,0.1c0.5,0.4,1,0.7,1.5,1.1c0.7,0.5,1.5,1.1,2.2,1.6c0.2,0.1,0.4,0.3,0.5,0.4v0
				c0.1,0.1,0.2,0.2,0.3,0.2c0.4,0.3,0.9,0.6,1.3,1c0.4,0.3,0.7,0.5,1,0.8c0.2,0.1,0.3,0.3,0.5,0.4v0c0.1,0,0.1,0.1,0.2,0.1
				c0.4,0.4,0.9,0.7,1.3,1c1.3,1,2.6,2,3.8,3c0.6,0.5,1.2,1,1.7,1.5c0.6,0.5,1.1,1,1.7,1.4c0.5,0.5,1,0.9,1.5,1.4
				c0.2,0.2,0.5,0.4,0.7,0.7c0.1,0.1,0.2,0.2,0.4,0.3v0c0.1,0.1,0.2,0.2,0.4,0.3c0.8,0.7,1.6,1.4,2.3,2.1c0.3,0.3,0.6,0.6,0.9,0.8
				c0.4,0.4,0.7,0.7,1.1,1c0.6,0.6,1.1,1.1,1.6,1.5c0.2,0.2,0.4,0.4,0.6,0.6c0.1,0.1,0.2,0.2,0.3,0.3c0.2,0.2,0.4,0.4,0.6,0.6
				c0.1,0.1,0.2,0.2,0.2,0.2v0c0.1,0.1,0.1,0.1,0.2,0.2C475,340.9,475.2,341.1,475.3,341.2z"/>
			<path class="st3" d="M209.1,373c0,2.7-2.2,4.9-4.9,4.9c-2.7,0-4.9-2.2-4.9-4.9c0-2.7,2.2-4.9,4.9-4.9
				C206.9,368.2,209.1,370.3,209.1,373z"/>
			<path class="st5" d="M209.1,373c0,2.7-2.2,4.9-4.9,4.9c-2.7,0-4.9-2.2-4.9-4.9c0-2.7,2.2-4.9,4.9-4.9
				C206.9,368.2,209.1,370.3,209.1,373z"/>
			<path class="st5" d="M218.7,364.2c-2.4,6.5-5.6,15.1-9.2,24.7c0,0,0,0,0,0c-0.4,0.1-0.9,0.2-1.3,0.3c0.4-0.1,0.9-0.2,1.3-0.3h0
				L218.7,364.2z"/>
			<path class="st6" d="M197.9,391c-12.9,1.9-26.7,2.6-32.5,1.1c-11.9-3.1-25.7-29.2,5.7-36.3c8.6-1.9,16.8-1.7,24.1-0.4
				c-6.2,3.2-10.3,9.7-10.3,17.2C184.8,381.1,190.2,388.3,197.9,391z"/>
			<path class="st5" d="M209.1,373c0,2.7-2.2,4.9-4.9,4.9c-2.7,0-4.9-2.2-4.9-4.9c0-2.7,2.2-4.9,4.9-4.9
				C206.9,368.2,209.1,370.3,209.1,373z"/>
			<path class="st5" d="M218.7,364.2c-2.4,6.5-5.6,15.1-9.2,24.7c0,0,0,0,0,0c-0.4,0.1-0.9,0.2-1.3,0.3c0.4-0.1,0.9-0.2,1.3-0.3h0
				L218.7,364.2z"/>
			<path class="st7" d="M195.1,355.4c-6.2,3.2-10.3,9.7-10.3,17.2c0,8.5,5.5,15.8,13.1,18.4c0,0,0,0,0,0c0.8-0.1,1.5-0.2,2.2-0.3
				c0.8-0.1,1.5-0.2,2.2-0.4c0.8-0.1,1.5-0.3,2.3-0.4c0.4-0.1,0.7-0.1,1-0.2c0.8-0.2,1.6-0.3,2.4-0.5c0.4-0.1,0.9-0.2,1.3-0.3h0
				l9.2-24.7C213,361,204.8,357.2,195.1,355.4z M204.2,377.9c-2.7,0-4.9-2.2-4.9-4.9c0-2.7,2.2-4.9,4.9-4.9c2.7,0,4.9,2.2,4.9,4.9
				C209.1,375.7,206.9,377.9,204.2,377.9z"/>
			<path class="st8" d="M290.5,492.4c1.3,14.6,4.4,37.1-32.7,42c-37.1,4.9-33.2-16.3-57.9-0.4c-24.8,15.9-54.4-7.5-32.3-47.8
				c12.6-22.9,29.1-63.7,40.9-94.7l1-2.7v0"/>
			<path class="st9" d="M218.7,364.2l1.2-3.2c2.4-6.6,3.8-10.6,3.8-10.6"/>
			<path class="st8" d="M219.7,516.7c0,0,28.3-7.5,44.2,3.5"/>
			<path class="st10" d="M254.2,522.5c0,0,0,0.1,0,0.2c0,0.1,0,0.1-0.1,0.2c0,0,0,0,0,0.1c0,0.1-0.1,0.1-0.1,0.2
				c-0.1,0.1-0.2,0.2-0.4,0.4c-0.2,0.2-0.5,0.3-0.8,0.4c-0.2,0.1-0.3,0.1-0.5,0.2c-0.2,0.1-0.4,0.1-0.6,0.2
				c-0.8,0.2-1.8,0.5-2.9,0.7c-0.4,0.1-0.8,0.1-1.1,0.2c-0.2,0-0.4,0.1-0.6,0.1c-0.6,0.1-1.3,0.1-1.9,0.2c-1.8,0.2-3.8,0.2-5.9,0.2
				c-2.1,0-4.1-0.1-5.9-0.2c-0.6,0-1.2-0.1-1.8-0.2c-0.3,0-0.5-0.1-0.8-0.1c-0.4,0-0.8-0.1-1.2-0.2c-1.1-0.2-2.1-0.4-2.9-0.7
				c-0.2-0.1-0.4-0.1-0.6-0.2c-0.2-0.1-0.3-0.1-0.5-0.2c-0.2-0.1-0.3-0.1-0.4-0.2c-0.1-0.1-0.2-0.1-0.4-0.2
				c-0.1-0.1-0.3-0.2-0.4-0.3c-0.2-0.2-0.3-0.4-0.3-0.6c0-0.2,0.1-0.4,0.3-0.6c0,0,0.1-0.1,0.2-0.1c0.1-0.1,0.3-0.2,0.4-0.3
				c0.1,0,0.2-0.1,0.2-0.1c0.2-0.1,0.4-0.2,0.6-0.2c0.3-0.1,0.5-0.2,0.9-0.3c0.5-0.1,0.9-0.3,1.5-0.4c0.2,0,0.3-0.1,0.5-0.1
				c0.5-0.1,1-0.2,1.5-0.3c0.5-0.1,0.9-0.1,1.4-0.2c0.3,0,0.7-0.1,1-0.1c0.4-0.1,0.9-0.1,1.3-0.1c0.5,0,0.9-0.1,1.4-0.1
				c0.4,0,0.7,0,1.1,0c0.4,0,0.7,0,1.1,0c0.2,0,0.5,0,0.8,0c0.3,0,0.5,0,0.8,0c0.3,0,0.5,0,0.8,0c0.3,0,0.5,0,0.8,0
				c0.4,0,0.8,0,1.1,0c0.4,0,0.7,0,1.1,0c1,0,1.9,0.1,2.8,0.2c0.4,0,0.9,0.1,1.3,0.1c0.4,0.1,0.8,0.1,1.2,0.2c0.5,0.1,1,0.2,1.5,0.3
				c0.8,0.2,1.5,0.3,2.1,0.5c0.2,0.1,0.5,0.2,0.7,0.2c0.2,0.1,0.4,0.2,0.6,0.2c0.4,0.2,0.7,0.4,0.9,0.6c0.1,0,0.1,0.1,0.1,0.2
				C254.2,522.2,254.2,522.3,254.2,522.5z"/>
			<path class="st6" d="M376.7,392.2c-13.6,1.7-27.6-0.2-56.2-19.2c0,0,22.6-13.6,51.1-13.5c-2.9,3.9-4.7,8.7-4.7,13.9
				C367,381.2,370.8,388.1,376.7,392.2z"/>
			<path class="st5" d="M394.4,373.9c0,2.4-2,4.4-4.4,4.4c-2.4,0-4.4-2-4.4-4.4c0-2.4,2-4.4,4.4-4.4
				C392.4,369.5,394.4,371.5,394.4,373.9z"/>
			<path class="st6" d="M432.8,387.6c0,0-1.6-0.8-25.3,0.6c3.4-4,5.4-9.1,5.4-14.7c0-0.9,0-1.7-0.1-2.6
				C419.6,375,426.4,380.5,432.8,387.6z"/>
			<path class="st3" d="M394.4,373.9c0,2.4-2,4.4-4.4,4.4c-2.4,0-4.4-2-4.4-4.4c0-2.4,2-4.4,4.4-4.4
				C392.4,369.5,394.4,371.5,394.4,373.9z"/>
			<path class="st7" d="M412.8,370.9c-13.9-8.4-28.1-11.3-41.1-11.3c-2.9,3.9-4.7,8.7-4.7,13.9c0,7.7,3.8,14.6,9.7,18.8
				c7.9-1,15.7-3.1,26.1-3.7c1.7-0.1,3.3-0.2,4.8-0.3c3.4-4,5.4-9.1,5.4-14.7C412.9,372.6,412.9,371.8,412.8,370.9z M390,378.3
				c-2.4,0-4.4-2-4.4-4.4c0-2.4,2-4.4,4.4-4.4s4.4,2,4.4,4.4C394.4,376.4,392.4,378.3,390,378.3z"/>
			<path class="st5" d="M394.4,373.9c0,2.4-2,4.4-4.4,4.4c-2.4,0-4.4-2-4.4-4.4c0-2.4,2-4.4,4.4-4.4
				C392.4,369.5,394.4,371.5,394.4,373.9z"/>
			<path class="st11" d="M325.4,618.4c0,0-29.2,26.5-76.9,35.2c-6.4,1.1-12.2,2.1-17.6,3c-22.6,3.5-37,4.1-47.7-0.5
				c-5.9-2.5-10.7-6.5-15.2-12.5c-14.6-19.4,8.4-35.8,8.4-35.8c11.5-4.4,16.8,3.1,33.6,8.8c16.8,5.8,46-11.9,68.5-2.2
				C301.1,624.2,325.4,618.4,325.4,618.4z"/>
			<path class="st11" d="M325.4,618.4c0,0-24.3,5.8-46.9-4c-22.5-9.7-51.7,8-68.5,2.2c-16.8-5.7-22.1-13.3-33.6-8.8
				c0,0-8.3-2-14.6-11.9c-3.4-5.3-1.7-12.4,3.8-15.7c5.4-3.2,12.9-4.9,21.3,1.7c15.9,12.6,24.5,8,34.5,3.3
				C231.2,580.6,325.4,618.4,325.4,618.4z"/>
			<path class="st3" d="M335.6,781.2c-0.3,0.1-0.6,0.1-0.9,0.2c-0.4,0.1-0.8,0.1-1.1,0.2c0.4-0.1,0.8-0.1,1.1-0.2
				C335,781.3,335.3,781.2,335.6,781.2z"/>
			<path class="st3" d="M337.3,612.2v119.6h-0.5c-0.6,0-1.2,0-1.8,0c0.6,0,1.2,0,1.8,0h0.5L337.3,612.2c0-0.3-0.1-0.8-0.5-1.7
				C337.3,611.4,337.3,612,337.3,612.2z"/>
			<path class="st3" d="M231.2,659.1v9.8c0,5.3-3.9,9.7-9.1,10.3c-13.4,1.6-24.5,0.1-31.5-1.4c-4.7-1.1-8-5.3-8-10.1v-8.1
				c0-1.2,0.2-2.4,0.6-3.5c10.7,4.6,25.1,4,47.7,0.5C231.1,657.4,231.2,658.2,231.2,659.1z"/>
			<path class="st8" d="M638.9,434c0,0-7.1,6.6-9.7,7.1c-2.7,0.4,0.4,12.4,7.1,11.9s14.6,26.1,1.8,39.8c-12.8,13.7-6.2,28.7-2.7,23
				c3.5-5.7,23.9-28.7,28.3-23s25.2-13.7,21.2-28.3"/>
			<path class="st8" d="M656.6,411.1c0,0,4-12.8,15.9-14.1c11.9-1.3,9.7-18.6,17.2-15s1.8,21.2,6.6,36.3s19.9,41.1-8.4,78.3"/>
			<path class="st12" d="M334.7,781.4c-0.4,0.1-0.8,0.1-1.1,0.2C334,781.5,334.3,781.5,334.7,781.4c0.3-0.1,0.6-0.1,0.9-0.2
				C335.3,781.2,335,781.3,334.7,781.4z"/>
			<path class="st3" d="M348,612.2v166.4c-3.9,0.8-7.7,1.6-11.4,2.3c-0.3,0-0.6,0.1-0.9,0.2c-0.3,0.1-0.6,0.1-0.9,0.2
				c-0.4,0.1-0.8,0.1-1.1,0.2c-0.9,0.2-1.7,0.4-2.5,0.5c-2.4,0.5-4.7,0.9-6.9,1.4c-1.1,0.2-2.2,0.5-3.3,0.6
				c-10.8,2.1-19.3,3.7-24.3,4.5c-0.4,0.1-0.8,0.1-1.1,0.2c-2.4,0.5-3.7,0.7-3.7,0.7s0,0-0.1,0c0,0,0,0-0.1,0c0,0-0.1,0-0.1,0
				c0,0-0.1,0-0.1,0c-0.2,0-0.6,0-1.1,0.1c-0.2,0-0.5,0-0.8,0.1c-0.7,0-1.6,0.1-2.6,0.2c-0.2,0-0.4,0-0.6,0c-0.1,0-0.3,0-0.4,0
				c-0.1,0-0.2,0-0.2,0c-0.8,0-1.7,0.1-2.7,0.1c-0.5,0-1.1,0-1.7,0.1c-0.3,0-0.6,0-0.9,0c-0.3,0-0.5,0-0.8,0c-0.5,0-1,0-1.5,0
				c-0.4,0-0.8,0-1.1,0c-0.8,0-1.6,0-2.4,0.1c-0.5,0-1,0-1.5,0c-0.8,0-1.5,0-2.3,0h0c-2.9,0-5.9,0-9.2,0c-1.4,0-2.8,0-4.2-0.1
				c-0.3,0-0.6,0-0.9,0c-0.2,0-0.4,0-0.6,0c-0.5,0-1,0-1.5,0c-0.6,0-1.2,0-1.9-0.1c-2.5-0.1-5.1-0.2-7.7-0.4
				c-1.7-0.1-3.5-0.2-5.3-0.4c-1.8-0.2-3.6-0.3-5.4-0.5c-2.7-0.3-5.5-0.6-8.2-1c-4.8-0.6-9.5-1.4-14.2-2.4c-6.4-1.3-12.8-3-18.7-5.1
				c-41.1-14.6-27.8-73.6-27.8-73.6s0.3-1.8,0.5-5.3v-0.1c11.8-1.6,27.8-2.6,45.4-0.7c1.3,0.1,2.7,0.3,4.1,0.5
				c5.5,0.7,11.1,1.8,16.8,3.1c2.1,0.5,4.3,1.1,6.4,1.7c2.1,0.6,4.3,1.3,6.4,2c0.7,0.2,1.4,0.5,2.1,0.8c1.4,0.5,2.9,1.1,4.3,1.6
				c0.7,0.3,1.4,0.6,2.1,0.9c0.7,0.3,1.4,0.6,2.1,0.9c0.7,0.3,1.4,0.6,2.1,1c1.1,0.5,2.2,1,3.2,1.5c1.1,0.5,2.1,0.9,3.2,1.4
				c3.2,1.4,6.2,2.6,9.3,3.7c1,0.4,2,0.8,3,1.1c2,0.7,4,1.4,5.9,2c1.9,0.6,3.8,1.2,5.6,1.8c1.9,0.6,3.7,1.1,5.5,1.6
				c1.8,0.5,3.5,0.9,5.2,1.3c0.9,0.2,1.8,0.4,2.6,0.6c1.7,0.4,3.3,0.7,4.9,1c0,0,0,0,0.1,0c1.8,0.3,3.5,0.7,5.2,0.9
				c0.6,0.1,1.1,0.2,1.7,0.3c1.6,0.2,3.2,0.5,4.8,0.6c2.7,0.3,5.2,0.6,7.6,0.7c0.8,0.1,1.7,0.1,2.5,0.2c0.8,0,1.5,0.1,2.2,0.1
				c1.9,0.1,3.6,0.1,5.2,0.1c0.3,0,0.6,0,0.9,0c0.3,0,0.6,0,0.9,0h0.5V612.2c0-0.2,0-0.7-0.3-1.4c0-0.1-0.1-0.2-0.1-0.3
				c0-0.1-0.1-0.2-0.1-0.2c-0.1-0.1-0.2-0.3-0.3-0.5c-0.9-1.6-2.8-3.8-6.9-6.7c-25.2-18-87.7-31.6-98.5-27.9
				c-14.6,5-23.3,4.7-35.8-0.8c-0.6-0.3-1.3-0.6-1.9-0.9c-1-0.5-2-0.9-3-1.5c-0.3-0.2-0.7-0.3-1-0.5c-0.9-0.4-1.8-0.9-2.7-1.4
				c-0.9-0.5-1.8-1-2.8-1.5c-0.5-0.3-1-0.5-1.5-0.7c-0.5-0.2-1-0.4-1.5-0.5c-2.3-0.6-4.6-0.5-7.1,0.3c-12.1,4-23.5,23.9-26.8,31.2
				l-0.9-0.4l0,0c-1.4-3.9-2.9-7.8-4.6-11.9c1-1.8,2.2-3.8,3.6-5.8c0.5-0.7,0.9-1.4,1.4-2.1c0.7-1,1.5-2.1,2.3-3.2
				c5.6-7.5,13.1-15,21.6-17.8c6.4-2.1,12.6-1.5,18.5,1.7c18.2,10,24,10.8,38.6,5.8c16-5.5,82.2,10.9,108.1,29.3
				C344,600.4,348,606.1,348,612.2z"/>
		</g>
	</g>
</g>
<g id="Layer_1">
</g>
</svg>
