<?xml version="1.0" encoding="utf-8"?>
<!-- Generator: Adobe Illustrator 19.1.0, SVG Export Plug-In . SVG Version: 6.00 Build 0)  -->
<svg version="1.1" id="Layer_1" xmlns="http://www.w3.org/2000/svg" xmlns:xlink="http://www.w3.org/1999/xlink" x="0px" y="0px"
	 width="529.9px" height="260px" viewBox="-360 286 529.9 260" style="enable-background:new -360 286 529.9 260;"
	 xml:space="preserve">
<style type="text/css">
	.st0{fill:#CF0A2C;}
	.st1{fill:#FFC700;}
</style>
<g>
	<g>
		<path class="st0" d="M-157.6,534.2l-2.3,5.8h-9.2l12.8-33.2h9.4l12.5,33.2h-9.2l-2.2-5.8H-157.6z M-151.6,517.1L-151.6,517.1
			l-3.7,10.6h7.2L-151.6,517.1z"/>
		<path class="st0" d="M-123.9,503.5v16.8h0.1c1.8-2.5,4.1-3.6,7.2-3.6c5.7,0,8.5,3.8,8.5,9.5V540h-8v-11.6c0-2.6-0.4-5.4-3.6-5.4
			c-3.2,0-4.2,2.7-4.2,5.4V540h-8v-36.5H-123.9z"/>
		<path class="st0" d="M-94.8,520.2L-94.8,520.2c2-2.5,4.3-3.6,7.2-3.6c3.3,0,6.1,1.3,7.7,4.3c1.5-2.8,4.6-4.3,7.7-4.3
			c5.7,0,7.7,3.7,7.7,8.9V540h-8v-10.8c0-2.3,0.1-6.2-3.3-6.2c-3.7,0-3.8,3.5-3.8,6.2V540h-8v-10.8c0-2.5,0-6.3-3.6-6.3
			s-3.6,3.8-3.6,6.3V540h-8v-22.6h8V520.2z"/>
		<path class="st0" d="M-36.1,530h-16.9c0,3.3,1.7,5,5,5c1.7,0,2.9-0.6,3.8-2.1h7.7c-0.6,2.6-2.2,4.6-4.3,5.9
			c-2.1,1.3-4.6,1.9-7.2,1.9c-7.5,0-13.1-4.2-13.1-12c0-7.5,5.1-12.1,12.5-12.1c7.8,0,12.4,4.8,12.4,12.5V530z M-43.5,525.4
			c-0.4-2.2-2.4-3.6-4.5-3.6c-2.3,0-4.3,1.2-4.8,3.6H-43.5z"/>
		<path class="st0" d="M-15.4,537.5L-15.4,537.5c-1.5,2.2-4.3,3.3-6.9,3.3c-6.7,0-11.4-5.6-11.4-12.1s4.6-12,11.3-12
			c2.6,0,5.3,1,7,2.9v-16.2h8V540h-8V537.5z M-25.5,528.7c0,2.9,1.9,5.1,5.1,5.1s5.1-2.2,5.1-5.1c0-2.8-1.9-5.1-5.1-5.1
			S-25.5,526-25.5,528.7z"/>
		<path class="st0" d="M21.5,514.1v5.5h9.7v7.3h-9.7v5.7h10.3v7.3H12.8v-33.2h18.9v7.3H21.5z"/>
		<path class="st0" d="M44.9,540h-8v-36.5h8V540z"/>
		<path class="st0" d="M62.4,522.6v6.6H49.9v-6.6H62.4z"/>
		<path class="st0" d="M93.7,532.7v7.3H65.3L81,514.1h-13v-7.3h27.5l-15.6,25.9H93.7z"/>
		<path class="st0" d="M121.7,530h-16.9c0,3.3,1.7,5,5,5c1.7,0,2.9-0.6,3.8-2.1h7.7c-0.6,2.6-2.2,4.6-4.3,5.9
			c-2.1,1.3-4.6,1.9-7.2,1.9c-7.5,0-13.1-4.2-13.1-12c0-7.5,5.1-12.1,12.5-12.1c7.8,0,12.4,4.8,12.4,12.5V530z M114.3,525.4
			c-0.4-2.2-2.4-3.6-4.5-3.6c-2.3,0-4.3,1.2-4.8,3.6H114.3z"/>
		<path class="st0" d="M133.8,508.7c0,2.5-2,4.5-4.5,4.5c-2.5,0-4.5-2-4.5-4.5c0-2.5,2-4.5,4.5-4.5
			C131.8,504.3,133.8,506.3,133.8,508.7z M133.4,540h-8v-22.6h8V540z"/>
		<path class="st0" d="M146.7,520.3L146.7,520.3c1.9-2.7,4.2-3.7,7.3-3.7c6.1,0,8.5,3.8,8.5,9.4v14h-8v-11c0-2.2,0.4-5.9-3.6-5.9
			c-3.3,0-4.2,2.4-4.2,5.2V540h-8v-22.6h8V520.3z"/>
	</g>
	<g>
		<path class="st1" d="M160.8,426.3c-8.4,0-29,16.6-45.4,33c3.5-6.6,10.8-18.4,13.7-24.4c0.9-1.8,0.9-2.2,0.9-2.7
			c0-3.8-6.9-7.1-13.3-7.1c-3.8,0-7.5,1.1-9.3,4.2c-2.5,4.1-4.8,8.2-7,12.1c-10.2,7.6-27.1,19.7-43.5,25.3
			c2.9-11.1,12.6-28.8,12.6-34.3c0-4.4-7.5-6.2-11.7-6.2c-3.8,0-6.6,1.5-8.4,4.2c-2,2.9-4.1,7.2-6,11.4c-10,7.6-25.9,19.3-41.6,25.4
			c-4.2,1.5-9.1,2.9-13.7,2.9s-8.9-1.1-10.8-4.4c16.2-3.5,35.6-12.6,35.6-26.6c0-8.6-6.6-13.5-18.2-13.5
			c-15.7,0-35.7,12.8-40.4,28.7c-0.9,0.3-1.8,0.7-2.7,1.2c-4.4,2.2-10,4.4-16.6,6.5c-6.6,2.1-13.9,3.9-21.7,5.4
			c-7.8,1.5-16,2.6-24.6,3.3c-8.6,0.7-16.9,0.8-24.9,0.4c-5.9-0.6-9.3-2-10.3-4.2c-0.6-1.6-0.1-3.4,1.4-5.4c1.5-2,3.5-4.2,5.9-6.6
			c6.8-7,22.8-25.2,32.3-33.8c9.5-8.5,19.1-17.2,29-26.1c9.9-8.9,19.5-17.5,29-25.8c9.5-8.3,17.7-15.8,24.8-22.5
			c5.4-5.2,9.2-10.7,11.3-16.3c2.1-5.6,2.3-10.8,0.4-15.4c-1.6-4-4.6-7.2-9.1-9.7c-4.4-2.4-10.5-3.4-18.1-3
			c-19.9,0.4-38.5,1.6-55.8,3.6s-33.9,4.9-49.8,8.8c-5.6,1.6-9.9,3.7-12.7,6.3c-2.8,2.8-4.3,5.6-4.5,8.3c-0.2,2.7,0.4,5.2,1.8,7.4
			c1.2,2.2,3,3.8,5.3,4.7c2.3,0.9,4.7,0.7,7.1-0.7c2.4-1.4,5.1-2.6,8.2-3.6c14.9-3.4,29.3-6,43.3-7.8c14-1.8,29.2-3.1,45.7-3.9
			c4,0,6.5,0.9,7.5,2.7c0.8,1.2,0.8,2.6,0,4.2c-0.8,1.6-2,3.2-3.6,4.8c-8,7-16.6,14.6-25.7,22.6c-9.1,8-18.2,16.3-27.5,24.8
			c-9.3,8.5-18.5,17-27.8,25.7c-9.3,8.7-25.8,27.5-34.1,35.7c-5.8,5.8-9.9,11.5-12.2,16.9c-2.3,5.4-2.8,10.3-1.4,14.5
			c2.8,8.9,12.6,14.2,29.3,16c8.9,1,18.3,1.2,28.2,0.6c10-0.6,19.8-1.8,29.4-3.5c9.7-1.7,18.8-3.8,27.5-6.3c7.4-2.2,14.1-4.5,20-7
			c4.5,4.9,11.8,6.9,21.1,6.9c17.2,0,34.5-8.8,54.8-22.4c-1.8,4.6-3.2,9.3-3.2,12.7c0,6.6,3.1,9.7,8.6,9.7
			c11.6,0,29.6-8.8,50.4-22.3c-2.9,6.8-4.6,12.3-4.6,15.4c0,3.8,7.7,7.7,11.5,7.7c6.2,0,27.5-23.5,44.1-34.5c-2.2,6-8.2,17-8.2,27
			c0,6.6,3.1,8.6,6.2,8.6c7.3,0,16.4-5.1,17.5-8.4c1.3-4.4-1.3-7.1,5.8-21.5c5.1-10.2,7.3-15.1,7.3-21
			C169.9,430.8,165,426.3,160.8,426.3z M-8.6,436.7c2.4,0,3.8,1.8,3.8,4c0,4.6-5.3,11.5-18.6,14.2C-21.9,443.8-15.4,436.7-8.6,436.7
			z"/>
	</g>
	<path class="st1" d="M46,374c0,0,19.6,1.6,23.7,12.4c4.1,10.8-3.1,19.2-20.8,13.7s-211.6-8.9-278.5,15.7s-70.2,23.3-69.8,14.9
		c0.4-8.3,15.4-19.5,46-28.6S-116.8,371.4,46,374z"/>
	<path class="st1" d="M-238.2,402.8l6.5,124c0.2,3,0.1,5.9,0.1,8.9c-0.1,4,1,11.2,10.8,10.3c13.5-1.2,18.2-8.4,16.8-20.1
		c-1.5-11.7-7.5-123.2-10.1-134.7s-9.2-76-15-88.7c-5.7-12.6-19.1-24-32.7-10.2c-13.6,13.8-35.7,61.8-42.7,80.7
		c-7,18.9-23.3,80.4-25.3,91.8c-2,11.5-6.5,0.3-6.9-4.9c-0.4-5.2-1.3-14.3-8.7-12.7c-7.4,1.6-18.1,6.3-12.9,22.5
		c5.2,16.2,7.7,47.8,17.8,50.1c10,2.3,17.1-0.7,19.8-25.1c2.7-23.9,33.2-141.4,64.7-177.1c0.9-1,2.5-0.7,2.9,0.6
		C-250.4,328-241.2,361.5-238.2,402.8z"/>
</g>
</svg>
