<svg enable-background="new 0 0 808 215.4" viewBox="0 0 808 215.4" xmlns="http://www.w3.org/2000/svg"><g fill="#2a2a2a"><path d="m293.6 63.9h-21.2v58.1h-8.8v-58.1h-21.3v-7.5h51.4z"/><path d="m308.4 122h-8.9v-65.6h8.9z"/><path d="m389.6 56.4v65.6h-7.8v-48.2c0-.6 0-1.3.1-2.1 0-.7.1-1.5.2-2.2l-22.5 41c-.7 1.4-1.8 2.1-3.2 2.1h-1.4c-1.4 0-2.5-.7-3.2-2.1l-23-41.2c.2 1.6.3 3.1.3 4.5v48.2h-7.8v-65.6h6.5c.8 0 1.4.1 1.8.2s.8.6 1.2 1.3l22.7 40.4c.4.7.7 1.5 1.1 2.3s.7 1.6 1 2.4c.3-.8.6-1.6 1-2.5.3-.8.7-1.6 1.1-2.3l22.3-40.3c.4-.7.8-1.1 1.2-1.3s1.1-.2 1.9-.2z"/><path d="m443 114.8v7.2h-40.5v-65.6h40.5v7.2h-31.6v21.8h25.6v7h-25.6v22.4z"/><path d="m508 114.3c.9 0 1.6.3 2.1.8s.8 1.2.8 2v5h-43.8v-2.8c0-.6.1-1.2.4-1.8.2-.6.6-1.2 1.1-1.7l21-21.1c1.7-1.8 3.3-3.5 4.8-5.1 1.4-1.6 2.7-3.3 3.7-4.9s1.8-3.3 2.3-5 .8-3.5.8-5.4-.3-3.6-.9-5.1-1.4-2.6-2.5-3.6c-1-1-2.3-1.7-3.7-2.1-1.4-.5-3-.7-4.6-.7-1.7 0-3.2.2-4.6.7s-2.6 1.2-3.7 2c-1.1.9-2 1.9-2.7 3.1s-1.2 2.5-1.6 3.9c-.4 1.1-.9 1.8-1.5 2.1s-1.5.5-2.6.3l-4.3-.7c.4-3 1.3-5.6 2.5-8s2.8-4.2 4.7-5.8 4-2.7 6.4-3.5 5-1.2 7.8-1.2 5.4.4 7.8 1.2 4.5 2 6.3 3.6 3.2 3.5 4.2 5.8 1.5 4.8 1.5 7.7c0 2.4-.4 4.7-1.1 6.8s-1.7 4.1-3 6c-1.2 1.9-2.7 3.7-4.3 5.5s-3.4 3.6-5.2 5.5l-17.3 17.7c1.2-.3 2.5-.6 3.7-.8s2.5-.3 3.6-.3z"/><path d="m577.3 114.6v7.5h-37.2v-65.7h8.8v58.2z"/><path d="m623.8 114.8v7.2h-40.5v-65.6h40.5v7.2h-31.6v21.8h25.6v7h-25.6v22.4z"/><path d="m685.7 122h-6.9c-.8 0-1.4-.2-1.9-.6s-.8-.9-1.1-1.5l-6.1-15.9h-29.5l-6.1 15.9c-.2.5-.5 1-1 1.5-.5.4-1.2.6-1.9.6h-6.9l26.2-65.6h9zm-18.5-24.3-10.3-26.7c-.3-.8-.6-1.7-1-2.8-.3-1-.7-2.2-1-3.4-.6 2.5-1.3 4.5-2 6.2l-10.3 26.7z"/><path d="m739 122h-7.9c-1.6 0-2.8-.6-3.6-1.9l-17-23.4c-.5-.7-1.1-1.3-1.7-1.6s-1.5-.5-2.8-.5h-6.7v27.4h-8.8v-65.6h18.5c4.2 0 7.7.4 10.8 1.3 3 .8 5.5 2 7.5 3.6s3.4 3.5 4.4 5.8c1 2.2 1.4 4.8 1.4 7.5 0 2.3-.4 4.5-1.1 6.5s-1.8 3.8-3.2 5.4-3.1 3-5.1 4.1-4.3 2-6.8 2.6c1.1.6 2.1 1.6 2.9 2.8zm-30.3-33.8c2.6 0 4.8-.3 6.8-.9s3.6-1.5 5-2.7 2.3-2.5 3-4.1 1-3.3 1-5.3c0-3.9-1.3-6.9-3.8-8.8-2.6-2-6.4-3-11.5-3h-9.7v24.8z"/><path d="m797.3 56.4v65.6h-4.4c-.7 0-1.3-.1-1.8-.4-.5-.2-.9-.7-1.4-1.2l-38-49.5c.1.8.1 1.5.1 2.2v2.1 46.8h-7.8v-65.6h4.6c.4 0 .7 0 1 .1.3 0 .5.1.7.2s.4.3.6.5.4.5.7.8l38 49.4c-.1-.8-.1-1.6-.2-2.3s-.1-1.5-.1-2.1v-46.6z"/><path d="m242.3 142.6h565.7v2.3h-565.7z"/><path d="m301.4 163.7h-10.7v28.6h-2.2v-28.6h-10.8v-1.9h23.7z"/><path d="m325.9 190.8c1.5 0 2.8-.2 3.9-.8 1.2-.5 2.1-1.2 2.9-2.1s1.4-2 1.8-3.2.6-2.5.6-4v-18.9h2.2v18.9c0 1.7-.3 3.2-.8 4.7s-1.3 2.7-2.3 3.8-2.2 1.9-3.6 2.5-3 .9-4.8.9-3.4-.3-4.8-.9-2.6-1.5-3.6-2.5c-1-1.1-1.8-2.4-2.3-3.8-.5-1.5-.8-3-.8-4.7v-18.9h2.2v18.8c0 1.4.2 2.8.6 4s1 2.3 1.8 3.2 1.8 1.6 2.9 2.1c1.3.6 2.6.9 4.1.9z"/><path d="m374.1 163.7h-10.7v28.6h-2.2v-28.6h-10.8v-1.9h23.7z"/><path d="m412.7 177.1c0 2.4-.4 4.5-1.1 6.4s-1.7 3.6-3 4.9c-1.3 1.4-2.8 2.4-4.6 3.1s-3.8 1.1-5.9 1.1-4.1-.4-5.9-1.1-3.3-1.8-4.6-3.1-2.3-3-3-4.9-1.1-4.1-1.1-6.4.4-4.5 1.1-6.4 1.7-3.6 3-4.9c1.3-1.4 2.8-2.4 4.6-3.2s3.8-1.1 5.9-1.1 4.1.4 5.9 1.1 3.3 1.8 4.6 3.2 2.3 3 3 4.9 1.1 4 1.1 6.4zm-2.3 0c0-2.1-.3-4-.9-5.7s-1.4-3.1-2.5-4.3-2.4-2.1-3.9-2.7-3.2-.9-5-.9-3.5.3-5 .9-2.8 1.5-3.9 2.7-1.9 2.6-2.5 4.3-.9 3.6-.9 5.7.3 4 .9 5.7 1.4 3.1 2.5 4.3 2.4 2.1 3.9 2.7 3.2.9 5 .9 3.5-.3 5-.9 2.8-1.5 3.9-2.7 1.9-2.6 2.5-4.3.9-3.6.9-5.7z"/><path d="m448.9 192.3h-1.9c-.2 0-.5 0-.6-.1-.2-.1-.3-.2-.5-.4l-9.8-12.4c-.1-.2-.2-.3-.4-.4-.1-.1-.3-.2-.4-.3s-.3-.1-.5-.1-.5 0-.8 0h-4v13.8h-2.2v-30.5h7.8c3.5 0 6.1.7 7.9 2 1.8 1.4 2.6 3.4 2.6 6 0 1.2-.2 2.2-.6 3.2s-1 1.8-1.7 2.5-1.7 1.3-2.7 1.8c-1.1.5-2.3.8-3.6.9.3.2.6.5.9.9zm-13.5-15.4c1.4 0 2.6-.2 3.6-.5s2-.8 2.7-1.4 1.3-1.3 1.7-2.2.6-1.8.6-2.9c0-2.2-.7-3.8-2.1-4.8s-3.5-1.6-6.2-1.6h-5.6v13.3z"/><path d="m464.5 192.3h-2.2v-30.5h2.2z"/><path d="m505.2 161.8v30.5h-1c-.2 0-.3 0-.5-.1s-.2-.2-.4-.3l-19.8-26.5c0 .4.1.8.1 1.2v25.7h-1.9v-30.5h1.1c.2 0 .4 0 .5.1.1 0 .2.2.4.3l19.8 26.4c0-.4-.1-.8-.1-1.2v-25.6z"/><path d="m546.8 178.5v10.8c-1.5 1.1-3.2 1.9-4.9 2.5s-3.7.9-5.8.9c-2.4 0-4.6-.4-6.5-1.1s-3.6-1.8-4.9-3.1c-1.4-1.4-2.4-3-3.1-4.9s-1.1-4.1-1.1-6.4c0-2.4.4-4.5 1.1-6.4s1.7-3.6 3.1-4.9c1.3-1.4 2.9-2.4 4.8-3.1s4-1.1 6.4-1.1c1.2 0 2.2.1 3.2.2s1.9.4 2.8.7 1.6.7 2.4 1.1 1.4 1 2.1 1.6l-.6 1c-.2.3-.5.4-.9.2-.2-.1-.5-.3-.9-.6s-1-.6-1.7-1-1.6-.6-2.6-.9-2.3-.4-3.8-.4c-2 0-3.8.3-5.4 1s-3 1.5-4.1 2.7-2 2.6-2.6 4.3-.9 3.6-.9 5.7.3 4.1.9 5.8 1.5 3.2 2.7 4.4 2.6 2.1 4.2 2.7 3.5 1 5.6 1c.9 0 1.7-.1 2.5-.2s1.5-.3 2.2-.5 1.4-.5 2-.8c.7-.3 1.3-.7 2-1v-8.2h-5.8c-.2 0-.3 0-.4-.1s-.2-.2-.2-.3v-1.2z"/><path d="m604.2 187.2c.1 0 .3 0 .4.1l.9.9c-.6.7-1.3 1.3-2.1 1.8s-1.5 1-2.4 1.4-1.9.7-2.9.9c-1.1.2-2.2.3-3.5.3-2.1 0-4-.4-5.8-1.1s-3.3-1.8-4.5-3.1c-1.3-1.4-2.2-3-2.9-4.9s-1-4.1-1-6.4.4-4.4 1.1-6.3 1.7-3.5 3-4.9 2.8-2.4 4.7-3.2 3.8-1.1 6-1.1c2.1 0 3.9.3 5.5 1s3.1 1.6 4.4 2.7l-.7 1c-.1.2-.3.3-.5.3s-.5-.2-.8-.5-.9-.7-1.6-1-1.5-.7-2.6-1c-1-.3-2.3-.5-3.7-.5-1.8 0-3.5.3-5.1 1-1.5.6-2.8 1.5-3.9 2.7s-2 2.6-2.6 4.3-.9 3.6-.9 5.7.3 4.1.9 5.8 1.5 3.1 2.6 4.3 2.4 2.1 3.9 2.7 3.1.9 4.8.9c1.1 0 2.1-.1 2.9-.2s1.6-.4 2.4-.6 1.4-.6 2-1.1c.6-.4 1.2-.9 1.8-1.5.1-.1.1-.1.2-.1-.1-.3-.1-.3 0-.3z"/><path d="m637.9 190.5v1.8h-18.3v-30.5h18.3v1.8h-16.1v12.4h13.4v1.8h-13.4v12.7z"/><path d="m676.3 161.8v30.5h-1c-.2 0-.3 0-.5-.1s-.2-.2-.4-.3l-19.8-26.5c0 .4.1.8.1 1.2v25.7h-1.9v-30.5h1.1c.2 0 .3 0 .5.1.1 0 .2.2.4.3l19.8 26.4c0-.4-.1-.8-.1-1.2v-25.6z"/><path d="m713.3 163.7h-10.7v28.6h-2.2v-28.6h-10.8v-1.9h23.7z"/><path d="m745 190.5v1.8h-18.3v-30.5h18.3v1.8h-16.1v12.4h13.4v1.8h-13.4v12.7z"/><path d="m780.9 192.3h-1.9c-.2 0-.5 0-.6-.1-.2-.1-.3-.2-.5-.4l-9.8-12.4c-.1-.2-.2-.3-.4-.4-.1-.1-.3-.2-.4-.3-.2-.1-.3-.1-.5-.1s-.5 0-.8 0h-4v13.8h-2.2v-30.5h7.8c3.5 0 6.1.7 7.9 2 1.8 1.4 2.6 3.4 2.6 6 0 1.2-.2 2.2-.6 3.2s-1 1.8-1.7 2.5-1.7 1.3-2.7 1.8-2.3.8-3.6.9c.3.2.7.5.9.9zm-13.6-15.4c1.3 0 2.6-.2 3.6-.5s2-.8 2.7-1.4 1.3-1.3 1.7-2.2.6-1.8.6-2.9c0-2.2-.7-3.8-2.1-4.8s-3.5-1.6-6.2-1.6h-5.6v13.3z"/></g><path d="m9.9 155h-6.1c-2.2 0-3.9-1.8-3.8-4 .9-15.3 7-30.8 16.9-42.9 11.7-14.1 26.8-21.9 42.7-21.9 12.4 0 24.7 5 35.1 14.2 1.7 1.5 1.8 4 .2 5.5l-4.3 4.3c-1.4 1.4-3.7 1.5-5.2.2-6-5.3-14.8-10.5-25.8-10.5-11.7 0-23.1 6-32.1 16.9-8.1 9.8-13 22.2-13.8 34.6-.1 2.1-1.7 3.6-3.8 3.6z" fill="#5f8cc8"/><path d="m60.2 79.3c-21.9 0-39.7-17.8-39.7-39.6s17.8-39.7 39.7-39.7 39.6 17.8 39.6 39.6-17.7 39.7-39.6 39.7zm0-65.6c-14.3 0-25.9 11.6-25.9 25.9s11.6 25.9 25.9 25.9 25.9-11.6 25.9-25.9-11.6-25.9-25.9-25.9z" fill="#5f8cc8"/><path d="m196.1 121c-1-.3-17.1-4.5-37.4-2-7.4-7.3-16.8-11.8-26.7-11.8-9.8 0-19.3 4.3-26.9 12.1-21.6-3.2-39 1.4-40 1.6l-4.3 1.2v79.9 7.5l7.3-2c.3-.1 31.6-8.2 59.8 6.4l2.7 1.4 2.7-1.4c28.2-14.6 59.5-6.5 59.8-6.4l7.3 2v-87.4zm-64-2.2c4.1 0 8.1 1.2 11.7 3.2-4.3 1.3-8.7 2.9-13.1 4.9-3.7-1.8-7.4-3.2-11.1-4.3 3.8-2.4 8.1-3.8 12.5-3.8zm56.7 76.2c-11.6-1.8-35.1-3.4-58.2 7.5-14.6-6.9-29.3-8.8-41.2-8.8-6.9 0-12.8.6-17 1.3v-63.7c5-.9 14-2 24.7-1.1 4 .3 8.2.9 12.6 1.9 6 1.4 12.2 3.4 18.3 6.6l2.7 1.4 2.7-1.4c7-3.6 14.1-5.8 20.9-7.1 4.5-.9 8.8-1.3 12.8-1.5 9.4-.4 17.2.5 21.7 1.3z" fill="#5f8cc8"/><path d="m132.1 102.6c-15.7 0-28.4-12.7-28.4-28.4s12.7-28.4 28.4-28.4 28.4 12.7 28.4 28.4-12.8 28.4-28.4 28.4zm0-45.2c-9.3 0-16.8 7.5-16.8 16.8s7.5 16.8 16.8 16.8 16.8-7.5 16.8-16.8-7.6-16.8-16.8-16.8z" fill="#5f8cc8"/></svg>