<svg enable-background="new 0 0 175.04 46.67" viewBox="0 0 175.04 46.67" xmlns="http://www.w3.org/2000/svg"><g fill="#2a2a2a"><path d="m63.61 13.84h-4.61v12.6h-1.92v-12.6h-4.61v-1.62h11.13v1.62z"/><path d="m66.8 26.44h-1.93v-14.22h1.93z"/><path d="m84.4 12.22v14.22h-1.69v-10.45c0-.14 0-.29.02-.45.01-.16.02-.32.03-.49l-4.88 8.89c-.15.3-.38.45-.69.45h-.28c-.31 0-.54-.15-.69-.45l-4.98-8.93c.04.35.06.67.06.97v10.45h-1.7v-14.21h1.42c.17 0 .3.02.4.05.09.03.18.13.27.28l4.91 8.75c.08.16.16.32.23.5.08.17.15.35.21.53.07-.18.14-.36.21-.53s.15-.34.24-.5l4.82-8.74c.08-.15.17-.25.26-.28.1-.03.23-.05.4-.05h1.43z"/><path d="m95.97 24.87-.01 1.57h-8.76v-14.22h8.76v1.57h-6.84v4.72h5.54v1.51h-5.54v4.85z"/><path d="m110.05 24.76c.19 0 .34.06.46.17.11.11.17.26.17.44v1.07h-9.49v-.61c0-.13.03-.25.08-.39.05-.13.14-.25.25-.37l4.56-4.58c.38-.38.72-.75 1.03-1.11.31-.35.58-.71.79-1.07.22-.36.39-.72.51-1.09s.18-.76.18-1.18-.07-.78-.2-1.1c-.13-.31-.31-.57-.54-.78s-.5-.36-.81-.46-.65-.15-1-.15c-.36 0-.7.05-1 .16s-.57.25-.81.44-.43.41-.59.67-.27.54-.34.85c-.08.23-.19.39-.32.46-.14.08-.33.1-.57.06l-.92-.16c.09-.65.27-1.22.54-1.72s.61-.92 1.01-1.26c.41-.34.87-.59 1.39-.77s1.09-.26 1.7-.26c.6 0 1.16.09 1.69.27.52.18.98.44 1.36.78s.68.76.9 1.25.33 1.05.33 1.67c0 .53-.08 1.02-.24 1.47s-.37.88-.65 1.29c-.27.41-.58.81-.94 1.2-.35.39-.73.78-1.13 1.18l-3.75 3.87c.26-.07.53-.13.8-.17s.53-.06.78-.06h4.77z"/><path d="m125.07 24.82v1.62h-8.07v-14.22h1.92v12.6z"/><path d="m135.13 24.87-.01 1.57h-8.76v-14.22h8.76v1.57h-6.84v4.72h5.54v1.51h-5.54v4.85z"/><path d="m148.55 26.44h-1.49c-.17 0-.31-.04-.42-.13s-.19-.2-.24-.33l-1.33-3.43h-6.38l-1.33 3.43c-.04.12-.12.23-.23.32s-.25.14-.42.14h-1.49l5.69-14.22h1.94zm-4.01-5.28-2.23-5.79c-.07-.17-.14-.37-.21-.6s-.14-.47-.21-.73c-.14.54-.28.98-.43 1.34l-2.23 5.78z"/><path d="m160.1 26.44h-1.71c-.35 0-.61-.14-.77-.41l-3.69-5.08c-.11-.16-.23-.27-.36-.34s-.33-.1-.6-.1h-1.46v5.93h-1.92v-14.22h4.02c.9 0 1.68.09 2.33.27s1.2.44 1.62.79c.43.34.74.76.95 1.25s.31 1.03.31 1.63c0 .5-.08.97-.24 1.41s-.39.83-.69 1.18-.67.64-1.1.89c-.43.24-.92.43-1.47.56.24.14.46.34.64.61zm-6.57-7.33c.56 0 1.05-.07 1.47-.2s.78-.33 1.07-.58.5-.54.65-.89c.15-.34.22-.72.22-1.14 0-.85-.28-1.49-.83-1.92-.56-.43-1.39-.65-2.5-.65h-2.1v5.37h2.02z"/><path d="m172.71 12.22v14.22h-.96c-.15 0-.28-.03-.38-.08s-.2-.14-.3-.27l-8.23-10.72c.01.17.02.33.03.49s.01.31.01.45v10.13h-1.69v-14.22h.99c.09 0 .16 0 .22.01s.11.03.16.05.09.06.14.1.1.1.15.16l8.23 10.71c-.01-.17-.02-.34-.03-.5s-.02-.32-.02-.46v-10.07z"/><path d="m52.5 30.9h122.54v.5h-122.54z"/><path d="m65.28 35.47h-2.32v6.2h-.48v-6.2h-2.33v-.41h5.14v.41z"/><path d="m70.59 41.33c.32 0 .6-.06.85-.17s.46-.26.64-.46c.17-.2.31-.43.4-.69s.14-.55.14-.86v-4.09h.48v4.09c0 .36-.06.7-.17 1.02s-.28.59-.5.83-.48.42-.79.55-.66.2-1.04.2-.73-.07-1.04-.2-.57-.32-.79-.55-.38-.51-.5-.83-.17-.66-.17-1.02v-4.09h.48v4.08c0 .31.05.6.14.86.09.27.22.5.4.69.17.2.38.35.64.46.23.12.51.18.83.18z"/><path d="m81.03 35.47h-2.32v6.2h-.48v-6.2h-2.33v-.41h5.14v.41z"/><path d="m89.4 38.36c0 .51-.08.97-.23 1.39s-.37.77-.64 1.06c-.28.29-.61.52-1 .68s-.81.24-1.28.24-.89-.08-1.28-.24-.72-.39-.99-.68c-.28-.29-.49-.65-.64-1.06-.15-.42-.23-.88-.23-1.39s.08-.97.23-1.38c.15-.42.37-.77.64-1.06.28-.29.61-.52.99-.68.39-.16.81-.24 1.28-.24s.89.08 1.28.24.72.39 1 .68c.28.3.49.65.64 1.07.15.4.23.87.23 1.37zm-.5 0c0-.46-.06-.88-.19-1.24-.13-.37-.31-.68-.54-.93s-.51-.45-.84-.59-.69-.2-1.08-.2-.75.07-1.08.2c-.33.14-.61.33-.84.59-.24.26-.42.57-.55.93-.13.37-.19.78-.19 1.24s.06.88.19 1.24c.13.37.31.68.55.93.23.26.52.45.84.58.33.13.69.2 1.08.2.4 0 .76-.07 1.08-.2.33-.13.61-.33.84-.58s.41-.57.54-.93.19-.77.19-1.24z"/><path d="m97.25 41.67h-.41c-.05 0-.1-.01-.13-.03-.04-.02-.07-.05-.1-.1l-2.12-2.68c-.03-.03-.05-.06-.08-.09s-.06-.04-.09-.06c-.03-.01-.07-.02-.12-.03s-.1-.01-.17-.01h-.86v2.99h-.47v-6.61h1.69c.76 0 1.33.15 1.71.44s.57.73.57 1.3c0 .25-.04.48-.13.69s-.21.39-.38.55-.36.29-.59.39-.49.17-.78.2c.07.05.14.11.2.19zm-2.93-3.34c.29 0 .56-.04.79-.1.23-.07.43-.17.59-.3s.28-.29.37-.47.13-.39.13-.62c0-.47-.15-.82-.46-1.05s-.75-.34-1.34-.34h-1.21v2.89h1.13z"/><path d="m100.62 41.67h-.48v-6.61h.48z"/><path d="m109.45 35.06v6.61h-.22c-.04 0-.07-.01-.1-.02s-.05-.04-.08-.07l-4.29-5.73c.01.09.01.18.01.27v5.56h-.42v-6.61h.24c.04 0 .08.01.1.02s.05.04.08.07l4.28 5.72c-.01-.09-.01-.18-.01-.27v-5.54h.41z"/><path d="m118.45 38.67v2.35c-.33.23-.68.41-1.06.54-.37.12-.79.19-1.26.19-.52 0-.99-.08-1.41-.24s-.77-.39-1.07-.68c-.29-.29-.52-.65-.68-1.07s-.24-.88-.24-1.39.08-.97.23-1.39.38-.77.66-1.06c.29-.29.64-.52 1.04-.68.41-.16.87-.24 1.38-.24.25 0 .48.02.7.05.21.03.41.08.6.15s.35.15.51.25.31.21.46.34l-.13.21c-.04.07-.11.09-.2.05-.05-.02-.11-.06-.2-.13s-.21-.14-.36-.21-.34-.14-.57-.2-.5-.09-.82-.09c-.43 0-.82.07-1.17.21s-.64.33-.89.59c-.24.26-.43.57-.56.93s-.2.78-.2 1.24.07.88.2 1.25.32.69.57.94c.25.26.55.46.91.59.36.14.76.21 1.21.21.2 0 .38-.01.54-.04s.33-.06.48-.11c.15-.04.3-.1.44-.17s.29-.14.43-.23v-1.78h-1.27c-.03 0-.06-.01-.09-.03-.02-.02-.04-.05-.04-.07v-.26h1.86z"/><path d="m130.89 40.56c.03 0 .06.01.08.03l.19.2c-.14.15-.29.28-.45.39-.16.12-.34.22-.53.3s-.4.15-.63.19c-.23.05-.48.07-.75.07-.46 0-.88-.08-1.26-.24s-.71-.39-.98-.68-.49-.65-.64-1.07-.23-.88-.23-1.39c0-.5.08-.96.23-1.37s.37-.77.65-1.07.62-.53 1.01-.69.83-.25 1.3-.25c.45 0 .85.07 1.2.21s.67.34.95.59l-.13.22c-.03.04-.06.06-.12.06-.04 0-.1-.03-.18-.1s-.2-.14-.35-.23-.34-.16-.56-.23-.49-.1-.8-.1c-.4 0-.76.07-1.1.21-.33.14-.62.33-.85.59s-.42.57-.56.93-.2.78-.2 1.24c0 .47.07.88.2 1.25.14.37.32.68.56.93s.52.45.84.58c.32.14.67.2 1.04.2.24 0 .45-.02.63-.05s.36-.08.51-.14c.16-.06.3-.14.43-.23s.27-.2.4-.32c.02-.01.03-.02.05-.03s.04 0 .05 0z"/><path d="m138.18 41.27-.01.4h-3.96v-6.61h3.96v.4h-3.48v2.67h2.9v.39h-2.9v2.76h3.49z"/><path d="m146.5 35.06v6.61h-.22c-.04 0-.07-.01-.1-.02s-.05-.04-.08-.07l-4.29-5.73c.01.09.01.18.01.27v5.56h-.42v-6.61h.24c.04 0 .08.01.1.02s.05.04.08.07l4.28 5.72c-.01-.09-.01-.18-.01-.27v-5.54h.41z"/><path d="m154.53 35.47h-2.32v6.2h-.48v-6.2h-2.33v-.41h5.14v.41z"/><path d="m161.38 41.27-.01.4h-3.96v-6.61h3.96v.4h-3.48v2.67h2.9v.39h-2.9v2.76h3.49z"/><path d="m169.16 41.67h-.41c-.05 0-.1-.01-.13-.03-.04-.02-.07-.05-.1-.1l-2.12-2.68c-.03-.03-.05-.06-.08-.09s-.06-.04-.09-.06c-.03-.01-.07-.02-.12-.03s-.1-.01-.17-.01h-.86v2.99h-.48v-6.61h1.69c.76 0 1.33.15 1.71.44s.57.73.57 1.3c0 .25-.04.48-.13.69s-.21.39-.38.55-.36.29-.59.39-.49.17-.78.2c.07.05.14.11.2.19zm-2.93-3.34c.29 0 .56-.04.79-.1.23-.07.43-.17.59-.3s.28-.29.37-.47.13-.39.13-.62c0-.47-.15-.82-.46-1.05s-.75-.34-1.34-.34h-1.21v2.89h1.13z"/></g><path d="m2.15 33.59h-1.33c-.47 0-.85-.39-.82-.86.19-3.32 1.51-6.67 3.67-9.29 2.52-3.06 5.8-4.75 9.24-4.75 2.68 0 5.35 1.09 7.6 3.08.36.32.38.86.04 1.2l-.94.94c-.31.31-.8.32-1.12.03-1.3-1.14-3.2-2.28-5.58-2.28-2.53 0-5 1.3-6.94 3.67-1.75 2.13-2.82 4.82-2.99 7.49-.04.43-.39.77-.83.77z" fill="#5f8cc8"/><path d="m13.04 17.18c-4.74 0-8.59-3.85-8.59-8.59s3.85-8.59 8.59-8.59 8.59 3.85 8.59 8.59-3.85 8.59-8.59 8.59zm0-14.21c-3.1 0-5.62 2.52-5.62 5.62s2.52 5.62 5.62 5.62 5.62-2.52 5.62-5.62-2.52-5.62-5.62-5.62z" fill="#5f8cc8"/><path d="m42.49 26.22c-.21-.06-3.69-.97-8.1-.43-1.59-1.57-3.63-2.55-5.79-2.55-2.13 0-4.17.93-5.83 2.63-4.67-.7-8.44.29-8.66.35l-.93.25v17.3 1.64l1.58-.42c.07-.02 6.84-1.77 12.96 1.39l.58.3.58-.3c6.12-3.16 12.89-1.41 12.95-1.39l1.59.43v-18.95zm-13.88-.47c.88 0 1.74.25 2.54.7-.94.27-1.89.62-2.84 1.07-.8-.38-1.61-.69-2.41-.94.84-.53 1.77-.83 2.71-.83zm12.29 16.49c-2.51-.39-7.61-.74-12.6 1.61-3.15-1.49-6.35-1.9-8.91-1.9-1.49 0-2.77.14-3.69.28v-13.78c1.09-.19 3.04-.43 5.34-.25.87.07 1.78.19 2.72.4 1.3.29 2.65.74 3.97 1.43l.58.3.58-.3c1.51-.78 3.06-1.26 4.54-1.54.97-.19 1.91-.28 2.78-.32 2.02-.1 3.72.11 4.71.29v13.78z" fill="#5f8cc8"/><path d="m28.61 22.23c-3.39 0-6.15-2.76-6.15-6.15s2.76-6.15 6.15-6.15 6.15 2.76 6.15 6.15-2.76 6.15-6.15 6.15zm0-9.78c-2.01 0-3.64 1.63-3.64 3.64s1.63 3.64 3.64 3.64 3.64-1.63 3.64-3.64-1.64-3.64-3.64-3.64z" fill="#5f8cc8"/></svg>