<?xml version="1.0" encoding="utf-8"?>
<!-- Generator: Adobe Illustrator 23.0.1, SVG Export Plug-In . SVG Version: 6.00 Build 0)  -->
<svg version="1.1" id="Layer_1" xmlns="http://www.w3.org/2000/svg" xmlns:xlink="http://www.w3.org/1999/xlink" x="0px" y="0px"
	 viewBox="0 0 808 215.4" style="enable-background:new 0 0 808 215.4;" xml:space="preserve">
<style type="text/css">
	.st0{fill:#2A2A2A;}
	.st1{fill:#5F8CC8;}
</style>
<g>
	<g>
		<path class="st0" d="M293.6,63.9h-21.2V122h-8.8V63.9h-21.3v-7.5h51.4L293.6,63.9L293.6,63.9z"/>
		<path class="st0" d="M308.4,122h-8.9V56.4h8.9V122z"/>
		<path class="st0" d="M389.6,56.4V122h-7.8V73.8c0-0.6,0-1.3,0.1-2.1c0-0.7,0.1-1.5,0.2-2.2l-22.5,41c-0.7,1.4-1.8,2.1-3.2,2.1H355
			c-1.4,0-2.5-0.7-3.2-2.1l-23-41.2c0.2,1.6,0.3,3.1,0.3,4.5V122h-7.8V56.4h6.5c0.8,0,1.4,0.1,1.8,0.2c0.4,0.1,0.8,0.6,1.2,1.3
			l22.7,40.4c0.4,0.7,0.7,1.5,1.1,2.3c0.4,0.8,0.7,1.6,1,2.4c0.3-0.8,0.6-1.6,1-2.5c0.3-0.8,0.7-1.6,1.1-2.3L380,57.9
			c0.4-0.7,0.8-1.1,1.2-1.3s1.1-0.2,1.9-0.2L389.6,56.4L389.6,56.4z"/>
		<path class="st0" d="M443,114.8l0,7.2h-40.5V56.4H443v7.2h-31.6v21.8H437v7h-25.6v22.4L443,114.8L443,114.8z"/>
		<path class="st0" d="M508,114.3c0.9,0,1.6,0.3,2.1,0.8s0.8,1.2,0.8,2v5h-43.8v-2.8c0-0.6,0.1-1.2,0.4-1.8c0.2-0.6,0.6-1.2,1.1-1.7
			l21-21.1c1.7-1.8,3.3-3.5,4.8-5.1c1.4-1.6,2.7-3.3,3.7-4.9c1-1.6,1.8-3.3,2.3-5c0.5-1.7,0.8-3.5,0.8-5.4c0-1.9-0.3-3.6-0.9-5.1
			c-0.6-1.5-1.4-2.6-2.5-3.6c-1-1-2.3-1.7-3.7-2.1c-1.4-0.5-3-0.7-4.6-0.7c-1.7,0-3.2,0.2-4.6,0.7c-1.4,0.5-2.6,1.2-3.7,2
			c-1.1,0.9-2,1.9-2.7,3.1c-0.7,1.2-1.2,2.5-1.6,3.9c-0.4,1.1-0.9,1.8-1.5,2.1s-1.5,0.5-2.6,0.3l-4.3-0.7c0.4-3,1.3-5.6,2.5-8
			s2.8-4.2,4.7-5.8c1.9-1.6,4-2.7,6.4-3.5s5-1.2,7.8-1.2c2.8,0,5.4,0.4,7.8,1.2c2.4,0.8,4.5,2,6.3,3.6c1.8,1.6,3.2,3.5,4.2,5.8
			s1.5,4.8,1.5,7.7c0,2.4-0.4,4.7-1.1,6.8s-1.7,4.1-3,6c-1.2,1.9-2.7,3.7-4.3,5.5c-1.6,1.8-3.4,3.6-5.2,5.5l-17.3,17.7
			c1.2-0.3,2.5-0.6,3.7-0.8c1.2-0.2,2.5-0.3,3.6-0.3L508,114.3L508,114.3z"/>
		<path class="st0" d="M577.3,114.6v7.5h-37.2V56.4h8.8v58.2L577.3,114.6L577.3,114.6z"/>
		<path class="st0" d="M623.8,114.8l0,7.2h-40.5V56.4h40.5v7.2h-31.6v21.8h25.6v7h-25.6v22.4L623.8,114.8L623.8,114.8z"/>
		<path class="st0" d="M685.7,122h-6.9c-0.8,0-1.4-0.2-1.9-0.6c-0.5-0.4-0.8-0.9-1.1-1.5l-6.1-15.9h-29.5l-6.1,15.9
			c-0.2,0.5-0.5,1-1,1.5c-0.5,0.4-1.2,0.6-1.9,0.6h-6.9l26.2-65.6h9L685.7,122z M667.2,97.7L656.9,71c-0.3-0.8-0.6-1.7-1-2.8
			c-0.3-1-0.7-2.2-1-3.4c-0.6,2.5-1.3,4.5-2,6.2l-10.3,26.7L667.2,97.7L667.2,97.7z"/>
		<path class="st0" d="M739,122h-7.9c-1.6,0-2.8-0.6-3.6-1.9l-17-23.4c-0.5-0.7-1.1-1.3-1.7-1.6c-0.6-0.3-1.5-0.5-2.8-0.5h-6.7V122
			h-8.8V56.4h18.5c4.2,0,7.7,0.4,10.8,1.3c3,0.8,5.5,2,7.5,3.6c2,1.6,3.4,3.5,4.4,5.8c1,2.2,1.4,4.8,1.4,7.5c0,2.3-0.4,4.5-1.1,6.5
			c-0.7,2-1.8,3.8-3.2,5.4c-1.4,1.6-3.1,3-5.1,4.1s-4.3,2-6.8,2.6c1.1,0.6,2.1,1.6,2.9,2.8L739,122z M708.7,88.2
			c2.6,0,4.8-0.3,6.8-0.9s3.6-1.5,5-2.7s2.3-2.5,3-4.1s1-3.3,1-5.3c0-3.9-1.3-6.9-3.8-8.8c-2.6-2-6.4-3-11.5-3h-9.7v24.8L708.7,88.2
			L708.7,88.2z"/>
		<path class="st0" d="M797.3,56.4V122h-4.4c-0.7,0-1.3-0.1-1.8-0.4c-0.5-0.2-0.9-0.7-1.4-1.2l-38-49.5c0.1,0.8,0.1,1.5,0.1,2.2
			c0,0.7,0,1.4,0,2.1V122h-7.8V56.4h4.6c0.4,0,0.7,0,1,0.1c0.3,0,0.5,0.1,0.7,0.2c0.2,0.1,0.4,0.3,0.6,0.5c0.2,0.2,0.4,0.5,0.7,0.8
			l38,49.4c-0.1-0.8-0.1-1.6-0.2-2.3s-0.1-1.5-0.1-2.1V56.4H797.3z"/>
	</g>
	<rect x="242.3" y="142.6" class="st0" width="565.7" height="2.3"/>
	<g>
		<path class="st0" d="M301.4,163.7h-10.7v28.6h-2.2v-28.6h-10.8v-1.9h23.7V163.7z"/>
		<path class="st0" d="M325.9,190.8c1.5,0,2.8-0.2,3.9-0.8c1.2-0.5,2.1-1.2,2.9-2.1s1.4-2,1.8-3.2c0.4-1.2,0.6-2.5,0.6-4v-18.9h2.2
			v18.9c0,1.7-0.3,3.2-0.8,4.7s-1.3,2.7-2.3,3.8c-1,1.1-2.2,1.9-3.6,2.5c-1.4,0.6-3,0.9-4.8,0.9s-3.4-0.3-4.8-0.9s-2.6-1.5-3.6-2.5
			c-1-1.1-1.8-2.4-2.3-3.8c-0.5-1.5-0.8-3-0.8-4.7v-18.9h2.2v18.8c0,1.4,0.2,2.8,0.6,4c0.4,1.2,1,2.3,1.8,3.2
			c0.8,0.9,1.8,1.6,2.9,2.1C323.1,190.5,324.4,190.8,325.9,190.8z"/>
		<path class="st0" d="M374.1,163.7h-10.7v28.6h-2.2v-28.6h-10.8v-1.9h23.7V163.7z"/>
		<path class="st0" d="M412.7,177.1c0,2.4-0.4,4.5-1.1,6.4c-0.7,1.9-1.7,3.6-3,4.9c-1.3,1.4-2.8,2.4-4.6,3.1
			c-1.8,0.7-3.8,1.1-5.9,1.1c-2.1,0-4.1-0.4-5.9-1.1c-1.8-0.7-3.3-1.8-4.6-3.1s-2.3-3-3-4.9c-0.7-1.9-1.1-4.1-1.1-6.4
			c0-2.3,0.4-4.5,1.1-6.4c0.7-1.9,1.7-3.6,3-4.9c1.3-1.4,2.8-2.4,4.6-3.2s3.8-1.1,5.9-1.1s4.1,0.4,5.9,1.1s3.3,1.8,4.6,3.2
			s2.3,3,3,4.9C412.3,172.6,412.7,174.7,412.7,177.1z M410.4,177.1c0-2.1-0.3-4-0.9-5.7c-0.6-1.7-1.4-3.1-2.5-4.3s-2.4-2.1-3.9-2.7
			c-1.5-0.6-3.2-0.9-5-0.9c-1.8,0-3.5,0.3-5,0.9s-2.8,1.5-3.9,2.7c-1.1,1.2-1.9,2.6-2.5,4.3c-0.6,1.7-0.9,3.6-0.9,5.7
			c0,2.1,0.3,4,0.9,5.7c0.6,1.7,1.4,3.1,2.5,4.3s2.4,2.1,3.9,2.7c1.5,0.6,3.2,0.9,5,0.9c1.8,0,3.5-0.3,5-0.9s2.8-1.5,3.9-2.7
			c1.1-1.2,1.9-2.6,2.5-4.3C410.1,181.1,410.4,179.2,410.4,177.1z"/>
		<path class="st0" d="M448.9,192.3H447c-0.2,0-0.5,0-0.6-0.1c-0.2-0.1-0.3-0.2-0.5-0.4l-9.8-12.4c-0.1-0.2-0.2-0.3-0.4-0.4
			c-0.1-0.1-0.3-0.2-0.4-0.3s-0.3-0.1-0.5-0.1c-0.2,0-0.5,0-0.8,0h-4v13.8h-2.2v-30.5h7.8c3.5,0,6.1,0.7,7.9,2
			c1.8,1.4,2.6,3.4,2.6,6c0,1.2-0.2,2.2-0.6,3.2s-1,1.8-1.7,2.5s-1.7,1.3-2.7,1.8c-1.1,0.5-2.3,0.8-3.6,0.9c0.3,0.2,0.6,0.5,0.9,0.9
			L448.9,192.3z M435.4,176.9c1.4,0,2.6-0.2,3.6-0.5s2-0.8,2.7-1.4c0.7-0.6,1.3-1.3,1.7-2.2c0.4-0.9,0.6-1.8,0.6-2.9
			c0-2.2-0.7-3.8-2.1-4.8c-1.4-1-3.5-1.6-6.2-1.6h-5.6v13.3L435.4,176.9L435.4,176.9z"/>
		<path class="st0" d="M464.5,192.3h-2.2v-30.5h2.2V192.3z"/>
		<path class="st0" d="M505.2,161.8v30.5h-1c-0.2,0-0.3,0-0.5-0.1s-0.2-0.2-0.4-0.3l-19.8-26.5c0,0.4,0.1,0.8,0.1,1.2v25.7h-1.9
			v-30.5h1.1c0.2,0,0.4,0,0.5,0.1c0.1,0,0.2,0.2,0.4,0.3l19.8,26.4c0-0.4-0.1-0.8-0.1-1.2v-25.6L505.2,161.8L505.2,161.8z"/>
		<path class="st0" d="M546.8,178.5v10.8c-1.5,1.1-3.2,1.9-4.9,2.5c-1.7,0.6-3.7,0.9-5.8,0.9c-2.4,0-4.6-0.4-6.5-1.1
			c-1.9-0.7-3.6-1.8-4.9-3.1c-1.4-1.4-2.4-3-3.1-4.9c-0.7-1.9-1.1-4.1-1.1-6.4c0-2.4,0.4-4.5,1.1-6.4c0.7-1.9,1.7-3.6,3.1-4.9
			c1.3-1.4,2.9-2.4,4.8-3.1c1.9-0.7,4-1.1,6.4-1.1c1.2,0,2.2,0.1,3.2,0.2s1.9,0.4,2.8,0.7s1.6,0.7,2.4,1.1s1.4,1,2.1,1.6l-0.6,1
			c-0.2,0.3-0.5,0.4-0.9,0.2c-0.2-0.1-0.5-0.3-0.9-0.6c-0.4-0.3-1-0.6-1.7-1s-1.6-0.6-2.6-0.9c-1-0.3-2.3-0.4-3.8-0.4
			c-2,0-3.8,0.3-5.4,1s-3,1.5-4.1,2.7s-2,2.6-2.6,4.3s-0.9,3.6-0.9,5.7c0,2.1,0.3,4.1,0.9,5.8s1.5,3.2,2.7,4.4
			c1.2,1.2,2.6,2.1,4.2,2.7s3.5,1,5.6,1c0.9,0,1.7-0.1,2.5-0.2c0.8-0.1,1.5-0.3,2.2-0.5s1.4-0.5,2-0.8c0.7-0.3,1.3-0.7,2-1v-8.2
			h-5.8c-0.2,0-0.3,0-0.4-0.1c-0.1-0.1-0.2-0.2-0.2-0.3v-1.2L546.8,178.5L546.8,178.5z"/>
		<path class="st0" d="M604.2,187.2c0.1,0,0.3,0,0.4,0.1l0.9,0.9c-0.6,0.7-1.3,1.3-2.1,1.8s-1.5,1-2.4,1.4s-1.9,0.7-2.9,0.9
			c-1.1,0.2-2.2,0.3-3.5,0.3c-2.1,0-4-0.4-5.8-1.1s-3.3-1.8-4.5-3.1c-1.3-1.4-2.2-3-2.9-4.9c-0.7-1.9-1-4.1-1-6.4
			c0-2.3,0.4-4.4,1.1-6.3c0.7-1.9,1.7-3.5,3-4.9c1.3-1.4,2.8-2.4,4.7-3.2s3.8-1.1,6-1.1c2.1,0,3.9,0.3,5.5,1s3.1,1.6,4.4,2.7l-0.7,1
			c-0.1,0.2-0.3,0.3-0.5,0.3c-0.2,0-0.5-0.2-0.8-0.5s-0.9-0.7-1.6-1s-1.5-0.7-2.6-1c-1-0.3-2.3-0.5-3.7-0.5c-1.8,0-3.5,0.3-5.1,1
			c-1.5,0.6-2.8,1.5-3.9,2.7s-2,2.6-2.6,4.3s-0.9,3.6-0.9,5.7c0,2.1,0.3,4.1,0.9,5.8c0.6,1.7,1.5,3.1,2.6,4.3
			c1.1,1.2,2.4,2.1,3.9,2.7c1.5,0.6,3.1,0.9,4.8,0.9c1.1,0,2.1-0.1,2.9-0.2s1.6-0.4,2.4-0.6s1.4-0.6,2-1.1c0.6-0.4,1.2-0.9,1.8-1.5
			c0.1-0.1,0.1-0.1,0.2-0.1C604.1,187.2,604.1,187.2,604.2,187.2z"/>
		<path class="st0" d="M637.9,190.5l0,1.8h-18.3v-30.5h18.3v1.8h-16.1V176h13.4v1.8h-13.4v12.7L637.9,190.5L637.9,190.5z"/>
		<path class="st0" d="M676.3,161.8v30.5h-1c-0.2,0-0.3,0-0.5-0.1s-0.2-0.2-0.4-0.3l-19.8-26.5c0,0.4,0.1,0.8,0.1,1.2v25.7h-1.9
			v-30.5h1.1c0.2,0,0.3,0,0.5,0.1c0.1,0,0.2,0.2,0.4,0.3l19.8,26.4c0-0.4-0.1-0.8-0.1-1.2v-25.6L676.3,161.8L676.3,161.8z"/>
		<path class="st0" d="M713.3,163.7h-10.7v28.6h-2.2v-28.6h-10.8v-1.9h23.7L713.3,163.7L713.3,163.7z"/>
		<path class="st0" d="M745,190.5l0,1.8h-18.3v-30.5h18.3v1.8h-16.1V176h13.4v1.8h-13.4v12.7L745,190.5L745,190.5z"/>
		<path class="st0" d="M780.9,192.3H779c-0.2,0-0.5,0-0.6-0.1c-0.2-0.1-0.3-0.2-0.5-0.4l-9.8-12.4c-0.1-0.2-0.2-0.3-0.4-0.4
			c-0.1-0.1-0.3-0.2-0.4-0.3c-0.2-0.1-0.3-0.1-0.5-0.1c-0.2,0-0.5,0-0.8,0h-4v13.8h-2.2v-30.5h7.8c3.5,0,6.1,0.7,7.9,2
			c1.8,1.4,2.6,3.4,2.6,6c0,1.2-0.2,2.2-0.6,3.2c-0.4,1-1,1.8-1.7,2.5s-1.7,1.3-2.7,1.8s-2.3,0.8-3.6,0.9c0.3,0.2,0.7,0.5,0.9,0.9
			L780.9,192.3z M767.3,176.9c1.3,0,2.6-0.2,3.6-0.5s2-0.8,2.7-1.4c0.7-0.6,1.3-1.3,1.7-2.2s0.6-1.8,0.6-2.9c0-2.2-0.7-3.8-2.1-4.8
			c-1.4-1-3.5-1.6-6.2-1.6h-5.6v13.3L767.3,176.9L767.3,176.9z"/>
	</g>
	<g>
		<path class="st1" d="M9.9,155H3.8c-2.2,0-3.9-1.8-3.8-4c0.9-15.3,7-30.8,16.9-42.9C28.6,94,43.7,86.2,59.6,86.2
			c12.4,0,24.7,5,35.1,14.2c1.7,1.5,1.8,4,0.2,5.5l-4.3,4.3c-1.4,1.4-3.7,1.5-5.2,0.2c-6-5.3-14.8-10.5-25.8-10.5
			c-11.7,0-23.1,6-32.1,16.9c-8.1,9.8-13,22.2-13.8,34.6C13.6,153.5,12,155,9.9,155z"/>
		<path class="st1" d="M60.2,79.3c-21.9,0-39.7-17.8-39.7-39.6S38.3,0,60.2,0s39.6,17.8,39.6,39.6S82.1,79.3,60.2,79.3z M60.2,13.7
			c-14.3,0-25.9,11.6-25.9,25.9c0,14.3,11.6,25.9,25.9,25.9s25.9-11.6,25.9-25.9S74.5,13.7,60.2,13.7z"/>
		<path class="st1" d="M196.1,121c-1-0.3-17.1-4.5-37.4-2c-7.4-7.3-16.8-11.8-26.7-11.8c-9.8,0-19.3,4.3-26.9,12.1
			c-21.6-3.2-39,1.4-40,1.6l-4.3,1.2v79.9l0,7.5l7.3-2c0.3-0.1,31.6-8.2,59.8,6.4l2.7,1.4l2.7-1.4c28.2-14.6,59.5-6.5,59.8-6.4
			l7.3,2v-87.4L196.1,121z M132.1,118.8c4.1,0,8.1,1.2,11.7,3.2c-4.3,1.3-8.7,2.9-13.1,4.9c-3.7-1.8-7.4-3.2-11.1-4.3
			C123.4,120.2,127.7,118.8,132.1,118.8z M188.8,195c-11.6-1.8-35.1-3.4-58.2,7.5c-14.6-6.9-29.3-8.8-41.2-8.8
			c-6.9,0-12.8,0.6-17,1.3v-63.7c5-0.9,14-2,24.7-1.1c4,0.3,8.2,0.9,12.6,1.9c6,1.4,12.2,3.4,18.3,6.6l2.7,1.4l2.7-1.4
			c7-3.6,14.1-5.8,20.9-7.1c4.5-0.9,8.8-1.3,12.8-1.5c9.4-0.4,17.2,0.5,21.7,1.3L188.8,195L188.8,195z"/>
		<path class="st1" d="M132.1,102.6c-15.7,0-28.4-12.7-28.4-28.4s12.7-28.4,28.4-28.4s28.4,12.7,28.4,28.4S147.7,102.6,132.1,102.6z
			 M132.1,57.4c-9.3,0-16.8,7.5-16.8,16.8S122.8,91,132.1,91c9.3,0,16.8-7.5,16.8-16.8S141.3,57.4,132.1,57.4z"/>
	</g>
</g>
</svg>
