<?xml version="1.0" encoding="utf-8"?>
<!-- Generator: Adobe Illustrator 23.0.1, SVG Export Plug-In . SVG Version: 6.00 Build 0)  -->
<svg version="1.1" id="Layer_1" xmlns="http://www.w3.org/2000/svg" xmlns:xlink="http://www.w3.org/1999/xlink" x="0px" y="0px"
	 viewBox="0 0 808 632" style="enable-background:new 0 0 808 632;" xml:space="preserve">
<style type="text/css">
	.st0{fill:#2A2A2A;}
	.st1{fill:#5F8CC8;}
</style>
<g>
	<g>
		<path class="st0" d="M293.62,272.15h-21.25v58.18h-8.84v-58.18h-21.3v-7.47h51.4V272.15z"/>
		<path class="st0" d="M308.37,330.33h-8.89v-65.64h8.89V330.33z"/>
		<path class="st0" d="M389.59,264.68v65.64h-7.79v-48.24c0-0.64,0.02-1.33,0.07-2.06c0.05-0.73,0.1-1.48,0.16-2.24l-22.54,41.05
			c-0.7,1.37-1.77,2.06-3.21,2.06h-1.28c-1.44,0-2.5-0.69-3.21-2.06l-23-41.23c0.18,1.62,0.27,3.11,0.27,4.49v48.24h-7.79v-65.64
			h6.55c0.79,0,1.4,0.08,1.83,0.23c0.43,0.15,0.84,0.58,1.24,1.28l22.68,40.4c0.37,0.73,0.72,1.5,1.08,2.29
			c0.35,0.8,0.68,1.6,0.98,2.43c0.3-0.82,0.63-1.64,0.96-2.45c0.34-0.81,0.7-1.58,1.1-2.31l22.26-40.36
			c0.37-0.7,0.77-1.13,1.21-1.28c0.44-0.15,1.06-0.23,1.86-0.23H389.59z"/>
		<path class="st0" d="M443.01,323.09l-0.05,7.24h-40.45v-65.64h40.45v7.24H411.4v21.8h25.56v6.96H411.4v22.4H443.01z"/>
		<path class="st0" d="M508.01,322.59c0.89,0,1.59,0.26,2.11,0.78c0.52,0.52,0.78,1.19,0.78,2.02v4.95H467.1v-2.79
			c0-0.58,0.12-1.17,0.37-1.79c0.24-0.61,0.63-1.18,1.15-1.69l21.03-21.12c1.74-1.77,3.33-3.47,4.76-5.11
			c1.44-1.63,2.66-3.27,3.66-4.92c1.01-1.65,1.79-3.32,2.34-5.02c0.55-1.69,0.82-3.5,0.82-5.43c0-1.92-0.31-3.61-0.92-5.06
			c-0.61-1.45-1.44-2.65-2.5-3.6c-1.05-0.95-2.3-1.66-3.73-2.13c-1.44-0.47-2.98-0.71-4.63-0.71c-1.68,0-3.22,0.25-4.63,0.73
			c-1.41,0.49-2.65,1.17-3.73,2.04c-1.08,0.87-1.99,1.9-2.73,3.09c-0.73,1.19-1.25,2.5-1.56,3.94c-0.37,1.07-0.86,1.78-1.49,2.13
			c-0.63,0.35-1.51,0.45-2.63,0.3l-4.26-0.73c0.43-2.99,1.26-5.64,2.5-7.95c1.24-2.31,2.79-4.24,4.67-5.79
			c1.88-1.56,4.02-2.74,6.44-3.55s5.02-1.21,7.83-1.21c2.78,0,5.38,0.41,7.79,1.24c2.41,0.82,4.51,2.02,6.28,3.6
			c1.77,1.57,3.16,3.49,4.17,5.75c1.01,2.26,1.51,4.83,1.51,7.7c0,2.44-0.37,4.71-1.1,6.8s-1.72,4.08-2.98,5.98
			c-1.25,1.9-2.7,3.74-4.33,5.54c-1.63,1.8-3.37,3.62-5.2,5.45l-17.32,17.68c1.22-0.34,2.46-0.6,3.71-0.8
			c1.25-0.2,2.46-0.3,3.62-0.3H508.01z"/>
		<path class="st0" d="M577.32,322.86v7.47h-37.24v-65.64h8.84v58.18H577.32z"/>
		<path class="st0" d="M623.77,323.09l-0.05,7.24h-40.45v-65.64h40.45v7.24h-31.56v21.8h25.56v6.96h-25.56v22.4H623.77z"/>
		<path class="st0" d="M685.7,330.33h-6.87c-0.79,0-1.44-0.2-1.92-0.6c-0.49-0.4-0.85-0.9-1.1-1.51l-6.14-15.85h-29.45l-6.14,15.85
			c-0.18,0.55-0.54,1.04-1.05,1.47c-0.52,0.43-1.16,0.64-1.92,0.64h-6.87l26.25-65.64h8.98L685.7,330.33z M667.2,305.96
			l-10.31-26.71c-0.31-0.79-0.63-1.72-0.96-2.77c-0.34-1.05-0.66-2.18-0.96-3.37c-0.64,2.47-1.3,4.54-1.97,6.18l-10.31,26.66H667.2z
			"/>
		<path class="st0" d="M739.02,330.33h-7.88c-1.62,0-2.81-0.63-3.57-1.88L710.53,305c-0.52-0.73-1.08-1.26-1.67-1.58
			c-0.6-0.32-1.52-0.48-2.77-0.48h-6.73v27.39h-8.84v-65.64h18.55c4.15,0,7.74,0.42,10.77,1.26c3.02,0.84,5.52,2.05,7.49,3.64
			c1.97,1.59,3.43,3.5,4.37,5.75c0.95,2.24,1.42,4.76,1.42,7.54c0,2.32-0.37,4.49-1.1,6.5c-0.73,2.02-1.79,3.82-3.18,5.43
			c-1.39,1.6-3.08,2.97-5.08,4.1c-2,1.13-4.27,1.99-6.8,2.57c1.13,0.64,2.11,1.57,2.93,2.79L739.02,330.33z M708.7,296.48
			c2.57,0,4.83-0.31,6.8-0.94c1.97-0.63,3.62-1.51,4.95-2.66s2.33-2.51,3-4.1c0.67-1.59,1.01-3.34,1.01-5.27
			c0-3.91-1.28-6.86-3.85-8.84c-2.57-1.98-6.41-2.98-11.54-2.98h-9.71v24.78H708.7z"/>
		<path class="st0" d="M797.25,264.68v65.64h-4.44c-0.7,0-1.29-0.12-1.76-0.37c-0.47-0.24-0.94-0.66-1.4-1.24l-37.98-49.47
			c0.06,0.76,0.11,1.51,0.14,2.24c0.03,0.73,0.05,1.42,0.05,2.06v46.77h-7.79v-65.64h4.58c0.4,0,0.73,0.02,1.01,0.07
			c0.27,0.05,0.52,0.12,0.73,0.23c0.21,0.11,0.43,0.26,0.64,0.46c0.21,0.2,0.44,0.45,0.69,0.76l37.98,49.43
			c-0.06-0.79-0.11-1.56-0.16-2.31c-0.05-0.75-0.07-1.46-0.07-2.13v-46.5H797.25z"/>
	</g>
	<rect x="242.32" y="350.92" class="st0" width="565.68" height="2.31"/>
	<g>
		<path class="st0" d="M301.36,372.01h-10.71v28.63h-2.22v-28.63h-10.78v-1.88h23.71V372.01z"/>
		<path class="st0" d="M325.85,399.06c1.47,0,2.78-0.25,3.94-0.77c1.16-0.51,2.14-1.22,2.94-2.12c0.8-0.9,1.42-1.97,1.84-3.2
			c0.42-1.23,0.64-2.55,0.64-3.98v-18.86h2.2v18.86c0,1.68-0.27,3.25-0.8,4.71c-0.53,1.46-1.3,2.73-2.3,3.82
			c-1,1.08-2.21,1.94-3.64,2.55c-1.43,0.62-3.04,0.93-4.82,0.93c-1.78,0-3.39-0.31-4.82-0.93c-1.43-0.62-2.65-1.47-3.64-2.55
			c-1-1.08-1.76-2.36-2.29-3.82c-0.53-1.46-0.8-3.03-0.8-4.71v-18.86h2.22v18.84c0,1.42,0.21,2.75,0.64,3.98
			c0.42,1.23,1.03,2.3,1.83,3.2c0.8,0.9,1.77,1.62,2.93,2.13C323.07,398.8,324.38,399.06,325.85,399.06z"/>
		<path class="st0" d="M374.05,372.01h-10.71v28.63h-2.22v-28.63h-10.78v-1.88h23.71V372.01z"/>
		<path class="st0" d="M412.68,385.37c0,2.36-0.35,4.49-1.06,6.41c-0.7,1.92-1.69,3.56-2.97,4.92c-1.28,1.36-2.82,2.41-4.6,3.15
			c-1.79,0.74-3.76,1.11-5.92,1.11c-2.15,0-4.12-0.37-5.91-1.11c-1.78-0.74-3.31-1.79-4.59-3.15c-1.28-1.36-2.27-3-2.98-4.92
			c-0.71-1.92-1.06-4.06-1.06-6.41c0-2.34,0.35-4.47,1.06-6.39c0.7-1.92,1.69-3.56,2.98-4.92c1.28-1.36,2.81-2.41,4.59-3.16
			c1.78-0.75,3.75-1.12,5.91-1.12c2.16,0,4.13,0.37,5.92,1.11c1.79,0.74,3.32,1.79,4.6,3.16c1.28,1.37,2.27,3.01,2.97,4.93
			C412.33,380.9,412.68,383.03,412.68,385.37z M410.39,385.37c0-2.13-0.29-4.04-0.88-5.74c-0.59-1.69-1.42-3.13-2.5-4.31
			c-1.08-1.18-2.37-2.08-3.88-2.71c-1.51-0.62-3.18-0.94-5-0.94c-1.81,0-3.47,0.31-4.98,0.94c-1.51,0.63-2.81,1.53-3.89,2.71
			c-1.09,1.18-1.93,2.61-2.52,4.31c-0.6,1.7-0.89,3.61-0.89,5.74c0,2.14,0.3,4.05,0.89,5.74c0.6,1.69,1.44,3.12,2.52,4.3
			c1.08,1.18,2.38,2.08,3.89,2.7c1.51,0.62,3.17,0.93,4.98,0.93c1.83,0,3.49-0.31,5-0.93c1.51-0.62,2.8-1.52,3.88-2.7
			c1.08-1.18,1.91-2.61,2.5-4.3C410.1,389.43,410.39,387.51,410.39,385.37z"/>
		<path class="st0" d="M448.94,400.63h-1.9c-0.25,0-0.45-0.04-0.62-0.12c-0.16-0.08-0.32-0.23-0.46-0.44l-9.79-12.37
			c-0.12-0.16-0.23-0.29-0.36-0.41c-0.12-0.11-0.26-0.21-0.41-0.27c-0.15-0.06-0.33-0.11-0.54-0.14c-0.21-0.03-0.46-0.04-0.77-0.04
			h-3.99v13.8h-2.22v-30.5h7.8c3.51,0,6.13,0.68,7.88,2.04c1.75,1.36,2.62,3.35,2.62,5.98c0,1.16-0.2,2.23-0.6,3.19
			c-0.4,0.96-0.98,1.81-1.74,2.53s-1.67,1.32-2.74,1.78c-1.07,0.46-2.27,0.77-3.61,0.93c0.34,0.22,0.65,0.5,0.93,0.86L448.94,400.63
			z M435.4,385.2c1.35,0,2.56-0.16,3.63-0.48c1.07-0.32,1.97-0.79,2.72-1.39c0.74-0.6,1.31-1.33,1.69-2.18
			c0.39-0.85,0.58-1.8,0.58-2.87c0-2.17-0.71-3.78-2.12-4.83c-1.42-1.05-3.48-1.58-6.2-1.58h-5.58v13.32H435.4z"/>
		<path class="st0" d="M464.48,400.63h-2.22v-30.5h2.22V400.63z"/>
		<path class="st0" d="M505.23,370.13v30.5h-1.03c-0.19,0-0.34-0.03-0.46-0.1c-0.12-0.07-0.24-0.18-0.36-0.33l-19.81-26.47
			c0.04,0.43,0.07,0.84,0.07,1.23v25.67h-1.94v-30.5h1.1c0.2,0,0.35,0.02,0.46,0.07c0.11,0.05,0.23,0.16,0.36,0.33l19.77,26.41
			c-0.04-0.43-0.06-0.84-0.06-1.23v-25.59H505.23z"/>
		<path class="st0" d="M546.79,386.79v10.84c-1.52,1.08-3.15,1.9-4.87,2.48c-1.72,0.57-3.66,0.86-5.82,0.86
			c-2.42,0-4.58-0.37-6.51-1.11c-1.92-0.74-3.57-1.79-4.92-3.15c-1.36-1.36-2.4-3-3.13-4.92c-0.73-1.93-1.09-4.07-1.09-6.42
			c0-2.36,0.36-4.5,1.07-6.41c0.71-1.92,1.73-3.56,3.06-4.91c1.33-1.36,2.93-2.41,4.82-3.15c1.88-0.74,4-1.11,6.36-1.11
			c1.16,0,2.24,0.08,3.22,0.24c0.98,0.16,1.9,0.39,2.75,0.7c0.85,0.31,1.64,0.69,2.37,1.14c0.73,0.45,1.44,0.97,2.11,1.56l-0.6,0.95
			c-0.2,0.34-0.5,0.42-0.9,0.24c-0.22-0.09-0.53-0.29-0.93-0.6c-0.4-0.32-0.96-0.65-1.66-0.99s-1.58-0.65-2.62-0.93
			c-1.04-0.27-2.31-0.41-3.8-0.41c-1.98,0-3.78,0.32-5.38,0.95c-1.6,0.63-2.97,1.54-4.1,2.72c-1.13,1.18-2,2.62-2.61,4.31
			s-0.92,3.6-0.92,5.71c0,2.14,0.3,4.07,0.92,5.78s1.49,3.16,2.65,4.35c1.16,1.19,2.56,2.11,4.21,2.74
			c1.65,0.63,3.51,0.95,5.58,0.95c0.91,0,1.74-0.06,2.51-0.17c0.77-0.11,1.5-0.28,2.2-0.49c0.7-0.21,1.37-0.47,2.03-0.78
			c0.65-0.31,1.32-0.66,1.99-1.05v-8.21h-5.84c-0.16,0-0.29-0.05-0.4-0.15c-0.11-0.1-0.16-0.21-0.16-0.34v-1.21H546.79z"/>
		<path class="st0" d="M604.21,395.5c0.14,0,0.27,0.05,0.37,0.15l0.86,0.93c-0.63,0.68-1.32,1.28-2.06,1.82
			c-0.74,0.54-1.55,1-2.44,1.38s-1.86,0.68-2.91,0.88c-1.06,0.21-2.22,0.31-3.48,0.31c-2.11,0-4.05-0.37-5.81-1.11
			c-1.76-0.74-3.28-1.79-4.54-3.15c-1.26-1.36-2.24-3-2.94-4.92c-0.7-1.93-1.05-4.07-1.05-6.42c0-2.31,0.36-4.43,1.08-6.34
			c0.72-1.91,1.72-3.55,3.02-4.93c1.29-1.37,2.85-2.43,4.66-3.19c1.81-0.76,3.81-1.13,5.99-1.13c2.08,0,3.93,0.32,5.54,0.97
			c1.61,0.65,3.07,1.56,4.4,2.74l-0.67,0.97c-0.12,0.17-0.3,0.26-0.54,0.26c-0.17,0-0.45-0.16-0.84-0.48
			c-0.39-0.32-0.93-0.66-1.62-1.04c-0.69-0.38-1.55-0.73-2.58-1.05c-1.03-0.32-2.26-0.48-3.7-0.48c-1.84,0-3.53,0.32-5.06,0.95
			c-1.53,0.63-2.84,1.54-3.94,2.72c-1.1,1.18-1.96,2.62-2.58,4.31c-0.62,1.69-0.93,3.6-0.93,5.71c0,2.15,0.31,4.08,0.94,5.78
			c0.62,1.69,1.48,3.13,2.58,4.3c1.09,1.17,2.38,2.07,3.87,2.69c1.49,0.63,3.09,0.94,4.82,0.94c1.09,0,2.07-0.07,2.92-0.21
			s1.64-0.36,2.36-0.65c0.72-0.29,1.39-0.64,2.01-1.06c0.62-0.42,1.23-0.91,1.83-1.47c0.07-0.06,0.14-0.1,0.21-0.14
			C604.07,395.52,604.14,395.5,604.21,395.5z"/>
		<path class="st0" d="M637.86,398.8l-0.04,1.83h-18.28v-30.5h18.28v1.83h-16.06v12.33h13.37v1.79h-13.37v12.72H637.86z"/>
		<path class="st0" d="M676.28,370.13v30.5h-1.03c-0.19,0-0.34-0.03-0.46-0.1s-0.24-0.18-0.36-0.33l-19.81-26.47
			c0.04,0.43,0.07,0.84,0.07,1.23v25.67h-1.94v-30.5h1.1c0.2,0,0.35,0.02,0.46,0.07c0.11,0.05,0.23,0.16,0.36,0.33l19.77,26.41
			c-0.04-0.43-0.06-0.84-0.06-1.23v-25.59H676.28z"/>
		<path class="st0" d="M713.32,372.01H702.6v28.63h-2.22v-28.63H689.6v-1.88h23.71V372.01z"/>
		<path class="st0" d="M744.96,398.8l-0.04,1.83h-18.28v-30.5h18.28v1.83h-16.06v12.33h13.37v1.79h-13.37v12.72H744.96z"/>
		<path class="st0" d="M780.88,400.63h-1.9c-0.25,0-0.45-0.04-0.62-0.12c-0.16-0.08-0.32-0.23-0.46-0.44l-9.79-12.37
			c-0.12-0.16-0.23-0.29-0.36-0.41c-0.12-0.11-0.26-0.21-0.41-0.27c-0.15-0.06-0.33-0.11-0.54-0.14c-0.21-0.03-0.46-0.04-0.77-0.04
			h-3.99v13.8h-2.22v-30.5h7.8c3.51,0,6.13,0.68,7.88,2.04c1.75,1.36,2.62,3.35,2.62,5.98c0,1.16-0.2,2.23-0.6,3.19
			c-0.4,0.96-0.98,1.81-1.74,2.53s-1.67,1.32-2.74,1.78c-1.07,0.46-2.27,0.77-3.61,0.93c0.34,0.22,0.65,0.5,0.93,0.86L780.88,400.63
			z M767.34,385.2c1.35,0,2.56-0.16,3.63-0.48c1.07-0.32,1.97-0.79,2.72-1.39c0.74-0.6,1.3-1.33,1.69-2.18
			c0.39-0.85,0.58-1.8,0.58-2.87c0-2.17-0.71-3.78-2.12-4.83c-1.42-1.05-3.48-1.58-6.2-1.58h-5.58v13.32H767.34z"/>
	</g>
	<g>
		<path class="st1" d="M9.94,363.34H3.79c-2.16,0-3.91-1.81-3.79-3.96c0.9-15.33,6.96-30.77,16.93-42.9
			c11.63-14.15,26.77-21.94,42.65-21.94c12.38,0,24.71,5.02,35.09,14.2c1.65,1.46,1.75,3.99,0.2,5.55l-4.34,4.34
			c-1.42,1.42-3.68,1.48-5.19,0.16c-6-5.26-14.76-10.54-25.76-10.54c-11.7,0-23.08,6.01-32.06,16.93
			c-8.07,9.82-13,22.25-13.81,34.58C13.59,361.76,11.95,363.34,9.94,363.34z"/>
		<path class="st1" d="M60.19,287.59c-21.87,0-39.65-17.79-39.65-39.65s17.79-39.65,39.65-39.65s39.65,17.79,39.65,39.65
			S82.06,287.59,60.19,287.59z M60.19,222c-14.3,0-25.94,11.64-25.94,25.94s11.64,25.94,25.94,25.94s25.94-11.64,25.94-25.94
			S74.5,222,60.19,222z"/>
		<path class="st1" d="M196.14,329.31c-0.98-0.26-17.05-4.48-37.37-1.99c-7.35-7.27-16.75-11.78-26.71-11.78
			c-9.83,0-19.26,4.28-26.92,12.14c-21.55-3.22-38.97,1.36-40,1.63l-4.28,1.16v79.87l0.01,7.55l7.3-1.95
			c0.32-0.08,31.56-8.17,59.8,6.4l2.67,1.37l2.66-1.37c28.25-14.58,59.5-6.49,59.79-6.4l7.32,1.97v-87.45L196.14,329.31z
			 M132.06,327.13c4.07,0,8.05,1.16,11.71,3.22c-4.34,1.26-8.74,2.87-13.12,4.94c-3.71-1.75-7.44-3.17-11.12-4.32
			C123.43,328.53,127.72,327.13,132.06,327.13z M188.82,403.28c-11.59-1.81-35.14-3.43-58.17,7.45
			c-14.56-6.88-29.32-8.75-41.15-8.75c-6.88,0-12.77,0.63-17.03,1.31v-63.66c5.02-0.88,14.02-1.98,24.65-1.15
			c4,0.31,8.22,0.9,12.55,1.87c6.01,1.35,12.22,3.44,18.31,6.58l2.67,1.37l2.66-1.37c6.97-3.6,14.12-5.82,20.95-7.11
			c4.47-0.85,8.8-1.31,12.84-1.5c9.35-0.44,17.17,0.53,21.73,1.32V403.28z"/>
		<path class="st1" d="M132.06,310.91c-15.65,0-28.39-12.74-28.39-28.39c0-15.65,12.74-28.39,28.39-28.39s28.39,12.74,28.39,28.39
			C160.45,298.17,147.72,310.91,132.06,310.91z M132.06,265.73c-9.26,0-16.79,7.53-16.79,16.79c0,9.26,7.53,16.79,16.79,16.79
			c9.26,0,16.79-7.53,16.79-16.79C148.85,273.26,141.32,265.73,132.06,265.73z"/>
	</g>
</g>
</svg>
