<svg viewBox="0 0 400 400" xmlns="http://www.w3.org/2000/svg"><circle cx="200" cy="200" fill="#16242d" r="200"/><path d="m200 21.32a178.68 178.68 0 1 1 -178.68 178.68 178.68 178.68 0 0 1 178.68-178.68m0-3.2a181.92 181.92 0 0 0 -70.8 349.46 181.92 181.92 0 0 0 141.6-335.16 180.7 180.7 0 0 0 -70.8-14.3z" fill="#fff"/><path d="m143.15 304.5a11.93 11.93 0 0 1 -8.58-3.86l-.35-.35c-2.4-2.45-4.8-4.91-7.2-7.34-3.74-3.74-7.47-5.44-12.09-5.49h-.06l-1.1.14c-5.19.45-8.46 3.83-11.93 7.4-.91.95-1.86 1.92-2.84 2.84a1.5 1.5 0 0 1 -2-2.19c.93-.87 1.85-1.82 2.74-2.73 3.69-3.81 7.52-7.76 13.8-8.31.37 0 .77-.09 1-.12a2.88 2.88 0 0 1 .38 0c5.44 0 10 2 14.3 6.37q3.61 3.66 7.22 7.36l.34.35c3.7 3.81 8.77 3.92 12.61.29 1.53-1.42 3.05-2.91 4.51-4.34 1.82-1.79 3.71-3.63 5.64-5.39 7.73-6.95 17.27-6.88 24.92.19 1.72 1.61 3.39 3.3 5 4.94 1.28 1.3 2.61 2.64 3.94 3.92 3.78 3.57 8.29 3.6 12 0 1.48-1.4 3-2.89 4.37-4.33s2.67-2.7 4-4c8.39-8.09 18.71-8.05 26.94.11l2.23 2.24c1.76 1.77 3.58 3.6 5.39 5.35 5 4.85 9.34 4.86 14.21 0 1.05-1 2.1-2.1 3.14-3.15 1.88-1.9 3.82-3.86 5.81-5.74 7.47-7.07 17.49-7 24.93.13 1.37 1.31 2.72 2.67 4 4l2.62 2.62a1.5 1.5 0 1 1 -2.11 2.13c-.89-.87-1.76-1.76-2.64-2.64-1.29-1.3-2.63-2.65-4-3.94-6.31-6.06-14.47-6.1-20.79-.11-2 1.84-3.88 3.79-5.74 5.67-1.05 1.06-2.1 2.12-3.17 3.17-6.06 6-12.25 6-18.4 0-1.83-1.76-3.66-3.61-5.43-5.39l-2.22-2.23c-7-7-15.54-7-22.74-.07-1.35 1.29-2.69 2.65-4 4s-2.92 3-4.44 4.4c-4.89 4.62-11.24 4.6-16.17-.06-1.37-1.32-2.71-2.67-4-4-1.6-1.61-3.25-3.28-4.92-4.84-6.6-6.1-14.2-6.16-20.87-.17-1.89 1.72-3.75 3.54-5.55 5.31-1.48 1.45-3 2.95-4.56 4.39a12 12 0 0 1 -8.14 3.47z" fill="#00ace0"/><path d="m143.15 330.78a11.93 11.93 0 0 1 -8.58-3.86q-3.78-3.85-7.55-7.69c-3.74-3.74-7.47-5.44-12.09-5.48h-.05l-1.11.14c-5.19.45-8.46 3.83-11.93 7.4-.91.95-1.86 1.92-2.84 2.84a1.5 1.5 0 0 1 -2-2.19c.93-.87 1.85-1.82 2.74-2.73 3.7-3.81 7.52-7.76 13.8-8.31.38 0 .77-.09 1-.12a2.69 2.69 0 0 1 .37 0c5.44 0 10 2.05 14.3 6.37l7.56 7.71c3.7 3.81 8.77 3.92 12.61.29 1.53-1.42 3-2.9 4.51-4.34 1.82-1.78 3.7-3.63 5.64-5.39 7.73-6.95 17.27-6.88 24.92.19 1.72 1.61 3.4 3.3 5 4.95 1.28 1.29 2.6 2.63 3.93 3.91 3.78 3.58 8.29 3.6 12 .05 1.49-1.4 3-2.89 4.37-4.33s2.67-2.7 4-4c8.39-8.1 18.71-8.06 26.94.11l2.22 2.23c1.76 1.77 3.58 3.61 5.4 5.36 5 4.85 9.33 4.86 14.21.05 1.05-1 2.08-2.09 3.12-3.14 1.88-1.91 3.83-3.88 5.83-5.76 7.47-7.07 17.48-7 24.93.13 1.37 1.31 2.72 2.68 4 4l2.62 2.62a1.5 1.5 0 1 1 -2.11 2.13c-.89-.87-1.76-1.76-2.64-2.64-1.29-1.3-2.63-2.65-4-3.94-6.31-6.06-14.47-6.1-20.79-.11-2 1.85-3.89 3.8-5.76 5.69-1 1.05-2.09 2.11-3.15 3.16-6.06 6-12.25 6-18.4 0-1.83-1.77-3.66-3.61-5.44-5.4l-2.21-2.22c-7-7-15.54-7-22.74-.07-1.35 1.29-2.69 2.65-4 4-1.43 1.46-2.92 3-4.44 4.41-4.89 4.62-11.24 4.6-16.17-.06-1.37-1.31-2.7-2.67-4-4-1.59-1.62-3.24-3.29-4.92-4.85-6.6-6.1-14.21-6.16-20.87-.16-1.89 1.71-3.75 3.54-5.56 5.3-1.47 1.45-3 2.95-4.55 4.39a12 12 0 0 1 -8.12 3.36z" fill="#00ace0"/><rect fill="#f39e1f" height="3.07" rx=".68" transform="matrix(-.5 .8660254 -.8660254 -.5 479.9 -112.51)" width="34.13" x="255.36" y="80.74"/><rect fill="#f39e1f" height="3.07" rx=".68" transform="matrix(-.8660254 .5 -.5 -.8660254 660.41 76.55)" width="34.13" x="302.88" y="125.22"/><rect fill="#f39e1f" height="3.07" rx=".68" transform="matrix(0 1 -1 0 266.14 -134.37)" width="34.13" x="183.19" y="64.35"/><rect fill="#f39e1f" height="3.07" rx=".68" transform="matrix(.5 .8660254 -.8660254 .5 135.29 -69.78)" width="34.13" x="111.01" y="80.74"/><rect fill="#f39e1f" height="3.07" rx=".68" transform="matrix(.8660254 .5 -.5 .8660254 74.17 -23.3)" width="34.13" x="63.49" y="125.22"/><path d="m344.87 160.31h-49.93a102.56 102.56 0 0 0 -189.88 0h-50.42a1.15 1.15 0 0 0 -1.15 1.16v.76a1.15 1.15 0 0 0 1.15 1.16h75.07a1.15 1.15 0 0 0 1.15-1.16v-.76a1.15 1.15 0 0 0 -1.15-1.16h-21.41a99.56 99.56 0 0 1 183.39 0h-21.87a1.17 1.17 0 0 0 -1.16 1.17v.74a1.16 1.16 0 0 0 1.16 1.17h75.05a1.17 1.17 0 0 0 1.17-1.17v-.74a1.18 1.18 0 0 0 -1.17-1.17z" fill="#f39e1f"/><g fill="#fff"><path d="m92 267a11.82 11.82 0 0 1 -4.29-.82v-2.74a11.1 11.1 0 0 0 3.92.82c4.22 0 5.63-2.67 5.63-8.66v-39.6h3v39.66c-.01 7.87-2.45 11.34-8.26 11.34z"/><path d="m122.9 267c-9 0-13.1-5.33-13.1-16.8v-34.2h3v34.34c0 9.47 3.33 14 10.21 14s10.29-4.44 10.29-14v-34.34h3v34c-.08 11.6-4.38 17-13.4 17z"/><path d="m149.16 216v50.1h-3v-50.1z"/><path d="m174.32 217.94c-9.32 0-14.5 8.36-14.5 23.16s5.33 23.24 14.73 23.24a20 20 0 0 0 9.32-2.51v2.73a20.61 20.61 0 0 1 -9.69 2.45c-11.18 0-17.47-9.25-17.47-25.68 0-16.65 6.14-26.05 17-26.05a18.5 18.5 0 0 1 9.4 2.36v2.82a17.54 17.54 0 0 0 -8.79-2.52z"/><path d="m189.12 216h20.06v2.73h-17v20.06h14.82v2.74h-14.84v21.83h17.09v2.74h-20.13z"/><path d="m237.89 266.12h-9.89v-50.12h8.51c7.7 0 12 4.36 12 12.21 0 6.44-2.51 10.58-7 11.69 5.92.74 9.33 5.18 9.33 12.43 0 8.83-4.66 13.79-12.95 13.79zm-1.56-47.44h-5.33v20.06h6.58c5 0 7.92-3.63 7.92-10.07s-3.25-9.99-9.17-9.99zm1.41 22.72h-6.74v22h7.1c6.14 0 9.62-3.92 9.62-11s-3.54-11-9.98-11z"/><path d="m276.89 250.43h-16.58l-4.22 15.69h-3.09l13.9-50.12h3.47l13.92 50.1h-3.19zm-.74-2.74-7.63-28.19-7.52 28.19z"/><path d="m310.55 266.12-10.8-23.83h-6.88v23.83h-3v-50.12h9.25c8.81 0 13 4.14 13 12.8 0 7.4-3.48 11.69-9.33 12.88l11.21 24.44zm-1.55-37.12c0-7-3.18-10.29-9.92-10.29h-6.21v20.87h6.59c5.99.04 9.54-3.51 9.54-10.58z"/><path d="m158.37 155.19c7.38 0 11.58-3.65 11.58-10.21 0-6-3.2-9.48-8.76-9.48a21 21 0 0 0 -10.19 2.83v-6.33a25.61 25.61 0 0 1 12-2.83c9.57 0 14.95 5.2 14.95 14.4 0 7.93-3.56 13.13-9.76 14.31v.37c7.39 1.46 11.4 7.2 11.4 16 0 12-6.84 18.78-19.05 18.78a28.81 28.81 0 0 1 -9.94-1.91v-6.48a25.49 25.49 0 0 0 9.3 1.83c7.47 0 11.67-4.47 11.67-12.31s-4.56-12.21-12.68-12.21h-3.46v-6.66z"/><path d="m199.64 193c-12.12 0-17.77-10.39-17.77-32.09s5.65-31.9 17.77-31.9c12 0 17.6 10.3 17.6 31.9s-5.65 32.09-17.6 32.09zm0-57c-6.65 0-9.75 7.93-9.75 24.79 0 17 3.1 25.16 9.57 25.16 6.66 0 9.76-7.93 9.76-24.7 0-17.09-3.1-25.2-9.58-25.2z"/><path d="m246 130.12v7.11h-17.26v16.14c2.83-.28 19.6-1.55 19.6 18.69 0 13.4-7 20.87-19.51 20.87a20.42 20.42 0 0 1 -9.29-1.91v-6.48a23.15 23.15 0 0 0 8.66 1.74c7.65 0 11.94-5 11.94-13.86 0-10.21-5.56-13.31-12.58-13.31a30.76 30.76 0 0 0 -6.38.73v-29.72z"/></g></svg>